<?xml version="1.0" encoding="utf-8"?><svg viewBox="0 0 37 37" xmlns="http://www.w3.org/2000/svg" xmlns:xlink="http://www.w3.org/1999/xlink"><style>:root>svg{display:none}:root>svg:target{display:block}</style><svg fill="none" viewBox="-1 -1 12 11" id="image-comments-close" xmlns="http://www.w3.org/2000/svg"><path d="M1 .5l8 8m0-8l-8 8" stroke="#1F1E1D" stroke-linecap="round" stroke-linejoin="round"/></svg><svg fill="none" viewBox="-1 -1 16 13" id="image-comments-white" xmlns="http://www.w3.org/2000/svg"><path d="M7 0C3.134 0 0 2.286 0 5.107c0 1.218.585 2.333 1.559 3.21C1.217 9.553.074 10.656.06 10.667a.18.18 0 00-.04.214.216.216 0 00.199.118c1.813 0 3.172-.78 3.844-1.262A9.186 9.186 0 007 10.214c3.866 0 7-2.286 7-5.107S10.866 0 7 0z" fill="#fff"/></svg><svg fill="none" viewBox="-1 -1 37 37" id="image-hotline1" xmlns="http://www.w3.org/2000/svg"><g fill="#FFCB09" clip-path="url(#cclip0_1978_35115)"><path d="M34.78 13.158l-.911-1.579a.684.684 0 10-1.184.684l.911 1.579a.266.266 0 01-.097.364l-2.411 1.392a.267.267 0 01-.364-.098l-4.85-8.4a.267.267 0 01.097-.364l2.411-1.392a.267.267 0 01.365.098l.862 1.493a.683.683 0 101.184-.684l-.863-1.493a1.636 1.636 0 00-2.232-.598l-2.41 1.392c-.367.211-.62.544-.74.919h-6.834c-.96 0-1.861.373-2.54 1.052l-.7.7a8.087 8.087 0 00-1.876-.222h-2.122a1.629 1.629 0 00-.764-1.006l-2.41-1.391a1.624 1.624 0 00-1.24-.164 1.623 1.623 0 00-.992.762l-4.85 8.4a1.624 1.624 0 00-.164 1.24c.113.421.384.774.762.992l2.41 1.392a1.624 1.624 0 001.115.19l1.973 1.974a2.443 2.443 0 00.674 2.215 2.45 2.45 0 001.603.714 2.443 2.443 0 00.706 1.998c.465.465 1.082.72 1.739.72h.053l-.001.053c0 .657.256 1.274.72 1.739.465.464 1.082.72 1.74.72l.052-.001v.053c0 .657.255 1.274.72 1.739.464.464 1.081.72 1.738.72s1.275-.256 1.74-.72l.971-.973c.286-.285.485-.623.6-.983.433.319.946.478 1.46.478a2.452 2.452 0 002.349-1.728c.396.26.858.398 1.342.398.657 0 1.274-.256 1.739-.72.345-.345.575-.775.67-1.242a2.465 2.465 0 002.514-.596 2.462 2.462 0 000-3.478l-1.595-1.595 2.912-2.913a1.63 1.63 0 001.01-.206l2.41-1.392c.378-.218.649-.57.761-.992a1.623 1.623 0 00-.163-1.24zM1.501 15.65a.266.266 0 01-.097-.364l4.85-8.4a.265.265 0 01.364-.098l2.41 1.391a.267.267 0 01.098.365l-4.85 8.4a.267.267 0 01-.364.098l-2.41-1.392zm6.136 5.215c0-.291.114-.566.32-.772l.59-.59a1.089 1.089 0 011.864.772c0 .292-.113.566-.32.773l-.59.59a1.093 1.093 0 01-1.864-.773zm3.401 3.806c-.292 0-.566-.114-.772-.32a1.085 1.085 0 01-.32-.772c0-.292.114-.566.32-.772l.972-.973a1.089 1.089 0 011.864.772c0 .292-.113.566-.32.773l-.972.972c-.206.206-.48.32-.772.32zm2.511 2.511c-.292 0-.566-.114-.772-.32a1.085 1.085 0 01-.32-.772c0-.292.114-.566.32-.772l.972-.973c.213-.212.493-.319.773-.319a1.089 1.089 0 011.092 1.092c0 .291-.114.566-.32.772l-.973.972c-.206.206-.48.32-.772.32zm4.256 1.219l-.973.972c-.206.206-.48.32-.772.32-.291 0-.566-.114-.772-.32a1.085 1.085 0 01-.32-.772c0-.292.114-.566.32-.772l.973-.973c.212-.212.492-.319.772-.319s.559.107.772.32a1.093 1.093 0 010 1.544zm10.674-4.393c-.207.206-.48.32-.773.32-.291 0-.566-.114-.772-.32l-6.524-6.525a.684.684 0 00-.967.966l5.851 5.852c.206.206.32.48.32.772 0 .292-.114.566-.32.772-.206.207-.48.32-.772.32-.292 0-.566-.113-.772-.32l-7.032-7.031a.684.684 0 00-.966.967l5.851 5.851c.206.206.32.48.32.772a1.093 1.093 0 01-1.864.772l-1.287-1.286-.006-.005a2.451 2.451 0 00-1.786-.713v-.054a2.452 2.452 0 00-2.512-2.457l.002-.055a2.456 2.456 0 00-2.694-2.447 2.441 2.441 0 00-.718-1.623 2.462 2.462 0 00-3.478 0l-.59.59c0 .001 0 .002-.002.002L5.47 17.611l4.759-8.243h2.37c.231 0 .463.013.693.037l-.781.781a2.443 2.443 0 00-.72 1.739c0 .657.255 1.274.72 1.739.48.48 1.109.72 1.739.72.63 0 1.26-.24 1.739-.72l1.845-1.845 10.645 10.644a1.093 1.093 0 010 1.544zM21.91 13.962a3.88 3.88 0 001.604-3.144.684.684 0 10-1.367 0c0 .893-.471 1.707-1.224 2.157l-2.604-2.603a.683.683 0 00-.966-.007l-2.332 2.332a1.093 1.093 0 01-1.864-.772c0-.292.113-.566.32-.772l2.663-2.664a2.21 2.21 0 011.573-.651h7.007l4.819 8.346c.01.02.023.039.036.058l-2.693 2.692-4.972-4.972z"/><path d="M31.738 9.941a.69.69 0 00.484-.2.69.69 0 00.2-.483.69.69 0 00-.2-.484.687.687 0 00-1.167.484.687.687 0 00.683.683z"/></g><defs><clipPath id="cclip0_1978_35115"><path fill="#fff" d="M0 0h35v35H0z"/></clipPath></defs></svg><svg fill="none" viewBox="-1 -1 37 37" id="image-hotline2" xmlns="http://www.w3.org/2000/svg"><g clip-path="url(#dclip0_1978_35124)" fill="#FFCB09"><path d="M22.118 22.588c5.35 0 9.704-4.353 9.704-9.704 0-5.35-4.353-9.704-9.704-9.704-5.35 0-9.704 4.353-9.704 9.704 0 5.35 4.353 9.704 9.704 9.704zm0-18.041c4.597 0 8.337 3.74 8.337 8.337 0 4.597-3.74 8.337-8.337 8.337-4.597 0-8.337-3.74-8.337-8.337 0-4.597 3.74-8.337 8.337-8.337z"/><path d="M22.016 25.969c7.16 0 12.984-5.825 12.984-12.985C35 5.824 29.175 0 22.016 0 14.856 0 9.03 5.825 9.03 12.984c0 2.718.84 5.242 2.273 7.33L9.18 22.436l-.29-.29a.684.684 0 00-.966 0L1.02 29.052A3.463 3.463 0 000 31.515c0 .93.363 1.806 1.02 2.464A3.462 3.462 0 003.486 35c.93 0 1.806-.363 2.464-1.02l6.903-6.903a.684.684 0 000-.968l-.29-.289 2.125-2.124a12.91 12.91 0 007.329 2.273zm0-24.602c6.406 0 11.617 5.212 11.617 11.617 0 6.406-5.212 11.617-11.617 11.617-6.406 0-11.617-5.211-11.617-11.617 0-6.405 5.211-11.617 11.617-11.617zM4.983 33.013c-.4.4-.932.62-1.498.62s-1.097-.22-1.497-.62a2.12 2.12 0 010-2.996l6.419-6.42.29.29 2.705 2.706-6.42 6.42zm6.613-8.16l-1.45-1.45 1.997-1.996c.444.52.93 1.006 1.45 1.45l-1.997 1.996z"/><path d="M19.777 11.086a.684.684 0 00.684-.684 1.66 1.66 0 011.848-1.646 1.657 1.657 0 01.615 3.094c-.919.514-1.49 1.464-1.49 2.48v.976a.684.684 0 101.367 0v-.976c0-.521.303-1.014.79-1.287a3.028 3.028 0 001.531-2.982 3.033 3.033 0 00-2.663-2.664 3.039 3.039 0 00-2.358.752 3.028 3.028 0 00-1.007 2.253c0 .378.306.684.683.684zM22.113 17.287a.689.689 0 00-.483.2.687.687 0 00.483 1.167.686.686 0 00.684-.683.688.688 0 00-.684-.684z"/></g><defs><clipPath id="dclip0_1978_35124"><path fill="#fff" d="M0 0h35v35H0z"/></clipPath></defs></svg><svg fill="none" viewBox="-1 -1 37 37" id="image-hotline3" xmlns="http://www.w3.org/2000/svg"><g clip-path="url(#eclip0_1978_35092)" fill="#FFCB09"><path d="M24.296 35.002a1.758 1.758 0 001.691-1.294l1.613-6.021 6.107-1.633a1.753 1.753 0 001.234-2.142L31.774 12.11l.25-.933a1.75 1.75 0 00-1.054-2.075l-1.426-5.323A1.762 1.762 0 0027.4 2.54L16.985 5.334 8.252 2.993a1.715 1.715 0 00-1.083.058L4.987.873A2.916 2.916 0 10.863 4.996l3.976 3.977L.075 26.759a1.754 1.754 0 001.234 2.145l22.533 6.038c.148.04.3.06.454.06zm9.516-10.788c.083.309-.1.627-.408.712l-5.455 1.458 3.22-12.02 2.643 9.85zM27.7 3.668a.583.583 0 01.718.415l1.244 4.647-10.423-2.793L27.7 3.668zM17.67 17.682l-2.944-.982 1.963-1.964.98 2.944v.002zm-2.374-3.2l-4.948-4.95a.583.583 0 10-.824.826l4.948 4.947-.824.826-8.248-8.248.825-.825 1.649 1.65a.583.583 0 00.825-.825L7.05 6.233l.825-.824 8.246 8.247-.825.825zM3.75 6.233l2.474-2.475.825.825-2.474 2.474-.825-.824zm-2.575-3.3a1.75 1.75 0 012.987-1.236L5.4 2.935 2.925 5.409 1.687 4.172a1.738 1.738 0 01-.512-1.237zm.027 24.132l4.59-17.14 7.442 7.441c.06.06.134.105.215.133.004 0 .008.006.013.008l3.841 1.283a1.174 1.174 0 00.992-.124l6.706 1.8a.583.583 0 10.302-1.126l-6.473-1.737a1.208 1.208 0 00-.053-.292l-1.284-3.842c0-.005-.006-.009-.008-.014a.578.578 0 00-.132-.213L8.339 4.226l22.144 5.931a.583.583 0 01.413.715l-6.035 22.53a.583.583 0 01-.715.414L1.615 27.78a.585.585 0 01-.413-.715z"/><path d="M26.964 13.727a.583.583 0 00.15-1.146l-8.294-2.223a.582.582 0 10-.303 1.126l8.296 2.223c.049.013.1.02.15.02zM26.06 17.105a.583.583 0 00.15-1.146l-5.639-1.509a.583.583 0 10-.3 1.127l5.639 1.508c.048.014.1.02.15.02zM8.063 18.342l-1.691-.453a.583.583 0 10-.303 1.126l1.691.453a.583.583 0 10.303-1.127zM24.813 23.432a.583.583 0 00-.412-.714l-12.956-3.47a.583.583 0 00-.302 1.123L24.1 23.842a.583.583 0 00.714-.41zM7.157 21.723l-1.691-.454a.583.583 0 00-.302 1.127l1.692.453a.583.583 0 00.302-1.126h-.001zM23.494 26.1l-12.955-3.472a.584.584 0 10-.303 1.126l12.956 3.471a.584.584 0 10.302-1.126z"/></g><defs><clipPath id="eclip0_1978_35092"><path fill="#fff" d="M0 0h35v35H0z"/></clipPath></defs></svg><svg fill="none" viewBox="-1 -1 37 37" id="image-hotline4" xmlns="http://www.w3.org/2000/svg"><g fill="#FFCB09"><path d="M20.964 27.685l-4.306-4.127a2.856 2.856 0 00-3.695-.246l-.02.015a.074.074 0 01-.058.015.055.055 0 01-.04-.027 14.442 14.442 0 01-2-5.16 14.434 14.434 0 01.076-5.535.05.05 0 01.024-.034.064.064 0 01.053-.006l.03.009a2.86 2.86 0 003.381-1.526l2.818-5.835a2.131 2.131 0 00-.422-2.445 5.862 5.862 0 00-9.106 1.056l-.002.001a14.35 14.35 0 00-.858 1.453l-.06.113c-.07.127-1.693 3.133-2.093 5.25-.62 3.282-.566 6.677.16 9.817.765 3.316 2.221 6.266 4.327 8.77.534.634 1.524-.197.99-.833-1.974-2.345-3.339-5.113-4.058-8.228-.685-2.967-.737-6.178-.149-9.286.362-1.917 1.942-4.844 1.96-4.875l.062-.117c.25-.465.513-.913.8-1.355l.005-.007a4.57 4.57 0 017.112-.84c.257.252.325.64.168.964L13.245 10.5a1.573 1.573 0 01-1.853.847l-.025-.007a1.348 1.348 0 00-1.712 1.015 15.711 15.711 0 00-.081 6.029 15.723 15.723 0 002.178 5.618 1.355 1.355 0 001.97.356l.018-.013a1.567 1.567 0 012.023.145l4.306 4.127c.525.504.535 1.354.19 1.958-.603 1.053-1.855 1.758-3.021 1.956a4.554 4.554 0 01-3.377-.753c-.681-.474-1.42.587-.737 1.061a5.835 5.835 0 004.33.967c1.547-.263 3.13-1.2 3.927-2.587l.015-.026c.632-1.101.504-2.611-.432-3.509z"/><path d="M23.305 6.955a6.963 6.963 0 00-6.883 7.961l-1.152 3.746a.658.658 0 00.583.835l3.574.188a6.905 6.905 0 003.878 1.18 6.963 6.963 0 006.955-6.955 6.963 6.963 0 00-6.955-6.955zm0 12.617a5.623 5.623 0 01-3.285-1.05.644.644 0 00-.342-.119l-2.93-.153.954-3.096c.112-.364-.06-.866-.06-1.244a5.668 5.668 0 015.663-5.662 5.668 5.668 0 015.662 5.662 5.669 5.669 0 01-5.662 5.662z"/><path d="M20.951 13.447a.654.654 0 00-.646.647c0 .351.295.646.646.646.341 0 .63-.278.645-.618a.652.652 0 00-.645-.675zM11.38 30.113a.654.654 0 00-.646.647c0 .351.296.646.647.646.341 0 .63-.278.645-.618a.653.653 0 00-.645-.675zM23.498 13.447a.652.652 0 00-.646.647c0 .352.294.646.646.646.341 0 .63-.278.644-.618a.652.652 0 00-.644-.675zM26.037 13.447a.654.654 0 00-.646.647c0 .351.295.646.646.646.341 0 .63-.278.645-.618a.652.652 0 00-.645-.675z"/></g></svg><svg fill="none" viewBox="-1 -1 37 37" id="image-prices1" xmlns="http://www.w3.org/2000/svg"><g fill="#FFCB09" clip-path="url(#gclip0_1953_28772)"><path d="M32.267 9.854v-1.64a.547.547 0 00-.288-.482L17.76.076a.547.547 0 00-.519 0L7.945 5.082l.519.963 9.035-4.866L31.173 8.54v1.313h1.094zM3.022 7.732a.547.547 0 00-.288.482v1.64h1.094V8.54l3.774-2.032-.518-.963-4.062 2.187zM1.64 16.964a.547.547 0 00-.546.547v1.253c0 .133.048.262.137.362a4.928 4.928 0 002.632 1.55 21.178 21.178 0 007.942 10.51l5.384 3.727a.547.547 0 00.623 0l5.384-3.727-.623-.9-5.072 3.513-5.073-3.512a20.084 20.084 0 01-7.364-9.497 4.942 4.942 0 003.95-2.186h2.638l1.473 3.928v3.729h1.094v-3.828a.548.548 0 00-.035-.192l-1.606-4.283v-1.815c0-.452.368-.82.82-.82h6.29a2.19 2.19 0 01-2.188 2.188h-1.64a.547.547 0 00-.475.818l1.737 3.04c.247.433.378.926.378 1.424v1.28h1.094v-1.28c0-.688-.18-1.369-.523-1.967l-1.27-2.222h.699c.945 0 1.798-.401 2.397-1.043a1.916 1.916 0 002.373.923l-.645 2.15 1.047.315.704-2.345h2.61a4.942 4.942 0 003.95 2.186 19.905 19.905 0 01-6.216 8.64l.685.853a21 21 0 006.732-9.607 4.928 4.928 0 002.632-1.55.547.547 0 00.137-.362V17.51a.547.547 0 00-.547-.547h-2.988l-.73-1.094.73-1.094h2.988a.547.547 0 00.547-.547v-1.253a.547.547 0 00-.137-.362 4.926 4.926 0 00-3.69-1.666c-1.645 0-3.185.83-4.094 2.188h-2.47v-.82a1.916 1.916 0 00-2.826-1.683 1.918 1.918 0 00-2.644-1.14 1.914 1.914 0 00-3.536-.924 1.916 1.916 0 00-3.024 1.558v3.008h-2.47a4.94 4.94 0 00-4.093-2.187 4.926 4.926 0 00-3.691 1.666.547.547 0 00-.137.362v1.253c0 .302.245.547.547.547h2.988l.73 1.094-.73 1.094H1.641zm21.876-2.735h2.772a.547.547 0 00.474-.273 3.843 3.843 0 013.316-1.914c1.03 0 2.016.416 2.735 1.149v.491h-2.735a.547.547 0 00-.455.244l-1.094 1.64a.547.547 0 000 .607l1.094 1.64a.547.547 0 00.455.244h2.735v.492a3.832 3.832 0 01-2.735 1.15 3.843 3.843 0 01-3.316-1.915.547.547 0 00-.474-.273h-2.772v-3.282zm-2.735-1.914a.821.821 0 011.64 0v4.375a.821.821 0 01-1.64 0v-4.375zm-2.734-1.093a.821.821 0 011.64 0v3.007h-1.64v-3.007zM15.312 9.58a.821.821 0 011.641 0v4.648h-1.64V9.581zm-2.734.547a.821.821 0 011.64 0v4.101h-.82c-.293 0-.571.067-.82.185v-4.286zm-7.201 7.686l1.094-1.64a.547.547 0 000-.607l-1.094-1.64a.547.547 0 00-.455-.244H2.188v-.492a3.831 3.831 0 012.734-1.149c1.362 0 2.633.733 3.316 1.914a.547.547 0 00.474.274h2.772v3.28H8.712a.547.547 0 00-.474.274 3.843 3.843 0 01-3.316 1.914 3.831 3.831 0 01-2.734-1.149v-.491h2.734a.547.547 0 00.455-.244z"/><path d="M21.875 23.606l.47-1.563-1.048-.315-.493 1.641a.547.547 0 00-.023.157v2.735h1.094v-2.655z"/><path d="M13.98 28.095a17.17 17.17 0 01-5.868-6.984l-.995.456a18.265 18.265 0 006.243 7.428l3.828 2.638a.547.547 0 00.62 0l3.828-2.637a18.265 18.265 0 006.241-7.43l-.994-.455a17.17 17.17 0 01-5.868 6.984l-3.517 2.423-3.518-2.423zM6.27 10.349l11.228-5.892 11.232 5.892.509-.968-11.487-6.026a.547.547 0 00-.508 0L5.762 9.38l.508.969z"/></g><defs><clipPath id="gclip0_1953_28772"><path fill="#fff" d="M0 0h35v35H0z"/></clipPath></defs></svg><svg fill="none" viewBox="-1 -1 37 37" id="image-prices2" xmlns="http://www.w3.org/2000/svg"><g fill="#FFCB09" clip-path="url(#hclip0_1953_28784)"><path d="M33.808 28.226h.063v-5.08c0-.934-.76-1.694-1.694-1.694H24.84v-1.694c0-.122-.015-.241-.04-.357l3.774-8.626a1.46 1.46 0 00-.032-1.244l-.126-.253c-.249-.5-.752-.81-1.31-.81-.36 0-.69.144-.954.372L8.573 1.915l-.221-.486A2.444 2.444 0 006.132 0h-.307a2.433 2.433 0 00-2.411 2.177l-.02-.002L1.7 13.465l-.004.804a1.124 1.124 0 00-.567.973V17.5a1.13 1.13 0 001.13 1.129v2.823a.565.565 0 01-1.13 0v-.565H0v.565c0 .933.76 1.693 1.694 1.693.933 0 1.693-.76 1.693-1.693v-2.823a1.13 1.13 0 001.13-1.129v-2.258c0-.366-.178-.688-.449-.894l1.684-5.892 7.842 18.298.013-.006-.048.238-.01 1.24h.062a3.937 3.937 0 00-1.192 2.822A3.957 3.957 0 0016.371 35h14.677A3.957 3.957 0 0035 31.048a3.937 3.937 0 00-1.192-2.822zm-8.97-3.387V22.58h7.34c.311 0 .564.253.564.564v.565h-6.774v3.387h-1.13v-1.13H23.71v1.13H16.37c-.606 0-1.18.141-1.694.386v-.33l1.502-7.506a.566.566 0 01.553-.453h6.413c.312 0 .565.253.565.564v5.08h1.129zm7.904 0v2.645a3.915 3.915 0 00-1.13-.342v-2.303h1.13zm-2.258 0v2.258h-1.13v-2.258h1.13zm-2.258 0v2.258h-1.13v-2.258h1.13zM11.076 7.422l9.075 3.698.006.006.002-.003 3.999 1.629-2.5 5.312h-4.926c-.263 0-.513.067-.738.177L11.076 7.422zm3.08 9.505l-1.336-.632.393-1.443.943 2.075zm-2.132-4.692l-.91-.413.271-.992.639 1.405zM26.799 9.79c.11-.233.491-.238.607-.006l.127.252c.044.09.047.194.007.286l-3.501 8.003a1.682 1.682 0 00-.894-.26h-.24L26.8 9.79zm-1.258.022l-.902 1.916-3.613-1.472 1.594-1.594 2.921 1.15zm-4.066-1.601L19.89 9.794l-.87-.355 1.574-1.575.88.347zm-2.025-.798l-1.564 1.564-7.49-3.051-1.15-2.533 10.204 4.02zM9.204 6.032l.78 1.716-1.098-.55.318-1.166zM2.258 17.5v-2.258h1.13V17.5h-1.13zm.703-3.387h-.138v-.522l1.33-8.867.894 2.087-2.086 7.302zm2.768-8.577L4.622 2.953a1.31 1.31 0 011.202-1.824h.308c.512 0 .98.301 1.192.767l.387.85-.014.037.037.015.643 1.414L5.73 5.536zm1.49 3.48L6.464 7.25l1.09.545-.333 1.22zM6.908 6.21l1.248-.624-.3 1.098-.948-.474zm2.445 7.782l-.92-2.149 1.34.61-.42 1.539zM8.01 10.41l.573-2.101 2.041 1.02-.55 2.018-2.064-.937zm3.13 7.752l-.76-1.773 1.102.52-.342 1.253zm-.911-3.094l.585-2.143 1.561.71-.591 2.169-1.555-.736zm1.626 4.762l.663-2.43 2.361 1.116.28.616a1.693 1.693 0 00-.088.292l-1.079 5.393-2.137-4.987zm19.193 14.04H16.371a2.826 2.826 0 01-2.823-2.823 2.826 2.826 0 012.823-2.822h14.677a2.826 2.826 0 012.823 2.822 2.826 2.826 0 01-2.823 2.823z"/><path d="M30.486 28.79c-.678 0-1.28.306-1.693.78a2.244 2.244 0 00-1.694-.78c-.678 0-1.28.306-1.694.78a2.244 2.244 0 00-1.693-.78c-.678 0-1.28.306-1.694.78a2.244 2.244 0 00-1.693-.78c-.678 0-1.28.306-1.694.78a2.243 2.243 0 00-1.693-.78 2.26 2.26 0 00-2.258 2.258 2.26 2.26 0 002.258 2.258c.678 0 1.279-.306 1.693-.78.415.474 1.016.78 1.694.78.678 0 1.279-.306 1.693-.78.415.474 1.016.78 1.694.78.678 0 1.28-.306 1.694-.78.414.474 1.015.78 1.693.78.678 0 1.28-.306 1.694-.78.414.474 1.015.78 1.693.78a2.26 2.26 0 002.258-2.258 2.26 2.26 0 00-2.258-2.258zm-13.548 3.387a1.13 1.13 0 010-2.258 1.13 1.13 0 010 2.258zm3.387 0a1.13 1.13 0 010-2.258 1.13 1.13 0 010 2.258zm3.387 0a1.13 1.13 0 010-2.258 1.13 1.13 0 010 2.258zm3.387 0a1.13 1.13 0 010-2.258 1.13 1.13 0 010 2.258zm3.387 0a1.13 1.13 0 010-2.258 1.13 1.13 0 010 2.258zM16.382 23.599l-.01 1.24h6.209v-4.516h-5.543l-.656 3.276zm1.581-2.147h3.489v2.258h-3.94l.451-2.258z"/></g><defs><clipPath id="hclip0_1953_28784"><path fill="#fff" d="M0 0h35v35H0z"/></clipPath></defs></svg><svg fill="none" viewBox="-1 -1 37 37" id="image-prices3" xmlns="http://www.w3.org/2000/svg"><g clip-path="url(#iclip0_1953_28758)" fill="#FFCB09"><path d="M30.625 25.703a2.734 2.734 0 002.688-2.274 1.637 1.637 0 001.14-1.554V20.78a1.64 1.64 0 00-1.094-1.54v-1.194h-1.093v1.194a1.64 1.64 0 00-1.094 1.54v1.094a1.64 1.64 0 001.03 1.52 1.64 1.64 0 01-1.577 1.214h-.547v-9.843h.547a.547.547 0 00.547-.547V12.03a.547.547 0 00-.16-.386L27.73 8.363a.547.547 0 00-.386-.16h-4.061a6.016 6.016 0 10-11.566 0h-4.06a.547.547 0 00-.387.16l-3.282 3.282a.547.547 0 00-.16.386v2.188a.547.547 0 00.547.547h.547v9.843h-.547a1.64 1.64 0 01-1.577-1.214 1.641 1.641 0 001.03-1.52V20.78a1.64 1.64 0 00-1.094-1.54v-1.194H1.641v1.194a1.64 1.64 0 00-1.094 1.54v1.094a1.637 1.637 0 001.14 1.554 2.735 2.735 0 002.688 2.274h.547v5.469H1.094a.547.547 0 00-.547.547v2.187a.547.547 0 00.547.547h32.812a.547.547 0 00.547-.547V31.72a.547.547 0 00-.547-.547h-3.828v-5.469h.547zm1.64-4.922a.547.547 0 011.094 0v1.094a.547.547 0 11-1.093 0V20.78zm-30.624 0a.547.547 0 011.093 0v1.094a.547.547 0 11-1.093 0V20.78zm3.28-7.11v-1.093h25.157v1.094H4.922zm22.196-4.374l2.188 2.187h-8.357a6.049 6.049 0 001.904-2.187h4.265zM17.5 1.64a4.921 4.921 0 110 9.842 4.921 4.921 0 010-9.842zM7.883 9.297h4.265a6.05 6.05 0 001.907 2.187h-8.36l2.188-2.187zm25.476 24.062H1.641v-1.093h31.718v1.093zm-22.968-9.843h14.218v1.093H10.391v-1.093zm0 2.187h14.218v1.094H10.391v-1.094zm-1.094-5.469v-1.093h16.406v1.093H9.297zm15.312 1.094v1.094H10.391v-1.094h14.218zm-14.218 6.563h14.218v3.28H10.391v-3.28zm15.312 3.28v-9.843h.547a.547.547 0 00.547-.547v-2.187a.547.547 0 00-.547-.547H8.75a.547.547 0 00-.547.547v2.187a.547.547 0 00.547.547h.547v9.844H6.016V14.766h22.968v16.406h-3.28z"/><path d="M16.953 8.75V7.656H15.54l.867-.867a1.852 1.852 0 00.547-1.32 1.64 1.64 0 10-3.281 0h1.094a.547.547 0 111.093 0 .78.78 0 01-.226.547l-1.8 1.8a.547.547 0 00.386.934h2.734zM18.047 8.203h1.64v.547h1.094v-.547h.547V7.109h-.547V4.375a.547.547 0 00-1.002-.304l-2.187 3.282a.546.546 0 00.455.85zm1.64-2.023v.93h-.618l.619-.93z"/></g><defs><clipPath id="iclip0_1953_28758"><path fill="#fff" d="M0 0h35v35H0z"/></clipPath></defs></svg><svg fill="none" viewBox="-1 -1 37 37" id="image-prices4" xmlns="http://www.w3.org/2000/svg"><g clip-path="url(#jclip0_1953_28766)"><path d="M35 14.677h-1.269l-1.89.995a2.807 2.807 0 00-.673-.277L28.79 14.8v-.27a3.965 3.965 0 001.694-3.24v-.986c0-2.193-1.719-4.029-3.83-4.093a4.23 4.23 0 00-.32.007l.617-1.444-2.99-2.988L22.2 2.933a9.548 9.548 0 00-2.113-.877L19.65 0H15.35l-.435 2.057c-.736.205-1.444.499-2.113.876l-1.762-1.147-2.987 2.987.606 1.445c-.023-.001-.045-.006-.068-.006a3.922 3.922 0 00-2.873 1.114 3.915 3.915 0 00-1.2 2.835v1.13c0 1.291.64 2.504 1.693 3.238v.271l-1.552.388-2.811-1.64H0v11.698l5.554 1.85h1.081l.135-.472 1.703 1.022c.028.925.77 1.67 1.695 1.703.032.92.772 1.66 1.693 1.693a1.757 1.757 0 001.694 1.694 1.76 1.76 0 001.755 1.7c.353 0 .699-.11.99-.306l.5.441c.313.276.717.429 1.136.429h.104c.94 0 1.704-.76 1.716-1.696a1.717 1.717 0 001.693-1.693 1.717 1.717 0 001.694-1.695 1.736 1.736 0 001.687-1.902L35 22.93v-8.253zm-5.645-4.373v.986a2.833 2.833 0 01-1.413 2.443l-.282.163.002 1.787 2.82.704-6.208 3.268v-1.521c0-.759-.306-1.454-.808-1.967l1.937-.484v-1.788l-.281-.163a2.83 2.83 0 01-1.412-2.442v-1.129c0-.77.304-1.49.857-2.026a2.784 2.784 0 012.053-.795c1.508.046 2.735 1.375 2.735 2.963zM18.35 19.21l-2.555-.817a6.971 6.971 0 00-3.618-.165l-.323.072v-.167c0-.778.528-1.454 1.282-1.643l3.234-.808v-1.788l-.282-.163a2.83 2.83 0 01-1.412-2.442v-1.129c0-.77.305-1.49.858-2.026a2.791 2.791 0 012.052-.795c1.508.046 2.736 1.375 2.736 2.963v.987a2.834 2.834 0 01-1.413 2.443l-.283.163.003 1.787 3.233.808c.754.189 1.282.865 1.282 1.643v2.115l-.14.074h-.345l-3.47-.992a3.563 3.563 0 00-.839-.12zm-6.37-10.762A6.229 6.229 0 0117.5 5.081a6.239 6.239 0 015.495 3.323 3.925 3.925 0 00-.414 1.757v1.13c0 1.291.641 2.504 1.693 3.238v.271l-2.258.566-2.258-.566v-.27a3.965 3.965 0 001.694-3.24v-.986c0-2.193-1.719-4.029-3.83-4.093a3.922 3.922 0 00-2.873 1.114 3.92 3.92 0 00-1.2 2.836v1.13c0 1.291.64 2.504 1.693 3.238v.271l-2.258.566-2.259-.566v-.27a3.965 3.965 0 001.694-3.24v-.986c0-.665-.16-1.295-.438-1.855zM9.385 5.035L11.19 3.23l1.587 1.033.304-.186a8.424 8.424 0 012.444-1.014l.348-.083.392-1.852h2.472l.392 1.852.347.082c.861.207 1.684.548 2.445 1.015l.303.186 1.588-1.033 1.801 1.802-.64 1.499c-.436.187-.84.451-1.192.792-.023.023-.043.047-.065.07A7.372 7.372 0 0017.5 3.952a7.363 7.363 0 00-6.236 3.476 3.983 3.983 0 00-1.245-.883l-.634-1.51zM7.34 15.683v-1.788l-.282-.163a2.83 2.83 0 01-1.412-2.442v-1.129c0-.77.304-1.49.858-2.026a2.786 2.786 0 012.052-.795c1.508.046 2.735 1.375 2.735 2.963v.987a2.833 2.833 0 01-1.413 2.443l-.282.163.002 1.787 1.937.484a2.809 2.809 0 00-.808 1.967v.418l-1.761.392.046-.16.021-1.044-2.977-1.736 1.284-.321zm-6.21-1.006h.412l4.06 2.369-2.05 8.194-2.422-.808v-9.755zm4.608 11.29l-1.111-.37 1.99-7.96 1.287.752v.16l-2.119 7.419h-.047zm3.86 1.626c0-.167.067-.33.185-.448l.992-.992a.634.634 0 01.895.895l-.992.993a.634.634 0 01-1.08-.448zm1.693 1.694c0-.167.068-.33.186-.448l.992-.992a.634.634 0 01.895.895l-.992.992a.634.634 0 01-1.08-.448zm1.694 1.693c0-.166.067-.33.185-.448l.992-.992a.634.634 0 01.895.895l-.992.993a.634.634 0 01-1.08-.448zm2.326 2.326a.634.634 0 01-.447-1.08l.992-.992a.634.634 0 01.895.895l-.992.992a.637.637 0 01-.448.185zm2.73.565h-.104a.585.585 0 01-.39-.148l-.421-.372.424-.424c.15-.151.268-.331.355-.524l.513.427a.59.59 0 01-.377 1.041zm5.063-5.08h-.098a.605.605 0 01-.388-.142l-3.062-2.55-.723.867 2.973 2.477a.589.589 0 01-.378 1.04h-.123a.589.589 0 01-.376-.136l-3.067-2.555-.723.868 2.973 2.477a.59.59 0 01-.377 1.04.932.932 0 01-.594-.215l-1.26-1.05a1.756 1.756 0 00-1.516-.986 1.758 1.758 0 00-1.694-1.694 1.757 1.757 0 00-1.693-1.693 1.76 1.76 0 00-3-1.184l-.993.992c-.06.06-.109.127-.158.193L7.09 25.5l1.52-5.32 3.812-.848c1-.224 2.053-.175 3.028.137l.832.266-2.82 1.41a1.882 1.882 0 00-1.044 1.69v.113a1.893 1.893 0 002.864 1.62l2.102-1.26a1.165 1.165 0 011.354.13l4.77 4.293a.607.607 0 01-.406 1.059zm10.768-6.56l-9.51 4.756a1.572 1.572 0 00-.098-.094L19.495 22.6a2.266 2.266 0 00-2.691-.26l-2.103 1.261a.763.763 0 01-1.153-.654v-.111c0-.29.162-.552.422-.681l3.149-1.575a2.453 2.453 0 011.759-.163l3.547 1.013.86.022L33.87 15.88v6.352z" fill="#FFCB09"/></g><defs><clipPath id="jclip0_1953_28766"><path fill="#fff" d="M0 0h35v35H0z"/></clipPath></defs></svg><svg fill="none" viewBox="-1 -1 18 18" id="image-time-white" xmlns="http://www.w3.org/2000/svg"><path fill-rule="evenodd" clip-rule="evenodd" d="M8.003 13.334a4.667 4.667 0 110-9.334 4.667 4.667 0 010 9.334zm-.667-8h1v3.5l2.667 1.58-.5.82-3.167-1.9v-4zM5.256 2.26l-.853-1.02-3.067 2.567.86 1.02 3.06-2.567zm9.413 1.554L11.603 1.24l-.86 1.02 3.066 2.574.86-1.02z" fill="#fff"/><path fill-rule="evenodd" clip-rule="evenodd" d="M8.003 3c-1.592 0-2.875.542-4 1.667-1.126 1.125-1.667 2.409-1.667 4 0 1.591.541 2.875 1.667 4 1.125 1.125 2.408 1.667 4 1.667 1.59 0 2.874-.542 4-1.667 1.125-1.125 1.666-2.409 1.666-4 0-1.591-.541-2.875-1.666-4C10.877 3.542 9.593 3 8.003 3zm-3.3 8.967a4.667 4.667 0 106.6-6.6 4.667 4.667 0 00-6.6 6.6z" fill="#fff"/></svg><svg fill="none" viewBox="-1 -1 18 13" id="image-views-white" xmlns="http://www.w3.org/2000/svg"><path d="M10.5 5.5a2.5 2.5 0 11-5 0 2.5 2.5 0 015 0z" fill="#fff"/><path d="M0 5.5S3 0 8 0s8 5.5 8 5.5S13 11 8 11 0 5.5 0 5.5zM8 9a3.5 3.5 0 100-7 3.5 3.5 0 000 7z" fill="#fff"/></svg></svg>