<svg width="270" height="130" viewBox="0 0 270 130" fill="none" xmlns="http://www.w3.org/2000/svg">
<rect width="270" height="130" rx="10" fill="white"/>
<path d="M69.3914 77.7488C69.3914 77.7488 69.8341 82.2589 73.377 82.2589C73.377 82.2589 80.9068 78.6518 80.9068 73.6907V61.967C80.9068 61.967 83.1201 60.164 83.1201 64.6729C83.1201 69.1818 82.6776 73.6878 82.6776 73.6878C82.6776 73.6878 79.7994 77.9678 78.914 78.8735C79.1614 78.7304 90.1442 72.1238 85.3352 55.6508C85.3352 55.6508 101.234 43.0585 99.5152 37.6367C99.7542 38.1232 103.908 46.7088 103.049 49.3389L91.9781 57.9045L104.378 52.0377C104.378 52.0377 104.82 58.351 103.935 60.1554L93.7489 63.7714L103.049 62.4177C103.049 62.4177 102.607 69.1818 99.9493 70.0833H93.3064L99.5067 71.8877C99.5067 71.8877 97.2916 77.2981 95.5209 77.2981C93.8025 77.2981 88.763 76.0274 88.4481 75.9501L94.6316 78.201C94.6316 78.201 93.3034 84.0679 89.7606 82.2589L87.103 80.4547L90.2032 84.0619C90.2032 84.0619 82.6746 90.3757 74.2609 91.7275H59.3164C50.9026 90.3757 43.374 84.0619 43.374 84.0619L46.4743 80.4547L43.8168 82.2589C40.2739 84.0619 38.9458 78.201 38.9458 78.201L45.1294 75.9501C44.8145 76.0274 39.7707 77.2981 38.0562 77.2981C36.2855 77.2981 34.0706 71.8877 34.0706 71.8877L40.271 70.0833H33.6308C30.9732 69.1818 30.5305 62.4177 30.5305 62.4177L39.8312 63.7714L29.6451 60.164C28.7598 58.3596 29.2025 52.0463 29.2025 52.0463L41.5991 57.9045L30.5305 49.3418C29.6719 46.7117 33.8261 38.1261 34.065 37.6395C32.3463 43.0643 48.245 55.6536 48.245 55.6536C43.4359 72.1266 53.3043 78.0522 53.5544 78.1953C56.4818 81.6865 52.5538 75.5967 50.9026 73.6907C50.9026 73.6907 50.4598 69.1818 50.4598 64.6757C50.4598 60.1697 52.6733 61.9698 52.6733 61.9698V73.6935C52.6733 78.6546 60.2032 82.2619 60.2032 82.2619C63.7461 82.2619 64.1887 77.7517 64.1887 77.7517L64.0777 71.8848L69.3914 67.8267" fill="#FF6C00"/>
<path d="M99.5068 37.6167L99.5154 37.6398C99.5111 37.6311 99.5111 37.6268 99.5068 37.6167Z" stroke="black" stroke-miterlimit="10"/>
<path d="M34.0732 37.6167C34.0732 37.6268 34.0732 37.6311 34.0645 37.6398C34.0688 37.6268 34.0732 37.6167 34.0732 37.6167Z" stroke="black" stroke-miterlimit="10"/>
<path d="M66.8447 91.2769V74.1411L67.7835 71.6484" fill="#FF6C00"/>
<path d="M73.377 82.259C73.377 82.259 80.9068 78.653 80.9068 73.6906V61.9669C80.9068 61.9669 83.1203 60.1639 83.1203 64.6727C83.1203 69.1816 82.6778 73.6877 82.6778 73.6877C82.6778 73.6877 79.7994 77.9719 78.9141 78.8734" fill="#FF2400"/>
<path d="M60.2033 82.259C60.2033 82.259 52.6734 78.653 52.6734 73.6906V61.9669C52.6734 61.9669 50.46 60.1639 50.46 64.6727C50.46 69.1816 50.9027 73.6877 50.9027 73.6877C50.9027 73.6877 54.2544 78.5371 54.9993 79.7763C55.2058 80.1212 54.5186 79.2869 54.5566 79.3241" fill="#FF2400"/>
<path d="M74.896 81.4103L66.9543 91.7273L66.8447 74.141L67.7835 71.6483L69.3912 67.8291V77.7484C69.3912 77.7484 69.751 81.4013 72.4043 82.1315C72.6994 82.2131 74.0022 81.9569 74.896 81.4103Z" fill="#FF3E01"/>
<path d="M46.4572 73.6904C46.4572 73.6904 45.2557 69.8583 47.4705 58.5854C47.4269 58.5152 45.2557 67.1524 49.684 74.3672C51.9156 78.0018 57.8659 80.5201 61.1994 83.3821C65.5405 87.1213 67.1117 90.8233 67.3155 91.7587C67.3647 91.9879 48.3559 85.1893 46.4572 73.6904Z" fill="#FF4900"/>
<path d="M87.3274 73.9168C87.3274 73.9168 88.6557 70.7601 86.4424 59.4872C85.9998 59.0364 87.7706 67.1527 83.3422 74.3689C81.1118 78.0036 75.51 80.5222 72.1779 83.3836C68.524 86.5318 67.4672 90.0952 67.1018 91.7104C67.0357 92.0194 83.7847 85.6402 87.3274 73.9168Z" fill="#FF5A00"/>
<path d="M117.098 52.2923C117.089 51.375 117.265 50.4656 117.616 49.6208C117.964 48.804 118.479 48.0722 119.126 47.4743C119.84 46.8245 120.67 46.3212 121.572 45.9919C122.65 45.5995 123.781 45.3747 124.926 45.3251V43.6079H127.166V45.3251C128.306 45.3773 129.432 45.6021 130.507 45.9919C131.415 46.3194 132.252 46.8222 132.973 47.4729C133.624 48.0693 134.141 48.8013 134.489 49.6193C135.181 51.3328 135.181 53.2547 134.489 54.9682C134.143 55.7901 133.625 56.5258 132.973 57.1246C132.252 57.7753 131.415 58.2786 130.507 58.6071C129.432 58.9969 128.306 59.2216 127.166 59.2739V61.6965H124.926V59.2753C123.781 59.2257 122.65 59.0009 121.572 58.6085C120.67 58.2787 119.84 57.7754 119.126 57.126C118.477 56.5257 117.962 55.7903 117.616 54.9696C117.266 54.1227 117.089 53.2115 117.098 52.2923ZM124.926 47.3155C124.126 47.3378 123.335 47.4905 122.583 47.7677C121.934 48.0072 121.336 48.3705 120.821 48.838C120.346 49.2701 119.968 49.8017 119.713 50.3963C119.466 51.0001 119.338 51.648 119.338 52.3023C119.338 52.9567 119.466 53.6045 119.713 54.2084C119.968 54.8009 120.345 55.3298 120.821 55.758C121.339 56.2221 121.936 56.585 122.583 56.8284C123.334 57.1102 124.126 57.2653 124.926 57.2877V47.3155ZM127.166 57.2892C127.969 57.2663 128.762 57.1112 129.516 56.8298C130.166 56.5871 130.766 56.2236 131.285 55.758C131.761 55.3291 132.138 54.7997 132.392 54.2069C132.646 53.6024 132.774 52.951 132.767 52.2938C132.774 51.6388 132.646 50.9897 132.392 50.3877C132.136 49.7964 131.758 49.2676 131.285 48.8366C130.768 48.368 130.167 48.0047 129.516 47.7663C128.761 47.4899 127.968 47.3378 127.166 47.3155V57.2892Z" fill="black"/>
<path d="M148.112 57.1476H140.845L139.159 61.5563H136.787L143.509 43.6123H145.462L152.171 61.5563H149.794L148.112 57.1476ZM141.541 55.1442H147.422L144.478 47.3156L141.541 55.1442Z" fill="black"/>
<path d="M165.287 52.0146C165.775 52.2681 166.222 52.5962 166.612 52.9876C166.988 53.3886 167.298 53.8492 167.528 54.3513C167.808 54.9809 167.952 55.6638 167.952 56.3547C167.952 57.0455 167.808 57.7284 167.528 58.358C167.248 58.9753 166.848 59.5287 166.353 59.9849C165.833 60.4717 165.232 60.8594 164.577 61.1297C163.87 61.4212 163.112 61.5672 162.35 61.559H155.642V43.6121H162.213C162.903 43.605 163.589 43.7277 164.235 43.9741C164.821 44.2041 165.355 44.5503 165.808 44.9924C166.26 45.4346 166.622 45.964 166.872 46.5498C167.131 47.1519 167.261 47.803 167.254 48.4602C167.271 49.0242 167.164 49.585 166.941 50.1014C166.763 50.4945 166.538 50.8636 166.27 51.2004C165.984 51.5197 165.652 51.7941 165.287 52.0146ZM157.882 51.156H162.213C162.611 51.1583 163.005 51.0825 163.374 50.9328C163.722 50.7951 164.042 50.5923 164.317 50.3347C164.574 50.0948 164.783 49.8067 164.933 49.4861C165.077 49.1641 165.151 48.8141 165.15 48.4602C165.154 48.0778 165.079 47.6988 164.933 47.3469C164.79 47.0097 164.581 46.7065 164.317 46.4568C164.044 46.1924 163.724 45.9844 163.374 45.8444C163.005 45.6923 162.611 45.6089 162.213 45.5983H157.882V51.156ZM162.35 59.5714C163.342 59.5714 164.153 59.2561 164.782 58.6255C165.088 58.3237 165.33 57.9599 165.49 57.5574C165.65 57.1549 165.725 56.7228 165.711 56.2888C165.712 55.8746 165.627 55.4648 165.462 55.0861C165.297 54.7074 165.056 54.3683 164.754 54.0909C164.448 53.7995 164.091 53.5686 163.703 53.4097C163.272 53.2386 162.812 53.1536 162.35 53.1594H157.882V59.5714H162.35Z" fill="black"/>
<path d="M187.776 52.5839C187.787 53.8147 187.555 55.0353 187.093 56.1727C186.661 57.2397 186.046 58.2196 185.276 59.0661C184.532 59.8831 183.636 60.5408 182.639 61.0007C181.66 61.4589 180.595 61.6962 179.518 61.6962C178.44 61.6962 177.375 61.4589 176.396 61.0007C175.402 60.5427 174.509 59.8846 173.772 59.0661C173.002 58.2192 172.387 57.2394 171.955 56.1727C171.493 55.0353 171.26 53.8147 171.272 52.5839C171.263 51.357 171.495 50.1407 171.955 49.0066C172.385 47.9346 173.001 46.9498 173.772 46.0989C174.513 45.2854 175.405 44.6289 176.396 44.1671C177.377 43.7081 178.444 43.4708 179.524 43.4717C180.6 43.4699 181.663 43.7073 182.639 44.1671C183.636 44.6265 184.532 45.2837 185.276 46.1003C186.048 46.9509 186.663 47.9358 187.093 49.008C187.553 50.1417 187.785 51.3575 187.776 52.5839ZM173.513 52.5839C173.503 53.5573 173.67 54.5242 174.005 55.4358C174.316 56.2653 174.774 57.0292 175.357 57.6895C175.893 58.3144 176.549 58.8208 177.284 59.1777C177.981 59.526 178.747 59.7071 179.524 59.7071C180.301 59.7071 181.067 59.526 181.764 59.1777C182.5 58.8208 183.155 58.3144 183.691 57.6895C184.262 57.023 184.715 56.2604 185.03 55.4358C185.374 54.5262 185.546 53.5585 185.536 52.5839C185.546 51.6093 185.374 50.6416 185.03 49.732C184.718 48.9025 184.264 48.1353 183.691 47.4654C183.157 46.8415 182.501 46.3388 181.764 45.9901C181.067 45.6427 180.3 45.4621 179.524 45.4621C178.747 45.4621 177.982 45.6427 177.284 45.9901C176.551 46.3456 175.896 46.8474 175.357 47.4654C174.783 48.1369 174.326 48.9035 174.005 49.732C173.67 50.6436 173.503 51.6105 173.513 52.5839Z" fill="black"/>
<path d="M198.23 43.6124C198.977 43.6087 199.717 43.76 200.405 44.0574C201.068 44.34 201.67 44.7512 202.18 45.268C202.684 45.7817 203.091 46.385 203.383 47.0481C203.68 47.7143 203.834 48.4376 203.834 49.1695C203.834 49.9012 203.68 50.6246 203.383 51.2908C203.091 51.9539 202.684 52.5572 202.18 53.0709C201.67 53.5877 201.068 53.9989 200.405 54.2815C199.718 54.5783 198.978 54.7246 198.232 54.7108H194.46V61.5535H192.22V43.6124H198.23ZM198.23 52.7232C198.672 52.7243 199.108 52.6348 199.515 52.4599C199.923 52.284 200.291 52.0232 200.594 51.6943C200.907 51.3647 201.152 50.9757 201.318 50.5496C201.494 50.1074 201.59 49.636 201.599 49.1587C201.594 48.2162 201.237 47.3111 200.601 46.6259C200.294 46.3049 199.927 46.0496 199.522 45.8747C199.115 45.7 198.679 45.6058 198.238 45.5971H194.46V52.7189L198.23 52.7232Z" fill="black"/>
<path d="M219.175 61.5563V47.7449L210.363 61.5578H208.414V43.6123H210.654V57.4252L219.465 43.6123H221.419V61.5563H219.175Z" fill="black"/>
<path d="M238.181 45.5985H232.868V61.5534H230.627V45.5985H225.312V43.6123H238.183L238.181 45.5985Z" fill="black"/>
<path d="M131.745 72.666C131.924 72.7367 132.093 72.8331 132.246 72.9522C132.382 73.0689 132.499 73.2076 132.591 73.3629C132.701 73.5555 132.755 73.7757 132.747 73.9982C132.748 74.2161 132.703 74.4316 132.617 74.6307C132.528 74.8317 132.4 75.012 132.24 75.1602C132.071 75.3143 131.876 75.4364 131.665 75.5208C131.431 75.612 131.182 75.6571 130.931 75.6538C130.657 75.6585 130.384 75.6134 130.125 75.5208C129.9 75.4377 129.692 75.3119 129.513 75.1501C129.345 74.9955 129.206 74.8095 129.106 74.6021C129.006 74.3934 128.946 74.1679 128.926 73.9367H129.495C129.543 74.2592 129.697 74.5555 129.932 74.7766C130.158 74.9799 130.491 75.0814 130.931 75.0814C131.264 75.0973 131.589 74.9814 131.839 74.758C131.948 74.6643 132.034 74.5479 132.094 74.4167C132.154 74.2855 132.185 74.1428 132.185 73.9982C132.182 73.8653 132.152 73.7344 132.096 73.614C132.041 73.4935 131.962 73.3861 131.863 73.2985C131.65 73.0839 131.339 72.978 130.931 72.978H130.37V72.4056H130.871C131.051 72.4087 131.229 72.3776 131.397 72.314C131.533 72.2622 131.66 72.1867 131.772 72.0908C131.867 72.0081 131.942 71.9037 131.99 71.786C132.058 71.6161 132.074 71.4289 132.034 71.2497C131.995 71.0705 131.903 70.908 131.769 70.7843C131.582 70.5936 131.282 70.4982 130.871 70.4982C130.55 70.4783 130.233 70.5802 129.981 70.7843C129.768 70.9748 129.62 71.2302 129.56 71.5127H128.998C129.015 71.3036 129.073 71.1 129.167 70.9131C129.261 70.7166 129.395 70.5426 129.56 70.4023C129.734 70.2606 129.928 70.1476 130.136 70.0674C130.37 69.9759 130.619 69.9307 130.87 69.9343C131.117 69.9304 131.363 69.9717 131.596 70.056C131.798 70.1276 131.985 70.2373 132.147 70.3794C132.294 70.5101 132.414 70.6698 132.499 70.8487C132.58 71.0196 132.623 71.2069 132.624 71.3968C132.63 71.6073 132.582 71.8158 132.483 72.0006C132.402 72.1456 132.3 72.2777 132.181 72.3927C132.051 72.5071 131.904 72.5994 131.745 72.666Z" fill="black"/>
<path d="M136.68 69.9244C136.959 69.9203 137.238 69.9688 137.499 70.0675C137.736 70.1608 137.951 70.3003 138.135 70.4782C138.311 70.6539 138.449 70.8662 138.538 71.1007C138.639 71.3537 138.689 71.6246 138.686 71.8976V75.5952H138.306L138.123 74.7667H138.056C137.94 74.9347 137.802 75.0859 137.646 75.216C137.483 75.3478 137.302 75.4526 137.108 75.5266C136.852 75.6247 136.58 75.6691 136.308 75.6568C135.68 75.6568 135.199 75.5056 134.865 75.2032C134.703 75.0616 134.575 74.8856 134.488 74.6878C134.401 74.4899 134.358 74.275 134.363 74.0584C134.362 73.8099 134.419 73.5647 134.529 73.3429C134.652 73.1039 134.833 72.9007 135.054 72.7519C135.343 72.5656 135.661 72.4328 135.995 72.3599C136.467 72.2529 136.949 72.2048 137.432 72.2168H138.123V71.8991C138.13 71.7116 138.099 71.5246 138.032 71.35C137.964 71.1754 137.862 71.0169 137.731 70.8845C137.59 70.7518 137.425 70.6492 137.244 70.5828C137.064 70.5164 136.872 70.4876 136.68 70.4982C136.236 70.4982 135.898 70.5936 135.666 70.7844C135.437 70.9736 135.266 71.2267 135.177 71.5127H134.614C134.688 71.0746 134.915 70.6788 135.255 70.3995C135.44 70.2481 135.649 70.13 135.873 70.0503C136.133 69.9608 136.406 69.9182 136.68 69.9244ZM136.368 75.0844C136.603 75.1013 136.838 75.0668 137.059 74.9831C137.279 74.8994 137.48 74.7684 137.646 74.5991C137.812 74.4298 137.941 74.2261 138.023 74.0017C138.106 73.7773 138.14 73.5375 138.123 73.2986V72.7863H137.432C137.026 72.7792 136.62 72.8147 136.222 72.8922C135.952 72.939 135.692 73.0313 135.452 73.1655C135.283 73.2575 135.143 73.3958 135.047 73.5647C134.97 73.719 134.928 73.8893 134.925 74.0627C134.931 74.2001 134.967 74.3345 135.031 74.456C135.094 74.5775 135.183 74.6831 135.292 74.7653C135.532 74.9813 135.899 75.0872 136.368 75.0872V75.0844Z" fill="black"/>
<path d="M145.43 69.9888V75.5981H144.861V70.5611H141.488V75.5981H140.926V69.9888H145.43Z" fill="black"/>
<path d="M151.739 69.9888V75.5981H151.177V73.3085C151.029 73.4061 150.874 73.4913 150.712 73.5632C150.546 73.6374 150.375 73.6968 150.199 73.7407C149.985 73.7939 149.765 73.8198 149.545 73.8179C148.946 73.8179 148.473 73.6419 148.126 73.2899C147.78 72.9379 147.606 72.4562 147.606 71.8447V69.9888H148.168V71.8375C148.161 72.0243 148.192 72.2105 148.259 72.3846C148.325 72.5587 148.427 72.7169 148.557 72.8492C148.697 72.9828 148.864 73.0862 149.045 73.153C149.227 73.2199 149.419 73.2489 149.612 73.2384C149.819 73.2398 150.025 73.2094 150.223 73.1483C150.394 73.0961 150.562 73.0325 150.725 72.9579C150.884 72.8765 151.035 72.7806 151.177 72.6717V69.9888H151.739Z" fill="black"/>
<path d="M156.045 69.9241C156.324 69.9199 156.602 69.9685 156.864 70.0672C157.1 70.1605 157.316 70.3 157.499 70.4778C157.676 70.6536 157.813 70.8658 157.902 71.1003C158.001 71.3539 158.048 71.6248 158.043 71.8974V75.5949H157.664L157.481 74.7664H157.413C157.297 74.9344 157.159 75.0855 157.003 75.2157C156.841 75.3474 156.659 75.4522 156.464 75.5262C156.21 75.6244 155.938 75.6687 155.665 75.6564C155.036 75.6564 154.555 75.5052 154.222 75.2028C154.061 75.0613 153.932 74.8853 153.845 74.6874C153.759 74.4896 153.716 74.2747 153.72 74.0581C153.719 73.8096 153.776 73.5644 153.886 73.3426C154.009 73.1036 154.19 72.9003 154.411 72.7516C154.7 72.5652 155.019 72.4324 155.353 72.3595C155.824 72.2526 156.307 72.2045 156.789 72.2164H157.481V71.8987C157.488 71.7112 157.457 71.5243 157.389 71.3497C157.322 71.1751 157.219 71.0166 157.089 70.8842C156.948 70.7514 156.782 70.6488 156.602 70.5825C156.421 70.5161 156.229 70.4873 156.037 70.4979C155.593 70.4979 155.255 70.5933 155.023 70.7841C154.794 70.9733 154.624 71.2264 154.533 71.5124H153.972C154.045 71.0743 154.273 70.6785 154.612 70.3992C154.798 70.2478 155.007 70.1297 155.231 70.05C155.493 69.9597 155.768 69.9171 156.045 69.9241ZM155.732 75.084C155.967 75.101 156.202 75.0665 156.423 74.9827C156.644 74.899 156.844 74.7681 157.01 74.5988C157.177 74.4295 157.305 74.2257 157.388 74.0013C157.47 73.777 157.504 73.5372 157.488 73.2982V72.786H156.796C156.39 72.7789 155.985 72.8143 155.586 72.8919C155.316 72.9387 155.056 73.031 154.816 73.1652C154.647 73.2572 154.507 73.3955 154.411 73.5644C154.334 73.7187 154.292 73.889 154.289 74.0623C154.296 74.1998 154.332 74.3341 154.395 74.4557C154.458 74.5772 154.547 74.6828 154.656 74.7649C154.898 74.9796 155.257 75.0869 155.732 75.0869V75.084Z" fill="black"/>
<path d="M162.476 70.4968C162.212 70.4958 161.951 70.5529 161.712 70.6642C161.47 70.7821 161.252 70.9446 161.069 71.1436C160.881 71.3564 160.734 71.6035 160.636 71.8719C160.415 72.4637 160.415 73.1175 160.636 73.7092C160.737 73.9762 160.884 74.2228 161.069 74.4376C161.249 74.638 161.468 74.7988 161.712 74.9098C161.95 75.0262 162.211 75.0859 162.476 75.0844C162.884 75.0972 163.283 74.9503 163.589 74.6737C163.883 74.4067 164.102 74.065 164.224 73.6835H164.848C164.706 74.2292 164.414 74.7219 164.005 75.103C163.579 75.4832 163.025 75.6816 162.459 75.6568C162.111 75.6597 161.767 75.5854 161.45 75.4393C161.142 75.2985 160.866 75.0954 160.637 74.8426C160.403 74.5786 160.218 74.2724 160.093 73.9396C159.825 73.1979 159.825 72.3833 160.093 71.6416C160.218 71.3092 160.403 71.0035 160.637 70.7401C160.866 70.4859 161.143 70.2806 161.45 70.1362C161.766 69.9899 162.111 69.9175 162.459 69.9244C163.025 69.8997 163.579 70.098 164.005 70.4782C164.414 70.8593 164.706 71.352 164.848 71.8977H164.219C164.093 71.5178 163.875 71.1769 163.583 70.9075C163.279 70.6323 162.883 70.4854 162.476 70.4968Z" fill="black"/>
<path d="M166.029 69.9888H170.346V70.5611H168.469V75.5981H167.907V70.5611H166.029V69.9888Z" fill="black"/>
<path d="M176.472 69.9888V75.5981H175.91V70.9418L172.468 75.5981H171.967V69.9888H172.529V74.6465L175.971 69.9959L176.472 69.9888Z" fill="black"/>
<path d="M186.464 69.9888V75.5981H185.902V70.9418L182.46 75.5981H181.958V69.9888H182.52V74.6465L185.963 69.9959L186.464 69.9888Z" fill="black"/>
<path d="M194.137 70.4968C193.874 70.4958 193.613 70.5529 193.373 70.6642C193.131 70.7817 192.914 70.9443 192.732 71.1436C192.543 71.356 192.395 71.6032 192.297 71.8719C192.076 72.4637 192.076 73.1175 192.297 73.7092C192.399 73.9766 192.545 74.2233 192.732 74.4376C192.911 74.6383 193.129 74.7991 193.373 74.9098C193.611 75.0262 193.872 75.0859 194.137 75.0844C194.546 75.0972 194.944 74.9503 195.25 74.6737C195.544 74.4071 195.764 74.0652 195.885 73.6835H196.515C196.374 74.2294 196.081 74.7223 195.672 75.103C195.246 75.4832 194.692 75.6816 194.126 75.6568C193.778 75.6595 193.434 75.5853 193.117 75.4393C192.809 75.2985 192.533 75.0954 192.305 74.8426C192.07 74.5788 191.885 74.2726 191.761 73.9396C191.491 73.1982 191.491 72.3829 191.761 71.6416C191.885 71.3091 192.07 71.0032 192.305 70.7401C192.533 70.4859 192.81 70.2806 193.117 70.1362C193.434 69.99 193.779 69.9177 194.126 69.9244C194.692 69.8997 195.246 70.098 195.672 70.4782C196.081 70.8589 196.374 71.3518 196.515 71.8977H195.885C195.761 71.5176 195.542 71.1765 195.25 70.9075C194.944 70.6309 194.546 70.484 194.137 70.4968Z" fill="black"/>
<path d="M202.765 74.1971C202.684 74.388 202.578 74.5662 202.448 74.7266C202.157 75.1003 201.767 75.381 201.323 75.535C200.857 75.6912 200.356 75.7093 199.88 75.5872C199.404 75.4651 198.972 75.2079 198.633 74.8453C198.395 74.5827 198.209 74.2762 198.084 73.9424C197.814 73.201 197.814 72.3857 198.084 71.6443C198.208 71.3118 198.393 71.0061 198.628 70.7428C198.857 70.4887 199.133 70.2834 199.44 70.139C199.757 69.9928 200.102 69.9204 200.449 69.9272C200.782 69.9249 201.111 69.9925 201.416 70.1261C201.717 70.2617 201.989 70.4562 202.216 70.6985C202.697 71.2122 202.962 71.8984 202.951 72.6088C202.951 72.6672 202.947 72.7257 202.938 72.7834C202.93 72.8334 202.921 72.8806 202.913 72.9265C202.905 72.9723 202.897 73.0095 202.889 73.0509H198.437C198.465 73.3412 198.54 73.6248 198.657 73.8909C198.764 74.1307 198.913 74.3485 199.097 74.5334C199.278 74.7114 199.489 74.8528 199.721 74.9498C199.97 75.052 200.236 75.1007 200.504 75.0929C200.69 75.0946 200.875 75.0676 201.054 75.0127C201.212 74.9626 201.363 74.8888 201.5 74.7938C201.621 74.7126 201.733 74.6165 201.83 74.5077C201.923 74.3989 202.004 74.3002 202.068 74.2086L202.765 74.1971ZM200.448 70.4967C200.207 70.4961 199.967 70.5448 199.745 70.6398C199.525 70.7392 199.324 70.8783 199.152 71.0505C198.971 71.2322 198.821 71.4424 198.705 71.673C198.58 71.9236 198.493 72.1924 198.448 72.47H202.392C202.363 72.1936 202.289 71.9241 202.172 71.673C202.065 71.4438 201.923 71.2337 201.75 71.0505C201.581 70.8768 201.38 70.7374 201.159 70.6398C200.934 70.5428 200.692 70.4941 200.448 70.4967Z" fill="black"/>
<path d="M209.949 72.7862C209.952 73.1795 209.884 73.5701 209.748 73.9381C209.622 74.2709 209.437 74.5771 209.203 74.8411C208.974 75.0939 208.698 75.2969 208.39 75.4378C208.073 75.5838 207.729 75.6579 207.381 75.6552C207.099 75.6621 206.818 75.6095 206.556 75.5007C206.347 75.407 206.15 75.2878 205.969 75.1458C205.792 74.9979 205.635 74.826 205.503 74.635H205.443V77.64H204.881V69.9887H205.261L205.45 70.9418H205.511C205.641 70.7513 205.797 70.5811 205.976 70.4366C206.157 70.2951 206.354 70.176 206.563 70.0817C206.824 69.9689 207.106 69.9161 207.388 69.9272C207.735 69.9247 208.079 69.9969 208.397 70.139C208.707 70.2804 208.983 70.4861 209.209 70.7429C209.445 71.0063 209.63 71.312 209.755 71.6444C209.888 72.0094 209.955 72.3966 209.949 72.7862ZM207.381 75.0757C207.646 75.0772 207.907 75.0175 208.146 74.9012C208.385 74.7862 208.601 74.6259 208.781 74.429C208.971 74.216 209.12 73.969 209.221 73.7006C209.334 73.4071 209.39 73.0943 209.387 72.7791C209.391 72.4658 209.334 72.1547 209.221 71.8632C209.12 71.595 208.97 71.3481 208.781 71.1349C208.602 70.9349 208.386 70.7721 208.146 70.6556C207.907 70.5401 207.645 70.4828 207.381 70.4882C207.118 70.4871 206.857 70.5442 206.617 70.6556C206.376 70.7721 206.161 70.9349 205.981 71.1349C205.792 71.3481 205.643 71.595 205.541 71.8632C205.32 72.455 205.32 73.1089 205.541 73.7006C205.643 73.969 205.792 74.216 205.981 74.429C206.16 74.6286 206.376 74.7892 206.617 74.9012C206.855 75.0215 207.116 75.0851 207.381 75.0872V75.0757Z" fill="black"/>
<path d="M214.941 72.6661C215.12 72.7367 215.289 72.8331 215.441 72.9523C215.578 73.0688 215.694 73.2076 215.787 73.3629C215.896 73.5555 215.95 73.7758 215.942 73.9982C215.944 74.2131 215.899 74.4256 215.811 74.6207C215.724 74.8141 215.602 74.9879 215.448 75.1316C215.29 75.2773 215.108 75.3923 214.91 75.4707C214.699 75.5533 214.475 75.5945 214.249 75.5923H211.871V69.983H214.065C214.299 69.9805 214.532 70.0197 214.754 70.0989C214.949 70.1667 215.129 70.2722 215.285 70.4094C215.429 70.539 215.545 70.6967 215.628 70.8731C215.711 71.0519 215.754 71.2475 215.753 71.4454C215.758 71.6422 215.713 71.837 215.622 72.0107C215.547 72.1504 215.452 72.2786 215.341 72.3913C215.224 72.5053 215.089 72.5981 214.941 72.6661ZM212.439 70.5611V72.4113H214.065C214.367 72.4296 214.664 72.3269 214.891 72.1251C214.985 72.0414 215.06 71.9382 215.112 71.8225C215.164 71.7068 215.19 71.5811 215.191 71.454C215.186 71.3357 215.156 71.2197 215.104 71.1143C215.051 71.0088 214.976 70.9162 214.885 70.843C214.657 70.6455 214.364 70.5432 214.065 70.5568L212.439 70.5611ZM212.439 72.9837V75.0257H214.249C214.403 75.0268 214.555 74.9961 214.696 74.9355C214.827 74.8796 214.948 74.8018 215.053 74.7052C215.152 74.6129 215.233 74.5027 215.292 74.3803C215.35 74.2637 215.381 74.1348 215.381 74.004C215.381 73.8731 215.35 73.7442 215.292 73.6276C215.233 73.5054 215.152 73.3957 215.053 73.3042C214.948 73.2076 214.827 73.1297 214.696 73.0739C214.555 73.0133 214.403 72.9826 214.249 72.9837H212.439Z" fill="black"/>
<path d="M222.441 69.9888V75.5981H221.879V70.9418L218.437 75.5981H217.936V69.9888H218.497V74.6465L221.939 69.9959L222.441 69.9888Z" fill="black"/>
<path d="M226.936 70.4968C226.672 70.4958 226.412 70.5529 226.171 70.6642C225.931 70.7821 225.713 70.9446 225.53 71.1436C225.341 71.3564 225.194 71.6035 225.097 71.8719C224.876 72.4637 224.876 73.1175 225.097 73.7092C225.197 73.9762 225.344 74.2228 225.53 74.4376C225.71 74.638 225.928 74.7988 226.171 74.9098C226.41 75.0262 226.672 75.0859 226.936 75.0844C227.345 75.0972 227.743 74.9503 228.049 74.6737C228.343 74.4067 228.562 74.065 228.685 73.6835H229.314C229.172 74.2292 228.88 74.7219 228.471 75.103C228.045 75.4832 227.491 75.6816 226.925 75.6568C226.577 75.6597 226.233 75.5854 225.916 75.4393C225.608 75.2985 225.332 75.0954 225.104 74.8426C224.868 74.5786 224.684 74.2724 224.558 73.9396C224.29 73.1979 224.29 72.3833 224.558 71.6416C224.684 71.3092 224.868 71.0035 225.104 70.7401C225.332 70.4859 225.608 70.2806 225.916 70.1362C226.233 69.9899 226.577 69.9175 226.925 69.9244C227.491 69.8997 228.045 70.098 228.471 70.4782C228.88 70.8593 229.172 71.352 229.314 71.8977H228.685C228.559 71.5178 228.341 71.1769 228.049 70.9075C227.743 70.6309 227.345 70.484 226.936 70.4968Z" fill="black"/>
<path d="M139.149 85.0276V87.0695H138.586V85.6001H133.949V87.0695H133.387V85.0276H133.699C133.838 84.9574 133.962 84.8603 134.065 84.7415C134.174 84.6161 134.265 84.4763 134.335 84.3251C134.429 84.1229 134.489 83.9063 134.513 83.6837L134.892 79.9863H138.334V85.0217L139.149 85.0276ZM135.073 83.6897C135.056 83.9099 135.006 84.1265 134.924 84.3305C134.863 84.4793 134.784 84.6191 134.688 84.7469C134.606 84.8597 134.504 84.9569 134.389 85.0331H137.77V80.5643H135.395L135.073 83.6897Z" fill="black"/>
<path d="M145.148 79.9922V85.6002H144.586V80.5644H142.082L141.83 83.6898C141.774 84.3954 141.615 84.9006 141.351 85.2048C141.234 85.3494 141.087 85.4658 140.92 85.545C140.754 85.6242 140.572 85.6644 140.389 85.6632C140.339 85.6632 140.294 85.6632 140.248 85.6632C140.201 85.6632 140.164 85.6518 140.12 85.6428C140.082 85.6362 140.044 85.6236 140.009 85.6056V85.092H140.26C140.388 85.0896 140.513 85.0578 140.626 84.9996C140.74 84.9414 140.839 84.858 140.917 84.756C141.104 84.5304 141.22 84.1758 141.262 83.691L141.575 79.9936L145.148 79.9922Z" fill="black"/>
<path d="M148.578 83.3751C148.338 83.3043 148.112 83.1903 147.911 83.0391C147.731 82.9047 147.578 82.7355 147.462 82.5411C147.319 82.2897 147.25 82.0023 147.263 81.7125C147.261 81.4839 147.306 81.2571 147.395 81.0471C147.481 80.8401 147.609 80.6535 147.77 80.4987C147.937 80.3397 148.132 80.2137 148.345 80.1285C148.579 80.0373 148.828 79.992 149.079 79.9953H151.327V85.6029H150.765V83.4339H149.201L147.764 85.6005H147.073L148.578 83.3751ZM150.766 82.8645V80.5647H149.08C148.746 80.5491 148.42 80.6691 148.172 80.8983C148.061 81.0009 147.973 81.1263 147.914 81.2661C147.854 81.4059 147.824 81.5571 147.826 81.7095C147.824 81.8631 147.853 82.0155 147.912 82.1565C147.971 82.2981 148.059 82.4253 148.169 82.5297C148.418 82.7589 148.745 82.8783 149.08 82.8615L150.766 82.8645Z" fill="black"/>
<path d="M159.004 80.5015C158.741 80.5015 158.482 80.5591 158.243 80.6707C158.001 80.7877 157.784 80.9503 157.601 81.1501C157.412 81.3625 157.265 81.6097 157.168 81.8785C156.947 82.4695 156.947 83.1229 157.168 83.7139C157.268 83.9815 157.415 84.2281 157.601 84.4423C157.781 84.6433 157.999 84.8047 158.243 84.9163C158.482 85.0321 158.743 85.0915 159.008 85.0909C159.417 85.1035 159.815 84.9565 160.121 84.6799C160.414 84.4129 160.634 84.0709 160.756 83.6899H161.386C161.244 84.2353 160.952 84.7285 160.543 85.1095C160.116 85.4893 159.562 85.6879 158.997 85.6633C158.648 85.6651 158.305 85.5913 157.987 85.4455C157.68 85.3045 157.403 85.1005 157.175 84.8473C156.94 84.5839 156.755 84.2773 156.63 83.9443C156.362 83.2033 156.362 82.3891 156.63 81.6481C156.755 81.3151 156.94 81.0085 157.175 80.7451C157.405 80.4913 157.68 80.2861 157.987 80.1409C158.304 79.9954 158.649 79.9231 158.997 79.9293C159.562 79.9045 160.116 80.1031 160.543 80.4829C160.951 80.8645 161.244 81.3571 161.386 81.9025H160.756C160.631 81.5233 160.412 81.1831 160.121 80.9137C159.814 80.6353 159.414 80.4877 159.004 80.5015Z" fill="black"/>
<path d="M167.754 79.9922V85.6002H167.192V80.5644H163.819V85.6002H163.25V79.9922H167.754Z" fill="black"/>
<path d="M174.565 84.2003C174.484 84.3911 174.376 84.5687 174.246 84.7283C174.109 84.9059 173.949 85.0637 173.77 85.1963C173.571 85.3427 173.353 85.4579 173.122 85.5383C172.859 85.6247 172.584 85.6667 172.308 85.6631C171.948 85.6655 171.592 85.5917 171.262 85.4453C170.949 85.3055 170.666 85.1021 170.432 84.8471C170.193 84.5849 170.006 84.2783 169.881 83.9441C169.613 83.2031 169.613 82.3889 169.881 81.6479C170.006 81.3149 170.19 81.0089 170.425 80.7449C170.654 80.4911 170.931 80.2859 171.238 80.1407C171.555 79.9953 171.9 79.9229 172.247 79.9291C172.579 79.9276 172.908 79.9953 173.213 80.1281C173.514 80.2631 173.786 80.4575 174.014 80.7005C174.243 80.9459 174.426 81.2333 174.552 81.5477C174.689 81.8849 174.755 82.2473 174.747 82.6121C174.748 82.6703 174.744 82.7291 174.735 82.7867C174.735 82.8353 174.72 82.8839 174.711 82.9295C174.703 82.9757 174.694 83.0129 174.687 83.0543H170.242C170.27 83.3447 170.344 83.6285 170.463 83.8943C170.569 84.1337 170.719 84.3509 170.902 84.5351C171.082 84.7139 171.293 84.8561 171.525 84.9533C171.774 85.0547 172.04 85.1033 172.308 85.0961C172.494 85.0979 172.68 85.0709 172.859 85.0145C173.017 84.9653 173.167 84.8921 173.304 84.7973C173.426 84.7163 173.537 84.6203 173.635 84.5111C173.729 84.4037 173.809 84.3035 173.873 84.2135L174.565 84.2003ZM172.247 80.5013C172.006 80.5013 171.768 80.5499 171.545 80.6447C171.324 80.7443 171.123 80.8835 170.952 81.0551C170.771 81.2369 170.621 81.4469 170.506 81.6779C170.38 81.9281 170.294 82.1969 170.249 82.4747H174.192C174.163 82.1981 174.089 81.9287 173.972 81.6779C173.866 81.4481 173.723 81.2375 173.55 81.0551C173.38 80.8811 173.179 80.7419 172.957 80.6447C172.733 80.5475 172.491 80.4989 172.247 80.5013Z" fill="black"/>
<path d="M181.872 85.0278V87.0696H181.31V85.6002H176.672V79.9922H177.234V85.0278H180.486V79.9922H181.048V85.0278H181.872Z" fill="black"/>
<path d="M182.862 79.9922H187.178V80.5644H185.302V85.6002H184.74V80.5644H182.862V79.9922Z" fill="black"/>
<path d="M193.183 84.2007C193.103 84.3915 192.996 84.5691 192.866 84.7287C192.576 85.1037 192.185 85.3851 191.741 85.5387C191.479 85.6251 191.205 85.6671 190.929 85.6635C190.57 85.6665 190.213 85.5921 189.884 85.4457C189.57 85.3059 189.287 85.1025 189.052 84.8475C188.813 84.5853 188.627 84.2787 188.502 83.9445C188.232 83.2041 188.232 82.3887 188.502 81.6483C188.626 81.3153 188.811 81.0087 189.046 80.7453C189.275 80.4915 189.552 80.2863 189.859 80.1411C190.175 79.9959 190.52 79.9235 190.868 79.9296C191.2 79.9279 191.529 79.9956 191.834 80.1285C192.135 80.2641 192.407 80.4585 192.634 80.7009C192.864 80.9463 193.046 81.2337 193.173 81.5481C193.309 81.8853 193.375 82.2477 193.368 82.6125C193.369 82.6707 193.365 82.7295 193.356 82.7871C193.348 82.8357 193.339 82.8843 193.331 82.9305C193.322 82.9761 193.316 83.0133 193.307 83.0547H188.862C188.89 83.3451 188.965 83.6289 189.083 83.8947C189.19 84.1341 189.339 84.3513 189.523 84.5355C189.708 84.7209 189.927 84.8661 190.169 84.9627C190.41 85.0593 190.668 85.1049 190.928 85.0965C191.114 85.0989 191.299 85.0713 191.478 85.0149C191.636 84.9651 191.787 84.8919 191.924 84.7977C192.045 84.7161 192.156 84.6201 192.254 84.5115C192.347 84.4041 192.427 84.3039 192.492 84.2139L193.183 84.2007ZM190.866 80.5017C190.623 80.5005 190.381 80.5497 190.157 80.6451C189.936 80.7441 189.736 80.8833 189.565 81.0555C189.384 81.2373 189.232 81.4473 189.118 81.6783C188.992 81.9285 188.906 82.1979 188.86 82.4751H192.804C192.776 82.1991 192.702 81.9291 192.585 81.6783C192.478 81.4491 192.336 81.2385 192.163 81.0555C191.994 80.8809 191.792 80.7417 191.57 80.6451C191.348 80.5485 191.108 80.4999 190.866 80.5017Z" fill="black"/>
<path d="M194.48 79.9922H195.17L196.675 82.2888L198.179 79.9922H198.857L197.042 82.731L198.998 85.6002H198.296L196.669 83.1786L195.042 85.6002H194.36L196.298 82.731L194.48 79.9922Z" fill="black"/>
<path d="M204.923 79.9922V85.6002H204.354V82.986H200.981V85.6002H200.419V79.9922H200.981V82.4136H204.354V79.9922H204.923Z" fill="black"/>
<path d="M211.734 79.9922V85.6002H211.172V80.9424L207.73 85.5984H207.229V79.9922H207.791V84.6414L211.234 79.9922H211.734Z" fill="black"/>
<path d="M214.598 82.668V85.6002H214.035V79.9922H214.598V82.668L217.099 79.9922H217.851L215.344 82.668L218.111 85.6002H217.359L214.598 82.668Z" fill="black"/>
<path d="M224.037 79.9922V85.6002H223.474V80.9424L220.031 85.5984H219.531V79.9922H220.093V84.6414L223.536 79.9922H224.037Z" fill="black"/>
</svg>
