<svg width="270" height="130" viewBox="0 0 270 130" fill="none" xmlns="http://www.w3.org/2000/svg">
<rect width="270" height="130" rx="10" fill="white"/>
<path d="M43.0367 74.4667C42.967 74.4667 42.8987 74.4667 42.8343 74.4607C42.1824 74.4261 42.0936 74.2701 42.0562 74.2033L39.5471 69.763C39.4867 69.656 39.455 69.5353 39.4551 69.4126V68.1025H41.9786L43.8568 74.0291C43.891 74.1424 43.8601 74.301 43.663 74.3841C43.5184 74.4444 43.27 74.4667 43.0367 74.4667ZM42.4288 73.9498C42.5839 74.0154 43.1201 74.0389 43.3778 73.9996L41.6501 68.5492H39.9066V69.4113C39.9065 69.4572 39.9185 69.5024 39.9414 69.5422L42.4288 73.9498Z" fill="black"/>
<path d="M45.1797 74.3894C44.5408 74.3894 44.477 74.3285 44.4106 74.2663C44.3857 74.2433 44.3659 74.2154 44.3523 74.1844C44.3387 74.1534 44.3317 74.1199 44.3317 74.0862V69.0543C44.3317 69.0478 44.3317 69.0294 44.3317 69.0039C44.3317 68.9449 44.3278 68.8513 44.3272 68.7727C44.3272 68.6161 44.3238 68.455 44.502 68.4104L44.6768 68.3672L44.7629 68.5382L46.9944 73.5418C47.0322 73.6264 47.0487 73.7189 47.0427 73.8112C47.0366 73.9036 47.008 73.9932 46.9596 74.0721C46.911 74.1511 46.844 74.2171 46.7642 74.2645C46.6844 74.3119 46.5942 74.3392 46.5015 74.3442C45.8974 74.3763 45.4767 74.3894 45.1797 74.3894ZM44.7807 73.9309C44.9595 73.9473 45.3979 73.9564 46.4758 73.8994C46.496 73.8984 46.5155 73.8925 46.5327 73.8823C46.5501 73.872 46.5646 73.8578 46.5751 73.8407C46.5857 73.8236 46.5919 73.8043 46.5933 73.7842C46.5946 73.7642 46.5911 73.7442 46.583 73.7259L44.7807 69.6857V73.9309Z" fill="black"/>
<path d="M36.5235 69.3498L36.1357 69.1232L36.9717 67.7018C37.0303 67.5557 37.1214 67.4248 37.2382 67.319C37.3551 67.2132 37.4945 67.1352 37.646 67.0911C37.7975 67.0469 37.9571 67.0376 38.1128 67.064C38.2684 67.0904 38.4159 67.1517 38.5443 67.2432L39.8094 68.1432L39.5465 68.5074L38.2788 67.6049C38.205 67.5523 38.12 67.5173 38.0304 67.5027C37.9409 67.4882 37.8492 67.4943 37.7624 67.5207C37.6756 67.5471 37.5961 67.5931 37.53 67.655C37.4638 67.717 37.4129 67.7933 37.3811 67.878L37.3746 67.8957L37.3647 67.9127L36.5235 69.3498Z" fill="black"/>
<path d="M46.834 66.0405L44.3965 68.4701L44.7138 68.7864L47.1514 66.3569L46.834 66.0405Z" fill="black"/>
<path d="M40.2543 74.6224H34.9588V74.4187L34.8885 74.4278L34.2773 69.7628V69.7484C34.277 69.652 34.2957 69.5564 34.3325 69.4672C34.3692 69.378 34.4233 69.2968 34.4915 69.2284C34.5597 69.16 34.6408 69.1057 34.7302 69.0687C34.8195 69.0315 34.9153 69.0123 35.012 69.0122H36.2606C36.41 69.012 36.5575 69.0445 36.6928 69.1076C36.8281 69.1707 36.9478 69.2626 37.0434 69.377L40.7584 73.332C41.0548 73.6274 41.3393 73.9706 41.2118 74.2765C41.0843 74.5824 40.6558 74.6224 40.2543 74.6224ZM35.3084 74.175H40.2543C40.6309 74.175 40.755 74.1239 40.7906 74.103C40.78 74.0617 40.7248 73.9339 40.437 73.6444L40.4317 73.6392L36.7049 69.6718L36.7003 69.6666C36.6468 69.6015 36.5795 69.5491 36.5033 69.5133C36.427 69.4773 36.3437 69.4588 36.2594 69.4589H35.012C34.9384 69.459 34.8676 69.4873 34.8144 69.5381C34.7611 69.5888 34.7296 69.658 34.7261 69.7314L35.3084 74.175Z" fill="black"/>
<path d="M27.7422 78.1557L27.3537 77.9304L29.0614 75.0077L27.3018 72.0844L27.687 71.8545L29.5833 75.0044L27.7422 78.1557Z" fill="black"/>
<path d="M29.2656 78.1557L28.8772 77.9304L30.5855 75.0077L28.8252 72.0844L29.2104 71.8545L31.1074 75.0044L29.2656 78.1557Z" fill="black"/>
<path d="M41.7963 86.1628H40.3097C40.1645 86.1628 40.0253 86.1052 39.9226 86.0026C39.8199 85.9006 39.762 85.762 39.7617 85.6174V83.992C39.7618 83.9764 39.7581 83.9608 39.7509 83.947C39.7437 83.9332 39.7331 83.9212 39.7202 83.9122L39.6184 83.8468C39.1551 83.5564 38.2935 83.0152 38.0129 81.457C37.9106 80.9116 37.9435 80.3494 38.1089 79.8197C38.5071 78.5869 39.4416 78.1716 39.941 77.9509L40.0068 77.9208C40.0235 77.913 40.0377 77.9006 40.0476 77.885C40.0575 77.8695 40.0627 77.8514 40.0627 77.833V75.9354C40.0625 75.9095 40.052 75.8846 40.0335 75.8664C40.015 75.8481 39.9901 75.8378 39.964 75.8378H32.2449C32.2284 75.8374 32.2121 75.8413 32.1976 75.8491C32.183 75.8569 32.1708 75.8684 32.1621 75.8823L30.8201 78.0164C30.7728 78.0926 30.7067 78.1555 30.6279 78.199C30.5492 78.2424 30.4606 78.2651 30.3707 78.2646H25.9466C25.85 78.2646 25.7552 78.2381 25.6726 78.1881C25.59 78.1382 25.5227 78.0666 25.478 77.9813C25.4333 77.8959 25.4129 77.7999 25.419 77.7038C25.4252 77.6077 25.4576 77.5151 25.5128 77.436L27.1827 75.0603C27.1942 75.043 27.2002 75.0227 27.2002 75.002C27.2002 74.9813 27.1942 74.961 27.1827 74.9437L25.5398 72.6152C25.4822 72.5321 25.4485 72.4349 25.4422 72.3341C25.436 72.2333 25.4575 72.1328 25.5045 72.0433C25.5514 71.9538 25.622 71.8788 25.7086 71.8264C25.7952 71.774 25.8946 71.7462 25.9959 71.7459H30.3615C30.4552 71.7456 30.5475 71.7696 30.6292 71.8156C30.7108 71.8615 30.7791 71.9278 30.8274 72.008L32.1608 74.1315C32.1694 74.146 32.1818 74.158 32.1965 74.1663C32.2113 74.1746 32.228 74.1788 32.2449 74.1786H33.8826C33.885 74.1365 33.8801 74.0941 33.8681 74.0535L32.5433 69.3047C32.5071 69.1761 32.4995 69.0412 32.5211 68.9094C32.5426 68.7776 32.5928 68.6521 32.6682 68.5416L33.0414 67.9816C33.053 67.9649 33.0592 67.9449 33.0592 67.9246V63.8949C33.0587 63.7275 33.0962 63.5621 33.1691 63.4112C33.242 63.2604 33.3482 63.1279 33.4797 63.0238L34.3867 62.3033C34.3972 62.2943 34.4057 62.2831 34.4116 62.2706C34.4175 62.258 34.4206 62.2444 34.4208 62.2305C34.4215 62.2166 34.4192 62.2027 34.4141 62.1897C34.409 62.1768 34.4012 62.165 34.3912 62.1552L33.3976 61.1648C33.2864 61.0536 33.2067 60.915 33.1667 60.7632C33.1266 60.6113 33.1276 60.4516 33.1696 60.3002L33.7998 57.99C33.8271 57.8915 33.8822 57.8029 33.9584 57.7346C34.0347 57.6663 34.129 57.6213 34.2302 57.6048C34.3314 57.5884 34.4352 57.6012 34.5293 57.6417C34.6234 57.6822 34.7039 57.7487 34.7612 57.8334L35.6747 59.1998C36.0502 59.7587 36.2501 60.4163 36.2491 61.0889V61.4564C36.2492 61.473 36.2537 61.4893 36.2619 61.5037C36.2702 61.5182 36.2821 61.5303 36.2964 61.5389L38.7844 62.9144C38.7999 62.9234 38.8178 62.9274 38.8357 62.9262H38.8423L41.2435 62.6642C41.2677 62.6612 41.2904 62.6508 41.3086 62.6345C41.3266 62.6183 41.3393 62.5968 41.3448 62.5731L41.8081 60.5708C41.8152 60.5488 41.8132 60.5249 41.8028 60.5043C41.7924 60.4837 41.7742 60.468 41.7522 60.4607C41.7315 60.4502 41.7075 60.4478 41.6852 60.4543C41.6628 60.4608 41.6438 60.4755 41.632 60.4954L41.5229 60.6585C41.4586 60.7572 41.363 60.8314 41.2513 60.8693C41.1396 60.9072 41.0184 60.9066 40.9071 60.8675L39.5987 60.4338C39.4645 60.3889 39.3538 60.2928 39.2907 60.1665C39.2277 60.0403 39.2174 59.8943 39.2622 59.7605L40.0232 57.4811C40.0285 57.4669 40.0304 57.4517 40.0287 57.4367C40.027 57.4216 40.0217 57.4072 40.0133 57.3946L39.2615 56.4009C39.1895 56.307 39.1511 56.1917 39.1525 56.0734V55.5887C39.1525 55.5629 39.1421 55.538 39.1237 55.5197C39.1054 55.5014 39.0805 55.4911 39.0545 55.4911H37.6922C37.6163 55.4914 37.5411 55.4758 37.4717 55.4454C37.4021 55.4149 37.3398 55.3703 37.2887 55.3143L34.5286 52.3117C34.4569 52.2338 34.4094 52.1368 34.3921 52.0325C34.3748 51.9282 34.3883 51.8211 34.431 51.7243C34.4737 51.6276 34.5438 51.5453 34.6327 51.4875C34.7215 51.4298 34.8253 51.3992 34.9314 51.3992H36.7288C36.8095 51.3927 36.8881 51.3704 36.9601 51.3338C37.1288 51.2577 37.2803 51.1482 37.4053 51.0119C37.5302 50.8757 37.626 50.7155 37.687 50.5412C37.7557 50.3475 37.7848 50.142 37.7725 49.9369C37.7602 49.7318 37.7067 49.5312 37.6153 49.3471C37.4317 48.9752 37.173 48.6449 36.8556 48.377L36.1682 47.7875C36.1083 47.7369 36.0603 47.6739 36.0274 47.6028C35.9944 47.5317 35.9774 47.4544 35.9776 47.3762C35.9778 47.2962 35.9956 47.2174 36.0296 47.145C36.0637 47.0727 36.1132 47.0088 36.1748 46.9576L36.2491 46.8967C37.2368 46.0753 38.4348 45.5445 39.7084 45.3639L40.2111 45.29V49.9163C40.3177 49.5287 40.3716 49.1286 40.3715 48.7268V45.2002L41.101 45.5343C42.2367 46.0571 43.2374 46.832 44.0264 47.7996C44.8154 48.7673 45.3719 49.902 45.6532 51.1169L45.7557 51.5433H43.2585C42.7637 51.5411 42.2809 51.6942 41.8784 51.9809L41.6208 52.1682C41.527 52.2335 41.452 52.3221 41.403 52.4251C41.3541 52.5281 41.3331 52.6421 41.3419 52.7558C41.3507 52.8695 41.3891 52.9788 41.4534 53.0732C41.5176 53.1675 41.6055 53.2434 41.7082 53.2935C42.0144 53.4456 42.3518 53.5247 42.6939 53.5248H42.7669C42.9778 53.5252 43.1863 53.5691 43.3793 53.6536C43.5723 53.7381 43.7457 53.8615 43.8887 54.016L47.0727 57.4535C47.1656 57.5535 47.2172 57.6848 47.2172 57.821V66.1253C47.2176 66.1395 47.221 66.1536 47.2271 66.1665L47.741 67.1903C47.7973 67.3029 47.8267 67.4268 47.8271 67.5525V74.0771C47.8271 74.1031 47.8374 74.128 47.8557 74.1464C47.8741 74.1648 47.899 74.1752 47.925 74.1754H50.1647C50.181 74.1756 50.1972 74.1717 50.2117 74.1641C50.2262 74.1564 50.2385 74.1452 50.2474 74.1315C50.2563 74.1186 50.2617 74.1036 50.2632 74.088C50.2647 74.0725 50.2622 74.0568 50.256 74.0424L49.2795 71.7001C49.2363 71.5974 49.2268 71.4839 49.2524 71.3756C49.2779 71.2672 49.3373 71.1698 49.4218 71.097C49.5063 71.0244 49.6117 70.9802 49.723 70.9709C49.8342 70.9615 49.9456 70.9875 50.0411 71.0451L55.7973 74.5383C55.8779 74.5871 55.9448 74.6556 55.9915 74.7374C56.0383 74.819 56.0634 74.9112 56.0646 75.0053C56.0658 75.0993 56.043 75.1922 55.9982 75.275C55.9535 75.3578 55.8885 75.428 55.8091 75.4788L50.3158 78.9622C50.2205 79.0224 50.1088 79.0516 49.9961 79.0458C49.8835 79.0401 49.7753 78.9997 49.6866 78.9302C49.598 78.8606 49.5332 78.7653 49.5011 78.6575C49.469 78.5498 49.4712 78.4347 49.5075 78.3282L50.2961 75.9629C50.3002 75.9482 50.3009 75.9327 50.2981 75.9177C50.2953 75.9027 50.2891 75.8886 50.28 75.8763C50.2709 75.864 50.259 75.854 50.2454 75.847C50.2318 75.84 50.2168 75.8362 50.2014 75.8358H42.1373C42.1113 75.8358 42.0864 75.8462 42.0681 75.8645C42.0497 75.8828 42.0394 75.9075 42.0394 75.9335V77.8284C42.0393 77.8469 42.0446 77.865 42.0546 77.8806C42.0646 77.8962 42.079 77.9085 42.0959 77.9162L42.1978 77.9613C42.6578 78.1611 43.3465 78.4638 43.8032 79.4522C44.189 80.2894 44.2299 81.2446 43.917 82.1116C43.5397 83.1754 42.8655 83.6038 42.4653 83.8594L42.3851 83.911C42.3722 83.92 42.3618 83.9314 42.3546 83.9452C42.3474 83.959 42.3436 83.9746 42.3437 83.9902V85.6144C42.3439 85.6864 42.33 85.7578 42.3026 85.8238C42.2752 85.8904 42.2349 85.951 42.1841 86.002C42.1332 86.053 42.0728 86.0932 42.0062 86.1208C41.9397 86.1484 41.8683 86.1628 41.7963 86.1628ZM32.2449 75.3898H39.968C40.1132 75.39 40.2524 75.4475 40.3551 75.5498C40.4579 75.652 40.5157 75.7907 40.5161 75.9354V77.8304C40.516 77.9349 40.4857 78.0372 40.4289 78.125C40.372 78.2129 40.2909 78.2825 40.1954 78.3255L40.1264 78.357C39.6578 78.5653 38.8732 78.9144 38.5366 79.9552C38.3933 80.416 38.3654 80.9044 38.4552 81.3784C38.701 82.7428 39.4245 83.197 39.8576 83.4688L39.966 83.5342C40.0416 83.5834 40.1037 83.6512 40.1465 83.7304C40.1893 83.8096 40.2115 83.8984 40.2111 83.989V85.6144C40.2113 85.6402 40.2218 85.6654 40.2403 85.6834C40.2587 85.702 40.2837 85.7122 40.3097 85.7122H41.7963C41.8223 85.7122 41.8473 85.702 41.8657 85.6834C41.8842 85.6654 41.8946 85.6402 41.8948 85.6144V83.992C41.8945 83.902 41.9166 83.8132 41.9593 83.734C42.002 83.6548 42.0638 83.587 42.1393 83.5372L42.2234 83.4838C42.5993 83.245 43.1678 82.8826 43.4931 81.9646C43.7666 81.2074 43.7317 80.3734 43.3958 79.6415C43.01 78.807 42.4363 78.5561 42.0157 78.3734L41.9086 78.3262C41.8131 78.2829 41.7321 78.2131 41.6752 78.1252C41.6184 78.0373 41.5881 77.9349 41.5879 77.8304V75.9354C41.5881 75.7908 41.6458 75.6521 41.7485 75.5498C41.8511 75.4475 41.9902 75.39 42.1354 75.3898H50.2028C50.2892 75.3894 50.3745 75.4097 50.4514 75.4488C50.5284 75.4881 50.5948 75.5451 50.6451 75.6151C50.696 75.6848 50.7297 75.7655 50.7434 75.8507C50.7571 75.9358 50.7504 76.023 50.7239 76.1051L49.9301 78.4749C49.9235 78.4936 49.923 78.5139 49.9284 78.5329C49.9339 78.552 49.9451 78.5689 49.9605 78.5814C49.976 78.5938 49.9949 78.6012 50.0147 78.6026C50.0346 78.6039 50.0543 78.5991 50.0713 78.5889L55.564 75.1062C55.5798 75.0964 55.5928 75.0827 55.6017 75.0663C55.6105 75.05 55.615 75.0317 55.6146 75.0131C55.6144 74.9951 55.6095 74.9774 55.6004 74.9618C55.5913 74.9462 55.5783 74.9332 55.5627 74.9241L49.8072 71.4315C49.7931 71.4221 49.7763 71.4178 49.7594 71.4192C49.7426 71.4206 49.7267 71.4278 49.7145 71.4394C49.701 71.45 49.6916 71.4648 49.6877 71.4815C49.6838 71.4981 49.6856 71.5156 49.6928 71.5311L50.6707 73.8721C50.7052 73.955 50.7187 74.045 50.7099 74.1343C50.7011 74.2236 50.6703 74.3094 50.6202 74.3839C50.5701 74.4585 50.5023 74.5195 50.4228 74.5616C50.3434 74.6038 50.2547 74.6257 50.1647 74.6254H47.9264C47.7812 74.6252 47.6421 74.5677 47.5395 74.4654C47.4368 74.3631 47.3791 74.2244 47.3789 74.0798V67.5525C47.3789 67.4964 47.3658 67.4411 47.3408 67.3908L46.8269 66.3663C46.7893 66.2915 46.7697 66.209 46.7697 66.1253V57.821C46.7694 57.7983 46.7611 57.7765 46.7461 57.7595L43.5601 54.32C43.4592 54.2108 43.3368 54.1236 43.2006 54.0638C43.0643 54.0041 42.9171 53.9731 42.7682 53.9728H42.6919C42.2813 53.9721 41.8765 53.8766 41.5091 53.6937C41.3375 53.6089 41.1909 53.4812 41.0836 53.323C40.9763 53.1648 40.9121 52.9816 40.8972 52.7912C40.8822 52.6009 40.917 52.4099 40.9982 52.237C41.0795 52.0641 41.2043 51.9152 41.3605 51.8047L41.6155 51.6194C42.0944 51.277 42.6692 51.0936 43.2585 51.0953H45.1886C44.9095 49.9721 44.3808 48.9257 43.6414 48.0335C42.902 47.1414 41.9709 46.4262 40.917 45.941L40.8243 45.8984V48.7262C40.8247 49.2589 40.7385 49.7882 40.5693 50.2936L40.495 50.5058C40.4665 50.5901 40.4089 50.6616 40.3325 50.7075C40.256 50.7534 40.1657 50.7707 40.0776 50.7564C39.9895 50.7421 39.9094 50.697 39.8515 50.6293C39.7936 50.5616 39.7618 50.4756 39.7617 50.3866V45.8087C38.5738 45.9786 37.4567 46.4741 36.5349 47.2399L36.462 47.3002C36.451 47.3094 36.4421 47.321 36.4361 47.334C36.4301 47.347 36.427 47.3612 36.4271 47.3755C36.427 47.3889 36.4297 47.4023 36.4353 47.4144C36.4409 47.4267 36.4491 47.4375 36.4594 47.4462L37.1474 48.0357C37.5106 48.3435 37.8061 48.7226 38.0155 49.1493C38.1335 49.3874 38.2024 49.6466 38.2181 49.9116C38.2338 50.1767 38.196 50.4422 38.1069 50.6925C38.0257 50.9232 37.8981 51.1352 37.7322 51.3153C37.5663 51.4955 37.3653 51.6401 37.1415 51.7405C37.012 51.8042 36.8705 51.8399 36.7261 51.8453H34.9288C34.9098 51.8448 34.8911 51.85 34.8751 51.8603C34.8592 51.8706 34.8467 51.8855 34.8394 51.903C34.8314 51.9203 34.8288 51.9396 34.832 51.9584C34.8352 51.9772 34.8439 51.9947 34.8572 52.0084L37.6173 55.011C37.6265 55.0209 37.6377 55.0288 37.6501 55.0341C37.6626 55.0394 37.676 55.042 37.6896 55.0418H39.0519C39.197 55.0419 39.3362 55.0995 39.4388 55.2018C39.5414 55.3041 39.5992 55.4427 39.5993 55.5874V56.0734C39.5985 56.0927 39.6043 56.1116 39.6157 56.1272L40.3676 57.126C40.4208 57.1965 40.4559 57.2789 40.4698 57.366C40.4836 57.4532 40.4759 57.5424 40.4471 57.6258L39.688 59.9052C39.6845 59.9157 39.6832 59.9268 39.684 59.9378C39.6848 59.9489 39.6879 59.9596 39.6928 59.9695C39.6978 59.9793 39.7048 59.9881 39.7132 59.9953C39.7216 60.0025 39.7314 60.008 39.7419 60.0114L41.051 60.445C41.068 60.4517 41.0868 60.4524 41.1042 60.4471C41.1216 60.4417 41.1367 60.4306 41.147 60.4155L41.2593 60.2478C41.3304 60.1422 41.4365 60.0647 41.5589 60.0288C41.6814 59.993 41.8126 60.001 41.9297 60.0515C42.0469 60.102 42.1425 60.1919 42.2001 60.3054C42.2578 60.4189 42.2737 60.5489 42.2451 60.6729L41.7851 62.6753C41.7582 62.7893 41.6966 62.8922 41.6087 62.9698C41.5208 63.0474 41.4109 63.096 41.2942 63.1089L38.8975 63.371C38.7866 63.3841 38.6743 63.3628 38.5761 63.31H38.5715L36.0821 61.9312C35.9971 61.8843 35.9263 61.8155 35.877 61.7319C35.8278 61.6484 35.8019 61.5532 35.8022 61.4564V61.0889C35.8027 60.5059 35.6293 59.9359 35.3041 59.4513L34.3899 58.0843C34.381 58.0708 34.3682 58.0602 34.3532 58.0539C34.3382 58.0476 34.3217 58.0459 34.3058 58.049C34.2892 58.0511 34.2737 58.058 34.2612 58.069C34.2487 58.08 34.2397 58.0944 34.2355 58.1105L33.6053 60.4214C33.5843 60.4965 33.5836 60.5759 33.6034 60.6513C33.6231 60.7268 33.6626 60.7957 33.7177 60.8511L34.71 61.8375C34.7644 61.8917 34.8068 61.9566 34.8344 62.028C34.8621 62.0995 34.8743 62.176 34.8704 62.2525C34.8665 62.329 34.8465 62.4039 34.8118 62.4722C34.777 62.5405 34.7282 62.6008 34.6686 62.6491L33.7597 63.3729C33.6806 63.4355 33.6169 63.5153 33.5733 63.606C33.5297 63.6968 33.5074 63.7962 33.508 63.8969V67.9226C33.5082 68.0312 33.4762 68.1374 33.416 68.2278L33.0407 68.7892C33.002 68.8461 32.9761 68.9107 32.9647 68.9786C32.9534 69.0464 32.9569 69.1158 32.975 69.1822L34.3006 73.9317C34.3584 74.1465 34.336 74.3346 34.2348 74.4623C34.1942 74.5141 34.1417 74.5556 34.0819 74.5833C34.022 74.6111 33.9565 74.6244 33.8905 74.6221H32.2449C32.1514 74.6228 32.0594 74.5993 31.9777 74.5539C31.8961 74.5086 31.8276 74.4429 31.779 74.3634L30.4456 72.2398C30.4368 72.2255 30.4244 72.2136 30.4097 72.2055C30.3949 72.1973 30.3783 72.1931 30.3615 72.1933H25.9959C25.9765 72.1929 25.9573 72.1979 25.9407 72.2079C25.9241 72.2179 25.9106 72.2324 25.9019 72.2496C25.8924 72.267 25.888 72.2867 25.8893 72.3064C25.8906 72.3261 25.8974 72.345 25.9091 72.361L27.552 74.6928C27.6151 74.7848 27.6489 74.8936 27.6489 75.005C27.6489 75.1163 27.6151 75.2252 27.552 75.3171L25.8809 77.6948C25.8728 77.7068 25.8681 77.7207 25.8674 77.7351C25.8666 77.7495 25.8697 77.7638 25.8765 77.7765C25.8832 77.7893 25.8933 77.8 25.9056 77.8075C25.918 77.815 25.9321 77.8191 25.9466 77.8192H30.3707C30.3838 77.819 30.3966 77.8155 30.4081 77.8091C30.4196 77.8026 30.4293 77.7936 30.4364 77.7825L31.7777 75.6465C31.8266 75.5671 31.8954 75.5016 31.9773 75.4566C32.0592 75.4116 32.1514 75.3886 32.2449 75.3898Z" fill="black"/>
<path d="M62.7126 75.3042C64.0776 75.3042 64.8399 76.0247 64.8399 77.1959V78.409C64.8399 79.5775 64.0776 80.2997 62.7126 80.2997C61.3477 80.2997 60.5762 79.5801 60.5762 78.409V77.1959C60.5762 76.0273 61.3411 75.3042 62.7126 75.3042ZM62.7126 76.4832C62.2277 76.4832 61.9503 76.7059 61.9503 77.1317V78.4744C61.9503 78.8996 62.2277 79.1229 62.7126 79.1229C63.1976 79.1229 63.4677 78.8976 63.4677 78.4744V77.1349C63.4677 76.7092 63.1911 76.4865 62.7126 76.4865V76.4832Z" fill="black"/>
<path d="M69.573 75.6894V76.2972C69.573 76.5134 69.4968 76.5881 69.2747 76.5881H68.2495V79.9155C68.2495 80.1252 68.1732 80.199 67.9517 80.199H67.1684C66.947 80.199 66.8773 80.1252 66.8773 79.9155V76.5881H65.8448C65.6234 76.5881 65.5537 76.5134 65.5537 76.2972V75.6894C65.5537 75.4797 65.6234 75.4058 65.8448 75.4058H69.2747C69.4968 75.4058 69.573 75.4797 69.573 75.6894Z" fill="black"/>
<path d="M74.3104 76.6826C74.3104 77.1352 74.1651 77.4391 73.8116 77.6756V77.7025C74.2552 77.8918 74.5115 78.2769 74.5115 78.8644C74.5115 79.7356 73.784 80.2016 72.8068 80.2016H70.7498C70.5284 80.2016 70.4521 80.1272 70.4521 79.9177V75.6896C70.4521 75.4735 70.5284 75.3994 70.7498 75.3994H72.7805C73.7367 75.3994 74.3104 75.8586 74.3104 76.6826ZM72.4946 76.4861H71.8243V77.2302H72.4959C72.7733 77.2302 72.9192 77.1293 72.9192 76.8653C72.9192 76.6013 72.7733 76.4867 72.4959 76.4867L72.4946 76.4861ZM72.6261 78.3162H71.8243V79.1068H72.628C72.9257 79.1068 73.0716 78.9922 73.0716 78.7085C73.0716 78.4387 72.9257 78.3169 72.628 78.3169L72.6261 78.3162Z" fill="black"/>
<path d="M78.9692 75.6894V76.2972C78.9692 76.5134 78.8929 76.5881 78.6708 76.5881H76.8419V77.1887H78.3034C78.5255 77.1887 78.6018 77.2634 78.6018 77.4723V78.0815C78.6018 78.2976 78.5255 78.3716 78.3034 78.3716H76.8419V79.0201H78.7332C78.9481 79.0201 79.0244 79.0856 79.0244 79.3037V79.9155C79.0244 80.1252 78.9481 80.199 78.7332 80.199H75.7674C75.546 80.199 75.4697 80.1252 75.4697 79.9155V75.6894C75.4697 75.4797 75.546 75.4058 75.7674 75.4058H78.6708C78.8929 75.4058 78.9692 75.4797 78.9692 75.6894Z" fill="black"/>
<path d="M83.7565 75.6894V76.2972C83.7565 76.5134 83.6813 76.5881 83.4591 76.5881H82.4337V79.9155C82.4337 80.1252 82.3573 80.199 82.1351 80.199H81.3524C81.1302 80.199 81.0616 80.1252 81.0616 79.9155V76.5881H80.0284C79.8069 76.5881 79.7373 76.5134 79.7373 76.2972V75.6894C79.7373 75.4797 79.8069 75.4058 80.0284 75.4058H83.4591C83.6813 75.4058 83.7565 75.4797 83.7565 75.6894Z" fill="black"/>
<path d="M86.5909 75.3042C87.6584 75.3042 88.3231 75.73 88.6145 76.4832C88.6831 76.6797 88.6356 76.7806 88.4272 76.8481L87.6861 77.1048C87.4711 77.1651 87.388 77.1317 87.3122 76.922C87.1869 76.6181 86.9792 76.4832 86.5891 76.4832C86.0417 76.4832 85.8268 76.7131 85.8268 77.1854V78.4148C85.8268 78.8878 86.0417 79.1177 86.5891 79.1177C86.9774 79.1177 87.199 78.969 87.3122 78.6782C87.3947 78.4692 87.4783 78.4214 87.6861 78.4961L88.4272 78.7528C88.6356 78.8183 88.6831 78.9218 88.6145 79.1177C88.3231 79.8736 87.6584 80.2967 86.5909 80.2967C85.2259 80.2967 84.457 79.5762 84.457 78.4057V77.1959C84.457 76.0273 85.2259 75.3042 86.5909 75.3042Z" fill="black"/>
<path d="M93.2979 75.6894V76.2972C93.2979 76.5134 93.2214 76.5881 92.9993 76.5881H91.9739V79.9155C91.9739 80.1252 91.898 80.199 91.6759 80.199H90.8931C90.6716 80.199 90.6017 80.1252 90.6017 79.9155V76.5881H89.5697C89.3482 76.5881 89.2783 76.5134 89.2783 76.2972V75.6894C89.2783 75.4797 89.3482 75.4058 89.5697 75.4058H92.9993C93.2214 75.4058 93.2979 75.4797 93.2979 75.6894Z" fill="black"/>
<path d="M98.0378 76.6826C98.0378 77.1352 97.8914 77.4391 97.5386 77.6756V77.7025C97.9818 77.8918 98.2389 78.2769 98.2389 78.8644C98.2389 79.7356 97.5103 80.2016 96.5337 80.2016H94.4758C94.2542 80.2016 94.1777 80.1272 94.1777 79.9177V75.6896C94.1777 75.4735 94.2542 75.3994 94.4758 75.3994H96.5066C97.4628 75.3994 98.0378 75.8586 98.0378 76.6826ZM96.2218 76.4861H95.5499V77.2302H96.2218C96.4994 77.2302 96.6445 77.1293 96.6445 76.8653C96.6445 76.6013 96.4994 76.4867 96.2218 76.4867V76.4861ZM96.3531 78.3162H95.5499V79.1068H96.3537C96.6517 79.1068 96.7974 78.9922 96.7974 78.7085C96.7974 78.4387 96.6541 78.3169 96.3537 78.3169L96.3531 78.3162Z" fill="black"/>
<path d="M102.693 75.6894V76.2972C102.693 76.5134 102.617 76.5881 102.396 76.5881H100.566V77.1887H102.028C102.251 77.1887 102.326 77.2634 102.326 77.4723V78.0815C102.326 78.2976 102.251 78.3716 102.028 78.3716H100.566V79.0201H102.458C102.673 79.0201 102.749 79.0856 102.749 79.3037V79.9155C102.749 80.1252 102.673 80.199 102.458 80.199H99.4924C99.2708 80.199 99.1943 80.1252 99.1943 79.9155V75.6894C99.1943 75.4797 99.2708 75.4058 99.4924 75.4058H102.396C102.617 75.4058 102.693 75.4797 102.693 75.6894Z" fill="black"/>
<path d="M107.815 75.6896V79.9157C107.815 80.1254 107.739 80.1992 107.524 80.1992H106.735C106.521 80.1992 106.444 80.1254 106.444 79.9157V78.3647H105.1V79.9157C105.1 80.1254 105.034 80.1992 104.808 80.1992H104.026C103.803 80.1992 103.728 80.1254 103.728 79.9157V75.6896C103.728 75.4735 103.803 75.3994 104.026 75.3994H104.808C105.03 75.3994 105.1 75.4735 105.1 75.6896V77.1824H106.447V75.6896C106.447 75.4735 106.523 75.3994 106.738 75.3994H107.527C107.739 75.3994 107.815 75.4735 107.815 75.6896Z" fill="black"/>
<path d="M113.054 75.6896V79.9157C113.054 80.1254 112.978 80.1992 112.763 80.1992H111.974C111.759 80.1992 111.683 80.1254 111.683 79.9157V78.3647H110.337V79.9157C110.337 80.1254 110.271 80.1992 110.047 80.1992H109.263C109.042 80.1992 108.966 80.1254 108.966 79.9157V75.6896C108.966 75.4735 109.042 75.3994 109.263 75.3994H110.047C110.268 75.3994 110.337 75.4735 110.337 75.6896V77.1824H111.682V75.6896C111.682 75.4735 111.758 75.3994 111.973 75.3994H112.761C112.978 75.3994 113.054 75.4735 113.054 75.6896Z" fill="black"/>
<path d="M116.22 75.3042C117.585 75.3042 118.347 76.0247 118.347 77.1959V78.409C118.347 79.5775 117.585 80.2997 116.22 80.2997C114.855 80.2997 114.086 79.5794 114.086 78.409V77.1959C114.086 76.0273 114.848 75.3042 116.22 75.3042ZM116.22 76.4832C115.734 76.4832 115.458 76.7059 115.458 77.1317V78.4744C115.458 78.8996 115.734 79.1229 116.22 79.1229C116.704 79.1229 116.975 78.8996 116.975 78.4744V77.1349C116.975 76.7092 116.698 76.4865 116.22 76.4865V76.4832Z" fill="black"/>
<path d="M122.886 75.6894V76.2972C122.886 76.5134 122.809 76.5881 122.587 76.5881H120.759V77.1887H122.218C122.44 77.1887 122.517 77.2634 122.517 77.4723V78.0815C122.517 78.2976 122.44 78.3716 122.218 78.3716H120.757V79.0201H122.648C122.863 79.0201 122.939 79.0856 122.939 79.3037V79.9155C122.939 80.1252 122.863 80.199 122.648 80.199H119.682C119.461 80.199 119.385 80.1252 119.385 79.9155V75.6894C119.385 75.4797 119.461 75.4058 119.682 75.4058H122.585C122.809 75.4058 122.886 75.4797 122.886 75.6894Z" fill="black"/>
<path d="M127.639 75.3042C128.707 75.3042 129.372 75.73 129.662 76.4832C129.732 76.6797 129.683 76.7806 129.476 76.8481L128.735 77.1048C128.52 77.1651 128.436 77.1317 128.36 76.922C128.235 76.6181 128.027 76.4832 127.637 76.4832C127.09 76.4832 126.875 76.7131 126.875 77.1854V78.4148C126.875 78.8878 127.09 79.1177 127.637 79.1177C128.025 79.1177 128.247 78.969 128.36 78.6782C128.443 78.4692 128.526 78.4214 128.735 78.4961L129.476 78.7528C129.683 78.8183 129.732 78.9218 129.662 79.1177C129.372 79.8736 128.707 80.2967 127.639 80.2967C126.274 80.2967 125.505 79.5762 125.505 78.4057V77.1959C125.504 76.0273 126.274 75.3042 127.639 75.3042Z" fill="black"/>
<path d="M134.347 75.6894V76.2972C134.347 76.5134 134.271 76.5881 134.05 76.5881H133.024V79.9155C133.024 80.1252 132.947 80.199 132.726 80.199H131.945C131.724 80.199 131.654 80.1252 131.654 79.9155V76.5881H130.622C130.4 76.5881 130.331 76.5134 130.331 76.2972V75.6894C130.331 75.4797 130.397 75.4058 130.622 75.4058H134.048C134.271 75.4058 134.347 75.4797 134.347 75.6894Z" fill="black"/>
<path d="M139.227 77.0943C139.227 78.1614 138.526 78.7627 137.452 78.7627H136.598V79.9155C136.598 80.1252 136.532 80.199 136.306 80.199H135.524C135.301 80.199 135.226 80.1252 135.226 79.9155V75.6894C135.226 75.4797 135.301 75.4058 135.524 75.4058H137.436C138.518 75.4058 139.227 76.0202 139.227 77.0943ZM137.806 77.0878C137.806 76.7904 137.609 76.5881 137.287 76.5881H136.6V77.5804H137.287C137.612 77.5804 137.806 77.3846 137.806 77.0878Z" fill="black"/>
<path d="M142.184 75.3042C143.549 75.3042 144.311 76.0247 144.311 77.1959V78.409C144.311 79.5775 143.549 80.2997 142.184 80.2997C140.819 80.2997 140.05 79.5794 140.05 78.409V77.1959C140.05 76.0273 140.812 75.3042 142.184 75.3042ZM142.184 76.4832C141.699 76.4832 141.422 76.7059 141.422 77.1317V78.4744C141.422 78.8996 141.699 79.1229 142.184 79.1229C142.669 79.1229 142.939 78.8996 142.939 78.4744V77.1349C142.939 76.7092 142.662 76.4865 142.184 76.4865V76.4832Z" fill="black"/>
<path d="M149.543 75.6896V79.9158C149.543 80.1254 149.467 80.1992 149.245 80.1992H148.469C148.247 80.1992 148.171 80.1254 148.171 79.9092V78.763C148.171 78.0064 148.247 77.8243 148.435 77.0881H148.379C148.123 77.7837 148.026 77.9861 147.728 78.4793L146.772 80.0666C146.716 80.168 146.64 80.2016 146.487 80.2016H145.649C145.427 80.2016 145.351 80.1272 145.351 79.9177V75.6896C145.351 75.48 145.427 75.406 145.649 75.406H146.432C146.654 75.406 146.723 75.48 146.723 75.6896V76.8444C146.723 77.5807 146.688 77.7968 146.467 78.5128H146.515C146.792 77.8309 146.882 77.6009 147.18 77.1084L148.123 75.5363C148.185 75.442 148.254 75.4014 148.414 75.4014H149.245C149.467 75.3995 149.543 75.4735 149.543 75.6896Z" fill="black"/>
<path d="M154.449 75.6894V76.2972C154.449 76.5134 154.372 76.5881 154.151 76.5881H153.125V79.9155C153.125 80.1252 153.049 80.199 152.827 80.199H152.045C151.822 80.199 151.753 80.1252 151.753 79.9155V76.5881H150.721C150.499 76.5881 150.43 76.5134 150.43 76.2972V75.6894C150.43 75.4797 150.495 75.4058 150.721 75.4058H154.151C154.372 75.4058 154.449 75.4797 154.449 75.6894Z" fill="black"/>
<path d="M158.829 75.6894V76.2972C158.829 76.5134 158.752 76.5881 158.531 76.5881H156.702V77.1887H158.167C158.388 77.1887 158.465 77.2634 158.465 77.4723V78.0815C158.465 78.2976 158.388 78.3716 158.167 78.3716H156.702V79.0201H158.593C158.808 79.0201 158.884 79.0856 158.884 79.3037V79.9155C158.884 80.1252 158.808 80.199 158.593 80.199H155.628C155.406 80.199 155.33 80.1252 155.33 79.9155V75.6894C155.33 75.4797 155.406 75.4058 155.628 75.4058H158.531C158.752 75.4058 158.829 75.4797 158.829 75.6894Z" fill="black"/>
<path d="M164.005 75.6894V79.9155C164.005 80.1252 163.929 80.199 163.707 80.199H162.924C162.702 80.199 162.632 80.1252 162.632 79.9155V76.5881H161.802V77.2227C161.802 79.1878 161.178 79.85 160.355 80.2488C160.161 80.3496 160.065 80.3028 159.962 80.1132L159.567 79.4249C159.463 79.2356 159.512 79.1406 159.706 79.0319C160.121 78.7961 160.454 78.4987 160.454 77.2286V75.6894C160.454 75.4797 160.531 75.4058 160.752 75.4058H163.709C163.929 75.4058 164.005 75.4797 164.005 75.6894Z" fill="black"/>
<path d="M165.155 79.9155V75.6894C165.155 75.4797 165.232 75.4058 165.453 75.4058H166.237C166.458 75.4058 166.527 75.4797 166.527 75.6894V76.8441H167.382C168.456 76.8441 169.156 77.4455 169.156 78.5124C169.156 79.5795 168.449 80.2014 167.369 80.2014H165.456C165.232 80.2014 165.155 80.127 165.155 79.9155ZM166.527 79.0175H167.214C167.542 79.0175 167.733 78.8144 167.733 78.5177C167.733 78.221 167.539 78.0245 167.214 78.0245H166.527V79.0175Z" fill="black"/>
<path d="M172.11 75.3042C173.178 75.3042 173.843 75.73 174.134 76.4832C174.203 76.6797 174.155 76.7806 173.947 76.8481L173.206 77.1048C172.991 77.1651 172.908 77.1317 172.832 76.922C172.706 76.6181 172.499 76.4832 172.109 76.4832C171.561 76.4832 171.346 76.7131 171.346 77.1854V78.4148C171.346 78.8878 171.561 79.1177 172.109 79.1177C172.497 79.1177 172.719 78.969 172.832 78.6782C172.914 78.4692 172.998 78.4214 173.206 78.4961L173.947 78.7528C174.155 78.8183 174.203 78.9218 174.134 79.1177C173.843 79.8736 173.178 80.2967 172.11 80.2967C170.745 80.2967 169.977 79.5762 169.977 78.4057V77.1959C169.977 76.0273 170.745 75.3042 172.11 75.3042Z" fill="black"/>
<path d="M178.82 75.6894V76.2972C178.82 76.5134 178.743 76.5881 178.521 76.5881H177.496V79.9155C177.496 80.1252 177.42 80.199 177.198 80.199H176.415C176.193 80.199 176.124 80.1252 176.124 79.9155V76.5881H175.092C174.87 76.5881 174.801 76.5134 174.801 76.2972V75.6894C174.801 75.4797 174.87 75.4058 175.092 75.4058H178.521C178.743 75.4058 178.82 75.4797 178.82 75.6894Z" fill="black"/>
<path d="M183.559 76.6826C183.559 77.1352 183.412 77.4391 183.06 77.6756V77.7025C183.503 77.8918 183.76 78.2769 183.76 78.8644C183.76 79.7356 183.031 80.2016 182.055 80.2016H179.997C179.775 80.2016 179.699 80.1272 179.699 79.9177V75.6896C179.699 75.4735 179.775 75.3994 179.997 75.3994H182.028C182.984 75.3994 183.559 75.8586 183.559 76.6826ZM181.743 76.4861H181.071V77.2302H181.743C182.02 77.2302 182.165 77.1293 182.165 76.8653C182.165 76.6013 182.021 76.4867 181.743 76.4867V76.4861ZM181.874 78.3162H181.07V79.1068H181.874C182.172 79.1068 182.318 78.9922 182.318 78.7085C182.318 78.4387 182.173 78.3169 181.875 78.3169L181.874 78.3162Z" fill="black"/>
<path d="M186.731 75.3042C188.096 75.3042 188.858 76.0247 188.858 77.1959V78.409C188.858 79.5775 188.096 80.2997 186.731 80.2997C185.366 80.2997 184.597 79.5794 184.597 78.409V77.1959C184.597 76.0273 185.359 75.3042 186.731 75.3042ZM186.731 76.4832C186.246 76.4832 185.969 76.7059 185.969 77.1317V78.4744C185.969 78.8996 186.246 79.1229 186.731 79.1229C187.216 79.1229 187.486 78.8996 187.486 78.4744V77.1349C187.486 76.7092 187.212 76.4865 186.731 76.4865V76.4832Z" fill="black"/>
<path d="M87.724 53.3662V54.7247C87.724 55.4563 87.4705 55.7073 86.7312 55.7073H79.6003V58.4445H85.5077C86.2471 58.4445 86.5006 58.696 86.5006 59.4054V61.231C86.5006 61.9633 86.2471 62.2135 85.5077 62.2135H79.6003V64.994H86.9395C87.6554 64.994 87.9089 65.2226 87.9089 65.9549V67.6868C87.9089 68.3962 87.6554 68.6477 86.9395 68.6477H77.0584C76.3198 68.6477 76.0654 68.3962 76.0654 67.6868V53.3662C76.0654 52.6569 76.3198 52.4053 77.0584 52.4053H86.7318C87.4705 52.4053 87.724 52.6569 87.724 53.3662Z" fill="black"/>
<path d="M119.147 53.3916V54.7501C119.147 55.4817 118.889 55.7326 118.136 55.7326H110.876V58.4699H116.891C117.643 58.4699 117.902 58.7214 117.902 59.4308V61.2564C117.902 61.9887 117.643 62.2389 116.891 62.2389H110.876V65.0194H118.348C119.077 65.0194 119.334 65.248 119.334 65.9803V67.7122C119.334 68.4216 119.075 68.6731 118.348 68.6731H108.288C107.536 68.6731 107.277 68.4216 107.277 67.7122V53.3916C107.277 52.6822 107.536 52.4307 108.288 52.4307H118.137C118.889 52.4307 119.147 52.6822 119.147 53.3916Z" fill="black"/>
<path d="M102.211 60.2838V60.1928C103.397 59.399 103.884 58.3778 103.884 56.8595C103.884 54.092 101.953 52.5488 98.7449 52.5488H91.934C91.1905 52.5488 90.9346 52.799 90.9346 53.5248V67.7255C90.9346 68.4276 91.1905 68.6778 91.934 68.6778H98.8389C102.118 68.6778 104.556 67.113 104.556 64.1864C104.559 62.2109 103.699 60.9206 102.211 60.2838ZM98.4126 65.393H94.3581V55.7538H97.9435C99.2067 55.7538 99.869 56.2778 99.869 57.4791C99.869 58.6804 99.2067 59.1422 97.9435 59.1422C97.8009 59.1422 97.6642 59.1986 97.5636 59.2989C97.4631 59.3993 97.4065 59.5354 97.4065 59.6773V61.4223C97.4065 61.5642 97.4631 61.7003 97.5636 61.8007C97.6642 61.901 97.8009 61.9574 97.9435 61.9574H98.4126C99.7059 61.9574 100.338 62.486 100.338 63.6605C100.338 64.8919 99.7059 65.391 98.4126 65.391V65.393Z" fill="black"/>
<path d="M135.048 58.1529C135.048 61.7699 132.879 63.807 129.556 63.807H126.097V67.7213C126.097 68.4307 125.883 68.6823 125.196 68.6823H123.593C122.906 68.6823 122.673 68.4307 122.673 67.7213V53.3922C122.673 52.6822 122.909 52.4307 123.593 52.4307H129.514C132.86 52.4307 135.048 54.5136 135.048 58.1529ZM131.413 58.1352C131.413 56.7165 130.567 55.749 129.147 55.749H126.155V60.4887H129.147C130.566 60.4887 131.413 59.5533 131.413 58.1352Z" fill="black"/>
<path d="M150.515 53.4532V67.7194C150.515 68.4255 150.269 68.6764 149.576 68.6764H148.08C147.387 68.6764 147.14 68.4255 147.14 67.7194V62.1898H141.51V67.7194C141.51 68.4255 141.286 68.6764 140.57 68.6764H139.097C138.381 68.6764 138.135 68.4255 138.135 67.7194V53.4532C138.135 52.7242 138.381 52.4707 139.097 52.4707H140.57C141.286 52.4707 141.51 52.7216 141.51 53.4532V58.4889H147.14V53.4532C147.14 52.7242 147.387 52.4707 148.08 52.4707H149.576C150.269 52.4753 150.515 52.7262 150.515 53.4532Z" fill="black"/>
<path d="M154.33 67.7213V53.3922C154.33 52.6822 154.576 52.4307 155.292 52.4307H156.882C157.599 52.4307 157.822 52.6822 157.822 53.3922L157.939 57.7737H161.63C165.098 57.7737 167.358 59.8107 167.358 63.4277C167.358 67.0669 164.958 68.6823 161.467 68.6823H155.29C154.576 68.6823 154.33 68.4307 154.33 67.7213ZM157.919 65.4039H161.092C162.597 65.4039 163.495 64.4214 163.495 62.9803C163.495 61.5393 162.597 60.5876 161.092 60.5876H157.919V65.4039Z" fill="black"/>
<path d="M170.052 52.4307H172.108C172.633 52.4307 172.805 52.658 172.805 53.3398V67.6565C172.805 68.3383 172.631 68.5656 172.108 68.5656H170.052C169.526 68.5656 169.354 68.3383 169.354 67.6565V53.3398C169.354 52.658 169.529 52.4307 170.052 52.4307Z" fill="black"/>
<path d="M189.221 53.3398V67.6558C189.221 68.3383 189.047 68.5656 188.524 68.5656H186.467C185.944 68.5656 185.77 68.3383 185.77 67.6558V59.6568L180.042 67.9893C179.816 68.3167 179.625 68.4942 179.42 68.5348C179.33 68.5569 179.238 68.5673 179.146 68.5656H177.089C176.563 68.5656 176.393 68.3383 176.393 67.6558V53.3398C176.393 52.6573 176.566 52.4307 177.089 52.4307H179.146C179.672 52.4307 179.843 52.6573 179.843 53.3398V61.4895L185.582 53.1447C185.655 53.0348 185.737 52.9312 185.827 52.8348C185.913 52.5394 186.107 52.4307 186.469 52.4307H188.527C189.047 52.4307 189.221 52.6573 189.221 53.3398Z" fill="black"/>
<path d="M210.816 53.2959V64.9814H211.807C212.464 64.9814 212.673 65.1995 212.673 65.8754V69.9332C212.673 70.6092 212.467 70.8503 211.807 70.8503H210.124C209.464 70.8503 209.237 70.6106 209.237 69.9332V68.6167H200.628V69.9332C200.628 70.6092 200.401 70.8503 199.761 70.8503H197.941C197.301 70.8503 197.074 70.6106 197.074 69.9332V65.8767C197.074 65.2008 197.301 64.9827 197.941 64.9827H198.395C199.446 64.0447 200.045 61.7358 200.045 58.2681V53.2959C200.045 52.6199 200.271 52.3789 200.932 52.3789H209.926C210.589 52.3802 210.816 52.6199 210.816 53.2959ZM203.607 57.8574C203.607 60.6537 203.081 63.5384 202.237 64.9361H207.397V55.7004H203.607V57.8574Z" fill="black"/>
<path d="M221.127 52.4053C225.184 52.4053 227.448 54.7384 227.448 58.5114V62.4369C227.448 66.2097 225.184 68.5435 221.127 68.5435C217.052 68.5435 214.784 66.2097 214.784 62.4369V58.51C214.784 54.7372 217.049 52.4053 221.127 52.4053ZM221.127 55.5219C219.448 55.5219 218.489 56.3596 218.489 57.9598V62.9884C218.489 64.5886 219.448 65.427 221.127 65.427C222.781 65.427 223.741 64.5886 223.741 62.9884V57.9585C223.742 56.3583 222.783 55.5205 221.128 55.5205L221.127 55.5219Z" fill="black"/>
<path d="M186.955 47.6978C187.046 47.6972 187.136 47.718 187.218 47.7585C187.3 47.7989 187.371 47.8578 187.425 47.9306C187.48 48.0033 187.517 48.0878 187.533 48.1773C187.549 48.2667 187.544 48.3587 187.518 48.4458C186.992 50.1174 185.556 51.1012 183.366 51.1012C181.164 51.1012 179.725 50.1187 179.199 48.4458C179.173 48.3587 179.168 48.2666 179.184 48.1771C179.2 48.0876 179.237 48.003 179.292 47.9303C179.347 47.8575 179.418 47.7986 179.5 47.7582C179.581 47.7179 179.671 47.6972 179.763 47.6978H180.736C180.87 47.6987 180.999 47.7446 181.103 47.8278C181.206 47.911 181.279 48.0267 181.309 48.1563C181.524 49.0471 182.247 49.5095 183.368 49.5095C184.472 49.5095 185.194 49.0471 185.409 48.1563C185.439 48.0269 185.511 47.9112 185.615 47.828C185.719 47.7447 185.847 47.6989 185.98 47.6978H186.955Z" fill="black"/>
<path d="M70.1352 63.1705C69.9988 63.1691 69.8664 63.2157 69.7611 63.3021C69.6558 63.3884 69.5844 63.5091 69.5595 63.6427C69.3506 64.8833 68.4003 65.5285 66.8934 65.5285C65.1525 65.5285 64.1582 64.6907 64.1582 63.0905V58.0627C64.1582 56.4631 65.1525 55.6247 66.8934 55.6247C68.2517 55.6247 69.158 56.1487 69.4767 57.1633C69.5149 57.2796 69.5893 57.3807 69.689 57.4521C69.7887 57.5234 69.9086 57.5614 70.0313 57.5603H72.6798C72.7686 57.5594 72.8562 57.5386 72.9359 57.4994C73.0156 57.4603 73.0855 57.4037 73.1402 57.3338C73.1949 57.2641 73.2332 57.1829 73.2521 57.0963C73.2711 57.0097 73.2702 56.92 73.2495 56.8339C72.6029 54.1201 70.3902 52.5107 66.8914 52.5107C62.6632 52.5107 60.3145 54.8439 60.3145 58.6174V62.5423C60.3145 66.3165 62.6632 68.649 66.8914 68.649C70.5853 68.649 72.846 66.8503 73.3435 63.8569C73.3577 63.773 73.3535 63.6871 73.3309 63.605C73.3085 63.5229 73.2683 63.4467 73.2132 63.3817C73.1582 63.3167 73.0896 63.2644 73.0123 63.2285C72.9348 63.1925 72.8505 63.1739 72.7652 63.1737L70.1352 63.1705Z" fill="black"/>
<path d="M242.34 63.583V61.4731C242.316 62.2716 242.333 62.9469 242.34 63.583ZM234.249 63.3164C234.254 62.9365 234.26 62.5533 234.249 62.1282V63.3164Z" fill="white"/>
<path d="M245.741 53.3914V67.0865C245.741 67.7631 245.514 67.9805 244.857 67.9805H243.204C242.547 67.9805 242.342 67.7631 242.342 67.0865V63.9686C242.342 63.8376 242.342 63.7125 242.342 63.5828V58.5569C242.061 59.4254 241.441 61.0643 241.06 61.8529L239.909 64.3171C239.683 64.754 239.478 64.9505 238.924 64.9505H237.548C236.994 64.9505 236.787 64.7972 236.563 64.3171L235.35 61.8529C235.008 61.1979 234.535 59.7922 234.253 58.8621V63.3162C234.248 63.5383 234.245 63.7603 234.245 63.9896V67.0865C234.245 67.7631 234.02 67.9805 233.361 67.9805H231.735C231.078 67.9805 230.853 67.7631 230.853 67.0865V53.3914C230.853 53.0371 230.911 52.8059 231.054 52.6644C231.198 52.5229 231.413 52.4751 231.735 52.4751H233.666C234.386 52.4751 234.59 52.6061 234.878 53.1504L238.268 60.2167L241.657 53.1727C241.944 52.5832 242.129 52.4751 242.807 52.4751H244.861C245.184 52.4751 245.403 52.5275 245.543 52.6644C245.683 52.8013 245.741 53.0371 245.741 53.3914Z" fill="black"/>
<path d="M245.741 52.667V53.3941C245.741 53.0397 245.682 52.8085 245.539 52.667H245.741Z" fill="#FFFF00"/>
<path d="M230.849 52.667H231.05C230.907 52.8085 230.849 53.0397 230.849 53.3941V52.667Z" fill="white"/>
<path d="M234.248 63.3164V64.5884H234.24V63.9924C234.24 63.7605 234.243 63.5404 234.248 63.3164Z" fill="#FFFF00"/>
</svg>
