<svg width="270" height="130" viewBox="0 0 270 130" fill="none" xmlns="http://www.w3.org/2000/svg">
<rect width="270" height="130" rx="10" fill="white"/>
<path fill-rule="evenodd" clip-rule="evenodd" d="M128.341 36.1389C132.266 36.1389 135.533 40.0766 136.045 45.1671C135.547 45.438 135.048 45.7366 134.564 46.063C134.204 46.2991 133.872 46.5492 133.512 46.8061L133.442 48.5979C134.276 47.8991 135.173 47.2806 136.121 46.7505C136.059 52.4383 132.591 57.0496 128.341 57.0496C124.092 57.0496 120.624 52.4383 120.576 46.7505C121.524 47.2806 122.421 47.8991 123.254 48.5979L123.185 46.8061C122.845 46.5492 122.493 46.2991 122.133 46.063C121.652 45.7396 121.155 45.4406 120.645 45.1671C121.15 40.0766 124.417 36.1389 128.341 36.1389ZM103.867 53.3967C105.002 52.4661 107.217 52.0077 109.743 51.848C111.141 53.6808 112.838 55.2633 114.761 56.5288C115.655 57.1222 116.606 57.6247 117.599 58.0288C116.157 58.0232 114.717 57.9258 113.287 57.7372C106.892 56.876 102.074 55.2648 103.867 53.3967ZM109.328 51.2508C106.151 51.6327 103.625 52.3619 102.794 53.2092C100.434 55.6746 104.926 58.2511 111.868 59.3553C115.855 59.9872 124.597 60.4525 128.341 58.3483C132.086 60.4317 140.8 59.9872 144.815 59.3553C151.736 58.2511 156.249 55.6746 153.889 53.2092C153.058 52.3619 150.532 51.6327 147.355 51.2508C148.975 48.8062 149.466 46.3269 148.241 44.4796C147.057 42.7504 142.704 42.5212 138.357 44.1324C137.354 38.9238 133.242 35 128.341 35C123.441 35 119.344 38.9238 118.326 44.1324C113.972 42.5212 109.626 42.7434 108.442 44.4796C107.217 46.3269 107.708 48.8062 109.328 51.2508ZM152.816 53.3967C151.681 52.4661 149.466 52.0077 146.939 51.848C145.541 53.6808 143.845 55.2633 141.922 56.5288C141.027 57.1222 140.077 57.6247 139.084 58.0288C140.526 58.023 141.966 57.9256 143.396 57.7372C149.791 56.876 154.608 55.2648 152.816 53.3967ZM109.259 45.063C110.934 43.1323 114.796 44.0212 118.139 45.5213C118.111 45.8824 118.097 46.2436 118.097 46.6047C118.059 48.5826 118.512 50.5389 119.417 52.297C120.32 54.055 121.646 55.5595 123.275 56.6746C120.724 56.5071 118.255 55.7052 116.091 54.3412C111.183 51.3271 107.618 47.5006 109.259 45.0491V45.063ZM183.734 63.8485C183.206 64.3932 182.813 65.0544 182.585 65.7792C182.438 66.2138 182.438 66.6849 182.585 67.1195C182.634 67.3438 182.757 67.545 182.934 67.69C183.111 67.8351 183.332 67.9155 183.561 67.9182C184.124 67.8557 184.65 67.612 185.063 67.2237C185.552 66.8229 185.899 66.275 186.053 65.6611C186.169 65.291 186.216 64.9025 186.191 64.5153C186.183 64.1883 186.082 63.8704 185.901 63.5985C185.823 63.4869 185.72 63.3962 185.599 63.3344C185.478 63.2726 185.344 63.2417 185.209 63.2443C184.667 63.279 184.151 63.4858 183.734 63.8347V63.8485ZM96.1841 75.3838L96.3503 73.9948C95.8764 74.2073 95.3857 74.3792 94.883 74.5087C94.6963 74.5529 94.5229 74.641 94.3778 74.7657C94.2658 74.8569 94.19 74.9848 94.1629 75.1269C94.1551 75.2148 94.1677 75.3033 94.2002 75.3853C94.2327 75.4674 94.2839 75.5406 94.3501 75.5991C94.429 75.6589 94.5199 75.7011 94.6169 75.7227C94.7132 75.7443 94.8137 75.7447 94.9107 75.7241C95.3424 75.6396 95.7675 75.5259 96.1841 75.3838ZM132.079 67.814C132.315 67.814 132.854 67.7515 133.692 67.6612C134.529 67.5709 135.291 67.4946 135.969 67.439C136.647 67.3834 137.354 67.3557 138.045 67.3557C141.589 67.3557 143.783 68.189 144.628 69.8557C145.122 70.9858 145.287 72.2328 145.105 73.4532C145.003 74.3377 144.73 75.1938 144.302 75.9741C143.889 76.7418 143.287 77.3899 142.551 77.8561C141.792 78.3285 140.912 78.5697 140.018 78.5506C138.728 78.5101 137.467 78.1575 136.343 77.5228L135.706 82.787H130.266L132.079 67.814ZM151.404 67.3071C152.258 67.1134 153.131 67.0225 154.006 67.0362C154.834 67.0261 155.658 67.1433 156.45 67.3834C157.115 67.5865 157.739 67.9088 158.291 68.3349C158.783 68.7121 159.195 69.1843 159.502 69.7238C159.796 70.2316 159.984 70.7939 160.056 71.3767C160.107 71.8383 160.107 72.304 160.056 72.7656C159.977 73.4001 159.795 74.0172 159.516 74.5921C159.21 75.201 158.805 75.7548 158.318 76.231C157.796 76.7509 157.19 77.1783 156.526 77.495C155.783 77.8496 154.989 78.084 154.172 78.1895C153.484 78.2827 152.791 78.3337 152.096 78.3423C150.897 78.3762 149.708 78.1113 148.636 77.5714C147.746 77.1277 147.019 76.413 146.559 75.5296C146.137 74.7039 145.975 73.769 146.095 72.849C146.269 71.6019 146.828 70.4409 147.694 69.5293C148.671 68.4203 149.967 67.6436 151.404 67.3071ZM152.193 71.3419C151.811 71.751 151.568 72.2715 151.501 72.8281C151.432 73.3076 151.524 73.7964 151.764 74.2171C151.859 74.4185 152.007 74.5898 152.193 74.7123C152.378 74.8348 152.594 74.9037 152.816 74.9116C153.243 74.8845 153.644 74.6958 153.937 74.3838C154.317 73.9921 154.56 73.4878 154.629 72.9462C154.699 72.4414 154.611 71.9274 154.38 71.4739C154.31 71.2773 154.183 71.1061 154.015 70.9824C153.847 70.8586 153.647 70.788 153.439 70.7794C152.968 70.8031 152.523 71.004 152.193 71.3419ZM116.526 67.4946H121.773L121.655 68.4807C122.192 68.0183 122.823 67.6794 123.504 67.4876C124.274 67.2347 125.08 67.1058 125.891 67.1056C126.625 67.0945 127.353 67.2267 128.037 67.4946C128.662 67.7337 129.196 68.1667 129.559 68.7307C129.934 69.3564 130.085 70.0909 129.989 70.8141L129.103 78.1478H123.662L124.355 72.6475C124.388 72.4761 124.382 72.2992 124.336 72.1306C124.29 71.962 124.207 71.8063 124.092 71.6753C123.986 71.5603 123.858 71.4693 123.714 71.4082C123.571 71.3472 123.417 71.3175 123.261 71.3211C122.784 71.3396 122.334 71.5468 122.009 71.8975C121.583 72.3435 121.322 72.9216 121.267 73.5365L120.707 78.1686H115.26L116.526 67.4946ZM138.835 70.8558C139.651 70.96 139.956 71.8836 139.825 72.9879C139.79 73.4682 139.576 73.9178 139.225 74.2472C138.876 74.5767 138.414 74.7618 137.935 74.7657C137.118 74.6616 136.82 73.731 136.952 72.6267C136.985 72.1477 137.198 71.6989 137.547 71.3704C137.896 71.042 138.356 70.8582 138.835 70.8558ZM104.116 67.9737C105.99 67.6354 107.888 67.445 109.792 67.4043C111.646 67.4043 112.969 67.6612 113.751 68.1612C114.078 68.4121 114.335 68.745 114.494 69.1265C114.653 69.508 114.709 69.9247 114.658 70.335C114.591 70.8776 114.348 71.383 113.965 71.7725C113.542 72.209 112.996 72.5068 112.401 72.6267C113.054 72.7776 113.635 73.1476 114.048 73.6754C114.327 74.1606 114.432 74.7265 114.346 75.2796L114.298 75.6616C114.225 76.0079 114.084 76.3365 113.885 76.6284C113.685 76.9203 113.43 77.17 113.135 77.3631C112.428 77.8412 111.632 78.1718 110.795 78.3353C109.758 78.5535 108.699 78.6583 107.639 78.6478C106.085 78.6394 104.535 78.4859 103.009 78.1895L103.085 74.9116C104.535 75.5064 106.07 75.8651 107.632 75.9741C108.063 75.9678 108.482 75.8271 108.83 75.5713C108.999 75.4758 109.145 75.3431 109.257 75.1832C109.368 75.0233 109.442 74.8402 109.474 74.6476C109.563 73.9532 109.038 73.3143 107.895 72.7656C108.32 72.6862 108.715 72.4917 109.038 72.2031C109.295 71.9934 109.47 71.6977 109.529 71.3697C109.569 71.1721 109.531 70.9667 109.424 70.796C109.318 70.6254 109.149 70.5025 108.955 70.453C108.682 70.4116 108.406 70.3953 108.131 70.4044C106.478 70.4582 104.844 70.7674 103.286 71.3211L104.116 67.9737ZM95.8102 78.1686L94.3568 78.3562C93.8618 78.4316 93.3621 78.4688 92.8618 78.4672C91.7551 78.5437 90.6569 78.2319 89.7537 77.5853C89.4196 77.3226 89.1559 76.9807 88.9855 76.5905C88.8151 76.2003 88.744 75.7737 88.7778 75.3491C88.8705 74.6527 89.1504 73.995 89.5876 73.4462C89.9892 72.9794 90.5009 72.6212 91.0759 72.4045C91.7786 72.1431 92.5071 71.9591 93.2495 71.8558C94.1147 71.7169 94.8896 71.6058 95.582 71.5017C95.8271 71.4861 96.0649 71.4098 96.2738 71.2794C96.3509 71.2385 96.4189 71.1823 96.4737 71.1143C96.5285 71.0463 96.5688 70.9678 96.5923 70.8836C96.5923 70.7377 96.5165 70.6128 96.3015 70.5016C96.0053 70.3734 95.6826 70.3163 95.3604 70.335C93.7553 70.4356 92.1736 70.775 90.6677 71.3419L91.5052 67.9737C93.3332 67.6406 95.1846 67.4502 97.0421 67.4043C98.3119 67.3509 99.5781 67.5662 100.759 68.0362C101.166 68.1807 101.519 68.449 101.767 68.8038C102.015 69.1585 102.147 69.5821 102.144 70.0155L101.154 78.1686H95.8102ZM57.742 64.4736H60.5452L60.6074 64.2791C60.6739 64.1175 60.7027 63.9429 60.6919 63.7684C60.6811 63.594 60.6309 63.4243 60.5452 63.2721C60.0745 62.5777 59.1124 62.8554 58.5518 63.2721C58.1593 63.5727 57.8769 63.9951 57.7489 64.4736H57.742ZM64.6081 67.4182L62.0956 71.0572C59.1401 71.5364 55.0841 72.2795 52.5439 70.1891C51.4226 69.2724 51.1596 67.7932 51.7826 65.7583C52.0074 65.0012 52.3017 64.2666 52.6615 63.5638C53.1117 62.7222 53.7634 62.0062 54.558 61.4804C55.4252 60.882 56.3836 60.4293 57.3959 60.1401C59.4723 59.5289 62.2755 59.383 64.2136 60.5637C64.9327 60.9847 65.4815 61.646 65.764 62.4318C66.0633 63.3334 66.0633 64.3081 65.764 65.2097L65.5564 65.8C65.4525 66.0709 65.3764 66.2722 65.3279 66.4181H57.1674C57.0567 67.5246 57.7858 68.0756 59.3547 68.071C61.1273 68.0571 62.8924 67.838 64.615 67.4182H64.6081ZM43.2414 61.1123C43.5459 61.1123 45.65 61.0637 46.1692 61.0637C47.2579 61.0049 48.3403 61.2655 49.2839 61.8137C50.0007 62.2587 50.5207 62.9619 50.7374 63.7791C50.9427 64.6211 50.9091 65.5039 50.6404 66.3278C50.3716 67.2124 49.937 68.0373 49.36 68.7585C48.7582 69.5162 48.0064 70.1405 47.152 70.5919C46.3008 71.05 45.3494 71.2887 44.3834 71.2864H33.7658L38.3132 56.0079H51.7272L50.5159 60.0706H43.5528L43.2414 61.1123ZM33.1636 73.5573H74.7273L73.786 78.0576H31.7932L33.1636 73.5573ZM74.0559 73.099C73.9175 70.4044 73.8068 67.7168 73.7099 64.9875L69.91 71.2933H64.2759L72.1941 59.7789H78.4996L79.2264 67.5779C80.7181 67.3068 82.23 67.165 83.746 67.1542C84.7509 67.1431 85.754 67.2457 86.736 67.4598C87.4965 67.5894 88.2118 67.9122 88.8127 68.3974C89.9476 69.3835 89.5051 70.9808 88.723 72.0433C88.3376 72.5677 87.8409 72.9994 87.2689 73.3073C86.6704 73.6169 86.0358 73.8502 85.3795 74.0018C84.6871 74.1685 83.843 74.3212 82.8465 74.4671C82.5997 74.4874 82.3618 74.5685 82.1541 74.7032C81.9398 74.8421 81.829 74.9671 81.8079 75.0852C81.7874 75.2032 81.8982 75.356 82.1126 75.4671C82.4239 75.5953 82.7598 75.6522 83.0952 75.6338C84.7509 75.4949 86.3802 75.1353 87.9402 74.5643L87.1515 77.877C85.3241 78.2096 83.4715 78.3862 81.614 78.4048C80.2684 78.4549 78.9257 78.2402 77.6621 77.7728C77.2283 77.6475 76.8471 77.3838 76.5761 77.0217C76.3051 76.6595 76.1591 76.2186 76.1601 75.7657C76.2788 74.8496 76.7062 74.0017 77.3714 73.3629C77.9786 72.809 78.7062 72.4048 79.4963 72.1822C80.2948 71.96 81.4479 71.7285 82.9573 71.4878C83.2012 71.4711 83.4384 71.3974 83.6491 71.2725C83.7274 71.233 83.7948 71.1762 83.8478 71.1064C83.9008 71.0366 83.9369 70.9557 83.9538 70.8697C83.9538 70.703 83.8635 70.5641 83.6214 70.4391C83.2716 70.2907 82.8929 70.2243 82.5142 70.2447C79.3371 70.2169 76.9284 72.085 74.0559 73.099ZM199.889 68.3349L200.249 67.1334C199.723 67.314 199.149 67.432 198.609 67.5709C198.393 67.6231 198.19 67.7201 198.013 67.8557C197.876 67.9476 197.771 68.0815 197.716 68.2377C197.709 68.3157 197.718 68.3943 197.742 68.4685C197.768 68.5427 197.808 68.6108 197.861 68.6682C197.932 68.7391 198.016 68.7948 198.109 68.8318C198.202 68.8688 198.301 68.8864 198.401 68.8835C198.642 68.868 198.878 68.8018 199.093 68.689L199.889 68.3349ZM198.948 71.4947L197.397 71.6961C196.839 71.7797 196.274 71.8215 195.708 71.8212C194.235 71.8212 193.175 71.5017 192.525 70.8697C192.21 70.5643 191.986 70.1778 191.876 69.7527C191.766 69.3275 191.775 68.8802 191.901 68.4598C192.123 67.7271 192.513 67.057 193.041 66.5043C193.569 65.9516 194.22 65.5318 194.94 65.2792C195.737 65.0001 196.56 64.8024 197.397 64.6888L199.973 64.3069C200.252 64.2889 200.525 64.2057 200.768 64.0638C200.952 63.9751 201.098 63.8254 201.183 63.6402C201.225 63.4874 201.149 63.3416 200.941 63.2305C200.635 63.0848 200.296 63.0225 199.959 63.0499C198.166 63.1664 196.398 63.531 194.705 64.1333L196.172 60.5011C198.187 60.1456 200.225 59.9413 202.27 59.89C203.602 59.8295 204.931 60.0667 206.16 60.5845C206.57 60.7453 206.907 61.0506 207.109 61.4431C207.31 61.8357 207.361 62.2885 207.254 62.7165L204.638 71.5086L198.948 71.4947ZM182.177 60.4803C184.043 59.9044 185.977 59.5798 187.929 59.515C189.585 59.515 190.783 59.9039 191.521 60.6817C191.91 61.1378 192.203 61.6685 192.381 62.2415C192.56 62.8146 192.62 63.418 192.56 64.0152C192.504 64.4996 192.407 64.9783 192.269 65.4459C192.051 66.1693 191.729 66.8571 191.313 67.4876C190.864 68.1673 190.319 68.7778 189.694 69.3002C189.016 69.8683 188.261 70.336 187.451 70.6891C186.569 71.0758 185.637 71.3353 184.682 71.46C183.893 71.5867 183.094 71.6448 182.294 71.6336C181.302 71.6544 180.314 71.5017 179.374 71.1822L180.405 78.127H175.325L175.2 72.5017L172.369 78.1825H167.289L166.361 72.5017L164.236 78.1825H159.177L163.959 67.5084H169.566L170.743 72.6823L173.061 67.5084H176.473C176.449 66.9519 176.507 66.3947 176.647 65.8556L178.183 60.7165C178.596 59.1943 179.517 57.8605 180.793 56.9385C181.998 56.1026 183.366 55.5322 184.807 55.2648C186.475 54.9776 188.161 54.8128 189.853 54.7717C191.777 54.7023 192.982 54.6328 193.459 54.5495L192.192 58.8275C190.978 58.5143 189.728 58.3648 188.476 58.383C187.525 58.3778 186.575 58.4545 185.638 58.6122C184.83 58.7458 184.042 58.9791 183.291 59.3067C182.668 59.5983 182.308 59.9178 182.205 60.2581C182.202 60.2974 182.202 60.3369 182.205 60.3762C182.186 60.441 182.177 60.4757 182.177 60.4803ZM209.607 60.0012H215.455L214.348 63.7027H217.622L218.722 60.0012H224.543L221.117 71.5086H215.248L216.577 67.0293H213.386L212.051 71.5086H206.181L209.607 60.0012ZM234.815 60.0012H241.044L236.303 65.2097L238.241 71.4739H232.012L230.628 65.175L234.815 60.0012ZM237.196 89.6138L236.635 92.3084H239.764L240.325 89.6138H237.196ZM238.331 82.2242L237.639 88.5716H240.318L242.173 82.2242H238.331ZM231.7 86.7452C232.233 86.7452 232.261 87.2456 232.261 87.44C232.233 88.118 232.103 88.7876 231.873 89.426C231.742 89.7944 231.5 90.287 230.939 90.287C230.711 90.287 230.413 90.1556 230.413 89.5928C230.449 88.8188 230.613 88.0562 230.897 87.3356C230.959 87.1664 231.067 87.0188 231.209 86.909C231.351 86.7998 231.522 86.7332 231.7 86.7176V86.7452ZM232.102 84.5858C228.42 84.5858 226.565 87.0026 226.565 89.3774C226.565 90.3842 227.028 92.4746 230.614 92.4746C234.075 92.4746 236.102 90.2246 236.102 87.794C236.102 86.1692 235.071 84.5576 232.102 84.5576V84.5858ZM226.267 86.9192L226.71 84.7592H220.48L218.951 92.3012H222.564L223.65 86.9192H226.267ZM213.76 87.8702V87.7244C214.016 86.447 214.708 86.3912 214.964 86.3912C215.221 86.3912 215.691 86.537 215.691 87.266C215.691 87.4178 215.677 87.569 215.649 87.7178V87.8774L213.76 87.8702ZM218.46 89.405L218.563 88.961C218.677 88.5062 218.739 88.0406 218.75 87.572C218.757 87.2204 218.703 86.8706 218.591 86.537C218.377 85.9328 217.615 84.6206 215.13 84.6206C214.47 84.5858 213.81 84.6854 213.19 84.9134C212.57 85.1414 212.002 85.493 211.521 85.9478C211.04 86.402 210.655 86.9492 210.391 87.5564C210.126 88.1636 209.987 88.8188 209.981 89.4818C209.965 89.9012 210.047 90.3188 210.218 90.7022C210.39 91.085 210.647 91.4234 210.97 91.6898C211.861 92.3078 212.936 92.6018 214.016 92.5232C215.163 92.531 216.306 92.3864 217.415 92.093L217.816 90.1346C216.899 90.44 215.944 90.6128 214.978 90.6482C213.455 90.6482 213.428 89.8292 213.469 89.4536L218.46 89.405ZM197.072 84.7592L195.542 92.3012H205.551L205.122 94.3844H208.319L209.171 90.1136H208.147L209.24 84.7316H205.939L204.852 90.1136H203.703L204.79 84.7316H201.557L200.464 90.1136H199.314L200.408 84.7316L197.072 84.7592ZM187.202 84.7592L188.406 92.4608L188.289 92.7038C188.167 92.9168 187.988 93.0908 187.773 93.206C187.557 93.3212 187.314 93.3734 187.07 93.3566C186.704 93.359 186.339 93.3008 185.991 93.1832L185.561 95.3084C186.241 95.4818 186.937 95.5796 187.638 95.6C189.763 95.6 191.182 94.7042 192.296 92.579L196.449 84.7316H192.905L191.03 89.4818H190.988L190.926 84.7316L187.202 84.7592ZM181.81 90.1412H179.831C180.565 89.3852 181.034 88.4102 181.167 87.3638L181.25 86.933H182.454L181.81 90.1412ZM186.171 84.7592H178.841L178.557 86.2244C178.239 87.8078 177.927 89.1206 176.564 90.1412H175.948L175.069 94.3916H178.342L178.772 92.3084H182.371L181.942 94.3916H185.209L186.088 90.1412H185.084L186.171 84.7592ZM167.725 84.7592L168.929 92.489L168.818 92.732C168.696 92.945 168.516 93.119 168.299 93.2348C168.083 93.35 167.838 93.4022 167.593 93.3848C167.229 93.3866 166.866 93.3278 166.521 93.2108L166.084 95.336C166.775 95.5106 167.484 95.609 168.196 95.6276C170.321 95.6276 171.739 94.7318 172.861 92.6066L177.013 84.7592H173.47L171.587 89.5094H171.546L171.49 84.7592H167.725ZM161.773 90.3152C161.253 90.3152 161.17 89.9264 161.17 89.6204C161.198 89.0798 161.305 88.5464 161.488 88.037C161.717 87.4676 162.056 87.3428 162.347 87.3428C162.88 87.3428 162.935 87.7454 162.935 88.037C162.938 88.3082 162.908 88.5788 162.845 88.8428C162.72 89.4398 162.506 90.287 161.773 90.287V90.3152ZM167.552 81.0716C166.863 81.3596 166.131 81.5306 165.385 81.5786C163.752 81.7382 162.146 81.7244 160.54 82.6412C158.464 83.8358 157.384 86.7452 157.384 89.1068C157.384 90.3842 157.813 92.4746 161.26 92.4746C165.413 92.4746 166.797 89.8706 166.797 88.1138C166.797 86.1692 165.288 85.3358 163.337 85.3358C162.75 85.31 162.165 85.418 161.626 85.6514C161.086 85.8848 160.606 86.2376 160.222 86.6828H160.125L160.208 86.3426C160.302 85.8752 160.532 85.4462 160.87 85.1114C161.208 84.776 161.638 84.5492 162.104 84.4604C162.985 84.2666 163.882 84.1598 164.783 84.1412C165.551 84.164 166.312 83.9942 166.998 83.648L167.552 81.0716ZM148.22 86.7452C148.746 86.7452 148.774 87.2456 148.774 87.44C148.746 88.118 148.615 88.7876 148.386 89.426C148.262 89.7944 148.019 90.287 147.458 90.287C147.23 90.287 146.926 90.1556 146.926 89.5928C146.961 88.8182 147.127 88.0544 147.417 87.3356C147.476 87.1652 147.584 87.0158 147.726 86.906C147.869 86.7962 148.041 86.7308 148.22 86.7176V86.7452ZM148.622 84.5858C144.932 84.5858 143.084 87.0026 143.084 89.3774C143.084 90.3842 143.541 92.4746 147.127 92.4746C150.587 92.4746 152.622 90.2246 152.622 87.794C152.622 86.1692 151.591 84.5576 148.622 84.5576V84.5858ZM142.78 86.9192L143.223 84.7592H136.993L135.457 92.3012H139.07L140.163 86.9192H142.78ZM130.266 87.8426V87.6968C130.508 86.447 131.214 86.3564 131.442 86.3564C131.671 86.3564 132.176 86.5022 132.176 87.2318C132.177 87.3836 132.16 87.5348 132.127 87.683V87.8426H130.266ZM134.972 89.3774L135.069 88.9328C135.185 88.4792 135.248 88.013 135.256 87.5438C135.262 87.1928 135.209 86.8424 135.097 86.5094C134.883 85.9052 134.121 84.5924 131.636 84.5924C130.976 84.557 130.316 84.656 129.695 84.8834C129.074 85.1114 128.506 85.463 128.025 85.9178C127.543 86.372 127.158 86.9198 126.894 87.5276C126.63 88.1354 126.491 88.7906 126.486 89.4536C126.479 89.8676 126.567 90.2768 126.742 90.6512C126.917 91.0256 127.175 91.355 127.497 91.6136C128.385 92.2316 129.458 92.5256 130.535 92.447C131.682 92.4548 132.825 92.3096 133.934 92.0168L134.335 90.0578C133.419 90.3632 132.463 90.5366 131.498 90.572C129.975 90.572 129.947 89.7524 129.989 89.3774H134.972ZM121.6 86.7176C122.133 86.7176 122.16 87.2174 122.16 87.4124C122.133 88.0898 122.002 88.76 121.773 89.3984C121.641 89.7662 121.399 90.2594 120.839 90.2594C120.61 90.2594 120.312 90.1274 120.312 89.5652C120.349 88.7912 120.512 88.028 120.797 87.308C120.863 87.143 120.974 87.0002 121.117 86.8958C121.261 86.7914 121.43 86.7296 121.607 86.7176H121.6ZM122.001 84.5576C118.319 84.5576 116.464 86.9744 116.464 89.3498C116.464 90.3566 116.928 92.447 120.513 92.447C123.974 92.447 126.002 90.197 126.002 87.7664C126.009 86.1692 124.977 84.5576 122.009 84.5576H122.001ZM110.56 89.1692H111.079C111.398 89.1692 111.986 89.1692 111.986 89.7872C111.986 90.1622 111.737 90.6692 110.775 90.6692H110.262L110.56 89.1692ZM111.135 86.3498H111.577C111.834 86.3498 112.422 86.3498 112.422 86.8844C112.422 87.1136 112.304 87.662 111.301 87.662H110.885L111.135 86.3498ZM108.165 84.7382L106.635 92.2802H112.173C114.305 92.2802 115.357 90.968 115.357 89.8148C115.349 89.426 115.193 89.0552 114.919 88.7792C114.646 88.5038 114.277 88.3448 113.889 88.3358V88.2944C114.39 88.22 114.848 87.9698 115.181 87.5882C115.514 87.2066 115.702 86.7182 115.709 86.2106C115.709 84.7178 114.104 84.7178 113.592 84.7178L108.165 84.7382ZM99.6726 84.7382L99.2295 86.8982H101.237L100.15 92.2802H103.763L104.857 86.8982H106.864L107.307 84.7382H99.6726ZM90.5913 86.516L90.2523 88.211H89.9753C89.8748 88.2224 89.7736 88.2134 89.6767 88.184C89.5797 88.1552 89.49 88.1066 89.4124 88.0418C89.3347 87.977 89.2709 87.8966 89.2251 87.8066C89.1787 87.716 89.1517 87.6176 89.145 87.5162C89.1456 87.3716 89.1769 87.2288 89.2371 87.0968C89.2974 86.9654 89.3841 86.8478 89.493 86.753C89.6014 86.6576 89.7291 86.5868 89.8675 86.5448C90.0054 86.5028 90.1505 86.4908 90.2938 86.5094L90.5913 86.516ZM94.5091 84.7316H88.9716C86.6668 84.7316 85.4144 86.3012 85.4144 87.7244C85.409 88.0688 85.5138 88.4054 85.7131 88.685C85.9124 88.9652 86.196 89.1734 86.5217 89.2802L84.3277 92.2736H88.0444L89.4286 89.7662H89.8164L89.3112 92.2736H92.931L94.5091 84.7316ZM81.3581 84.7316L78.9633 88.2596H78.8872L79.5793 84.7316H76.2778L74.762 92.2736H78.3542L80.7211 88.7456H80.7904L80.0984 92.2736H83.3998L84.9364 84.7316H81.3581ZM74.755 86.891L75.2049 84.7316H68.9756L67.3974 92.2736H71.0174L72.1248 86.891H74.755ZM62.6977 87.0026C62.8777 87.0026 63.3899 87.065 63.3899 87.8426C63.3742 88.3646 63.2664 88.8794 63.0715 89.3636C62.7878 90.0578 62.3793 90.197 62.0679 90.197C61.7564 90.197 61.3757 90.0722 61.3757 89.3636C61.3823 88.8416 61.4881 88.325 61.6872 87.8426C61.9641 87.2036 62.3378 87.0026 62.6839 87.0026H62.6977ZM62.1094 84.7316H58.7387L56.5584 95.4194H60.1714L61.0504 91.3082C61.2443 91.6838 61.5454 91.9928 61.9153 92.1956C62.2852 92.3984 62.7071 92.486 63.1269 92.447C65.4594 92.447 67.2798 90.4748 67.2798 87.419C67.2798 84.7034 65.3279 84.5576 64.6773 84.5576C64.1308 84.5432 63.5897 84.6692 63.1053 84.923C62.6208 85.1768 62.209 85.5512 61.9087 86.009H61.8464L62.1094 84.7316ZM52.0525 87.8426V87.6968C52.2947 86.447 53.0007 86.3564 53.2291 86.3564C53.4575 86.3564 53.9628 86.5022 53.9628 87.2318C53.9604 87.383 53.9441 87.5342 53.9143 87.683V87.8426H52.0525ZM56.7522 89.3774L56.856 88.9328C56.9723 88.4792 57.035 88.013 57.0429 87.5438C57.0577 87.182 57.0085 86.8196 56.8975 86.4746C56.6829 85.8704 55.9216 84.5576 53.4367 84.5576C52.7767 84.5222 52.1164 84.6212 51.4956 84.8486C50.8748 85.0766 50.3065 85.4282 49.8251 85.883C49.3437 86.3372 48.9592 86.885 48.6949 87.4928C48.4305 88.1006 48.2918 88.7558 48.2872 89.4194C48.2701 89.8388 48.3506 90.257 48.5224 90.6404C48.6942 91.0238 48.9525 91.3616 49.2769 91.6274C50.1653 92.2454 51.2375 92.5394 52.3155 92.4608C53.4623 92.4686 54.605 92.3234 55.7139 92.0306L56.1154 90.0722C55.1985 90.377 54.243 90.5504 53.2775 90.5858C51.7549 90.5858 51.7272 89.7662 51.7687 89.3912L56.7522 89.3774ZM39.5314 84.7316L37.9948 92.2736H41.6079L42.1686 89.4956H43.4559L42.9022 92.2736H46.5153L48.0518 84.7316H44.4388L43.9128 87.3356H42.6115L43.1445 84.7316H39.5314ZM30.6926 86.1206L30.2774 88.2038H33.7381C33.4903 88.721 33.0947 89.1524 32.6016 89.4428C32.1085 89.7338 31.5404 89.8706 30.9695 89.8358C30.1565 89.8442 29.3514 89.6756 28.6093 89.3426L27.8271 91.8986C28.8565 92.225 29.9253 92.4092 31.0041 92.447C35.6969 92.447 38.0502 89.3774 38.0502 86.2592C38.1025 85.3598 37.8399 84.4706 37.3078 83.7452C36.7757 83.0198 36.0075 82.5038 35.1363 82.2866C33.6775 81.9398 32.1605 81.9182 30.6926 82.2242L29.9036 84.8354C31.2533 84.398 33.8835 84.1898 34.1465 86.141L30.6926 86.1206ZM239.03 73.6198H183.783L184.544 77.9881H240.436L239.03 73.6198ZM147.424 45.0491C145.749 43.1184 141.887 44.0074 138.544 45.5074C138.572 45.8686 138.585 46.2297 138.585 46.5908C138.623 48.5679 138.171 50.5233 137.268 52.2811C136.365 54.039 135.041 55.544 133.415 56.6607C135.963 56.4921 138.43 55.6902 140.593 54.3273C145.493 51.3271 149.064 47.5006 147.424 45.0491ZM227.022 56.2093H232.891L228.344 71.4878H222.474L227.022 56.2093ZM42.1062 64.8625L41.4141 67.182H41.7463C41.8478 67.1886 41.9494 67.1886 42.0508 67.182C42.6321 67.2259 43.2151 67.1233 43.7466 66.8834C43.9276 66.8 44.0905 66.6817 44.2259 66.5351C44.3613 66.3885 44.4666 66.2166 44.5357 66.0292C44.5846 65.8716 44.5911 65.7038 44.5547 65.5428C44.5182 65.3819 44.44 65.2334 44.328 65.1125C44.2019 64.971 44.0455 64.86 43.8704 64.7878C43.6954 64.7156 43.5063 64.6842 43.3175 64.6958C42.9077 64.6911 42.4996 64.7473 42.1062 64.8625ZM237.847 73.5921L239.189 77.9603L237.847 73.5921Z" fill="#004E89"/>
</svg>
