<svg width="281" height="130" viewBox="0 0 281 130" fill="none" xmlns="http://www.w3.org/2000/svg">
<rect width="281" height="130" rx="10" fill="white"/>
<path d="M73.9024 67.5006L78.8776 46.6219L85.367 70.252L80.0133 89.9437H64.9255L50 40.1479H66.5478L73.9024 67.5006ZM109.161 89.9437H93.3164L79.6347 40.1479H96.3989L109.161 89.9437ZM109.323 40.1479H124.465L110.946 87.3541L104.186 60.8108L109.323 40.1479Z" fill="url(#paint0_linear_406_10257)"/>
<path d="M185.82 62.1408C185.766 62.2487 185.766 62.3026 185.712 62.4105C185.658 62.4645 185.55 62.5184 185.496 62.5724C185.388 62.6263 185.279 62.6263 185.117 62.6263C184.955 62.6263 184.793 62.6263 184.576 62.6263C184.36 62.6263 184.144 62.6263 183.982 62.6263C183.819 62.6263 183.711 62.5724 183.603 62.5724C183.495 62.5184 183.441 62.5184 183.387 62.4105C183.333 62.3566 183.279 62.2487 183.279 62.1408L180.304 51.4047L177.546 62.1408C177.546 62.2487 177.492 62.3026 177.438 62.4105C177.384 62.4645 177.33 62.5184 177.222 62.5724C177.114 62.6263 177.005 62.6263 176.843 62.6263C176.681 62.6263 176.519 62.6263 176.248 62.6263C176.032 62.6263 175.816 62.6263 175.654 62.6263C175.491 62.6263 175.383 62.5724 175.275 62.5724C175.167 62.5184 175.113 62.5184 175.059 62.4105C175.005 62.3566 174.951 62.2487 174.951 62.1408L171.219 49.0309C171.165 48.8691 171.165 48.7072 171.165 48.6533C171.165 48.5454 171.165 48.4914 171.273 48.4375C171.327 48.3835 171.435 48.3296 171.598 48.3296H172.138H172.679C172.787 48.3296 172.896 48.3835 173.004 48.3835C173.058 48.4375 173.112 48.4375 173.166 48.4914C173.166 48.5454 173.22 48.5993 173.22 48.7072L176.411 60.5762L179.439 48.7072C179.439 48.6533 179.493 48.5454 179.547 48.4914C179.601 48.4375 179.655 48.3835 179.709 48.3835C179.763 48.3296 179.872 48.3296 180.034 48.3296H180.575H181.061C181.17 48.3296 181.278 48.3835 181.332 48.3835C181.386 48.4375 181.44 48.4375 181.494 48.4914C181.548 48.5454 181.548 48.5993 181.602 48.7072L184.847 60.5762L187.983 48.7072C187.983 48.6533 188.037 48.5454 188.037 48.4914C188.037 48.4375 188.092 48.3835 188.2 48.3835C188.254 48.3296 188.362 48.3296 188.47 48.3296H188.957C189.173 48.3296 189.335 48.3296 189.498 48.3835C189.606 48.3835 189.714 48.4375 189.768 48.4914C189.822 48.5454 189.876 48.5993 189.876 48.7072C189.876 48.8151 189.876 48.923 189.822 49.0849L185.82 62.1408Z" fill="#484848"/>
<path d="M200.097 61.7629V62.0866C200.097 62.1945 200.043 62.2484 200.043 62.3563C199.988 62.4103 199.988 62.4642 199.934 62.5182C199.88 62.5721 199.826 62.5721 199.772 62.5721H192.904C192.742 62.5721 192.58 62.5182 192.417 62.4103C192.255 62.3024 192.201 62.0866 192.201 61.8168V49.1386C192.201 48.8688 192.255 48.653 192.417 48.5452C192.58 48.4373 192.742 48.3833 192.904 48.3833H199.664C199.718 48.3833 199.772 48.3833 199.826 48.4372C199.88 48.4912 199.934 48.4912 199.934 48.5991C199.988 48.653 199.988 48.7609 199.988 48.8688C199.988 48.9767 200.043 49.0846 200.043 49.2465C200.043 49.3544 200.043 49.5162 199.988 49.5702C199.988 49.6781 199.934 49.732 199.934 49.786C199.88 49.8399 199.88 49.8939 199.826 49.9478C199.772 50.0018 199.718 50.0018 199.664 50.0018H194.094V54.3717H198.853C198.907 54.3717 198.961 54.3717 199.015 54.4257C199.069 54.4796 199.123 54.4796 199.123 54.5875C199.177 54.6415 199.177 54.7494 199.177 54.8033V55.181V55.5047C199.177 55.6126 199.123 55.6665 199.123 55.7205C199.069 55.7744 199.069 55.8284 199.015 55.8284C198.961 55.8284 198.907 55.8823 198.853 55.8823H194.094V60.9536H199.718C199.772 60.9536 199.826 60.9536 199.88 61.0076C199.934 61.0615 199.988 61.0615 199.988 61.1694C200.043 61.2234 200.043 61.3313 200.043 61.3852C200.097 61.4931 200.097 61.655 200.097 61.7629Z" fill="#484848"/>
<path d="M212.589 58.4719C212.589 58.9035 212.535 59.3351 212.427 59.7128C212.319 60.0904 212.157 60.4141 211.94 60.7378C211.724 61.0615 211.508 61.2773 211.183 61.5471C210.913 61.7629 210.588 61.9787 210.21 62.1405C209.831 62.3024 209.453 62.4103 209.02 62.4642C208.587 62.5182 208.155 62.5721 207.614 62.5721H203.883C203.72 62.5721 203.558 62.5182 203.396 62.4103C203.234 62.3024 203.18 62.0866 203.18 61.8168V49.1386C203.18 48.8688 203.234 48.653 203.396 48.5452C203.558 48.4373 203.72 48.3833 203.883 48.3833H207.127C207.993 48.3833 208.696 48.4372 209.236 48.5991C209.777 48.7609 210.21 48.9767 210.588 49.3004C210.967 49.6241 211.237 50.0018 211.399 50.4334C211.562 50.865 211.67 51.4045 211.67 51.944C211.67 52.2677 211.616 52.5914 211.562 52.9151C211.508 53.2388 211.345 53.5085 211.183 53.7783C211.021 54.048 210.805 54.2638 210.588 54.4796C210.372 54.6954 210.102 54.8573 209.777 54.9652C210.156 55.0191 210.534 55.181 210.859 55.3428C211.183 55.5586 211.508 55.7744 211.724 56.0981C211.994 56.4218 212.157 56.7455 212.319 57.1771C212.481 57.5548 212.589 57.9864 212.589 58.4719ZM209.723 52.1598C209.723 51.8361 209.669 51.5124 209.561 51.2426C209.453 50.9729 209.29 50.7031 209.128 50.5413C208.966 50.3794 208.642 50.2176 208.317 50.1097C207.993 50.0018 207.56 49.9478 207.019 49.9478H205.072V54.5336H207.236C207.722 54.5336 208.101 54.4796 208.425 54.3178C208.75 54.2099 208.966 53.9941 209.182 53.7783C209.399 53.5625 209.507 53.2927 209.615 53.023C209.669 52.7532 209.723 52.4295 209.723 52.1598ZM210.588 58.5798C210.588 58.1482 210.534 57.7706 210.372 57.4469C210.21 57.1232 210.048 56.8534 209.777 56.6376C209.507 56.4218 209.182 56.26 208.804 56.1521C208.425 56.0442 207.939 55.9902 207.344 55.9902H205.072V61.0076H207.83C208.263 61.0076 208.642 60.9536 208.966 60.8457C209.29 60.7378 209.561 60.576 209.831 60.4141C210.102 60.1983 210.264 59.9825 210.426 59.6588C210.48 59.3351 210.588 59.0114 210.588 58.5798Z" fill="#484848"/>
<path d="M179.655 76.1144V76.4921C179.655 76.6 179.601 76.6539 179.601 76.7618C179.547 76.8158 179.547 76.8697 179.493 76.9237C179.438 76.9776 179.384 76.9776 179.33 76.9776H174.139V81.7792H179.06C179.114 81.7792 179.168 81.7792 179.222 81.8331C179.276 81.8331 179.33 81.8871 179.33 81.941C179.384 81.995 179.384 82.1029 179.384 82.1568V82.5345V82.9121C179.384 83.02 179.33 83.074 179.33 83.1279C179.276 83.1819 179.276 83.2358 179.222 83.2898C179.168 83.3437 179.114 83.3437 179.06 83.3437H174.139V89.2782C174.139 89.3322 174.139 89.3861 174.085 89.4401C174.031 89.494 174.031 89.548 173.923 89.548C173.868 89.548 173.76 89.6019 173.652 89.6019C173.544 89.6019 173.382 89.6559 173.165 89.6559C173.003 89.6559 172.841 89.6559 172.733 89.6019C172.625 89.6019 172.516 89.548 172.462 89.548C172.408 89.548 172.354 89.494 172.3 89.4401C172.246 89.3861 172.246 89.3322 172.246 89.2782V76.0605C172.246 75.7907 172.3 75.5749 172.462 75.467C172.625 75.3591 172.787 75.3052 172.949 75.3052H179.33C179.384 75.3052 179.438 75.3052 179.493 75.3591C179.547 75.4131 179.601 75.4131 179.601 75.521C179.655 75.5749 179.655 75.6828 179.655 75.7907C179.655 75.8986 179.655 76.0065 179.655 76.1144Z" fill="#484848"/>
<path d="M194.256 82.2637C194.256 83.3967 194.094 84.4217 193.824 85.3928C193.553 86.31 193.175 87.1192 192.634 87.7666C192.093 88.414 191.444 88.8996 190.633 89.2772C189.822 89.6009 188.848 89.8167 187.767 89.8167C186.685 89.8167 185.766 89.6549 185.009 89.3312C184.252 89.0075 183.603 88.5759 183.062 87.9285C182.575 87.335 182.197 86.5797 181.926 85.6626C181.656 84.7454 181.548 83.7204 181.548 82.5335C181.548 81.4005 181.71 80.3755 181.98 79.5123C182.251 78.5951 182.683 77.8398 183.224 77.1924C183.765 76.545 184.468 76.0595 185.279 75.7358C186.09 75.4121 187.064 75.1963 188.145 75.1963C189.173 75.1963 190.092 75.3581 190.903 75.6818C191.66 76.0055 192.309 76.4371 192.85 77.0845C193.391 77.678 193.769 78.4333 193.986 79.2965C194.094 80.0518 194.256 81.0768 194.256 82.2637ZM192.255 82.3716C192.255 81.5624 192.201 80.8071 192.039 80.1057C191.877 79.4044 191.66 78.8109 191.336 78.3254C191.012 77.8398 190.579 77.4082 189.984 77.1385C189.443 76.8687 188.74 76.7069 187.929 76.7069C187.118 76.7069 186.415 76.8687 185.874 77.1924C185.333 77.5161 184.847 77.8938 184.522 78.4333C184.198 78.9188 183.927 79.5662 183.765 80.2136C183.603 80.915 183.549 81.6163 183.549 82.3716C183.549 83.1809 183.603 83.9901 183.765 84.6915C183.927 85.3928 184.144 85.9863 184.468 86.5258C184.793 87.0653 185.225 87.4429 185.766 87.7127C186.307 87.9824 187.01 88.1443 187.821 88.1443C188.632 88.1443 189.335 87.9824 189.93 87.6587C190.471 87.335 190.957 86.9574 191.282 86.4179C191.606 85.8784 191.877 85.2849 192.039 84.5836C192.147 83.8822 192.255 83.1269 192.255 82.3716Z" fill="#484848"/>
<path d="M206.694 87.4969V87.8206C206.694 87.9285 206.694 87.9824 206.64 88.0364C206.64 88.0903 206.586 88.1443 206.586 88.1982C206.531 88.2522 206.531 88.3061 206.423 88.3601C206.369 88.414 206.207 88.5219 205.937 88.6838C205.72 88.8456 205.396 88.9535 205.071 89.1154C204.747 89.2772 204.314 89.3851 203.882 89.493C203.449 89.6009 202.962 89.6549 202.422 89.6549C201.502 89.6549 200.691 89.493 199.934 89.1693C199.177 88.8456 198.582 88.414 198.041 87.8206C197.5 87.2271 197.122 86.4718 196.852 85.6086C196.581 84.7454 196.419 83.7204 196.419 82.5874C196.419 81.4005 196.581 80.3755 196.852 79.4583C197.176 78.5412 197.609 77.7319 198.149 77.1385C198.69 76.4911 199.339 76.0055 200.096 75.6818C200.853 75.3581 201.719 75.1963 202.638 75.1963C203.071 75.1963 203.449 75.2502 203.828 75.3042C204.206 75.3581 204.585 75.466 204.909 75.5739C205.234 75.6818 205.558 75.8437 205.774 76.0055C206.045 76.1674 206.207 76.2753 206.315 76.3832C206.423 76.4911 206.477 76.545 206.531 76.599C206.586 76.6529 206.586 76.7069 206.586 76.7608C206.586 76.8148 206.64 76.9227 206.64 77.0306V77.3543V77.7319C206.64 77.8398 206.586 77.8938 206.586 78.0017C206.531 78.0556 206.531 78.1096 206.477 78.1635C206.423 78.2175 206.369 78.2175 206.315 78.2175C206.207 78.2175 206.045 78.1635 205.883 78.0017C205.72 77.8398 205.45 77.678 205.18 77.5161C204.909 77.3543 204.531 77.1924 204.098 77.0306C203.665 76.8687 203.179 76.8148 202.584 76.8148C201.935 76.8148 201.394 76.9227 200.853 77.1924C200.313 77.4622 199.88 77.8398 199.501 78.3254C199.123 78.8109 198.852 79.4044 198.636 80.1057C198.42 80.8071 198.312 81.6163 198.312 82.5335C198.312 83.4506 198.42 84.2059 198.582 84.9073C198.798 85.6086 199.069 86.2021 199.447 86.6337C199.826 87.1192 200.258 87.4429 200.799 87.7127C201.34 87.9285 201.935 88.0903 202.584 88.0903C203.125 88.0903 203.665 88.0364 204.044 87.8745C204.477 87.7127 204.855 87.6048 205.125 87.389C205.45 87.2271 205.666 87.0653 205.883 86.9034C206.099 86.7416 206.207 86.6876 206.315 86.6876C206.369 86.6876 206.423 86.6876 206.423 86.7416C206.477 86.7416 206.477 86.7955 206.531 86.8495C206.531 86.9034 206.586 87.0113 206.586 87.1192C206.694 87.1732 206.694 87.335 206.694 87.4969Z" fill="#484848"/>
<path d="M219.889 84.2599C219.889 85.1231 219.781 85.8784 219.511 86.5797C219.241 87.2811 218.916 87.8206 218.429 88.3061C217.943 88.7917 217.402 89.1154 216.699 89.3851C216.05 89.6009 215.239 89.7628 214.428 89.7628C213.616 89.7628 212.913 89.6549 212.264 89.4391C211.616 89.2233 211.075 88.8996 210.588 88.414C210.101 87.9824 209.777 87.4429 209.506 86.7416C209.236 86.0942 209.128 85.2849 209.128 84.4217V75.5739C209.128 75.52 209.128 75.466 209.182 75.4121C209.236 75.3581 209.236 75.3581 209.344 75.3042C209.398 75.3042 209.506 75.2502 209.615 75.2502C209.723 75.2502 209.885 75.1963 210.101 75.1963C210.264 75.1963 210.426 75.1963 210.534 75.2502C210.642 75.2502 210.75 75.3042 210.804 75.3042C210.858 75.3042 210.912 75.3581 210.967 75.4121C211.021 75.466 211.021 75.52 211.021 75.5739V84.152C211.021 84.7994 211.075 85.3928 211.237 85.8784C211.399 86.3639 211.616 86.7955 211.94 87.1192C212.264 87.4429 212.589 87.7127 213.022 87.8745C213.454 88.0364 213.941 88.1443 214.482 88.1443C215.022 88.1443 215.509 88.0903 215.942 87.9285C216.374 87.7666 216.753 87.5508 217.023 87.2271C217.294 86.9034 217.564 86.5258 217.726 86.0402C217.889 85.5547 217.943 85.0152 217.943 84.3678V75.5739C217.943 75.52 217.943 75.466 217.997 75.4121C218.051 75.3581 218.051 75.3581 218.159 75.3042C218.213 75.3042 218.321 75.2502 218.429 75.2502C218.537 75.2502 218.7 75.1963 218.862 75.1963C219.024 75.1963 219.186 75.1963 219.295 75.2502C219.403 75.2502 219.511 75.3042 219.565 75.3042C219.619 75.3042 219.673 75.3581 219.727 75.4121C219.781 75.466 219.781 75.52 219.781 75.5739V84.2599H219.889Z" fill="#484848"/>
<path d="M226.486 89.7086C225.999 89.7086 225.567 89.6546 225.188 89.6007C224.756 89.5467 224.431 89.4388 224.107 89.3309C223.782 89.223 223.512 89.1151 223.295 88.9533C223.079 88.8454 222.917 88.7375 222.863 88.6296C222.755 88.5217 222.701 88.4138 222.701 88.3059C222.646 88.144 222.646 87.9822 222.646 87.7664C222.646 87.6045 222.646 87.4966 222.646 87.3887C222.646 87.2808 222.701 87.1729 222.701 87.119C222.755 87.065 222.755 87.0111 222.809 86.9571C222.863 86.9032 222.917 86.9032 222.971 86.9032C223.079 86.9032 223.241 86.9571 223.404 87.065C223.566 87.1729 223.836 87.3348 224.107 87.4966C224.377 87.6585 224.756 87.7664 225.188 87.9282C225.621 88.0361 226.053 88.144 226.648 88.144C227.081 88.144 227.459 88.0901 227.784 87.9822C228.108 87.8743 228.433 87.7124 228.649 87.4966C228.92 87.2808 229.082 87.065 229.19 86.7413C229.298 86.4716 229.406 86.0939 229.406 85.7702C229.406 85.3926 229.298 85.0149 229.136 84.7452C228.974 84.4754 228.703 84.2057 228.433 83.9899C228.108 83.7741 227.784 83.5583 227.405 83.3964C227.027 83.2346 226.648 83.0188 226.216 82.8569C225.837 82.6951 225.404 82.4793 225.026 82.2635C224.647 82.0477 224.323 81.7779 223.998 81.4542C223.674 81.1305 223.458 80.8068 223.241 80.3752C223.079 79.9436 222.971 79.4581 222.971 78.8646C222.971 78.2712 223.079 77.7317 223.295 77.3001C223.512 76.8145 223.836 76.4369 224.215 76.1132C224.593 75.7895 225.08 75.5737 225.567 75.4118C226.107 75.25 226.648 75.1421 227.297 75.1421C227.622 75.1421 227.946 75.196 228.271 75.25C228.595 75.3039 228.865 75.3579 229.19 75.4658C229.46 75.5737 229.731 75.6816 229.947 75.7895C230.163 75.8974 230.326 76.0053 230.38 76.0592C230.434 76.1132 230.488 76.1671 230.542 76.2211C230.542 76.275 230.596 76.329 230.596 76.3829C230.596 76.4369 230.596 76.5448 230.65 76.5987V76.9224V77.3001C230.65 77.408 230.596 77.4619 230.596 77.5698C230.596 77.6238 230.542 77.6777 230.488 77.7317C230.434 77.7856 230.38 77.7856 230.326 77.7856C230.271 77.7856 230.109 77.7317 229.947 77.6238C229.785 77.5159 229.568 77.408 229.298 77.3001C229.028 77.1922 228.757 77.0303 228.433 76.9224C228.108 76.8145 227.73 76.7606 227.297 76.7606C226.919 76.7606 226.54 76.8145 226.27 76.9224C225.999 77.0303 225.729 77.1922 225.567 77.354C225.35 77.5159 225.242 77.7317 225.134 78.0014C225.026 78.2172 224.972 78.487 224.972 78.7567C224.972 79.1344 225.08 79.512 225.242 79.7818C225.404 80.0515 225.675 80.3213 225.999 80.5371C226.324 80.7529 226.648 80.9687 227.027 81.1305C227.405 81.2924 227.784 81.5082 228.217 81.67C228.649 81.8319 229.028 82.0477 229.406 82.2635C229.785 82.4793 230.163 82.749 230.434 83.0727C230.758 83.3964 230.974 83.7201 231.191 84.1517C231.353 84.5833 231.461 85.0689 231.461 85.6084C231.461 86.2558 231.353 86.8492 231.083 87.3887C230.812 87.9282 230.488 88.3598 230.055 88.6835C229.623 89.0612 229.082 89.3309 228.541 89.4928C227.784 89.6007 227.135 89.7086 226.486 89.7086Z" fill="#484848"/>
<path d="M121.599 58.5449H134.47L137.661 40.1479H152.748L143.988 89.7279H113.001L117.219 77.0497H131.225L132.361 70.4138H119.49L121.599 58.5449Z" fill="url(#paint1_linear_406_10257)"/>
<path d="M162.079 37H161.214V93H162.079V37Z" fill="#484848"/>
<defs>
<linearGradient id="paint0_linear_406_10257" x1="60.4371" y1="89.8898" x2="120.9" y2="44.1643" gradientUnits="userSpaceOnUse">
<stop offset="0.0001" stop-color="#F1C0CC"/>
<stop offset="1" stop-color="#A57CFE"/>
</linearGradient>
<linearGradient id="paint1_linear_406_10257" x1="150.91" y1="40.1479" x2="117.594" y2="86.458" gradientUnits="userSpaceOnUse">
<stop stop-color="#E9B9D1"/>
<stop offset="1" stop-color="#A57CFE"/>
</linearGradient>
</defs>
</svg>
