<svg width="270" height="130" viewBox="0 0 270 130" fill="none" xmlns="http://www.w3.org/2000/svg">
<rect width="270" height="130" rx="10" fill="white"/>
<g clip-path="url(#clip0_403_21594)">
<g clip-path="url(#clip1_403_21594)">
<path fill-rule="evenodd" clip-rule="evenodd" d="M139.404 67.9265L121.124 70.2357V72.3283L139.404 71.0295V67.9265ZM139.404 72.9057L121.124 73.9159V76.0085H139.404C139.404 75.9363 139.404 72.9057 139.404 72.9057ZM139.404 33.001L121.124 44.4745V46.5671L139.404 36.0317V33.001ZM139.404 37.98V41.0108L121.124 50.2473V48.1547L139.404 37.98ZM139.404 42.9591V45.9898L121.124 53.9275V51.8349L139.404 42.9591ZM139.404 48.0103L121.124 55.515V57.6076L139.404 51.041V48.0103ZM139.404 52.9894L121.124 59.1951V61.2878L139.404 56.0202V52.9894ZM139.404 57.9684V60.9992L121.124 64.968V62.8753L139.404 57.9684ZM139.404 62.9475V65.9783L121.124 68.5761V66.4834L139.404 62.9475Z" fill="#55615F"/>
<path fill-rule="evenodd" clip-rule="evenodd" d="M139.407 67.9256L149.047 70.2348V72.3274L139.407 71.0285V67.9256ZM139.407 72.9046L149.047 73.8427V75.9354H139.407V72.9046ZM139.407 33L149.047 44.4735V46.5661L139.407 36.0307V33ZM139.407 37.9791V41.0098L149.047 50.2463V48.1537L139.407 37.9791ZM139.407 42.9581V45.9889L149.047 53.9265V51.8338L139.407 42.9581ZM139.407 48.0093L149.047 55.5862V57.6789L139.407 51.0401V48.0093ZM139.407 52.9884L149.047 59.1942V61.2869L139.407 56.0191V52.9884ZM139.407 57.9675V60.9982L149.047 64.967V62.8744L139.407 57.9675ZM139.407 62.9465V65.9773L149.047 68.6472V66.5546L139.407 62.9465Z" fill="#55A395"/>
<path d="M67.2637 76.0077H82.4966C90.4177 76.0077 95.0747 72.3621 95.0747 66.1251C95.0747 60.1955 91.0271 56.9452 83.6282 56.9452H75.7506V51.9819H92.7245V45.2617H67.2637V76.0077ZM75.7506 69.7707V63.1383H81.9308C84.8904 63.1383 86.3701 64.1925 86.3701 66.3886C86.3701 68.5847 84.8033 69.7707 81.9308 69.7707H75.7506Z" fill="#55615F"/>
<path d="M196.215 76.0077H205.92L196.302 60.1076L205.833 45.2617H196.781L189.512 57.2087H185.378V45.2617H176.804V76.0077H185.378V64.2364H189.295L196.215 76.0077Z" fill="#55615F"/>
</g>
<path d="M67.4033 84.2711H74.315V85.8638H69.3728V87.6416H71.7461C72.7818 87.6416 73.5688 87.8598 74.107 88.296C74.6535 88.7322 74.9267 89.3619 74.9267 90.185C74.9267 91.0492 74.6249 91.72 74.0214 92.1974C73.4179 92.6748 72.5657 92.9135 71.4647 92.9135H67.4033V84.2711ZM71.3546 91.4319C71.8602 91.4319 72.2476 91.3332 72.5167 91.1356C72.7859 90.9299 72.9204 90.6335 72.9204 90.2467C72.9204 89.4895 72.3985 89.1108 71.3546 89.1108H69.3728V91.4319H71.3546Z" fill="#55615F"/>
<path d="M77.8416 84.2711H79.8111V89.901L83.8969 84.2711H85.7564V92.9135H83.7991V87.296L79.7132 92.9135H77.8416V84.2711Z" fill="#55615F"/>
<path d="M94.164 88.4071C94.6615 88.58 95.0489 88.8516 95.3262 89.222C95.6116 89.5841 95.7543 90.008 95.7543 90.4936C95.7543 91.0204 95.5831 91.4772 95.2406 91.864C94.898 92.2509 94.4332 92.5472 93.846 92.753C93.2669 92.9587 92.6308 93.0616 91.9376 93.0616C91.3504 93.0616 90.7632 92.9876 90.1761 92.8394C89.597 92.6912 89.0465 92.4649 88.5246 92.1604L89.1362 90.7282C89.5114 90.9587 89.9232 91.1356 90.3718 91.2591C90.8285 91.3743 91.273 91.4319 91.7052 91.4319C92.2924 91.4319 92.7776 91.3249 93.1609 91.1109C93.5524 90.8969 93.7481 90.5965 93.7481 90.2097C93.7481 89.8887 93.6136 89.6458 93.3444 89.4812C93.0834 89.3166 92.7246 89.2343 92.2679 89.2343H90.1761V87.7281H92.1211C92.5207 87.7281 92.8306 87.6458 93.0508 87.4811C93.2792 87.3165 93.3934 87.0902 93.3934 86.8021C93.3934 86.4646 93.2302 86.2013 92.904 86.0119C92.586 85.8226 92.1741 85.728 91.6685 85.728C91.2933 85.728 90.906 85.7815 90.5063 85.8885C90.1067 85.9873 89.7275 86.1395 89.3687 86.3453L88.7693 84.7897C89.6745 84.3205 90.6531 84.0859 91.7052 84.0859C92.3739 84.0859 92.9897 84.1847 93.5524 84.3822C94.1151 84.5798 94.5637 84.8679 94.898 85.2465C95.2324 85.6251 95.3996 86.0654 95.3996 86.5675C95.3996 86.9791 95.2895 87.3453 95.0693 87.6663C94.8491 87.9873 94.5473 88.2343 94.164 88.4071Z" fill="#55615F"/>
<path d="M106.584 84.2711V92.9135H104.602V89.3701H100.712V92.9135H98.73V84.2711H100.712V87.6787H104.602V84.2711H106.584Z" fill="#55615F"/>
<path d="M116.766 91.3085V92.9135H110.136V84.2711H116.607V85.8761H112.105V87.7528H116.081V89.3084H112.105V91.3085H116.766Z" fill="#55615F"/>
<path d="M123.799 93.0616C122.926 93.0616 122.135 92.8723 121.426 92.4937C120.724 92.1069 120.17 91.576 119.762 90.901C119.363 90.2179 119.163 89.4483 119.163 88.5923C119.163 87.7363 119.363 86.9708 119.762 86.2959C120.17 85.6128 120.724 85.0819 121.426 84.7032C122.135 84.3164 122.931 84.123 123.811 84.123C124.553 84.123 125.222 84.2547 125.818 84.5181C126.421 84.7814 126.927 85.1601 127.334 85.6539L126.062 86.8391C125.483 86.1642 124.765 85.8268 123.909 85.8268C123.379 85.8268 122.906 85.9461 122.49 86.1848C122.074 86.4153 121.748 86.7404 121.511 87.1601C121.283 87.5799 121.169 88.0573 121.169 88.5923C121.169 89.1273 121.283 89.6047 121.511 90.0245C121.748 90.4442 122.074 90.7735 122.49 91.0122C122.906 91.2426 123.379 91.3579 123.909 91.3579C124.765 91.3579 125.483 91.0163 126.062 90.3331L127.334 91.5184C126.927 92.0204 126.421 92.4032 125.818 92.6666C125.214 92.9299 124.541 93.0616 123.799 93.0616Z" fill="#55615F"/>
<path d="M138.219 89.4318H136.849V92.9135H134.88V84.2711H136.849V87.7651H138.268L140.519 84.2711H142.611L139.81 88.4441L142.697 92.9135H140.446L138.219 89.4318Z" fill="#55615F"/>
<path d="M150.965 88.4071C151.487 88.5635 151.886 88.8187 152.164 89.1726C152.441 89.5265 152.58 89.9627 152.58 90.4813C152.58 91.2467 152.29 91.8435 151.711 92.2715C151.14 92.6995 150.321 92.9135 149.252 92.9135H145.032V84.2711H149.02C150.015 84.2711 150.789 84.4646 151.344 84.8514C151.899 85.2383 152.176 85.7897 152.176 86.5058C152.176 86.9338 152.07 87.3124 151.858 87.6416C151.646 87.9626 151.348 88.2178 150.965 88.4071ZM147.001 87.8515H148.848C149.281 87.8515 149.607 87.7651 149.827 87.5923C150.047 87.4112 150.157 87.1478 150.157 86.8021C150.157 86.4646 150.043 86.2054 149.815 86.0243C149.595 85.8432 149.273 85.7527 148.848 85.7527H147.001V87.8515ZM149.179 91.4319C150.108 91.4319 150.573 91.0615 150.573 90.3208C150.573 89.6047 150.108 89.2467 149.179 89.2467H147.001V91.4319H149.179Z" fill="#55615F"/>
<path d="M161.352 91.0615H157.376L156.618 92.9135H154.587L158.404 84.2711H160.361L164.19 92.9135H162.111L161.352 91.0615ZM160.728 89.543L159.37 86.2342L158.012 89.543H160.728Z" fill="#55615F"/>
<path d="M170.439 84.2711C171.198 84.2711 171.854 84.3987 172.409 84.6539C172.971 84.909 173.404 85.2712 173.705 85.7403C174.007 86.2095 174.158 86.7651 174.158 87.4071C174.158 88.0408 174.007 88.5964 173.705 89.0738C173.404 89.543 172.971 89.9051 172.409 90.1603C171.854 90.4072 171.198 90.5307 170.439 90.5307H168.714V92.9135H166.733V84.2711H170.439ZM170.329 88.901C170.924 88.901 171.377 88.7734 171.687 88.5182C171.997 88.2548 172.152 87.8845 172.152 87.4071C172.152 86.9214 171.997 86.5511 171.687 86.2959C171.377 86.0325 170.924 85.9008 170.329 85.9008H168.714V88.901H170.329Z" fill="#55615F"/>
<path d="M183.178 85.9008H180.438V92.9135H178.48V85.9008H175.752V84.2711H183.178V85.9008Z" fill="#55615F"/>
<path d="M191.197 91.0615H187.222L186.463 92.9135H184.433L188.249 84.2711H190.207L194.036 92.9135H191.956L191.197 91.0615ZM190.574 89.543L189.216 86.2342L187.858 89.543H190.574Z" fill="#55615F"/>
<path d="M204.283 84.2711V92.9135H202.326V85.9008H199.39L199.329 87.7034C199.288 88.9298 199.19 89.9257 199.035 90.6912C198.88 91.4484 198.619 92.0328 198.252 92.4443C197.893 92.8476 197.388 93.0493 196.735 93.0493C196.466 93.0493 196.14 93.004 195.757 92.9135L195.879 91.222C195.985 91.255 196.103 91.2714 196.234 91.2714C196.707 91.2714 197.037 90.9916 197.225 90.4319C197.412 89.864 197.53 88.9792 197.579 87.7775L197.702 84.2711H204.283Z" fill="#55615F"/>
</g>
<defs>
<clipPath id="clip0_403_21594">
<rect width="142" height="63" fill="white" transform="translate(64 33)"/>
</clipPath>
<clipPath id="clip1_403_21594">
<rect width="142.355" height="53.9885" fill="white" transform="translate(64 33)"/>
</clipPath>
</defs>
</svg>
