<svg width="270" height="130" viewBox="0 0 270 130" fill="none" xmlns="http://www.w3.org/2000/svg">
<rect width="270" height="130" rx="10" fill="white"/>
<path d="M26.4268 93.0164H42.4369V91.6886H26.4268V93.0164ZM26.4268 90.9452H42.4369V90.5732L26.4268 90.6794V90.9452Z" fill="#B89B58"/>
<path d="M31.5029 65.7137C31.5146 64.9733 31.748 64.2622 32.1612 63.7085C32.8864 62.686 35.2516 62.6993 36.3004 62.3806C36.5812 62.3304 36.8411 62.1743 37.042 61.9353C37.2428 61.6963 37.3739 61.3869 37.416 61.0527V57.0688C37.369 57.4007 37.2363 57.7069 37.0364 57.9448C36.8365 58.1828 36.5792 58.3408 36.3004 58.3968C35.274 58.8084 32.8864 58.7686 32.1612 59.7247C31.7497 60.2796 31.5165 60.99 31.5029 61.7299V65.7137Z" fill="#88733E"/>
<path d="M37.36 60.9866C37.3484 60.2462 37.1149 59.5351 36.7018 58.9814C35.9765 57.9589 33.6113 57.9722 32.5737 57.6535C32.2962 57.5939 32.0407 57.4347 31.8412 57.1974C31.6418 56.96 31.5082 56.6558 31.458 56.3255V52.355C31.5096 52.6846 31.6438 52.9878 31.8429 53.2248C32.0421 53.4619 32.2968 53.6216 32.5737 53.683C33.6001 54.068 35.9765 54.0548 36.7018 55.0109C37.1149 55.5646 37.3484 56.2757 37.36 57.0161V60.9866Z" fill="#B89D58"/>
<path d="M31.5029 75.1821C31.5146 74.4417 31.748 73.7306 32.1612 73.1769C32.8864 72.1544 35.2516 72.1676 36.3004 71.8489C36.5819 71.8007 36.8428 71.6453 37.0439 71.4059C37.245 71.1665 37.3756 70.8561 37.416 70.521V66.5239C37.3739 66.8582 37.2428 67.1675 37.042 67.4065C36.8411 67.6456 36.5812 67.8016 36.3004 67.8518C35.274 68.237 32.8864 68.2237 32.1612 69.1798C31.7481 69.7388 31.5149 70.4539 31.5029 71.1983V75.1821Z" fill="#88733E"/>
<path d="M37.36 70.4281C37.3481 69.6838 37.1149 68.9686 36.7018 68.4096C35.9765 67.3871 33.6113 67.4004 32.5737 67.0817C32.2943 67.0276 32.0361 66.8702 31.8359 66.6319C31.6357 66.3936 31.5035 66.0864 31.458 65.7538V61.7832C31.5082 62.1135 31.6418 62.4177 31.8412 62.6551C32.0407 62.8924 32.2962 63.0515 32.5737 63.1111C33.6001 63.483 35.9765 63.483 36.7018 64.4391C37.1149 64.9928 37.3484 65.7039 37.36 66.4443V70.4281Z" fill="#B89D58"/>
<path d="M31.5029 84.5838C31.5149 83.8398 31.7481 83.1246 32.1612 82.5654C32.8864 81.5562 35.2516 81.5694 36.3004 81.2376C36.5826 81.1914 36.8444 81.0366 37.0459 80.7966C37.2473 80.5572 37.3773 80.2452 37.416 79.9095V75.939C37.3722 76.2724 37.2405 76.5807 37.04 76.8193C36.8395 77.058 36.5805 77.2147 36.3004 77.2669C35.274 77.6388 32.8864 77.6388 32.1612 78.5949C31.748 79.1485 31.5146 79.8597 31.5029 80.5998V84.5838Z" fill="#88733E"/>
<path d="M37.36 79.8564C37.3481 79.1121 37.1149 78.3969 36.7018 77.838C35.9765 76.8154 33.6113 76.8287 32.5737 76.51C32.2943 76.4559 32.0361 76.2985 31.8359 76.0602C31.6357 75.8219 31.5035 75.5147 31.458 75.1821V71.1982C31.5051 71.5301 31.6378 71.8363 31.8377 72.0742C32.0376 72.3123 32.2949 72.4702 32.5737 72.5262C33.6001 72.9113 35.9765 72.898 36.7018 73.8541C37.1149 74.4131 37.3481 75.1283 37.36 75.8726V79.8564Z" fill="#B89D58"/>
<path d="M37.36 89.2185C37.3484 88.4781 37.1149 87.7671 36.7018 87.2133C35.9765 86.1909 33.6113 86.2041 32.5737 85.8855C32.2962 85.8261 32.0407 85.6665 31.8412 85.4295C31.6418 85.1919 31.5082 84.8877 31.458 84.5577V80.5869C31.5066 80.9181 31.6398 81.2235 31.8395 81.4611C32.0391 81.6987 32.2956 81.8571 32.5737 81.9153C33.6001 82.2999 35.9765 82.2867 36.7018 83.2431C37.1149 83.7969 37.3484 84.5079 37.36 85.2483V89.2185Z" fill="#B89D58"/>
<path d="M34.4042 44.6396C34.2374 44.8491 34.0914 45.0808 33.9691 45.3301C33.824 45.5691 33.6455 45.7285 33.7571 46.034C33.9434 46.5813 34.1596 47.1137 34.4042 47.6274C34.6489 47.0908 34.8649 46.5364 35.0513 45.9675C35.174 45.6621 34.9621 45.4629 34.817 45.2239C34.6962 45.0132 34.5579 44.8175 34.4042 44.6396ZM36.9926 48.7296L37.9298 46.2863L36.9592 46.5784V48.7296H36.9926ZM31.9051 48.7296V46.5917L30.8898 46.2863L31.8716 48.7031L31.9051 48.7296ZM34.4376 41.5322C34.8153 42.8129 35.3614 44.0141 36.0554 45.0911C36.6132 45.8879 36.3455 45.6621 35.9327 46.8307C35.6417 47.478 35.4777 48.1953 35.453 48.9288C36.1558 48.8359 36.3009 47.1494 36.4013 46.3659C36.4682 45.9144 36.524 45.7816 36.8699 45.6488C38.1194 45.1841 38.0748 45.6488 39.2686 44.0951C39.4248 43.896 39.4917 43.8296 39.581 43.9358C39.726 44.2412 39.2017 45.2637 39.0343 45.5825C38.2625 47.2482 37.6952 49.037 37.3496 50.8942H31.5481C31.1839 49.0397 30.6097 47.2527 29.841 45.5825C29.7741 45.4098 28.9039 43.7366 29.4171 43.9225L30.3989 44.9981C31.2691 45.8082 32.2956 45.1841 32.4518 46.3261C32.5633 47.1096 32.6972 48.8492 33.4113 48.9819C33.3887 48.2682 33.2324 47.5695 32.9538 46.937C32.8505 46.6446 32.7313 46.3608 32.5968 46.0871C32.3737 45.6223 32.5968 45.4364 32.7865 45.1708C33.4809 44.0586 34.037 42.8332 34.4376 41.5322Z" fill="#B89D58"/>
<path d="M70.143 44.3C70.143 44.412 70.0306 44.678 69.8058 45.098C69.5951 45.504 69.3141 46.106 68.9629 46.904C68.7943 47.31 68.6117 47.723 68.415 48.143C68.2323 48.563 68.0497 48.983 67.8671 49.403C67.6844 49.823 67.5159 50.229 67.3613 50.621C67.2068 50.999 67.0663 51.356 66.9398 51.692C66.7994 52.0839 66.6378 52.5459 66.4551 53.078C66.2725 53.5959 66.0969 54.114 65.9283 54.632C65.7738 55.1499 65.6403 55.626 65.5279 56.06C65.4156 56.48 65.3593 56.7879 65.3593 56.984C65.3593 57.18 65.4015 57.299 65.4858 57.341C65.5842 57.369 65.6825 57.383 65.7808 57.383C65.8932 57.383 66.0126 57.3549 66.139 57.299C66.2655 57.2289 66.3849 57.159 66.4973 57.089C66.6237 57.005 66.7502 56.907 66.8766 56.795L67.0452 57.236C66.8907 57.3759 66.687 57.558 66.4341 57.782C66.1953 58.0059 65.9283 58.223 65.6333 58.433C65.3383 58.643 65.0292 58.8249 64.7061 58.979C64.397 59.133 64.109 59.21 63.8421 59.21C63.6876 59.21 63.5541 59.175 63.4417 59.105C63.3433 59.049 63.2942 58.916 63.2942 58.706C63.2942 58.566 63.3433 58.293 63.4417 57.887C63.5541 57.4809 63.7297 56.921 63.9685 56.207C64.1652 55.5909 64.39 54.933 64.6428 54.233C64.9098 53.5329 65.1697 52.847 65.4226 52.175C65.6895 51.489 65.9354 50.852 66.1601 50.264C66.3849 49.662 66.5746 49.165 66.7291 48.773L66.6027 48.731C66.3076 49.067 66.0197 49.41 65.7387 49.76C65.4717 50.096 65.1416 50.502 64.7482 50.978C64.3549 51.4539 63.8702 52.0209 63.2942 52.679C62.7182 53.3229 61.9946 54.128 61.1236 55.094C60.7443 55.514 60.4001 55.892 60.091 56.228C59.796 56.564 59.501 56.886 59.2059 57.194C58.925 57.5019 58.637 57.7959 58.3419 58.076C58.0469 58.3419 57.7238 58.622 57.3726 58.916C57.2461 59.028 57.0565 59.147 56.8036 59.273C56.5507 59.399 56.3049 59.462 56.066 59.462C55.8694 59.462 55.7288 59.399 55.6445 59.273C55.5743 59.147 55.5392 58.958 55.5392 58.706C55.5392 58.496 55.6024 58.167 55.7288 57.719C55.8553 57.257 56.0098 56.7459 56.1924 56.186C56.3892 55.626 56.5928 55.052 56.8036 54.464C57.0284 53.862 57.2321 53.33 57.4147 52.868C58.0048 51.3279 58.5597 49.8999 59.0795 48.584C59.5993 47.268 60.1613 45.945 60.7654 44.615H60.6811C60.4984 44.825 60.1753 45.224 59.7117 45.812C59.2622 46.386 58.7283 47.0649 58.1101 47.849C57.506 48.633 56.8457 49.473 56.1292 50.369C55.4127 51.2649 54.7033 52.133 54.0008 52.973C53.6215 53.421 53.2071 53.9109 52.7575 54.443C52.322 54.9609 51.8654 55.4859 51.3877 56.018C50.9101 56.5359 50.4254 57.047 49.9337 57.551C49.442 58.041 48.9643 58.475 48.5007 58.853C48.0371 59.231 47.5876 59.532 47.152 59.756C46.7305 59.994 46.3512 60.113 46.014 60.113C45.5786 60.113 45.3608 59.8749 45.3608 59.399C45.3608 58.979 45.4943 58.559 45.7612 58.139C46.0422 57.719 46.3723 57.369 46.7516 57.089H46.9834C46.9694 57.159 46.9623 57.2289 46.9623 57.299C46.9623 57.3549 46.9623 57.404 46.9623 57.446C46.9623 57.516 46.9694 57.593 46.9834 57.677C46.9975 57.761 47.0256 57.845 47.0677 57.929C47.1239 58.013 47.1942 58.083 47.2784 58.139C47.3768 58.1949 47.5033 58.223 47.6578 58.223C47.7561 58.223 47.8755 58.202 48.016 58.16C48.1565 58.104 48.3251 58.013 48.5218 57.887C48.7325 57.747 48.9714 57.558 49.2383 57.32C49.5193 57.068 49.8424 56.7459 50.2076 56.354C51.1349 55.346 52.0199 54.366 52.8629 53.414C53.7058 52.4619 54.5207 51.51 55.3074 50.558C56.0941 49.592 56.8668 48.612 57.6254 47.618C58.3841 46.6239 59.1427 45.588 59.9014 44.51C59.5923 44.4399 59.2902 44.391 58.9952 44.363C58.7002 44.3349 58.3068 44.321 57.8151 44.321C57.3796 44.321 56.8036 44.342 56.0871 44.384C55.3706 44.412 54.5558 44.531 53.6426 44.741C52.7435 44.951 51.7601 45.28 50.6923 45.728C49.6387 46.176 48.5499 46.8129 47.426 47.639C47.0045 47.961 46.6111 48.297 46.2459 48.647C45.8947 48.983 45.5926 49.319 45.3397 49.655C45.0868 49.991 44.8902 50.313 44.7496 50.621C44.6092 50.9289 44.5389 51.209 44.5389 51.461C44.5389 51.643 44.5881 51.776 44.6864 51.86C44.7988 51.944 44.9323 51.986 45.0868 51.986C45.2554 51.986 45.41 51.965 45.5504 51.923C45.691 51.867 45.8525 51.7899 46.0351 51.692V51.965C45.7822 52.3149 45.4521 52.574 45.0447 52.742C44.6373 52.91 44.2509 52.994 43.8856 52.994C43.2816 52.994 42.9795 52.7139 42.9795 52.154C42.9795 51.692 43.1411 51.209 43.4642 50.705C43.8013 50.187 44.2158 49.6899 44.7075 49.214C45.1992 48.7239 45.7261 48.269 46.288 47.849C46.85 47.429 47.3558 47.072 47.8053 46.778C48.9714 46.0359 50.1304 45.455 51.2824 45.035C52.4484 44.601 53.5302 44.272 54.5277 44.048C55.5251 43.824 56.4032 43.684 57.1618 43.628C57.9345 43.572 58.5105 43.544 58.8898 43.544C59.508 43.544 60.0419 43.565 60.4914 43.607C60.941 43.635 61.3273 43.6629 61.6504 43.691C62.0157 43.733 62.3318 43.775 62.5987 43.817C62.5004 43.985 62.3599 44.265 62.1773 44.657C61.9946 45.049 61.791 45.497 61.5661 46.001C61.3554 46.491 61.1306 47.0229 60.8918 47.597C60.667 48.1569 60.4493 48.7029 60.2385 49.235C59.8592 50.201 59.508 51.111 59.1849 51.965C58.8758 52.805 58.6019 53.561 58.363 54.233C58.1382 54.905 57.9556 55.479 57.8151 55.955C57.6887 56.4309 57.6254 56.774 57.6254 56.984C57.6254 57.054 57.6325 57.117 57.6465 57.173C57.6606 57.215 57.7168 57.236 57.8151 57.236C57.9415 57.236 58.2436 57.026 58.7212 56.606C59.213 56.186 59.8662 55.521 60.6811 54.611C60.8216 54.443 61.0674 54.1629 61.4186 53.771C61.7699 53.3649 62.1843 52.889 62.662 52.343C63.1397 51.783 63.6524 51.167 64.2003 50.495C64.7623 49.823 65.3242 49.13 65.8862 48.416C66.42 47.744 66.8345 47.1489 67.1295 46.631C67.4245 46.113 67.6915 45.672 67.9303 45.308C68.1691 44.958 68.3658 44.72 68.5203 44.594C68.6749 44.454 68.8645 44.342 69.0893 44.258C69.2298 44.202 69.3914 44.167 69.574 44.153C69.7567 44.139 69.8761 44.132 69.9322 44.132C70.0728 44.132 70.143 44.1879 70.143 44.3ZM93.421 43.838C93.421 44.0619 93.2452 44.3769 92.8941 44.783C92.557 45.189 91.9597 45.714 91.1029 46.358C90.3443 46.932 89.6976 47.408 89.1642 47.786C88.6301 48.164 88.1526 48.5 87.7312 48.794C87.3097 49.074 86.9159 49.34 86.5511 49.592C86.1994 49.844 85.8274 50.124 85.4342 50.432C85.5883 50.754 85.7641 51.2229 85.961 51.839C86.1573 52.455 86.3542 53.12 86.5511 53.834C86.6914 54.338 86.8316 54.842 86.9725 55.346C87.1128 55.85 87.2676 56.298 87.4361 56.69C87.6047 57.0819 87.7872 57.404 87.9841 57.656C88.1803 57.894 88.4055 58.013 88.6584 58.013C88.883 58.013 89.1148 57.9639 89.3538 57.866C89.6067 57.7539 89.8313 57.6069 90.0282 57.425L90.1967 57.656C90.1546 57.726 90.042 57.852 89.8596 58.034C89.6765 58.2159 89.4592 58.4049 89.2063 58.601C88.9673 58.797 88.7072 58.9719 88.4266 59.126C88.1454 59.28 87.8853 59.357 87.6469 59.357C87.3374 59.357 87.0779 59.252 86.8672 59.042C86.6703 58.832 86.4878 58.545 86.3193 58.181C86.1507 57.8169 85.9959 57.3969 85.8556 56.921C85.7148 56.4309 85.5534 55.9059 85.371 55.346C85.2867 55.094 85.1879 54.758 85.0759 54.338C84.9633 53.904 84.8441 53.4699 84.7177 53.036C84.5912 52.5879 84.4576 52.182 84.3173 51.818C84.1764 51.4539 84.0433 51.2019 83.9169 51.062C83.6219 51.818 83.3335 52.553 83.0529 53.267C82.8139 53.883 82.5538 54.534 82.2732 55.22C81.992 55.892 81.7464 56.48 81.5356 56.984C81.423 57.264 81.3177 57.5019 81.2195 57.698C81.1352 57.8799 81.0509 58.041 80.9666 58.181C80.8823 58.307 80.7981 58.419 80.7138 58.517C80.6433 58.601 80.559 58.6779 80.4609 58.748C80.2778 58.8879 80.0603 59 79.8074 59.084C79.5546 59.168 79.3578 59.21 79.2174 59.21C79.105 59.21 79.0347 59.189 79.0066 59.147C78.9785 59.105 78.9645 59.049 78.9645 58.979C78.9645 58.9089 79.0136 58.769 79.112 58.559C79.2244 58.335 79.386 57.999 79.5967 57.551C79.976 56.7669 80.2989 56.0739 80.5662 55.472C80.833 54.8559 81.0786 54.2679 81.3038 53.708C81.5422 53.148 81.7741 52.581 81.9992 52.007C82.2238 51.433 82.4839 50.775 82.7789 50.033C83.0035 49.4589 83.2353 48.864 83.4744 48.248C83.7128 47.632 83.9308 47.0649 84.1276 46.547C84.3239 46.0149 84.4859 45.56 84.6123 45.182C84.7526 44.79 84.8441 44.538 84.8863 44.426C84.7177 44.412 84.5557 44.3979 84.4016 44.384C84.2607 44.37 84.1132 44.3559 83.959 44.342C83.8043 44.328 83.664 44.321 83.5376 44.321C83.0035 44.321 82.3786 44.342 81.6621 44.384C80.9456 44.426 80.1446 44.559 79.2595 44.783C78.3885 44.993 77.4402 45.3219 76.4146 45.77C75.4031 46.218 74.3424 46.841 73.2326 47.639C72.797 47.961 72.3966 48.297 72.0314 48.647C71.6801 48.983 71.3781 49.319 71.1252 49.655C70.8723 49.991 70.6756 50.313 70.5352 50.621C70.4087 50.9289 70.3455 51.209 70.3455 51.461C70.3455 51.573 70.3806 51.692 70.4509 51.818C70.5211 51.93 70.6686 51.986 70.8934 51.986C71.076 51.986 71.2306 51.965 71.357 51.923C71.4835 51.867 71.645 51.7899 71.8417 51.692V51.965C71.5186 52.3149 71.1463 52.574 70.7248 52.742C70.3174 52.91 69.9732 52.994 69.6922 52.994C69.0881 52.994 68.7861 52.7139 68.7861 52.154C68.7861 51.734 68.9476 51.272 69.2708 50.768C69.608 50.25 70.0224 49.746 70.5141 49.256C71.0058 48.7659 71.5326 48.3039 72.0946 47.87C72.6565 47.4219 73.1623 47.058 73.6119 46.778C74.792 46.05 75.9229 45.4689 77.0047 45.035C78.1005 44.601 79.1401 44.279 80.1235 44.069C81.1208 43.845 82.0625 43.705 82.9475 43.649C83.8465 43.579 84.6755 43.544 85.4342 43.544C85.6871 43.544 85.961 43.565 86.256 43.607C86.5511 43.649 86.7757 43.6839 86.9304 43.712L84.0433 50.789C84.5629 50.397 85.0266 50.054 85.4342 49.76C85.8412 49.452 86.235 49.158 86.6143 48.878C87.0075 48.584 87.4006 48.29 87.7944 47.996C88.2014 47.702 88.6584 47.3589 89.1642 46.967C89.3887 46.799 89.6205 46.617 89.8596 46.421C90.098 46.211 90.316 46.001 90.5128 45.791C90.7091 45.581 90.8711 45.378 90.9975 45.182C91.124 44.986 91.1872 44.804 91.1872 44.636C91.1872 44.482 91.124 44.3769 90.9975 44.321C90.8711 44.265 90.7657 44.2299 90.6814 44.216V44.048C91.1306 43.81 91.5665 43.649 91.988 43.565C92.4094 43.467 92.7111 43.418 92.8941 43.418C93.0061 43.418 93.1187 43.439 93.2313 43.481C93.3577 43.523 93.421 43.6419 93.421 43.838Z" fill="#B89D58"/>
<path d="M64.5792 71.0632C64.4387 71.3712 64.2702 71.7352 64.0735 72.1552C63.8768 72.5752 63.6731 73.0162 63.4623 73.4782C63.2516 73.9262 63.0479 74.3812 62.8512 74.8432C62.6686 75.2912 62.514 75.6972 62.3876 76.0612C62.205 76.5932 62.0153 77.1462 61.8186 77.7202C61.622 78.2802 61.3761 78.9592 61.081 79.7572C60.9687 80.065 60.8423 80.422 60.7017 80.8282C60.5613 81.2344 60.491 81.5704 60.491 81.8362C60.491 82.0324 60.5894 82.1302 60.786 82.1302C60.9125 82.1302 61.0459 82.102 61.1864 82.0462C61.3269 81.976 61.4534 81.9064 61.5657 81.8362C61.7063 81.7522 61.8327 81.6544 61.945 81.5422L62.1136 81.9832C61.9591 82.123 61.7554 82.2982 61.5025 82.5082C61.2637 82.7182 61.0038 82.921 60.7228 83.1172C60.4419 83.299 60.1538 83.4604 59.8588 83.6002C59.5638 83.74 59.2828 83.8102 59.0159 83.8102C58.749 83.8102 58.6155 83.614 58.6155 83.2222C58.6155 83.0962 58.6365 82.921 58.6787 82.6972C58.7349 82.459 58.8051 82.2004 58.8894 81.9202C58.9737 81.64 59.0721 81.346 59.1844 81.0382C59.2969 80.7304 59.4093 80.422 59.5216 80.1142C59.5919 79.9182 59.7043 79.6032 59.8588 79.1692C60.0274 78.7352 60.217 78.2382 60.4278 77.6782C60.6385 77.1182 60.8633 76.5302 61.1021 75.9142C61.341 75.2982 61.5868 74.7172 61.8397 74.1712C62.0926 73.6112 62.3314 73.1142 62.5562 72.6802C62.795 72.2322 63.0058 71.9102 63.1884 71.7142C63.4694 71.4062 63.7152 71.2172 63.9259 71.1472C64.1367 71.0772 64.2983 71.0422 64.4106 71.0422C64.4387 71.0422 64.4598 71.0492 64.4738 71.0632C64.502 71.0632 64.523 71.0632 64.5371 71.0632H64.5792ZM68.3935 70.1182C68.3935 70.3562 68.3092 70.5662 68.1406 70.7482C67.9861 70.9302 67.8105 71.0772 67.6138 71.1892C67.389 71.3292 67.1361 71.4412 66.8551 71.5252L66.7498 71.4412C66.7639 71.3852 66.7708 71.3082 66.7708 71.2102C66.7708 70.9162 66.6374 70.6362 66.3704 70.3702C66.1035 70.1042 65.7102 69.8662 65.1903 69.6562C64.6846 69.4462 64.0454 69.2782 63.2727 69.1522C62.514 69.0262 61.629 68.9632 60.6174 68.9632C60.5331 69.0892 60.4559 69.2292 60.3856 69.3832C60.3154 69.5232 60.2381 69.6912 60.1538 69.8872C60.0836 70.0692 59.9993 70.2862 59.9009 70.5382C59.8026 70.7762 59.6902 71.0562 59.5638 71.3782C59.4373 71.7002 59.2407 72.2042 58.9737 72.8902C58.7208 73.5762 58.4188 74.3742 58.0676 75.2842C57.7304 76.1942 57.3581 77.1812 56.9507 78.2452C56.5433 79.2952 56.1288 80.3452 55.7074 81.3952C55.5107 81.8572 55.2929 82.291 55.0541 82.6972C54.8153 83.089 54.5694 83.383 54.3165 83.5792C54.2322 83.6494 54.1199 83.719 53.9793 83.7892C53.8389 83.8594 53.6914 83.9224 53.5368 83.9782C53.3963 84.0484 53.2629 84.097 53.1364 84.1252C53.01 84.1672 52.9116 84.1882 52.8414 84.1882L52.7149 84.0202C52.7431 83.9644 52.7923 83.8594 52.8625 83.7052C52.9468 83.551 53.0381 83.3764 53.1364 83.1802C53.2488 82.9702 53.3612 82.7464 53.4736 82.5082C53.6 82.27 53.7195 82.0462 53.8318 81.8362C54.0847 81.3322 54.3517 80.7442 54.6326 80.0722C54.9276 79.4002 55.2297 78.6862 55.5388 77.9302C55.8479 77.1602 56.164 76.3622 56.4871 75.5362C56.8242 74.7102 57.1544 73.8912 57.4775 73.0792C57.7585 72.3932 57.9974 71.8262 58.194 71.3782C58.4047 70.9162 58.5874 70.5382 58.7419 70.2442C58.9105 69.9362 59.058 69.6912 59.1844 69.5092C59.3109 69.3132 59.4373 69.1312 59.5638 68.9632H59.0369C58.3486 68.9632 57.5618 68.9982 56.6767 69.0682C55.8057 69.1242 54.8644 69.2642 53.8529 69.4882C52.8555 69.7122 51.8088 70.0412 50.713 70.4752C49.6172 70.9092 48.5144 71.4972 47.4045 72.2392C46.5054 72.8412 45.7959 73.4852 45.2761 74.1712C44.7703 74.8572 44.5174 75.4872 44.5174 76.0612C44.5174 76.4112 44.6931 76.5862 45.0443 76.5862C45.1988 76.5862 45.3463 76.5652 45.4868 76.5232C45.6414 76.4812 45.817 76.4042 46.0136 76.2922V76.5652C45.7186 76.9152 45.3534 77.1742 44.9178 77.3422C44.4964 77.5102 44.1452 77.5942 43.8642 77.5942C43.527 77.5942 43.2882 77.5102 43.1477 77.3422C43.0212 77.1602 42.958 76.9222 42.958 76.6282C42.958 76.2082 43.1196 75.7532 43.4427 75.2632C43.7799 74.7592 44.1873 74.2692 44.6649 73.7932C45.1567 73.3032 45.6835 72.8482 46.2454 72.4282C46.8074 72.0082 47.3202 71.6582 47.7838 71.3782C48.9077 70.7202 50.0457 70.1812 51.1977 69.7612C52.3637 69.3412 53.4806 69.0122 54.5483 68.7742C55.6161 68.5362 56.6065 68.3752 57.5197 68.2912C58.4469 68.1932 59.2266 68.1442 59.8588 68.1442H60.1327L61.1653 67.3042H61.5868C61.4885 67.4582 61.3971 67.5982 61.3129 67.7242L61.0178 68.1442C61.9029 68.1582 62.781 68.2142 63.652 68.3122C64.5371 68.3962 65.3309 68.5222 66.0333 68.6902C66.7357 68.8582 67.3047 69.0612 67.7402 69.2992C68.1758 69.5372 68.3935 69.8102 68.3935 70.1182ZM74.4669 75.7042C74.4669 76.3902 74.3615 77.0832 74.1508 77.7832C73.9541 78.4692 73.631 79.1622 73.1814 79.8622C72.9426 80.2264 72.6405 80.6464 72.2752 81.1222C71.91 81.5842 71.4885 82.0252 71.0108 82.4452C70.5332 82.8514 70.0064 83.2012 69.4303 83.4952C68.8684 83.7754 68.2643 83.9152 67.618 83.9152C67.4073 83.9152 67.1896 83.908 66.9648 83.8942C66.74 83.8804 66.5574 83.8594 66.4169 83.8312C66.2764 84.1954 66.1149 84.622 65.9322 85.1122C65.7636 85.6162 65.5669 86.2042 65.3421 86.8762C64.8364 88.3462 64.4992 89.3962 64.3306 90.0262C64.3026 90.1942 64.2815 90.355 64.2674 90.5092C64.2393 90.6634 64.2252 90.754 64.2252 90.7822C64.1129 91.1044 63.867 91.3984 63.4877 91.6642C63.0803 91.9582 62.7221 92.1052 62.4129 92.1052C62.2022 92.1052 62.0968 91.9792 62.0968 91.7272C62.0968 91.6012 62.146 91.3774 62.2444 91.0552C62.3286 90.7474 62.4692 90.334 62.6658 89.8162L65.2578 83.2222C65.1033 82.8442 65.026 82.48 65.026 82.1302C65.026 82.018 65.026 81.934 65.026 81.8782C65.0401 81.808 65.0541 81.745 65.0682 81.6892L65.6372 81.9412L67.4284 77.4682C67.7937 76.5442 67.9763 75.9492 67.9763 75.6832C67.9763 75.5572 67.9201 75.4942 67.8077 75.4942C67.7094 75.4942 67.5268 75.5502 67.2598 75.6622C66.9929 75.7742 66.6136 75.9772 66.1218 76.2712L65.9954 75.8722C66.2343 75.7322 66.5222 75.5642 66.8594 75.3682C67.2107 75.1722 67.5689 74.9902 67.9341 74.8222C68.2994 74.6402 68.6437 74.4932 68.9667 74.3812C69.3039 74.2552 69.5709 74.1922 69.7675 74.1922C69.9361 74.1922 70.0204 74.2902 70.0204 74.4862C70.0204 74.5702 69.901 74.9062 69.6622 75.4942C69.4374 76.0682 69.1353 76.7612 68.756 77.5732L68.8614 77.5942C69.0862 77.3422 69.325 77.0622 69.5779 76.7542C69.8448 76.4462 70.1258 76.1452 70.4208 75.8512C70.7158 75.5432 71.0249 75.2562 71.348 74.9902C71.6712 74.7102 72.0154 74.4792 72.3806 74.2972C72.6756 74.1432 73.0058 74.0662 73.3711 74.0662C73.7082 74.0662 73.9752 74.1922 74.1718 74.4442C74.3685 74.6822 74.4669 75.1022 74.4669 75.7042ZM72.6546 76.5652C72.6546 76.2012 72.6124 75.9352 72.5281 75.7672C72.4579 75.5992 72.3174 75.5152 72.1067 75.5152C71.8116 75.5152 71.4745 75.6692 71.0951 75.9772C70.7299 76.2712 70.3576 76.6492 69.9783 77.1112C69.5989 77.5732 69.2196 78.0912 68.8403 78.6652C68.4751 79.2252 68.1449 79.7712 67.8498 80.3032C67.597 80.7514 67.3933 81.1714 67.2387 81.5632C67.0842 81.9412 66.9578 82.291 66.8594 82.6132C67.309 82.921 67.8498 83.0752 68.482 83.0752C69.0159 83.0752 69.5217 82.879 69.9993 82.4872C70.4068 82.165 70.7721 81.7732 71.0951 81.3112C71.4183 80.8492 71.6922 80.359 71.917 79.8412C72.1558 79.3092 72.3385 78.7632 72.4649 78.2032C72.5913 77.6432 72.6546 77.0972 72.6546 76.5652ZM84.6011 74.9272C84.4186 75.1092 84.2428 75.3402 84.0742 75.6202C83.9057 75.8862 83.7371 76.1942 83.5685 76.5442C83.4565 76.7962 83.3228 77.0972 83.1681 77.4472C83.0278 77.7972 82.8664 78.1962 82.6834 78.6442C82.501 79.0922 82.3535 79.4702 82.2409 79.7782C82.1289 80.086 82.0374 80.338 81.9669 80.5342C81.7423 81.1642 81.6297 81.5704 81.6297 81.7522C81.6297 81.9622 81.7351 82.0672 81.9458 82.0672C82.2132 82.0672 82.501 81.9694 82.8098 81.7732C83.1332 81.5632 83.4565 81.3394 83.7792 81.1012L83.9478 81.5422C83.6389 81.7942 83.3156 82.0534 82.9784 82.3192C82.6557 82.585 82.3252 82.8304 81.988 83.0542C81.6653 83.278 81.3419 83.4604 81.0186 83.6002C80.7097 83.74 80.4286 83.8102 80.1759 83.8102C79.8528 83.8102 79.6912 83.6422 79.6912 83.3062C79.6912 82.942 79.8528 82.3402 80.1759 81.5002L80.7236 80.0512H80.5761C80.0144 80.7094 79.5086 81.2764 79.059 81.7522C78.6095 82.228 78.195 82.6204 77.8157 82.9282C77.4505 83.2222 77.1063 83.446 76.7831 83.6002C76.46 83.74 76.1369 83.8102 75.8138 83.8102C75.0692 83.8102 74.6969 83.32 74.6969 82.3402C74.6969 81.8644 74.7671 81.388 74.9076 80.9122C75.0481 80.422 75.2378 79.9532 75.4766 79.5052C75.7154 79.0572 75.9964 78.6232 76.3195 78.2032C76.6427 77.7832 76.9939 77.3912 77.3732 77.0272C77.7666 76.6492 78.195 76.2922 78.6586 75.9562C79.1223 75.6062 79.614 75.3052 80.1338 75.0532C80.6537 74.7872 81.1872 74.5772 81.7351 74.4232C82.283 74.2692 82.8381 74.1922 83.3999 74.1922C83.6528 74.1922 83.9129 74.2482 84.1796 74.3602C84.4608 74.4582 84.6011 74.6192 84.6011 74.8432V74.9272ZM83.147 75.2842C83.035 75.1862 82.8664 75.1232 82.6413 75.0952C82.4305 75.0532 82.2342 75.0322 82.0512 75.0322C81.602 75.0322 81.1451 75.1582 80.6814 75.4102C80.2323 75.6622 79.7966 75.9772 79.3751 76.3552C78.9678 76.7332 78.5954 77.1462 78.2583 77.5942C77.9211 78.0422 77.6471 78.4622 77.4364 78.8542C77.1555 79.4142 76.9237 79.9322 76.741 80.4082C76.5724 80.8702 76.4881 81.2692 76.4881 81.6052C76.4881 81.8992 76.5373 82.102 76.6356 82.2142C76.734 82.3264 76.8885 82.3822 77.0992 82.3822C77.3942 82.3822 77.7385 82.228 78.1318 81.9202C78.5252 81.6124 78.9115 81.2482 79.2908 80.8282C79.6843 80.4082 80.0425 79.9812 80.3653 79.5472C80.7025 79.0992 80.9488 78.7352 81.1029 78.4552C81.2438 78.2032 81.4124 77.8672 81.6087 77.4472C81.7213 77.1812 81.8266 76.9292 81.9248 76.6912C82.0374 76.4392 82.1921 76.1942 82.3884 75.9562C82.6557 75.6482 82.9086 75.4242 83.147 75.2842ZM96.3245 68.8582C96.3245 69.5022 95.959 70.3212 95.2286 71.3152C94.9896 71.6232 94.688 71.9662 94.3225 72.3442C93.957 72.7222 93.55 73.1142 93.1002 73.5202C92.6649 73.9122 92.1941 74.3042 91.6883 74.6962C91.1964 75.0882 90.7051 75.4452 90.2132 75.7672V75.8512C90.5504 75.7672 90.8665 75.7112 91.1615 75.6832C91.4565 75.6412 91.7166 75.6202 91.9412 75.6202C92.3344 75.6202 92.6649 75.7112 92.9317 75.8932C93.2128 76.0752 93.3531 76.4322 93.3531 76.9642C93.3531 77.3142 93.2827 77.6922 93.1424 78.0982C93.0021 78.5042 92.8052 78.9172 92.5523 79.3372C92.3133 79.7572 92.0327 80.1772 91.7094 80.5972C91.3861 81.0034 91.0423 81.3952 90.6768 81.7732C89.9603 82.501 89.2577 83.026 88.5695 83.3482C87.8951 83.656 87.2912 83.8102 86.7572 83.8102C86.4338 83.8102 86.181 83.7472 85.9985 83.6212C85.8161 83.4952 85.6752 83.3482 85.5771 83.1802C85.4928 82.9984 85.4368 82.8094 85.4085 82.6132C85.3946 82.4032 85.3874 82.2214 85.3874 82.0672C85.3874 81.451 85.4928 80.7934 85.7035 80.0932C85.9281 79.3792 86.1882 78.6442 86.4832 77.8882C86.7361 77.2582 87.0594 76.5722 87.4526 75.8302C87.8458 75.0882 88.2883 74.3462 88.7802 73.6042C89.2721 72.8622 89.7917 72.1482 90.3396 71.4622C90.8875 70.7762 91.4427 70.1672 92.0044 69.6352C92.5662 69.1032 93.1213 68.6762 93.6692 68.3542C94.2171 68.0322 94.7367 67.8712 95.2286 67.8712C95.5941 67.8712 95.8681 67.9482 96.0505 68.1022C96.2329 68.2422 96.3245 68.4942 96.3245 68.8582ZM94.5543 69.8662C94.5543 69.4322 94.3508 69.2152 93.9432 69.2152C93.5921 69.2152 93.2267 69.3482 92.8474 69.6142C92.4819 69.8802 92.117 70.2302 91.7515 70.6642C91.3861 71.0842 91.0351 71.5602 90.6979 72.0922C90.3607 72.6242 90.0446 73.1632 89.7496 73.7092C89.4684 74.2412 89.2089 74.7522 88.9699 75.2422C88.7453 75.7322 88.5695 76.1452 88.443 76.4812C88.2745 76.8872 88.1131 77.3142 87.9584 77.7622C87.8036 78.2102 87.6633 78.6582 87.5369 79.1062C87.4243 79.5402 87.3262 79.9602 87.2419 80.3662C87.1714 80.758 87.1365 81.1084 87.1365 81.4162C87.1365 81.7804 87.1997 82.0882 87.3262 82.3402C87.4526 82.5922 87.6982 82.7182 88.0637 82.7182C88.3726 82.7182 88.6887 82.627 89.012 82.4452C89.3353 82.2634 89.6936 81.9622 90.0868 81.5422C90.5642 81.0382 90.958 80.4364 91.2669 79.7362C91.5902 79.0362 91.7515 78.3642 91.7515 77.7202C91.7515 77.5802 91.7443 77.4262 91.7305 77.2582C91.7166 77.0762 91.6673 76.9082 91.583 76.7542C91.5125 76.6002 91.3933 76.4742 91.2247 76.3762C91.0561 76.2782 90.8171 76.2292 90.5082 76.2292C90.1572 76.2292 89.8411 76.2782 89.5599 76.3762C89.2932 76.4602 89.1246 76.5232 89.0542 76.5652V75.9982C89.4196 75.7602 89.9109 75.4172 90.5293 74.9692C91.1476 74.5072 91.7515 73.9962 92.3416 73.4362C92.9455 72.8622 93.4657 72.2672 93.901 71.6512C94.3363 71.0352 94.5543 70.4402 94.5543 69.8662ZM102.517 76.1032C102.517 76.9432 102.341 77.7762 101.99 78.6022C101.639 79.4142 101.189 80.1772 100.641 80.8912C99.8407 81.9274 99.0471 82.6834 98.2602 83.1592C97.4877 83.6212 96.6797 83.8522 95.8368 83.8522C94.5164 83.8522 93.8559 83.1244 93.8559 81.6682C93.8559 81.136 93.9474 80.5834 94.1298 80.0092C94.3123 79.4212 94.5585 78.8542 94.8674 78.3082C95.1907 77.7482 95.57 77.2232 96.0053 76.7332C96.4407 76.2292 96.9115 75.7882 97.4173 75.4102C97.923 75.0322 98.4498 74.7382 98.9977 74.5282C99.5595 74.3042 100.128 74.1922 100.705 74.1922C101.281 74.1922 101.723 74.3672 102.032 74.7172C102.356 75.0532 102.517 75.5152 102.517 76.1032ZM100.789 76.8802C100.789 76.2502 100.697 75.8162 100.515 75.5782C100.333 75.3262 100.016 75.2002 99.5667 75.2002C98.5552 75.2002 97.6418 75.8722 96.8272 77.2162C95.9981 78.5462 95.5839 79.9392 95.5839 81.3952C95.5839 81.8572 95.682 82.2352 95.8789 82.5292C96.0758 82.8094 96.3985 82.9492 96.8483 82.9492C97.2276 82.9492 97.5858 82.8442 97.923 82.6342C98.274 82.4104 98.5974 82.123 98.8924 81.7732C99.1874 81.4234 99.4475 81.031 99.6721 80.5972C99.9111 80.149 100.107 79.7012 100.262 79.2532C100.431 78.8052 100.557 78.3782 100.641 77.9722C100.74 77.5522 100.789 77.1882 100.789 76.8802ZM114.126 68.8582C114.126 69.5022 113.76 70.3212 113.03 71.3152C112.791 71.6232 112.489 71.9662 112.124 72.3442C111.759 72.7222 111.351 73.1142 110.902 73.5202C110.466 73.9122 109.996 74.3042 109.49 74.6962C108.998 75.0882 108.506 75.4452 108.015 75.7672V75.8512C108.352 75.7672 108.668 75.7112 108.963 75.6832C109.258 75.6412 109.518 75.6202 109.743 75.6202C110.136 75.6202 110.466 75.7112 110.733 75.8932C111.014 76.0752 111.155 76.4322 111.155 76.9642C111.155 77.3142 111.084 77.6922 110.944 78.0982C110.803 78.5042 110.607 78.9172 110.354 79.3372C110.115 79.7572 109.834 80.1772 109.511 80.5972C109.188 81.0034 108.843 81.3952 108.478 81.7732C107.762 82.501 107.059 83.026 106.371 83.3482C105.697 83.656 105.092 83.8102 104.559 83.8102C104.235 83.8102 103.982 83.7472 103.8 83.6212C103.617 83.4952 103.477 83.3482 103.379 83.1802C103.294 82.9984 103.238 82.8094 103.21 82.6132C103.196 82.4032 103.189 82.2214 103.189 82.0672C103.189 81.451 103.294 80.7934 103.505 80.0932C103.73 79.3792 103.99 78.6442 104.285 77.8882C104.538 77.2582 104.86 76.5722 105.254 75.8302C105.647 75.0882 106.09 74.3462 106.582 73.6042C107.073 72.8622 107.593 72.1482 108.141 71.4622C108.689 70.7762 109.244 70.1672 109.806 69.6352C110.368 69.1032 110.923 68.6762 111.471 68.3542C112.019 68.0322 112.538 67.8712 113.03 67.8712C113.395 67.8712 113.669 67.9482 113.852 68.1022C114.034 68.2422 114.126 68.4942 114.126 68.8582ZM112.356 69.8662C112.356 69.4322 112.152 69.2152 111.745 69.2152C111.393 69.2152 111.028 69.3482 110.649 69.6142C110.283 69.8802 109.918 70.2302 109.553 70.6642C109.188 71.0842 108.837 71.5602 108.499 72.0922C108.162 72.6242 107.846 73.1632 107.551 73.7092C107.27 74.2412 107.01 74.7522 106.771 75.2422C106.546 75.7322 106.371 76.1452 106.245 76.4812C106.076 76.8872 105.914 77.3142 105.76 77.7622C105.605 78.2102 105.465 78.6582 105.338 79.1062C105.226 79.5402 105.128 79.9602 105.043 80.3662C104.973 80.758 104.938 81.1084 104.938 81.4162C104.938 81.7804 105.001 82.0882 105.128 82.3402C105.254 82.5922 105.5 82.7182 105.865 82.7182C106.174 82.7182 106.49 82.627 106.814 82.4452C107.136 82.2634 107.495 81.9622 107.888 81.5422C108.366 81.0382 108.759 80.4364 109.068 79.7362C109.391 79.0362 109.553 78.3642 109.553 77.7202C109.553 77.5802 109.546 77.4262 109.532 77.2582C109.518 77.0762 109.469 76.9082 109.384 76.7542C109.314 76.6002 109.195 76.4742 109.026 76.3762C108.858 76.2782 108.619 76.2292 108.31 76.2292C107.958 76.2292 107.642 76.2782 107.361 76.3762C107.094 76.4602 106.926 76.5232 106.856 76.5652V75.9982C107.221 75.7602 107.712 75.4172 108.331 74.9692C108.949 74.5072 109.553 73.9962 110.143 73.4362C110.747 72.8622 111.267 72.2672 111.703 71.6512C112.138 71.0352 112.356 70.4402 112.356 69.8662ZM123.732 74.3812C123.732 74.4652 123.535 74.9412 123.142 75.8092C122.762 76.6772 122.25 77.9932 121.603 79.7572C121.519 79.9672 121.435 80.1844 121.351 80.4082C121.266 80.6182 121.189 80.821 121.119 81.0172C121.049 81.199 120.992 81.3742 120.95 81.5422C120.908 81.6964 120.887 81.8152 120.887 81.8992C120.887 82.039 120.908 82.123 120.95 82.1512C120.992 82.1794 121.063 82.1932 121.161 82.1932C121.273 82.1932 121.428 82.1374 121.624 82.0252C121.821 81.913 122.018 81.787 122.215 81.6472C122.44 81.493 122.672 81.3112 122.91 81.1012L123.079 81.5422C122.924 81.682 122.693 81.8854 122.383 82.1512C122.088 82.4032 121.765 82.6552 121.414 82.9072C121.077 83.1592 120.726 83.383 120.36 83.5792C120.009 83.761 119.7 83.8522 119.433 83.8522C119.25 83.8522 119.131 83.803 119.075 83.7052C119.019 83.6212 118.99 83.5162 118.99 83.3902C118.99 83.2642 119.032 83.0542 119.117 82.7602C119.201 82.4524 119.314 82.102 119.454 81.7102C119.595 81.3184 119.749 80.8984 119.918 80.4502C120.086 80.002 120.255 79.5682 120.423 79.1482C120.592 78.7142 120.747 78.3082 120.887 77.9302C121.028 77.5522 121.147 77.2442 121.245 77.0062C121.442 76.5022 121.646 76.0192 121.856 75.5572C122.081 75.0952 122.299 74.7872 122.51 74.6332C122.735 74.4792 122.924 74.3672 123.079 74.2972C123.233 74.2272 123.388 74.1922 123.542 74.1922C123.584 74.1922 123.626 74.1992 123.669 74.2132C123.711 74.2272 123.732 74.2832 123.732 74.3812ZM119.264 78.5182C119.264 78.8682 119.166 79.3022 118.969 79.8202C118.773 80.338 118.463 80.842 118.042 81.3322C117.888 81.514 117.691 81.7102 117.452 81.9202C117.227 82.1302 116.982 82.3402 116.714 82.5502C116.448 82.7464 116.166 82.9282 115.871 83.0962C115.576 83.2642 115.289 83.3902 115.007 83.4742C114.558 83.6284 114.186 83.719 113.891 83.7472C113.596 83.7892 113.308 83.8102 113.027 83.8102C112.676 83.8102 112.43 83.7262 112.289 83.5582C112.149 83.3764 112.078 83.1802 112.078 82.9702C112.078 82.732 112.128 82.4524 112.226 82.1302C112.325 81.808 112.479 81.3814 112.689 80.8492C112.788 80.5972 112.915 80.2684 113.069 79.8622C113.237 79.4562 113.406 79.0362 113.574 78.6022C113.743 78.1542 113.905 77.7272 114.059 77.3212C114.214 76.9152 114.333 76.5792 114.417 76.3132C114.46 76.1872 114.495 76.0752 114.523 75.9772C114.565 75.8652 114.586 75.7672 114.586 75.6832C114.586 75.5572 114.53 75.4942 114.417 75.4942C114.305 75.4942 114.151 75.5362 113.954 75.6202C113.771 75.7042 113.589 75.7952 113.406 75.8932C113.181 76.0052 112.957 76.1312 112.732 76.2712L112.605 75.8722C112.774 75.7602 112.992 75.6272 113.258 75.4732C113.54 75.3192 113.827 75.1722 114.122 75.0322C114.417 74.8782 114.691 74.7452 114.944 74.6332C115.212 74.5072 115.422 74.4162 115.576 74.3602C115.871 74.2482 116.124 74.1922 116.335 74.1922C116.406 74.1922 116.462 74.2062 116.504 74.2342C116.56 74.2622 116.588 74.3462 116.588 74.4862C116.588 74.5142 116.567 74.5912 116.525 74.7172C116.483 74.8432 116.427 74.9972 116.356 75.1792C116.286 75.3472 116.209 75.5292 116.124 75.7252C116.054 75.9212 115.991 76.1032 115.935 76.2712C115.837 76.5092 115.731 76.7682 115.619 77.0482C115.52 77.3142 115.401 77.6082 115.26 77.9302C115.696 77.6922 116.132 77.4962 116.567 77.3422C117.017 77.1882 117.445 77.1112 117.852 77.1112C118.386 77.1112 118.752 77.2232 118.948 77.4472C119.159 77.6572 119.264 78.0142 119.264 78.5182ZM117.599 79.0432C117.599 78.8192 117.572 78.6442 117.515 78.5182C117.459 78.3782 117.382 78.2802 117.283 78.2242C117.199 78.1542 117.101 78.1122 116.988 78.0982C116.876 78.0842 116.757 78.0772 116.63 78.0772C116.392 78.0772 116.124 78.1332 115.829 78.2452C115.534 78.3432 115.268 78.4692 115.029 78.6232C114.902 78.9452 114.762 79.2812 114.607 79.6312C114.467 79.9812 114.333 80.3314 114.207 80.6812C114.08 81.0172 113.975 81.3322 113.891 81.6262C113.821 81.9202 113.785 82.165 113.785 82.3612C113.785 82.543 113.827 82.6834 113.912 82.7812C114.01 82.879 114.186 82.9282 114.438 82.9282C114.79 82.9282 115.148 82.8304 115.513 82.6342C115.893 82.4242 116.237 82.1512 116.546 81.8152C116.855 81.4654 117.108 81.052 117.304 80.5762C117.501 80.1004 117.599 79.5892 117.599 79.0432ZM132.011 74.9062C132.011 75.1862 131.92 75.4802 131.737 75.7882C131.554 76.0822 131.33 76.3692 131.063 76.6492C130.796 76.9292 130.515 77.1952 130.22 77.4472C129.925 77.6852 129.665 77.8882 129.44 78.0562C128.948 78.4202 128.429 78.7422 127.881 79.0222C127.347 79.3022 126.764 79.5332 126.132 79.7152C126.075 79.9112 126.033 80.1142 126.005 80.3242C125.977 80.5204 125.963 80.653 125.963 80.7232C125.963 81.451 126.111 81.976 126.406 82.2982C126.701 82.6204 127.143 82.7812 127.733 82.7812C128.239 82.7812 128.745 82.648 129.251 82.3822C129.77 82.102 130.234 81.8224 130.641 81.5422L130.81 81.8572C130.571 82.081 130.283 82.312 129.946 82.5502C129.623 82.7884 129.272 83.0122 128.892 83.2222C128.527 83.4184 128.14 83.5792 127.733 83.7052C127.34 83.8312 126.954 83.8942 126.574 83.8942C125.858 83.8942 125.282 83.7052 124.846 83.3272C124.425 82.9354 124.214 82.3402 124.214 81.5422C124.214 79.8482 124.902 78.2732 126.279 76.8172C126.574 76.5092 126.911 76.2012 127.291 75.8932C127.67 75.5712 128.063 75.2842 128.471 75.0322C128.892 74.7802 129.32 74.5772 129.756 74.4232C130.206 74.2692 130.648 74.1922 131.084 74.1922C131.702 74.1922 132.011 74.4302 132.011 74.9062ZM130.241 75.7252C130.241 75.4032 130.058 75.2422 129.693 75.2422C129.412 75.2422 129.11 75.3542 128.787 75.5782C128.464 75.8022 128.148 76.0892 127.839 76.4392C127.544 76.7892 127.27 77.1812 127.017 77.6152C126.764 78.0492 126.574 78.4832 126.448 78.9172C126.813 78.8472 127.213 78.7142 127.649 78.5182C128.098 78.3082 128.513 78.0562 128.892 77.7622C129.272 77.4682 129.588 77.1462 129.841 76.7962C130.107 76.4462 130.241 76.0892 130.241 75.7252ZM153.672 68.6692C153.419 69.2572 153.054 69.8102 152.576 70.3282C152.113 70.8322 151.544 71.2242 150.869 71.5042C150.097 71.8262 149.352 72.0222 148.636 72.0922C147.933 72.1482 147.203 72.1762 146.444 72.1762C145.573 72.1762 144.856 72.1832 144.295 72.1972C143.733 72.2112 143.241 72.2602 142.819 72.3442C142.412 72.4142 142.047 72.5262 141.724 72.6802C141.4 72.8342 141.049 73.0582 140.67 73.3522L140.586 73.0582C140.894 72.7642 141.183 72.5262 141.45 72.3442C141.716 72.1482 141.969 71.9872 142.208 71.8612C142.461 71.7352 142.714 71.6302 142.967 71.5462C143.22 71.4622 143.494 71.3782 143.789 71.2942C144.224 71.1682 144.667 71.0842 145.116 71.0422C145.566 70.9862 146.015 70.9512 146.465 70.9372C146.915 70.9232 147.371 70.9092 147.835 70.8952C148.312 70.8812 148.79 70.8392 149.268 70.7692C150.167 70.6572 150.961 70.4402 151.649 70.1182C152.352 69.7962 152.948 69.2642 153.44 68.5222L153.672 68.6692ZM152.408 74.7172C152.408 74.8852 152.373 75.1022 152.302 75.3682C152.232 75.6342 152.148 75.9212 152.049 76.2292C151.951 76.5372 151.846 76.8452 151.733 77.1532C151.621 77.4472 151.515 77.7132 151.417 77.9512L150.722 79.6942C150.666 79.8342 150.595 80.0092 150.511 80.2192C150.427 80.4292 150.343 80.6464 150.258 80.8702C150.188 81.0802 150.125 81.283 150.069 81.4792C150.013 81.661 149.984 81.8014 149.984 81.8992C149.984 82.0954 150.076 82.1932 150.258 82.1932C150.356 82.1932 150.483 82.1584 150.638 82.0882C150.806 82.0042 151.031 81.8572 151.312 81.6472L152.007 81.1012L152.176 81.5422C151.291 82.3402 150.553 82.9282 149.963 83.3062C149.373 83.6704 148.896 83.8522 148.53 83.8522C148.235 83.8522 148.088 83.698 148.088 83.3902C148.088 83.2642 148.116 83.0962 148.172 82.8862C148.228 82.6762 148.291 82.4524 148.362 82.2142C148.446 81.9622 148.53 81.7102 148.615 81.4582C148.713 81.2062 148.804 80.9752 148.888 80.7652L149.626 78.7912C149.865 78.1472 150.048 77.6222 150.174 77.2162C150.3 76.7962 150.364 76.5302 150.364 76.4182C150.364 76.2362 150.287 76.1452 150.132 76.1452C149.879 76.1452 149.598 76.2502 149.289 76.4602C148.98 76.6562 148.664 76.9152 148.341 77.2372C148.032 77.5452 147.716 77.8952 147.392 78.2872C147.083 78.6792 146.795 79.0712 146.528 79.4632C146.262 79.8412 146.03 80.1982 145.833 80.5342C145.636 80.8564 145.496 81.115 145.411 81.3112L145.011 82.2142C144.955 82.3402 144.913 82.438 144.885 82.5082C144.871 82.5784 144.835 82.6414 144.779 82.6972L144.4 83.1172C144.161 83.3692 143.95 83.5444 143.768 83.6422C143.599 83.7544 143.444 83.8102 143.304 83.8102C143.135 83.8102 143.051 83.7124 143.051 83.5162C143.051 83.362 143.128 83.0962 143.283 82.7182C143.438 82.3402 143.62 81.9064 143.831 81.4162L144.358 80.1772C144.835 79.0292 145.18 78.1122 145.39 77.4262C145.601 76.7262 145.706 76.3062 145.706 76.1662C145.706 76.0402 145.657 75.9772 145.559 75.9772C145.32 75.9772 145.039 76.0822 144.716 76.2922C144.407 76.5022 144.077 76.7752 143.726 77.1112C143.375 77.4472 143.023 77.8252 142.672 78.2452C142.335 78.6512 142.019 79.0572 141.724 79.4632C141.429 79.8552 141.176 80.2192 140.965 80.5552C140.754 80.8912 140.607 81.157 140.522 81.3532L140.164 82.2142C140.108 82.3402 140.066 82.438 140.038 82.5082C140.024 82.5784 139.988 82.6414 139.932 82.6972L139.553 83.1172C139.314 83.3692 139.103 83.5444 138.921 83.6422C138.752 83.7544 138.597 83.8102 138.457 83.8102C138.289 83.8102 138.204 83.719 138.204 83.5372C138.204 83.4394 138.26 83.2504 138.373 82.9702C138.486 82.69 138.612 82.3894 138.752 82.0672L139.827 79.4842C140.178 78.6442 140.459 77.8812 140.67 77.1952C140.881 76.5092 140.986 76.0192 140.986 75.7252C140.986 75.5712 140.937 75.4942 140.838 75.4942C140.74 75.4942 140.565 75.5432 140.312 75.6412C140.073 75.7392 139.687 75.9492 139.153 76.2712L139.026 75.8722C139.223 75.7462 139.483 75.5922 139.806 75.4102C140.143 75.2142 140.487 75.0252 140.838 74.8432C141.204 74.6612 141.562 74.5072 141.913 74.3812C142.264 74.2552 142.559 74.1922 142.798 74.1922C142.967 74.1922 143.051 74.2902 143.051 74.4862C143.051 74.5562 143.002 74.7452 142.904 75.0532C142.819 75.3472 142.679 75.7532 142.482 76.2712L141.534 78.6652L141.681 78.7072C142.187 78.0912 142.7 77.5102 143.22 76.9642C143.754 76.4182 144.266 75.9422 144.758 75.5362C145.25 75.1162 145.714 74.7872 146.149 74.5492C146.584 74.3112 146.964 74.1922 147.287 74.1922C147.456 74.1922 147.568 74.2412 147.624 74.3392C147.68 74.4372 147.708 74.5632 147.708 74.7172C147.708 75.1092 147.49 75.8862 147.055 77.0482L146.507 78.5392C147.139 77.8672 147.751 77.2302 148.341 76.6282C148.931 76.0122 149.57 75.4382 150.258 74.9062C150.862 74.4302 151.438 74.1922 151.986 74.1922C152.267 74.1922 152.408 74.3672 152.408 74.7172ZM161.131 74.9062C161.131 75.1862 161.039 75.4802 160.857 75.7882C160.674 76.0822 160.449 76.3692 160.183 76.6492C159.916 76.9292 159.635 77.1952 159.34 77.4472C159.045 77.6852 158.785 77.8882 158.56 78.0562C158.068 78.4202 157.548 78.7422 157.001 79.0222C156.466 79.3022 155.884 79.5332 155.251 79.7152C155.195 79.9112 155.153 80.1142 155.125 80.3242C155.097 80.5204 155.083 80.653 155.083 80.7232C155.083 81.451 155.23 81.976 155.525 82.2982C155.82 82.6204 156.263 82.7812 156.853 82.7812C157.359 82.7812 157.865 82.648 158.37 82.3822C158.89 82.102 159.353 81.8224 159.761 81.5422L159.93 81.8572C159.691 82.081 159.403 82.312 159.066 82.5502C158.742 82.7884 158.391 83.0122 158.012 83.2222C157.647 83.4184 157.261 83.5792 156.853 83.7052C156.46 83.8312 156.073 83.8942 155.694 83.8942C154.977 83.8942 154.401 83.7052 153.966 83.3272C153.544 82.9354 153.334 82.3402 153.334 81.5422C153.334 79.8482 154.022 78.2732 155.399 76.8172C155.694 76.5092 156.031 76.2012 156.41 75.8932C156.79 75.5712 157.183 75.2842 157.591 75.0322C158.012 74.7802 158.441 74.5772 158.876 74.4232C159.326 74.2692 159.768 74.1922 160.204 74.1922C160.822 74.1922 161.131 74.4302 161.131 74.9062ZM159.361 75.7252C159.361 75.4032 159.178 75.2422 158.813 75.2422C158.532 75.2422 158.23 75.3542 157.907 75.5782C157.583 75.8022 157.267 76.0892 156.958 76.4392C156.663 76.7892 156.389 77.1812 156.137 77.6152C155.884 78.0492 155.694 78.4832 155.568 78.9172C155.933 78.8472 156.333 78.7142 156.769 78.5182C157.218 78.3082 157.633 78.0562 158.012 77.7622C158.391 77.4682 158.707 77.1462 158.96 76.7962C159.227 76.4462 159.361 76.0892 159.361 75.7252ZM170.384 74.2552C170.384 74.4652 170.236 74.7732 169.941 75.1792C169.661 75.5712 169.309 76.0122 168.888 76.5022C168.481 76.9782 168.038 77.4682 167.56 77.9722C167.096 78.4762 166.682 78.9382 166.317 79.3582L166.485 80.3032C166.542 80.5834 166.591 80.8354 166.633 81.0592C166.675 81.283 166.717 81.472 166.759 81.6262C166.844 81.9064 166.921 82.1092 166.991 82.2352C167.118 82.4314 167.286 82.5292 167.497 82.5292C167.806 82.5292 168.186 82.354 168.635 82.0042C168.972 81.7522 169.337 81.4162 169.731 80.9962L169.878 81.4372C168.516 83.047 167.335 83.8522 166.338 83.8522C165.958 83.8522 165.671 83.4394 165.474 82.6132C165.347 82.0954 165.2 81.346 165.031 80.3662C164.863 80.5624 164.68 80.7652 164.483 80.9752C164.301 81.1852 164.097 81.4024 163.872 81.6262C163.086 82.4242 162.481 82.9984 162.06 83.3482C161.638 83.6842 161.266 83.8522 160.943 83.8522C160.803 83.8522 160.684 83.7892 160.585 83.6632C160.5 83.5372 160.458 83.3272 160.458 83.0332C160.458 82.8514 160.487 82.6204 160.543 82.3402C160.936 82.3402 161.54 82.1164 162.355 81.6682C163.297 81.1504 164.14 80.4994 164.884 79.7152L164.483 76.9642C164.399 76.3762 164.294 76.0052 164.167 75.8512C164.041 75.6832 163.83 75.5992 163.535 75.5992C163.212 75.5992 162.868 75.6762 162.502 75.8302C162.151 75.9702 161.814 76.1172 161.491 76.2712L161.407 75.8722C161.575 75.7602 161.828 75.6132 162.165 75.4312C162.517 75.2352 162.882 75.0462 163.261 74.8642C163.64 74.6822 163.999 74.5282 164.336 74.4022C164.687 74.2622 164.954 74.1922 165.137 74.1922C165.362 74.1922 165.509 74.3252 165.579 74.5912C165.663 74.8572 165.748 75.3192 165.832 75.9772L166.19 78.7072C166.795 78.0772 167.357 77.4052 167.876 76.6912C168.41 75.9772 168.874 75.1652 169.267 74.2552C169.366 74.2132 169.485 74.1642 169.625 74.1082C169.78 74.0382 169.97 74.0032 170.194 74.0032C170.265 74.0032 170.314 74.0172 170.342 74.0452C170.37 74.0732 170.384 74.1432 170.384 74.2552ZM180.524 74.3812C180.468 74.4932 180.397 74.6332 180.313 74.8012C180.243 74.9692 180.165 75.1372 180.081 75.3052C180.011 75.4732 179.941 75.6272 179.87 75.7672C179.814 75.9072 179.772 76.0122 179.744 76.0822C179.604 76.4462 179.414 76.9292 179.175 77.5312C178.937 78.1192 178.655 78.8402 178.332 79.6942C178.136 80.1844 177.96 80.632 177.805 81.0382C177.665 81.43 177.595 81.7174 177.595 81.8992C177.595 82.039 177.616 82.123 177.658 82.1512C177.7 82.1794 177.77 82.1932 177.868 82.1932C177.981 82.1932 178.136 82.1374 178.332 82.0252C178.529 81.913 178.726 81.787 178.922 81.6472C179.147 81.493 179.379 81.3112 179.618 81.1012L179.786 81.5422C179.632 81.682 179.4 81.8854 179.091 82.1512C178.796 82.4032 178.473 82.6552 178.121 82.9072C177.784 83.1592 177.433 83.383 177.068 83.5792C176.717 83.761 176.408 83.8522 176.14 83.8522C175.958 83.8522 175.839 83.803 175.782 83.7052C175.726 83.6212 175.698 83.5162 175.698 83.3902C175.698 83.2642 175.719 83.0962 175.761 82.8862C175.818 82.6762 175.881 82.4524 175.951 82.2142C176.035 81.976 176.119 81.7312 176.204 81.4792C176.302 81.2272 176.393 80.989 176.478 80.7652L177.236 78.7492C176.914 78.8612 176.646 78.9382 176.436 78.9802C176.225 79.0222 175.979 79.0642 175.698 79.1062C175.291 79.1762 174.933 79.2182 174.623 79.2322C174.314 79.2462 174.019 79.2672 173.738 79.2952L172.6 82.2772C172.53 82.501 172.453 82.6624 172.368 82.7602C172.299 82.8304 172.151 82.963 171.926 83.1592C171.701 83.3554 171.483 83.5162 171.273 83.6422C171.09 83.7544 170.929 83.8102 170.788 83.8102C170.661 83.8102 170.584 83.782 170.556 83.7262C170.542 83.6842 170.535 83.6284 170.535 83.5582C170.535 83.488 170.584 83.32 170.682 83.0542C170.795 82.7884 170.95 82.438 171.146 82.0042C171.343 81.5422 171.519 81.1294 171.673 80.7652C171.814 80.443 171.933 80.149 172.031 79.8832C172.144 79.6032 172.214 79.4422 172.242 79.4002C172.088 79.4282 171.926 79.4562 171.757 79.4842C171.603 79.4982 171.441 79.5192 171.273 79.5472L171.357 79.2112C171.764 79.0292 172.137 78.8892 172.474 78.7912C172.558 78.5672 172.657 78.3012 172.769 77.9932C172.881 77.6852 172.987 77.3842 173.085 77.0902C173.184 76.7822 173.261 76.5092 173.317 76.2712C173.387 76.0332 173.422 75.8582 173.422 75.7462C173.422 75.5922 173.359 75.5152 173.232 75.5152C173.12 75.5152 172.973 75.5572 172.79 75.6412C172.607 75.7112 172.425 75.7952 172.242 75.8932C172.031 76.0052 171.807 76.1312 171.568 76.2712L171.441 75.8722C171.666 75.7322 171.954 75.5642 172.305 75.3682C172.657 75.1722 173.015 74.9902 173.38 74.8222C173.745 74.6402 174.09 74.4932 174.412 74.3812C174.75 74.2552 175.017 74.1922 175.213 74.1922C175.284 74.1922 175.34 74.2132 175.382 74.2552C175.438 74.2832 175.466 74.3602 175.466 74.4862C175.466 74.5422 175.445 74.6332 175.403 74.7592C175.375 74.8852 175.333 75.0322 175.276 75.2002C175.22 75.3682 175.157 75.5502 175.087 75.7462C175.017 75.9282 174.954 76.1032 174.897 76.2712L174.075 78.4132C174.412 78.3572 174.743 78.3152 175.066 78.2872C175.403 78.2592 175.733 78.2312 176.056 78.2032C176.393 78.1752 176.675 78.1472 176.899 78.1192C177.124 78.0912 177.328 78.0632 177.51 78.0352L178.1 76.4182C178.255 75.9842 178.403 75.6272 178.543 75.3472C178.698 75.0672 178.88 74.8502 179.091 74.6962C179.316 74.5422 179.541 74.4232 179.765 74.3392C179.99 74.2412 180.18 74.1922 180.334 74.1922C180.376 74.1922 180.418 74.2062 180.461 74.2342C180.503 74.2482 180.524 74.2972 180.524 74.3812ZM189.712 76.1032C189.712 76.9432 189.536 77.7762 189.185 78.6022C188.834 79.4142 188.384 80.1772 187.836 80.8912C187.035 81.9274 186.242 82.6834 185.455 83.1592C184.682 83.6212 183.874 83.8522 183.031 83.8522C181.711 83.8522 181.051 83.1244 181.051 81.6682C181.051 81.136 181.142 80.5834 181.325 80.0092C181.508 79.4212 181.753 78.8542 182.062 78.3082C182.385 77.7482 182.765 77.2232 183.2 76.7332C183.636 76.2292 184.106 75.7882 184.612 75.4102C185.118 75.0322 185.645 74.7382 186.192 74.5282C186.755 74.3042 187.324 74.1922 187.899 74.1922C188.476 74.1922 188.918 74.3672 189.227 74.7172C189.55 75.0532 189.712 75.5152 189.712 76.1032ZM187.984 76.8802C187.984 76.2502 187.893 75.8162 187.71 75.5782C187.527 75.3262 187.211 75.2002 186.761 75.2002C185.75 75.2002 184.837 75.8722 184.022 77.2162C183.193 78.5462 182.779 79.9392 182.779 81.3952C182.779 81.8572 182.877 82.2352 183.074 82.5292C183.27 82.8094 183.594 82.9492 184.043 82.9492C184.422 82.9492 184.781 82.8442 185.118 82.6342C185.469 82.4104 185.792 82.123 186.087 81.7732C186.382 81.4234 186.642 81.031 186.867 80.5972C187.106 80.149 187.303 79.7012 187.457 79.2532C187.625 78.8052 187.752 78.3782 187.836 77.9722C187.935 77.5522 187.984 77.1882 187.984 76.8802ZM198.897 74.4652C198.897 74.6052 198.778 74.9062 198.539 75.3682C198.3 75.8162 198.054 76.3342 197.801 76.9222C197.675 77.2162 197.499 77.6082 197.275 78.0982C197.064 78.5742 196.853 79.0642 196.642 79.5682C196.446 80.0722 196.27 80.5342 196.116 80.9542C195.961 81.3742 195.884 81.6682 195.884 81.8362C195.884 82.0324 195.982 82.1302 196.179 82.1302C196.319 82.1302 196.46 82.102 196.6 82.0462C196.741 81.976 196.874 81.9064 197.001 81.8362C197.141 81.7522 197.282 81.6544 197.422 81.5422L197.591 81.9832C197.436 82.123 197.225 82.2982 196.958 82.5082C196.706 82.7182 196.424 82.9282 196.116 83.1382C195.821 83.3344 195.512 83.5024 195.188 83.6422C194.879 83.782 194.591 83.8522 194.324 83.8522C194.001 83.8522 193.84 83.677 193.84 83.3272C193.84 83.1592 193.882 82.921 193.966 82.6132C194.064 82.3054 194.184 81.9622 194.324 81.5842C194.465 81.2062 194.619 80.8072 194.788 80.3872C194.97 79.9672 195.146 79.5682 195.315 79.1902C195.483 78.7982 195.638 78.4482 195.778 78.1402C195.919 77.8322 196.031 77.5872 196.116 77.4052C196.355 76.8732 196.53 76.4742 196.642 76.2082C196.755 75.9282 196.811 75.7322 196.811 75.6202C196.811 75.5362 196.755 75.4942 196.642 75.4942C196.291 75.4942 195.807 75.7392 195.188 76.2292C194.584 76.7192 193.91 77.4052 193.165 78.2872C192.631 78.9172 192.161 79.5822 191.753 80.2822C191.36 80.9824 191.163 81.724 191.163 82.5082C191.163 82.6624 191.171 82.7674 191.184 82.8232C190.988 83.1172 190.756 83.3692 190.489 83.5792C190.222 83.7892 189.983 83.8942 189.773 83.8942C189.604 83.8942 189.464 83.845 189.351 83.7472C189.253 83.6632 189.204 83.488 189.204 83.2222C189.204 82.732 189.548 81.9622 190.236 80.9122C190.728 80.17 191.325 79.4002 192.027 78.6022C192.73 77.7902 193.481 77.0202 194.282 76.2922C194.465 76.1242 194.675 75.9562 194.914 75.7882C195.167 75.6062 195.42 75.4382 195.673 75.2842C195.926 75.1302 196.165 74.9902 196.39 74.8642C196.614 74.7382 196.811 74.6402 196.98 74.5702C197.219 74.4582 197.506 74.3672 197.844 74.2972C198.181 74.2272 198.434 74.1922 198.602 74.1922C198.658 74.1922 198.721 74.2062 198.792 74.2342C198.862 74.2482 198.897 74.3252 198.897 74.4652ZM207.657 76.1032C207.657 76.9432 207.481 77.7762 207.13 78.6022C206.779 79.4142 206.329 80.1772 205.782 80.8912C204.981 81.9274 204.187 82.6834 203.4 83.1592C202.628 83.6212 201.82 83.8522 200.977 83.8522C199.656 83.8522 198.996 83.1244 198.996 81.6682C198.996 81.136 199.088 80.5834 199.27 80.0092C199.452 79.4212 199.699 78.8542 200.007 78.3082C200.331 77.7482 200.71 77.2232 201.145 76.7332C201.581 76.2292 202.052 75.7882 202.557 75.4102C203.063 75.0322 203.59 74.7382 204.138 74.5282C204.7 74.3042 205.269 74.1922 205.845 74.1922C206.421 74.1922 206.864 74.3672 207.172 74.7172C207.496 75.0532 207.657 75.5152 207.657 76.1032ZM205.929 76.8802C205.929 76.2502 205.838 75.8162 205.655 75.5782C205.473 75.3262 205.157 75.2002 204.707 75.2002C203.695 75.2002 202.782 75.8722 201.967 77.2162C201.138 78.5462 200.724 79.9392 200.724 81.3952C200.724 81.8572 200.822 82.2352 201.019 82.5292C201.216 82.8094 201.539 82.9492 201.988 82.9492C202.368 82.9492 202.726 82.8442 203.063 82.6342C203.414 82.4104 203.737 82.123 204.032 81.7732C204.328 81.4234 204.588 81.031 204.812 80.5972C205.051 80.149 205.248 79.7012 205.402 79.2532C205.571 78.8052 205.697 78.3782 205.782 77.9722C205.88 77.5522 205.929 77.1882 205.929 76.8802ZM213.703 74.8432C213.703 75.3052 213.513 75.8442 213.134 76.4602C212.754 77.0622 212.185 77.8602 211.427 78.8542C211.075 79.3162 210.787 79.7082 210.563 80.0302C210.352 80.338 210.19 80.6044 210.078 80.8282C209.966 81.0382 209.888 81.22 209.846 81.3742C209.804 81.5284 209.783 81.6682 209.783 81.7942C209.783 82.018 209.846 82.1722 209.973 82.2562C210.113 82.3264 210.24 82.3612 210.352 82.3612C210.535 82.3612 210.717 82.3264 210.9 82.2562C211.082 82.186 211.265 82.0954 211.448 81.9832C211.63 81.871 211.799 81.7522 211.954 81.6262C212.122 81.4864 212.276 81.3532 212.417 81.2272L212.628 81.5002C212.333 81.7942 212.038 82.0882 211.743 82.3822C211.448 82.6762 211.138 82.9354 210.816 83.1592C210.506 83.383 210.19 83.5654 209.867 83.7052C209.544 83.845 209.207 83.9152 208.856 83.9152C208.519 83.9152 208.28 83.8384 208.139 83.6842C208.013 83.5444 207.95 83.3554 207.95 83.1172C207.95 82.921 207.999 82.711 208.097 82.4872C208.195 82.249 208.35 81.9694 208.561 81.6472C208.772 81.325 209.046 80.9404 209.383 80.4922C209.72 80.044 210.127 79.5122 210.605 78.8962C210.9 78.5042 211.132 78.1612 211.3 77.8672C211.483 77.5732 211.616 77.3142 211.701 77.0902C211.799 76.8522 211.855 76.6492 211.869 76.4812C211.897 76.2992 211.911 76.1242 211.911 75.9562C211.911 75.7602 211.855 75.6272 211.743 75.5572C211.63 75.4872 211.497 75.4522 211.343 75.4522C211.202 75.4522 211.04 75.4942 210.858 75.5782C210.675 75.6482 210.485 75.7462 210.289 75.8722C210.106 75.9842 209.916 76.1172 209.72 76.2712C209.537 76.4252 209.362 76.5792 209.193 76.7332L208.982 76.4602C209.249 76.2222 209.537 75.9702 209.846 75.7042C210.169 75.4382 210.5 75.1932 210.837 74.9692C211.188 74.7452 211.546 74.5632 211.911 74.4232C212.291 74.2692 212.663 74.1922 213.028 74.1922C213.183 74.1922 213.33 74.2342 213.471 74.3182C213.625 74.3882 213.703 74.5632 213.703 74.8432ZM224.401 74.3812C224.401 74.4092 224.317 74.6122 224.148 74.9902C223.98 75.3682 223.79 75.8372 223.579 76.3972L222.273 79.7572C222.217 79.9112 222.146 80.0932 222.062 80.3032C221.978 80.4994 221.901 80.7022 221.83 80.9122C221.761 81.1084 221.697 81.2974 221.641 81.4792C221.585 81.661 221.556 81.8014 221.556 81.8992C221.556 82.0954 221.648 82.1932 221.83 82.1932C221.929 82.1932 222.112 82.1164 222.378 81.9622C222.66 81.808 223.06 81.5212 223.579 81.1012L223.748 81.5422C222.863 82.3402 222.125 82.9282 221.535 83.3062C220.945 83.6704 220.468 83.8522 220.102 83.8522C219.807 83.8522 219.66 83.698 219.66 83.3902C219.66 83.2222 219.681 83.0332 219.723 82.8232C219.78 82.6132 219.843 82.396 219.913 82.1722C219.997 81.934 220.081 81.6964 220.166 81.4582C220.264 81.2062 220.355 80.9752 220.44 80.7652C220.692 80.1352 220.903 79.6102 221.072 79.1902C221.24 78.7562 221.381 78.4062 221.493 78.1402C221.606 77.8602 221.697 77.6362 221.767 77.4682C221.838 77.2862 221.901 77.1322 221.957 77.0062H221.767L221.198 77.6992C220.791 78.1892 220.349 78.7142 219.871 79.2742C219.393 79.8342 218.916 80.38 218.438 80.9122C217.96 81.4444 217.489 81.9412 217.026 82.4032C216.562 82.8514 216.141 83.2222 215.761 83.5162C215.663 83.6002 215.537 83.6704 215.382 83.7262C215.228 83.782 215.087 83.8102 214.961 83.8102C214.806 83.8102 214.687 83.761 214.602 83.6632C214.532 83.5792 214.497 83.467 214.497 83.3272C214.497 83.215 214.518 83.0542 214.56 82.8442C214.617 82.6204 214.701 82.3684 214.813 82.0882C215.066 81.4162 215.333 80.7304 215.614 80.0302C215.895 79.3302 216.148 78.6862 216.372 78.0982C216.611 77.4962 216.801 76.9782 216.941 76.5442C217.096 76.1102 217.173 75.8232 217.173 75.6832C217.173 75.5572 217.117 75.4942 217.005 75.4942C216.822 75.4942 216.492 75.6202 216.014 75.8722L215.319 76.2712L215.192 75.8722C215.418 75.7182 215.691 75.5432 216.014 75.3472C216.351 75.1512 216.689 74.9692 217.026 74.8012C217.377 74.6332 217.714 74.4932 218.037 74.3812C218.361 74.2552 218.642 74.1922 218.88 74.1922C219.049 74.1922 219.133 74.2902 219.133 74.4862C219.133 74.5982 219.056 74.8642 218.901 75.2842C218.761 75.7042 218.592 76.1732 218.395 76.6912C218.213 77.1952 218.016 77.6922 217.805 78.1822C217.609 78.6722 217.462 79.0432 217.363 79.2952C216.914 80.4292 216.689 81.052 216.689 81.1642C216.689 81.346 216.745 81.4372 216.857 81.4372C216.97 81.4372 217.152 81.325 217.405 81.1012C217.672 80.8774 217.967 80.59 218.29 80.2402C218.613 79.8902 218.951 79.5052 219.302 79.0852C219.653 78.6512 219.99 78.2382 220.313 77.8462C220.636 77.4402 220.924 77.0762 221.177 76.7542C221.43 76.4182 221.613 76.1732 221.725 76.0192L222.315 75.2632C222.414 75.1512 222.512 75.0532 222.61 74.9692C222.709 74.8712 222.807 74.7872 222.905 74.7172C223.383 74.3672 223.819 74.1922 224.212 74.1922C224.338 74.1922 224.401 74.2552 224.401 74.3812ZM234.877 74.3812C234.877 74.4092 234.792 74.6122 234.624 74.9902C234.455 75.3682 234.265 75.8372 234.055 76.3972L232.748 79.7572C232.692 79.9112 232.622 80.0932 232.537 80.3032C232.453 80.4994 232.376 80.7022 232.306 80.9122C232.235 81.1084 232.172 81.2974 232.116 81.4792C232.06 81.661 232.032 81.8014 232.032 81.8992C232.032 82.0954 232.123 82.1932 232.306 82.1932C232.404 82.1932 232.587 82.1164 232.854 81.9622C233.135 81.808 233.535 81.5212 234.055 81.1012L234.223 81.5422C233.338 82.3402 232.601 82.9282 232.011 83.3062C231.421 83.6704 230.943 83.8522 230.578 83.8522C230.283 83.8522 230.135 83.698 230.135 83.3902C230.135 83.2222 230.156 83.0332 230.198 82.8232C230.254 82.6132 230.318 82.396 230.388 82.1722C230.472 81.934 230.557 81.6964 230.641 81.4582C230.739 81.2062 230.831 80.9752 230.915 80.7652C231.168 80.1352 231.378 79.6102 231.547 79.1902C231.716 78.7562 231.856 78.4062 231.968 78.1402C232.081 77.8602 232.172 77.6362 232.242 77.4682C232.313 77.2862 232.376 77.1322 232.432 77.0062H232.242L231.673 77.6992C231.266 78.1892 230.823 78.7142 230.346 79.2742C229.868 79.8342 229.39 80.38 228.913 80.9122C228.435 81.4444 227.965 81.9412 227.501 82.4032C227.037 82.8514 226.616 83.2222 226.237 83.5162C226.138 83.6002 226.012 83.6704 225.857 83.7262C225.702 83.782 225.562 83.8102 225.436 83.8102C225.281 83.8102 225.162 83.761 225.077 83.6632C225.007 83.5792 224.972 83.467 224.972 83.3272C224.972 83.215 224.993 83.0542 225.035 82.8442C225.091 82.6204 225.176 82.3684 225.288 82.0882C225.541 81.4162 225.808 80.7304 226.089 80.0302C226.37 79.3302 226.623 78.6862 226.848 78.0982C227.087 77.4962 227.276 76.9782 227.417 76.5442C227.571 76.1102 227.648 75.8232 227.648 75.6832C227.648 75.5572 227.592 75.4942 227.48 75.4942C227.297 75.4942 226.967 75.6202 226.489 75.8722L225.794 76.2712L225.668 75.8722C225.892 75.7182 226.166 75.5432 226.489 75.3472C226.827 75.1512 227.164 74.9692 227.501 74.8012C227.852 74.6332 228.189 74.4932 228.512 74.3812C228.836 74.2552 229.116 74.1922 229.355 74.1922C229.524 74.1922 229.608 74.2902 229.608 74.4862C229.608 74.5982 229.531 74.8642 229.376 75.2842C229.236 75.7042 229.068 76.1732 228.871 76.6912C228.688 77.1952 228.491 77.6922 228.281 78.1822C228.084 78.6722 227.936 79.0432 227.838 79.2952C227.388 80.4292 227.164 81.052 227.164 81.1642C227.164 81.346 227.22 81.4372 227.332 81.4372C227.445 81.4372 227.627 81.325 227.88 81.1012C228.147 80.8774 228.442 80.59 228.765 80.2402C229.089 79.8902 229.426 79.5052 229.777 79.0852C230.128 78.6512 230.465 78.2382 230.788 77.8462C231.112 77.4402 231.4 77.0762 231.652 76.7542C231.905 76.4182 232.088 76.1732 232.2 76.0192L232.79 75.2632C232.888 75.1512 232.987 75.0532 233.085 74.9692C233.183 74.8712 233.282 74.7872 233.38 74.7172C233.858 74.3672 234.294 74.1922 234.687 74.1922C234.813 74.1922 234.877 74.2552 234.877 74.3812Z" fill="#B89D58"/>
</svg>
