<svg width="270" height="130" viewBox="0 0 270 130" fill="none" xmlns="http://www.w3.org/2000/svg">
<rect width="270" height="130" rx="10" fill="white"/>
<path d="M132.505 85.3279V76.52H139.08V85.3279H137.22V77.9588H134.372V85.3279H132.505Z" fill="#403F3F"/>
<path d="M152.352 85.328H150.582C150.416 84.7496 150.322 84.1526 150.301 83.5508C150.122 84.1424 149.75 84.6566 149.245 85.0118C148.739 85.367 148.131 85.5428 147.514 85.5116C147.149 85.5284 146.785 85.4684 146.444 85.3358C146.104 85.2026 145.795 85.0004 145.537 84.7412C145.291 84.4832 145.098 84.179 144.97 83.846C144.843 83.513 144.782 83.1578 144.792 82.8014C144.792 80.7794 146.451 79.7673 149.768 79.7646H150.301V79.1043C150.301 78.1913 149.715 77.7348 148.556 77.7348C147.396 77.7348 146.786 78.1913 146.636 79.1043L145.053 78.8516C145.093 78.4926 145.208 78.146 145.39 77.8342C145.572 77.5224 145.817 77.2525 146.111 77.0419C146.904 76.517 147.847 76.2665 148.796 76.3286C149.32 76.3183 149.844 76.3758 150.354 76.4998C150.735 76.6041 151.085 76.8015 151.371 77.0745C151.63 77.3186 151.828 77.6202 151.949 77.9549C152.081 78.4877 152.135 79.037 152.108 79.5852V83.5592C152.109 84.1574 152.191 84.752 152.352 85.328ZM150.318 80.8448C147.915 80.8448 146.713 81.4604 146.713 82.691C146.707 83.0378 146.837 83.3726 147.075 83.6246C147.22 83.7626 147.394 83.8688 147.583 83.9354C147.772 84.0026 147.974 84.0284 148.173 84.0116C148.478 84.032 148.783 83.9768 149.062 83.852C149.34 83.7272 149.585 83.5352 149.773 83.294C150.13 82.8266 150.321 82.253 150.318 81.6638V80.8448Z" fill="#403F3F"/>
<path d="M160.225 88.3159H158.333V76.5201H160.107V78.0567C160.682 76.9236 161.521 76.357 162.625 76.357C163.07 76.3543 163.506 76.4712 163.89 76.6957C164.274 76.9201 164.59 77.2438 164.806 77.6328C165.387 78.618 165.669 79.7506 165.62 80.8933C165.647 82.0297 165.379 83.1529 164.843 84.1543C164.628 84.5821 164.296 84.9397 163.885 85.1845C163.474 85.4293 163.002 85.5511 162.524 85.5361C162.043 85.5595 161.566 85.4371 161.156 85.1857C160.745 84.9343 160.419 84.5647 160.221 84.1255L160.225 88.3159ZM160.225 81.7291C160.201 82.3069 160.39 82.8739 160.753 83.3227C160.892 83.5111 161.07 83.6659 161.275 83.7757C161.481 83.8861 161.709 83.9485 161.942 83.9587C162.217 83.9611 162.486 83.8813 162.714 83.7295C162.944 83.5777 163.122 83.3605 163.227 83.1067C163.531 82.4401 163.679 81.7117 163.659 80.9791C163.684 80.2273 163.537 79.4797 163.227 78.7944C163.134 78.5455 162.967 78.3309 162.749 78.1788C162.531 78.0267 162.273 77.9443 162.007 77.9425C161.757 77.9462 161.511 78.0108 161.291 78.1308C161.071 78.2508 160.884 78.4226 160.746 78.6313C160.381 79.1605 160.2 79.7947 160.229 80.4367L160.225 81.7291Z" fill="#403F3F"/>
<path d="M172.386 85.3279V78.0648H170.107V76.52H176.508V78.0648H174.262V85.3279H172.386Z" fill="#403F3F"/>
<path d="M181.528 85.3279V76.52H183.388V79.9275H186.606V76.52H188.461V85.3279H186.606V81.4603H183.388V85.3279H181.528Z" fill="#403F3F"/>
<path d="M199.927 82.5241L201.604 82.7641C201.398 83.5435 200.947 84.2353 200.318 84.7369C199.645 85.2685 198.806 85.5427 197.95 85.5115C197.429 85.5289 196.91 85.4275 196.433 85.2157C195.956 85.0045 195.533 84.6871 195.196 84.2887C194.459 83.3395 194.088 82.1557 194.154 80.9545C194.106 79.7654 194.476 78.5971 195.2 77.6531C195.539 77.2271 195.973 76.8865 196.468 76.6586C196.963 76.4308 197.503 76.3219 198.048 76.3407C198.571 76.3153 199.093 76.4185 199.567 76.6417C200.042 76.8647 200.455 77.2009 200.77 77.6206C201.441 78.5909 201.777 79.7547 201.726 80.9341V81.1627H196.107C196.094 81.6469 196.148 82.1311 196.265 82.6015C196.377 82.9711 196.599 83.2981 196.9 83.5387C197.23 83.8159 197.65 83.9605 198.08 83.9461C199 83.9545 199.61 83.4775 199.927 82.5241ZM199.814 79.8868C199.832 79.3211 199.643 78.7683 199.28 78.3338C198.983 77.9902 198.561 77.7779 198.108 77.7428C197.655 77.7077 197.207 77.8527 196.86 78.1463C196.805 78.1935 196.753 78.2438 196.705 78.2972C196.332 78.7445 196.119 79.304 196.099 79.8868H199.814Z" fill="#403F3F"/>
<path d="M209.338 88.3159H207.45V76.5201H209.225V78.0567C209.797 76.9236 210.636 76.357 211.743 76.357C212.187 76.3543 212.624 76.4712 213.007 76.6957C213.392 76.9201 213.708 77.2438 213.924 77.6328C214.504 78.618 214.787 79.7506 214.737 80.8933C214.764 82.0297 214.496 83.1529 213.961 84.1543C213.746 84.5821 213.413 84.9397 213.002 85.1845C212.591 85.4293 212.119 85.5511 211.641 85.5361C211.16 85.5589 210.683 85.4371 210.272 85.1857C209.86 84.9343 209.534 84.5647 209.334 84.1255L209.338 88.3159ZM209.338 81.7291C209.318 82.3075 209.508 82.8733 209.871 83.3227C210.008 83.5117 210.187 83.6671 210.393 83.7769C210.599 83.8873 210.826 83.9491 211.059 83.9587C211.335 83.9635 211.606 83.8849 211.836 83.7325C212.066 83.5807 212.245 83.3623 212.349 83.1067C212.658 82.4413 212.809 81.7129 212.788 80.9791C212.817 80.2273 212.671 79.4796 212.361 78.7944C212.268 78.5455 212.101 78.3309 211.883 78.1788C211.665 78.0267 211.407 77.9443 211.141 77.9425C210.891 77.9458 210.646 78.0103 210.427 78.1303C210.208 78.2505 210.021 78.4224 209.883 78.6313C209.517 79.1599 209.334 79.7942 209.363 80.4367L209.338 81.7291Z" fill="#403F3F"/>
<path d="M146.875 58.0887L150.797 58.5615C150.631 60.9043 149.669 63.1195 148.072 64.8384C146.506 66.485 144.45 67.3002 141.903 67.2839C139.755 67.2839 138.014 66.7011 136.679 65.5353C135.261 64.2446 134.198 62.6111 133.591 60.791C132.845 58.6695 132.477 56.4331 132.504 54.1839C132.504 50.3173 133.353 47.1693 135.051 44.7401C135.813 43.5861 136.856 42.6462 138.083 42.0099C139.309 41.3736 140.677 41.0619 142.058 41.1044C143.134 41.0735 144.205 41.2637 145.205 41.6633C146.205 42.0629 147.112 42.6633 147.872 43.4277C149.423 44.9819 150.399 47.2033 150.797 50.0918L146.875 50.5523C146.151 46.721 144.556 44.8053 142.09 44.8053C140.506 44.8053 139.276 45.6015 138.4 47.1938C137.524 48.7861 137.085 51.0958 137.082 54.1228C137.082 57.2015 137.552 59.5248 138.493 61.0926C139.434 62.6605 140.68 63.4472 142.229 63.4526C142.842 63.4523 143.448 63.3093 143.997 63.0348C144.546 62.7605 145.024 62.3621 145.394 61.8711C146.274 60.7986 146.793 59.4745 146.875 58.0887Z" fill="#403F3F"/>
<path d="M154.171 66.901V41.5122H170.978V66.901H166.747V45.2335H158.402V66.901H154.171Z" fill="#403F3F"/>
<path d="M191.403 66.901H176.142V41.5122H191.249V45.2987H180.377V52.187H189.117V55.8553H180.377V62.9677H191.403V66.901Z" fill="#403F3F"/>
<path d="M195.293 66.901V41.5122H199.528V62.9677H207.906V41.5122H212.121V62.9677H215.079V72.2527H212.137L211.625 66.901H195.293Z" fill="#403F3F"/>
<path d="M116.631 100.27L85.6321 68.9796C84.862 68.1722 84.4164 67.1087 84.3803 65.9927C84.3442 64.8767 84.7205 63.7865 85.437 62.931L115 28.6934C116.977 29.1084 118.833 29.9699 120.428 31.2123C122.279 32.6705 123.771 34.5351 124.789 36.6621C125.806 38.7892 126.323 41.122 126.299 43.4807V85.9352C126.323 89.9672 124.784 93.8516 122.006 96.7694C120.517 98.3456 118.674 99.5456 116.631 100.27Z" fill="#403F3F"/>
<path d="M112.372 101H68.8369C61.1877 101 54.9219 94.2217 54.9219 85.9189V43.4807C54.9219 35.1781 61.1877 28.3999 68.8491 28.3999H111.2L82.0805 62.1402C81.2147 63.1796 80.7607 64.502 80.8059 65.8552C80.8505 67.2084 81.3911 68.4975 82.325 69.4769L113.475 100.951C113.108 100.988 112.74 101.004 112.372 101Z" fill="#403F3F"/>
<path d="M116.633 100.271C106.575 90.1569 96.5159 80.0433 86.455 69.9295C85.792 69.4056 85.2562 68.7382 84.8877 67.9772C84.5192 67.2162 84.3278 66.3815 84.3271 65.5357C84.3434 64.7582 84.5228 63.9929 84.8546 63.2897C85.1863 62.5867 85.662 61.9617 86.2514 61.4557L114.997 28.6772C116.977 29.0973 118.834 29.9644 120.429 31.2125C122.28 32.6707 123.772 34.5352 124.79 36.6623C125.807 38.7894 126.324 41.1222 126.3 43.4809V85.9353C126.324 89.9673 124.785 93.8517 122.007 96.7695C120.518 98.3457 118.675 99.5457 116.633 100.271Z" fill="#E6B34E"/>
<path d="M122.007 96.7694L93.2693 68.0871C92.6516 67.4502 92.2915 66.6072 92.2566 65.7203C92.2223 64.8332 92.5161 63.9647 93.0821 63.2816L120.428 31.2124C122.279 32.6706 123.771 34.5351 124.788 36.6622C125.806 38.7893 126.323 41.1221 126.299 43.4808V85.9352C126.324 89.9672 124.785 93.8516 122.007 96.7694Z" fill="#403F3F"/>
</svg>
