<svg width="270" height="130" viewBox="0 0 270 130" fill="none" xmlns="http://www.w3.org/2000/svg">
<rect width="270" height="130" rx="10" fill="white"/>
<path d="M203.771 93.7936H198.313C202.389 90.2038 205.655 85.777 207.893 80.8102C210.13 75.8433 211.288 70.4517 211.288 64.997C211.288 59.5424 210.13 54.1508 207.893 49.1841C205.655 44.2173 202.389 39.7904 198.313 36.2002H203.771L241.593 65.0013L203.771 93.7936Z" fill="url(#paint0_radial_398_8721)"/>
<path d="M37.5917 50.9954C38.697 50.9954 39.568 50.75 40.2044 50.2591C40.7914 49.8354 41.231 49.236 41.4605 48.5461L45.6099 48.8034C45.1739 50.4235 44.2176 51.8523 42.8904 52.8666C42.172 53.4113 41.373 53.8385 40.5226 54.1325C39.5793 54.4565 38.5882 54.6162 37.5917 54.605C36.4506 54.6125 35.3189 54.3975 34.2587 53.9721C32.2271 53.1731 30.5861 51.605 29.6864 49.603C29.2293 48.5824 28.9979 47.4738 29.0081 46.3541C29.0005 45.2388 29.2319 44.1349 29.6864 43.1179C30.1236 42.1306 30.7464 41.238 31.5204 40.4893C32.3072 39.7329 33.2312 39.1362 34.242 38.732C35.3076 38.3054 36.445 38.0904 37.5917 38.0991C38.5658 38.089 39.5344 38.2503 40.4535 38.5758C41.2891 38.8727 42.0732 39.2998 42.7774 39.8417C44.0878 40.8652 45.031 42.2919 45.4634 43.9049L41.314 44.1622C41.2005 43.8327 41.0427 43.5203 40.845 43.2339C40.6324 42.9339 40.3704 42.6728 40.0704 42.4618C39.7345 42.228 39.3663 42.0453 38.9776 41.9196C38.5262 41.7752 38.0548 41.704 37.5812 41.7087C36.9743 41.7046 36.3728 41.823 35.8121 42.0568C35.2667 42.282 34.7709 42.6135 34.353 43.0324C33.9352 43.4513 33.6036 43.9493 33.3774 44.4977C32.8972 45.688 32.8972 47.0202 33.3774 48.2106C33.6041 48.7583 33.9359 49.2554 34.3537 49.6736C34.7715 50.0917 35.2671 50.4226 35.8121 50.6473C36.3761 50.8825 36.9813 51.0009 37.5917 50.9954Z" fill="black"/>
<path d="M46.0156 42.6157H57.2161V45.968H53.4812V54.4741H49.7484V45.968H46.0156V42.6157Z" fill="black"/>
<path d="M65.7879 42.4869C67.3453 42.4837 68.841 43.1001 69.9499 44.2021C70.501 44.7524 70.9423 45.4041 71.25 46.1219C71.5777 46.8868 71.7425 47.7127 71.7336 48.5459C71.7418 49.3783 71.5771 50.2033 71.25 50.9678C70.9416 51.6851 70.5004 52.3367 69.9499 52.8875C68.841 53.9895 67.3453 54.6059 65.7879 54.6027C65.3455 54.6068 64.9045 54.5543 64.4753 54.4466C64.1276 54.3611 63.7895 54.2402 63.4662 54.0858C63.1616 53.9477 62.8736 53.7749 62.6078 53.5711V58.5984H58.875V42.6156H61.6406L62.1933 43.7759C62.489 43.5262 62.8138 43.3136 63.1605 43.143C63.5267 42.967 63.9062 42.8203 64.2952 42.7042C64.7792 42.5572 65.2824 42.4839 65.7879 42.4869ZM68.0008 48.5459C68.0153 48.1708 67.9545 47.7966 67.822 47.4457C67.6895 47.0949 67.4881 46.7746 67.2299 46.504C66.9717 46.2335 66.6619 46.0183 66.3192 45.8713C65.9764 45.7242 65.6077 45.6484 65.2352 45.6484C64.8626 45.6484 64.494 45.7242 64.1512 45.8713C63.8085 46.0183 63.4987 46.2335 63.2405 46.504C62.9822 46.7746 62.7808 47.0949 62.6484 47.4457C62.5159 47.7966 62.4551 48.1708 62.4696 48.5459C62.4551 48.9209 62.5159 49.2952 62.6484 49.646C62.7808 49.9969 62.9822 50.3171 63.2405 50.5877C63.4987 50.8582 63.8085 51.0735 64.1512 51.2205C64.494 51.3675 64.8626 51.4433 65.2352 51.4433C65.6077 51.4433 65.9764 51.3675 66.3192 51.2205C66.6619 51.0735 66.9717 50.8582 67.2299 50.5877C67.4881 50.3171 67.6895 49.9969 67.822 49.646C67.9545 49.2952 68.0153 48.9209 68.0008 48.5459Z" fill="black"/>
<path d="M73.3908 48.546C73.3841 47.7079 73.5592 46.8785 73.9037 46.1156C74.2384 45.3771 74.7128 44.7114 75.3001 44.1558C75.9018 43.5894 76.6033 43.1415 77.3685 42.8351C78.997 42.1995 80.8022 42.1995 82.4308 42.8351C83.1913 43.1409 83.8879 43.5866 84.4864 44.1494C85.0734 44.7074 85.5461 45.3752 85.879 46.1156C86.2156 46.8831 86.3896 47.7131 86.3896 48.5523C86.3896 49.3915 86.2156 50.2214 85.879 50.9889C85.5449 51.7245 85.0722 52.3874 84.4864 52.9404C83.8873 53.505 83.1889 53.9516 82.4266 54.2568C80.798 54.8925 78.9928 54.8925 77.3644 54.2568C76.6021 53.9516 75.9033 53.505 75.3043 52.9404C74.7166 52.3859 74.2422 51.7208 73.9079 50.9826C73.5614 50.2181 73.385 49.3865 73.3908 48.546ZM82.6548 48.546C82.6548 47.6346 82.3875 46.9124 81.8528 46.3794C81.3254 45.8678 80.6215 45.582 79.8891 45.582C79.1569 45.582 78.4532 45.8678 77.9254 46.3794C77.3923 46.9138 77.125 47.636 77.1236 48.546C77.1222 49.4559 77.3895 50.1774 77.9254 50.7105C78.4524 51.2235 79.1565 51.5102 79.8891 51.5102C80.6221 51.5102 81.326 51.2235 81.8528 50.7105C82.3887 50.1789 82.6566 49.4573 82.6566 48.546H82.6548Z" fill="black"/>
<path d="M88.6035 54.4741V42.6157H92.3365V49.1894L97.1767 42.6157H100.633V54.4741H96.9004V47.9004L92.0601 54.4741H88.6035Z" fill="black"/>
<path d="M102.293 42.6157H113.491V45.968H109.758V54.4741H106.026V45.968H102.293V42.6157Z" fill="black"/>
<path d="M126.628 50.9954C126.452 51.4958 126.2 51.9656 125.881 52.3878C125.532 52.8516 125.112 53.2562 124.637 53.586C124.108 53.9559 123.524 54.2405 122.908 54.4299C122.186 54.6462 121.435 54.7508 120.682 54.74C119.844 54.7448 119.011 54.5828 118.235 54.2633C117.486 53.9554 116.801 53.5089 116.215 52.9468C115.634 52.3889 115.165 51.7244 114.833 50.9891C114.498 50.2208 114.325 49.3905 114.327 48.5513C114.329 47.7121 114.505 46.8825 114.843 46.1157C115.178 45.3773 115.652 44.7116 116.24 44.1559C116.84 43.5926 117.538 43.1469 118.3 42.8415C119.894 42.2192 121.66 42.2057 123.263 42.8036C123.999 43.0826 124.672 43.5073 125.242 44.0525C125.811 44.6061 126.262 45.2708 126.567 46.0061C126.896 46.8084 127.061 47.6696 127.051 48.5376C127.051 48.671 127.041 48.8042 127.024 48.9363C127.005 49.0658 126.987 49.1902 126.967 49.3098C126.948 49.449 126.931 49.5777 126.913 49.6979H118.193C118.37 50.1876 118.682 50.6165 119.091 50.9342C119.582 51.3263 120.195 51.5277 120.82 51.5017C121.124 51.5082 121.426 51.4692 121.718 51.3857C121.929 51.3263 122.13 51.2353 122.313 51.1157C122.487 51.0218 122.638 50.8899 122.755 50.7296L126.628 50.9954ZM120.82 45.582C120.193 45.5565 119.579 45.762 119.091 46.16C118.663 46.5105 118.351 46.9824 118.193 47.5145H123.448C123.288 46.9827 122.975 46.511 122.548 46.16C122.061 45.7619 121.447 45.5564 120.82 45.582Z" fill="black"/>
<path d="M140.319 42.6157V54.4741H136.583V45.968H133.686L133.267 50.6092C133.155 51.8989 132.713 52.8877 131.94 53.5754C131.167 54.2632 130.088 54.6063 128.704 54.6049C128.519 54.6049 128.362 54.6049 128.232 54.5901C128.121 54.5838 128.011 54.5711 127.902 54.5522C127.797 54.5374 127.694 54.5113 127.596 54.4741V51.51H128.015C128.573 51.51 128.969 51.394 129.204 51.1619C129.438 50.9299 129.595 50.4875 129.673 49.835L130.364 42.6157H140.319Z" fill="black"/>
<path d="M149.443 46.2253C150.067 46.2179 150.687 46.3274 151.271 46.5481C151.8 46.7479 152.286 47.0447 152.707 47.4236C153.109 47.788 153.434 48.2308 153.662 48.7253C153.889 49.2361 154.007 49.7897 154.007 50.3497C154.007 50.9097 153.889 51.4633 153.662 51.9742C153.434 52.4686 153.109 52.9115 152.707 53.2758C152.287 53.6554 151.8 53.953 151.271 54.1534C150.687 54.3731 150.069 54.4819 149.445 54.4741H143.083V42.6157H146.816V46.2253H149.443ZM148.758 51.6387C149.161 51.6634 149.559 51.5397 149.876 51.2906C150.003 51.1696 150.105 51.0237 150.174 50.8619C150.243 50.7001 150.279 50.5259 150.279 50.3497C150.279 50.1736 150.243 49.9993 150.174 49.8375C150.105 49.6757 150.003 49.5299 149.876 49.4088C149.557 49.1627 149.16 49.042 148.758 49.0691H146.822V51.6387H148.758Z" fill="black"/>
<path d="M167.834 42.6157V54.4741H164.101V50.221H159.675V54.4741H155.942V42.6157H159.675V46.8688H164.101V42.6157H167.834Z" fill="black"/>
<path d="M176.13 42.3584C176.844 42.3527 177.553 42.4748 178.224 42.7191C178.844 42.9438 179.413 43.2901 179.899 43.7381C180.37 44.1741 180.746 44.7053 181 45.2972C181.261 45.9167 181.393 46.5839 181.387 47.257V54.4742H178.62L178.069 53.316C177.742 53.5647 177.391 53.7802 177.022 53.9594C176.646 54.149 176.252 54.3002 175.845 54.4109C175.355 54.5451 174.847 54.6104 174.338 54.605C172.956 54.605 171.897 54.2913 171.158 53.664C170.803 53.3736 170.52 53.0054 170.328 52.5875C170.137 52.1695 170.042 51.713 170.053 51.2527C170.046 50.6931 170.174 50.1402 170.425 49.6409C170.716 49.107 171.152 48.6679 171.682 48.3752C172.41 47.9731 173.2 47.6944 174.018 47.5503C175.217 47.3349 176.433 47.2367 177.65 47.257C177.667 47.013 177.633 46.7682 177.553 46.5375C177.472 46.3068 177.346 46.0952 177.181 45.9153C177.024 45.7616 176.838 45.6413 176.633 45.5616C176.429 45.4818 176.211 45.4443 175.992 45.4511C175.701 45.4386 175.411 45.5057 175.155 45.6452C174.967 45.7549 174.795 45.889 174.642 46.044C174.5 46.2083 174.397 46.4021 174.338 46.6115L170.605 46.3541C170.709 45.7884 170.906 45.2438 171.185 44.7423C171.462 44.2509 171.834 43.8204 172.278 43.4765C172.772 43.1025 173.33 42.8223 173.924 42.6495C174.641 42.4447 175.385 42.3466 176.13 42.3584ZM175.293 52.0269C175.917 52.0551 176.527 51.8372 176.995 51.4194C177.21 51.2178 177.379 50.972 177.491 50.6985C177.603 50.4251 177.655 50.1306 177.644 49.835V49.3181C176.992 49.31 176.341 49.3487 175.695 49.4342C175.287 49.4852 174.888 49.5938 174.51 49.757C174.27 49.8542 174.067 50.0256 173.93 50.2464C173.827 50.4366 173.775 50.6501 173.777 50.8667C173.776 51.0261 173.813 51.1835 173.882 51.3266C173.952 51.4697 174.053 51.5946 174.179 51.6915C174.502 51.932 174.899 52.0494 175.299 52.0227L175.293 52.0269Z" fill="black"/>
<path d="M189.403 50.8663L187.052 54.4738H183.043L185.946 50.2208C185.544 50.0166 185.172 49.7567 184.841 49.4486C184.534 49.1326 184.277 48.7712 184.079 48.3769C183.834 47.8704 183.716 47.3114 183.734 46.7483C183.729 46.1884 183.847 45.6344 184.079 45.1259C184.307 44.6308 184.631 44.1873 185.033 43.8221C185.456 43.4437 185.943 43.1469 186.472 42.9467C187.055 42.7259 187.674 42.6165 188.297 42.6239H194.658V54.4738H190.925V50.8663H189.403ZM191.201 48.0288V45.4508H188.989C188.586 45.4271 188.188 45.5507 187.868 45.7989C187.742 45.92 187.641 46.0658 187.571 46.2276C187.502 46.3894 187.467 46.5637 187.467 46.7398C187.467 46.916 187.502 47.0902 187.571 47.252C187.641 47.4138 187.742 47.5597 187.868 47.6807C188.188 47.9289 188.586 48.0525 188.989 48.0288H191.201Z" fill="black"/>
<path d="M65.2266 74.2607H76.427V77.613H72.7026V86.1193H68.9698V77.613H65.2266V74.2607Z" fill="black"/>
<path d="M89.5713 82.6401C89.3955 83.1399 89.1438 83.6097 88.8259 84.0321C88.4725 84.4959 88.0486 84.9003 87.57 85.2309C87.0407 85.6005 86.4585 85.8849 85.8426 86.0745C85.12 86.2911 84.3692 86.3955 83.6154 86.3847C82.7761 86.3895 81.944 86.2269 81.1679 85.9059C80.4189 85.5993 79.7343 85.1535 79.1496 84.5913C78.5688 84.0339 78.0997 83.3697 77.7678 82.6335C77.4297 81.8667 77.2549 81.0363 77.2549 80.1969C77.2549 79.3575 77.4297 78.5274 77.7678 77.7603C78.1018 77.0214 78.5762 76.3555 79.1642 75.8004C79.7633 75.2363 80.4622 74.7904 81.2245 74.4861C82.8188 73.8637 84.5842 73.8502 86.1882 74.4481C86.9233 74.7268 87.5952 75.1515 88.1642 75.697C88.7356 76.2517 89.1872 76.9188 89.4918 77.6569C89.8212 78.4591 89.9868 79.3203 89.9771 80.1885C89.9771 80.3223 89.9675 80.4555 89.9482 80.5875C89.929 80.7159 89.9127 80.8407 89.8934 80.9607C89.8748 81.0807 89.8561 81.2289 89.8392 81.3489H81.1384C81.3154 81.8385 81.6267 82.2675 82.0367 82.5849C82.5262 82.9767 83.1391 83.1783 83.7635 83.1525C84.0682 83.1591 84.371 83.1201 84.6643 83.0367C84.8744 82.9767 85.0749 82.8861 85.2585 82.7667C85.4319 82.6725 85.583 82.5405 85.7005 82.3803L89.5713 82.6401ZM83.7635 77.2245C83.1373 77.1999 82.5232 77.4061 82.0367 77.8046C81.6092 78.1551 81.2961 78.627 81.1384 79.159H86.3911C86.2333 78.627 85.9202 78.1551 85.4927 77.8046C85.0056 77.4058 84.3909 77.1995 83.7635 77.2245Z" fill="black"/>
<path d="M103.12 74.2607L99.2485 80.0623L103.396 86.1193H99.2509L96.8998 82.5115L94.5486 86.1193H90.4014L94.5486 80.0623L90.6777 74.2607H94.825L96.8998 77.613L98.9746 74.2607H103.12Z" fill="black"/>
<path d="M116.536 74.2607V86.1193H112.801V81.8659H108.377V86.1193H104.645V74.2607H108.377V78.5138H112.801V74.2607H116.536Z" fill="black"/>
<path d="M119.301 86.1193V74.2607H123.034V80.8345L127.874 74.2607H131.33V86.1193H127.595V79.5455L122.757 86.1193H119.301Z" fill="black"/>
<path d="M141.7 86.1191L137.828 80.8343V86.1191H134.104V74.2605H137.839V79.0263L141.296 74.2563H145.581L141.285 79.9334L145.987 86.1191H141.7Z" fill="black"/>
<path d="M152.762 74.0033C153.475 73.9976 154.184 74.1197 154.855 74.364C155.475 74.5887 156.044 74.935 156.53 75.383C156.999 75.8199 157.371 76.351 157.623 76.9421C157.884 77.5616 158.016 78.2288 158.01 78.9019V86.1192H155.249L154.694 84.9588C154.367 85.209 154.017 85.425 153.647 85.6044C153.27 85.7928 152.877 85.944 152.471 86.0556C151.98 86.19 151.472 86.2554 150.963 86.25C149.581 86.25 148.522 85.9356 147.783 85.3068C147.428 85.017 147.144 84.6492 146.953 84.2316C146.761 83.814 146.667 83.3574 146.678 82.8978C146.671 82.338 146.799 81.7854 147.05 81.2856C147.341 80.7522 147.777 80.313 148.307 80.0202C149.035 79.6187 149.825 79.3408 150.643 79.1973C151.843 78.9809 153.061 78.882 154.28 78.9019C154.296 78.6579 154.263 78.4131 154.182 78.1824C154.101 77.9517 153.975 77.7401 153.811 77.5602C153.653 77.4065 153.467 77.2862 153.263 77.2065C153.059 77.1267 152.841 77.0892 152.621 77.0961C152.33 77.0835 152.04 77.1506 151.784 77.2901C151.597 77.3999 151.424 77.5339 151.271 77.6889C151.129 77.8529 151.025 78.0468 150.967 78.2564L147.234 77.999C147.339 77.4332 147.534 76.8886 147.814 76.3872C148.092 75.8964 148.463 75.4661 148.908 75.1214C149.402 74.7489 149.96 74.4695 150.553 74.2965C151.271 74.0908 152.015 73.992 152.762 74.0033ZM151.924 83.67C152.548 83.6988 153.158 83.4816 153.626 83.064C153.841 82.863 154.01 82.617 154.122 82.3434C154.234 82.0698 154.286 81.7758 154.275 81.48V80.9628C153.624 80.955 152.972 80.9934 152.326 81.0792C151.917 81.1296 151.517 81.2382 151.137 81.402C150.897 81.4992 150.694 81.6708 150.557 81.8916C150.454 82.0812 150.401 82.2948 150.404 82.5114C150.404 82.671 150.439 82.8282 150.509 82.9716C150.579 83.1144 150.681 83.2392 150.806 83.3364C151.13 83.5776 151.529 83.6952 151.93 83.6676L151.924 83.67Z" fill="black"/>
<defs>
<radialGradient id="paint0_radial_398_8721" cx="0" cy="0" r="1" gradientUnits="userSpaceOnUse" gradientTransform="translate(214.074 64.949) scale(39.4528 34.5881)">
<stop stop-color="#FFCD01"/>
<stop offset="0.75" stop-color="#FF8900"/>
</radialGradient>
</defs>
</svg>
