<svg width="270" height="130" viewBox="0 0 270 130" fill="none" xmlns="http://www.w3.org/2000/svg">
<rect width="270" height="130" rx="10" fill="white"/>
<path d="M75.9154 76.5311C76.0275 76.3581 76.1768 76.0863 76.3511 75.7651C76.6867 75.2303 76.8717 74.6158 76.8865 73.9859C76.9001 73.6707 76.8129 73.3593 76.6375 73.0964C76.5005 72.8987 76.3885 72.5156 74.7452 72.1449C73.9608 71.9597 67.4747 71.9597 62.0841 68.7966C62.47 68.7966 71.4959 69.6739 75.1311 70.1558C75.2358 70.1774 75.3437 70.1782 75.4487 70.1582C75.5537 70.1381 75.6537 70.0976 75.7428 70.0391C75.8319 69.9804 75.9085 69.9049 75.968 69.8168C76.0276 69.7287 76.0689 69.6297 76.0897 69.5257C76.1457 69.3614 76.1457 69.1834 76.0897 69.0191C75.4423 67.6229 74.297 66.9063 70.1015 64.5835C68.4735 63.811 66.9644 62.8126 65.6197 61.6182C65.1466 61.1734 65.0221 60.8398 64.3748 60.2962C63.3457 59.3796 62.1441 58.6742 60.8391 58.2205C59.8902 57.884 58.8954 57.6923 57.8886 57.6521C59.6289 57.0284 61.4881 56.8004 63.3291 56.9849C63.0199 56.5933 62.64 56.2623 62.2086 56.0089C59.8806 54.6621 56.9176 56.293 56.5316 56.5031C55.1671 57.3026 54.0677 58.4806 53.3688 59.8921C52.6698 61.3035 52.4018 62.887 52.5976 64.4476C52.9412 66.3734 53.9491 68.1206 55.4485 69.3897C56.405 70.2687 57.5144 70.9679 58.7227 71.4531C57.8782 71.4015 57.0425 71.2522 56.2328 71.0083C53.8145 70.2328 51.7336 68.6643 50.3318 66.5603C49.0844 64.7859 48.4909 62.6392 48.6511 60.4815C48.9624 58.0104 50.4439 57.0467 49.9957 56.2683C49.5475 55.4899 47.07 55.181 38.2559 57.8745C39.1814 56.674 40.2565 55.5946 41.4553 54.6621C46.7215 50.6342 51.8755 44.9631 44.1444 38.6001C46.2077 38.6939 48.2348 39.1717 50.1202 40.0086C54.1787 41.7878 56.5192 44.9508 59.7436 49.2505C61.4616 51.5732 63.4784 54.6992 65.0221 56.9602C66.4882 59.4275 68.4917 61.5382 70.8859 63.1379C71.4611 63.5059 72.0599 63.836 72.6785 64.1263C71.7356 63.2539 70.8381 62.3342 69.9895 61.3711C67.1635 58.171 66.0928 55.8606 62.8933 51.0667C62.1837 49.9918 61.1006 48.3979 59.7436 46.5323C62.6857 46.5044 65.6018 47.0807 68.3088 48.2249C71.3756 49.2671 74.0532 51.2052 75.9901 53.7849C78.5796 57.4915 79.09 62.0383 78.5547 63.8421C78.3313 64.4989 78.2178 65.1876 78.2185 65.8808C78.2571 66.6519 78.3909 67.4154 78.6169 68.1542C78.9282 69.3897 79.0527 69.3898 79.1647 70.0075C79.3885 71.2874 79.1924 72.6049 78.6052 73.7659C78.018 74.927 77.0708 75.8702 75.9029 76.457L75.9154 76.5311Z" fill="#59A370"/>
<path d="M70.8858 75.1845C71.0881 76.0317 71.2049 76.8967 71.2344 77.7668C71.1974 79.1077 70.6398 80.3825 69.6782 81.3251C69.0546 82.0571 68.3295 82.6979 67.5245 83.2277C67.1527 83.5295 66.7086 83.7299 66.2355 83.8103C65.7623 83.8907 65.2762 83.8481 64.8247 83.6861C64.3731 83.5241 63.9716 83.2487 63.6593 82.8869C63.347 82.5251 63.1345 82.0895 63.0427 81.6215V81.4241C62.6567 79.4101 62.3455 77.878 61.0383 76.6178C59.8322 75.598 58.3525 74.9496 56.7806 74.7521C55.6931 74.4836 54.6243 74.1452 53.5811 73.739C51.628 73.0849 49.8667 71.9648 48.4519 70.4771C46.9787 69.1013 45.9003 67.3616 45.3271 65.4362C44.8281 63.6764 44.7176 61.8305 45.0034 60.0245C42.6972 59.8921 40.3866 60.194 38.1936 60.9141C33.485 62.6157 29.5778 65.9871 27.2256 70.3783C29.1726 70.2177 31.1297 70.2177 33.0768 70.3783C44.6548 71.3544 53.3694 77.6556 56.4071 82.3757C57.404 83.8979 58.1558 85.5653 58.6355 87.3173C59.0101 88.8365 59.1445 90.4037 59.0339 91.9631C60.2166 91.4195 61.3744 90.8267 62.4949 90.1841C65.7325 88.5575 68.6072 86.3009 70.948 83.5493C71.973 82.4729 72.5511 81.0521 72.5665 79.5707C72.6093 77.9462 72.0055 76.3703 70.8858 75.1845Z" fill="#59A370"/>
<path d="M69.9274 47.0513C69.8952 45.015 69.538 42.9966 68.8691 41.0713C69.9896 42.4798 70.8984 43.6783 71.5582 44.6296C72.6401 46.0338 73.6338 47.5028 74.5336 49.0282C75.1606 50.1058 75.7218 51.2198 76.2143 52.3641C74.4289 50.2501 72.279 48.468 69.8651 47.1007L69.9274 47.0513Z" fill="#59A370"/>
<path d="M69.5543 74.9991C69.5155 74.8558 69.4342 74.7274 69.321 74.6305C69.2078 74.5335 69.0679 74.4726 68.9194 74.4554C67.8239 74.3195 66.6287 74.1465 65.3464 73.8995C64.4501 73.7388 63.6533 73.5411 62.8565 73.3558C62.7659 73.32 62.669 73.3025 62.5714 73.3043C62.4739 73.3062 62.3777 73.3272 62.2885 73.3664C62.1992 73.4054 62.1187 73.4618 62.0517 73.5321C61.9846 73.6024 61.9324 73.6853 61.8979 73.7759C61.8429 73.9187 61.8337 74.0749 61.8716 74.223C61.9094 74.3712 61.9926 74.5042 62.1096 74.6037C63.0433 75.5114 63.7916 76.5896 64.3131 77.779C64.7032 78.7214 64.8693 79.7403 64.7986 80.7566C64.7902 80.8538 64.8011 80.9522 64.831 81.0452C64.8608 81.1388 64.909 81.2252 64.9726 81.2996C65.0362 81.374 65.1141 81.4358 65.2018 81.4802C65.2895 81.5252 65.3851 81.5522 65.4834 81.56H65.695L66.1432 81.4484C66.8613 81.2282 67.5182 80.846 68.0625 80.3312C68.6068 79.817 69.0237 79.1844 69.2805 78.4833C69.7963 77.3937 69.8937 76.1548 69.5543 74.9991Z" fill="#59A370"/>
<path d="M64.6861 60.6914C65.5227 60.6655 66.3593 60.7444 67.1759 60.9262C69.143 61.6922 69.3671 62.7053 69.4667 62.9895C69.0248 63.7401 68.5297 64.4585 67.9852 65.1393C67.4907 65.649 66.8641 66.0133 66.1744 66.1921C65.4846 66.3708 64.7585 66.3572 64.0761 66.1525C63.4915 65.9873 62.9492 65.7001 62.4855 65.3102C62.0218 64.9202 61.6473 64.4366 61.387 63.8915C61.1397 63.2581 61.0458 62.5759 61.1128 61.8999C61.1799 61.2239 61.406 60.5729 61.7729 59.9995C61.7084 60.3565 61.7746 60.7246 61.9596 61.0374C62.0967 61.2447 62.2806 61.4174 62.4967 61.5418C62.7129 61.6663 62.9552 61.7389 63.2046 61.754C63.5677 61.776 63.9251 61.6563 64.2006 61.4204C64.4388 61.2371 64.6095 60.9808 64.6861 60.6914Z" fill="#59A370"/>
<path d="M105.408 71.4407V72.6762C104.958 73.0548 104.488 73.4094 104.001 73.7388C103.443 74.1145 102.861 74.453 102.258 74.7519C101.622 75.0634 100.959 75.3197 100.279 75.5179C99.5819 75.7149 98.8612 75.8147 98.1375 75.8145C96.7635 75.8525 95.3967 75.6172 94.1161 75.1226C92.9522 74.6657 91.9058 73.9565 91.0532 73.0469C90.173 72.0836 89.507 70.9469 89.0988 69.711C88.6274 68.3053 88.4004 66.8306 88.4269 65.3495C88.4064 63.8828 88.6593 62.425 89.1735 61.0498C89.6275 59.8132 90.3259 58.679 91.2278 57.7138C92.1009 56.7984 93.1509 56.0671 94.3154 55.564C95.5352 55.0504 96.8496 54.7938 98.1748 54.8103C98.707 54.8121 99.2393 54.8451 99.7679 54.9092C100.366 54.9833 100.951 55.0698 101.511 55.181C102.071 55.2922 102.631 55.4034 103.179 55.5393C103.727 55.6752 104.163 55.8111 104.561 55.947V60.6297H103.789L102.843 58.0474C102.81 57.89 102.727 57.7471 102.607 57.6397L102.246 57.3926C101.901 57.2031 101.543 57.0379 101.175 56.8984C100.77 56.7245 100.354 56.5759 99.9299 56.4536C99.5066 56.3424 99.0707 56.2435 98.6848 56.1694C98.2729 56.106 97.8569 56.073 97.4402 56.0706C96.5973 56.0558 95.7634 56.245 95.0108 56.6217C94.2582 56.9984 93.6091 57.5514 93.1202 58.2328C92.5404 59.0686 92.1183 60.0022 91.8751 60.988C91.5614 62.2445 91.4151 63.5363 91.4392 64.8306C91.4392 67.8865 92.0906 70.1805 93.3942 71.7125C94.089 72.5046 94.9572 73.1281 95.9326 73.5351C96.908 73.9421 97.9647 74.1216 99.0213 74.0601C99.7469 74.0709 100.471 73.9878 101.175 73.8129C101.737 73.6602 102.283 73.4532 102.805 73.1952C103.275 72.9476 103.716 72.6537 104.125 72.3179C104.499 72.009 104.847 71.7125 105.158 71.4283L105.408 71.4407Z" fill="#59A370"/>
<path d="M116.127 75.8023C114.753 75.8213 113.39 75.5475 112.131 74.9992C110.999 74.4977 109.995 73.7503 109.193 72.8123C108.377 71.8349 107.767 70.7046 107.401 69.4887C106.974 68.1081 106.768 66.6698 106.791 65.2261C106.777 63.8296 106.992 62.4402 107.425 61.1117C107.829 59.8946 108.458 58.7631 109.28 57.7758C110.086 56.8404 111.083 56.0864 112.206 55.5642C113.449 55.0063 114.801 54.7278 116.165 54.7487C117.607 54.7019 119.042 54.9807 120.36 55.5642C121.496 56.0979 122.496 56.8792 123.286 57.8499C124.071 58.8407 124.655 59.9737 125.004 61.1859C125.63 63.3338 125.745 65.5965 125.34 67.796C125.185 68.6433 124.938 69.4716 124.605 70.267C124.286 71.053 123.867 71.7961 123.361 72.4787C122.865 73.1604 122.264 73.7608 121.581 74.2579C120.854 74.7918 120.048 75.2088 119.19 75.4934C118.192 75.7552 117.158 75.8595 116.127 75.8023ZM116.414 74.752C117.359 74.7682 118.289 74.5245 119.103 74.0478C119.889 73.5743 120.55 72.9222 121.033 72.1451C121.577 71.2603 121.968 70.2915 122.19 69.2786C122.461 68.1327 122.595 66.9591 122.589 65.782C122.593 64.4194 122.447 63.0605 122.153 61.7295C121.921 60.6168 121.5 59.5513 120.908 58.5789C120.388 57.7269 119.666 57.0143 118.804 56.5032C117.899 56.0335 116.888 55.7998 115.866 55.8236C114.876 55.8007 113.9 56.0578 113.052 56.565C112.27 57.0715 111.618 57.7527 111.147 58.5541C110.621 59.4365 110.25 60.4018 110.052 61.4082C109.812 62.5165 109.695 63.6477 109.704 64.7812C109.689 66.1173 109.818 67.451 110.09 68.7597C110.327 69.8747 110.747 70.9434 111.335 71.9227C111.845 72.784 112.564 73.5058 113.426 74.0231C114.333 74.5576 115.372 74.8274 116.426 74.8015L116.414 74.752Z" fill="#59A370"/>
<path d="M127.17 74.6531L129.05 74.27C129.242 74.2188 129.413 74.1059 129.535 73.9488C129.604 73.8742 129.658 73.7865 129.691 73.691C129.726 73.5954 129.74 73.494 129.734 73.3928V57.1331C129.745 56.9283 129.682 56.7265 129.557 56.5635C129.431 56.4006 129.251 56.2872 129.05 56.2435L127.17 55.8976V55.2057H134.528C135.75 55.1811 136.971 55.3056 138.162 55.5763C138.967 55.7631 139.728 56.103 140.403 56.5771C140.9 56.9461 141.287 57.4413 141.524 58.0104C141.718 58.5202 141.823 59.0592 141.835 59.6042C141.844 60.2114 141.738 60.8148 141.524 61.3834C141.316 61.9152 141.012 62.4049 140.627 62.829C140.229 63.2721 139.758 63.6441 139.233 63.9286C138.672 64.2522 138.069 64.4975 137.44 64.6575C138.2 64.6819 138.951 64.8194 139.669 65.0653C140.32 65.2839 140.926 65.6143 141.462 66.0414C141.979 66.4458 142.404 66.9556 142.706 67.5363C143.015 68.1498 143.168 68.828 143.155 69.5132C143.166 70.2062 143.056 70.8959 142.831 71.5518C142.629 72.1087 142.325 72.6239 141.934 73.0716C141.543 73.5113 141.08 73.8829 140.565 74.1712C140.028 74.4626 139.46 74.6946 138.872 74.8631C138.251 75.0479 137.613 75.1721 136.967 75.2337C136.31 75.3078 135.649 75.3449 134.988 75.345H127.17V74.6531ZM133.743 64.4475C134.581 64.4613 135.417 64.3699 136.233 64.1757C136.823 64.0374 137.378 63.7809 137.864 63.422C138.27 63.0983 138.58 62.6713 138.76 62.1865C138.947 61.6719 139.036 61.1272 139.022 60.5803C139.035 59.9012 138.934 59.2247 138.723 58.5787C138.541 58.0557 138.233 57.5848 137.826 57.2073C137.387 56.8347 136.868 56.5683 136.307 56.4288C135.616 56.2533 134.904 56.1701 134.191 56.1817H132.411V64.4105L133.743 64.4475ZM135.535 74.2206C136.803 74.3228 138.067 73.9819 139.109 73.2569C139.532 72.8515 139.858 72.3567 140.063 71.8092C140.268 71.2617 140.346 70.6754 140.291 70.0939C140.316 69.3475 140.206 68.6028 139.967 67.8947C139.775 67.3347 139.431 66.8386 138.972 66.4614C138.459 66.0669 137.863 65.7924 137.229 65.6583C136.411 65.484 135.576 65.401 134.739 65.4113H132.461V74.2206H135.535Z" fill="#59A370"/>
<path d="M145.022 74.653L146.89 74.27C147.088 74.2221 147.263 74.1089 147.388 73.9487C147.523 73.7952 147.594 73.5964 147.587 73.3927V57.133C147.597 56.9265 147.533 56.7233 147.404 56.5601C147.277 56.3969 147.094 56.2845 146.89 56.2434L145.022 55.8975V55.2056H159.838V59.913H159.016L157.945 56.7747C157.906 56.642 157.838 56.5196 157.746 56.4164C157.695 56.3633 157.633 56.3223 157.564 56.2967C157.495 56.271 157.421 56.2612 157.347 56.2682H150.264V64.2621H154.932C155.008 64.2734 155.085 64.2681 155.158 64.2468C155.231 64.2254 155.298 64.1885 155.356 64.1385C155.451 64.0406 155.524 63.9223 155.567 63.7926L156.401 61.3956H157.073V68.2529H156.351L155.455 65.893C155.419 65.7556 155.351 65.6286 155.256 65.5223C155.198 65.469 155.129 65.4283 155.054 65.4028C154.979 65.3773 154.899 65.3675 154.82 65.3741H150.214V74.2205H158.592C158.663 74.2271 158.734 74.2184 158.8 74.1949C158.867 74.1714 158.928 74.1338 158.978 74.0846C159.08 73.9761 159.152 73.8446 159.19 73.7016L160.174 70.1556H160.995V75.3078H145.022V74.653Z" fill="#59A370"/>
<path d="M166.411 74.6529L168.577 74.2699C168.773 74.2343 168.948 74.1233 169.062 73.961C169.194 73.8051 169.264 73.608 169.262 73.405V56.2557H164.556C164.477 56.2442 164.397 56.2504 164.322 56.274C164.247 56.2975 164.178 56.3377 164.12 56.3916C164.029 56.5009 163.962 56.6269 163.921 56.7623L162.925 59.9994H162.141V55.1685H179.109V59.9994H178.337L177.266 56.7623C177.227 56.6298 177.159 56.5074 177.067 56.404C177.017 56.3501 176.955 56.3086 176.886 56.2829C176.817 56.2572 176.743 56.2479 176.669 56.2557H171.889V73.3926C171.878 73.6005 171.949 73.8043 172.088 73.961C172.221 74.1121 172.4 74.2162 172.598 74.2575L174.764 74.6529V75.3324H166.361L166.411 74.6529Z" fill="#59A370"/>
<path d="M180.354 74.6531L182.221 74.2701C182.414 74.2189 182.584 74.106 182.707 73.9489C182.776 73.8742 182.829 73.7865 182.863 73.691C182.897 73.5955 182.912 73.4941 182.906 73.3929V57.1332C182.916 56.9284 182.853 56.7265 182.728 56.5636C182.602 56.4007 182.423 56.2872 182.221 56.2436L180.354 55.8976V55.2181H188.134V55.8976L186.279 56.2806C186.082 56.3314 185.905 56.4389 185.769 56.5895C185.642 56.7522 185.572 56.9519 185.57 57.1579V64.2622H195.417V57.1332C195.428 56.9253 195.357 56.7215 195.218 56.5648C195.084 56.4211 194.918 56.311 194.733 56.2436L192.89 55.8729V55.1934H200.671V55.8976L198.803 56.2806C198.605 56.3192 198.428 56.4292 198.306 56.5895C198.178 56.7514 198.112 56.9526 198.119 57.1579V73.3929C198.108 73.5949 198.175 73.7935 198.306 73.9489C198.436 74.1004 198.61 74.2083 198.803 74.2578L200.671 74.6531V75.3327H192.89V74.6531L194.757 74.2701C194.952 74.2216 195.123 74.1081 195.243 73.9489C195.312 73.8742 195.366 73.7865 195.4 73.691C195.434 73.5955 195.449 73.4941 195.442 73.3929V65.3989H185.595V73.3929C185.588 73.5966 185.659 73.7953 185.794 73.9489C185.927 74.1032 186.105 74.2114 186.304 74.2578L188.159 74.6531V75.3327H180.354V74.6531Z" fill="#59A370"/>
<path d="M202.09 74.653L203.97 74.27C204.163 74.2188 204.334 74.1059 204.456 73.9488C204.591 73.7953 204.662 73.5965 204.655 73.3928V57.1331C204.665 56.9283 204.603 56.7265 204.477 56.5635C204.352 56.4006 204.172 56.2871 203.97 56.2435L202.09 55.8976V55.2056H209.908V55.8976L208.054 56.2806C207.852 56.3216 207.672 56.4308 207.543 56.5895C207.418 56.7483 207.348 56.9435 207.344 57.1454V71.9719L217.627 56.5771V55.1562H222.794V55.8976L220.914 56.2806C220.714 56.3199 220.533 56.4258 220.402 56.5808C220.271 56.7358 220.196 56.9306 220.192 57.1331V73.3928C220.186 73.494 220.2 73.5954 220.234 73.6909C220.269 73.7864 220.322 73.8742 220.391 73.9488C220.514 74.102 220.685 74.2106 220.877 74.2577L222.757 74.653V75.3326H214.963V74.653L216.831 74.27C217.029 74.2222 217.204 74.1089 217.329 73.9488C217.458 73.7918 217.528 73.5954 217.528 73.3928V58.6281L207.182 74.0229V75.3326H202.016L202.09 74.653Z" fill="#59A370"/>
<path d="M239.041 75.5059C238.828 75.4591 238.628 75.3662 238.456 75.234C238.269 75.0851 238.106 74.9103 237.97 74.7151L237.41 73.949L231.696 66.1034L229.343 65.7821V73.4919C229.332 73.694 229.399 73.8925 229.529 74.0479C229.662 74.2022 229.841 74.3105 230.04 74.3568L231.907 74.7398V75.4317H224.114V74.678L225.981 74.295C226.176 74.2471 226.35 74.1389 226.479 73.9861C226.612 73.8265 226.683 73.6248 226.679 73.4178V57.1334C226.689 56.9269 226.624 56.7236 226.496 56.5604C226.368 56.3972 226.185 56.2849 225.981 56.2438L224.114 55.8608V55.1689H231.907V55.8978L230.04 56.2808C229.843 56.3255 229.666 56.4354 229.539 56.5925C229.413 56.7496 229.343 56.9446 229.343 57.1457V64.9049H230.588C230.964 64.903 231.338 64.8446 231.696 64.732C232.072 64.6321 232.415 64.4362 232.692 64.1636C233.144 63.7055 233.56 63.214 233.937 62.6933C234.249 62.2512 234.532 61.7889 234.783 61.3095C235.016 60.8896 235.224 60.4564 235.406 60.0122L235.929 58.7767C236.09 58.3689 236.277 57.9736 236.464 57.5411C236.665 57.1361 236.898 56.7478 237.161 56.3797C237.33 56.1434 237.517 55.9204 237.722 55.7125C237.907 55.535 238.112 55.3777 238.331 55.243C238.548 55.1205 238.784 55.033 239.029 54.9835C239.303 54.9242 239.582 54.8952 239.863 54.8971H240.597L241.494 55.0082L240.946 57.8006H240.684H240.149H239.041C238.707 57.8032 238.387 57.9313 238.145 58.1588C237.855 58.426 237.596 58.7244 237.373 59.0485C237.136 59.4314 236.887 59.8763 236.638 60.3705C236.389 60.8647 236.115 61.3466 235.841 61.8407C235.562 62.3764 235.246 62.8925 234.895 63.3852C234.544 63.8559 234.125 64.2723 233.65 64.6207L239.713 72.8741L240.111 73.1954L240.523 73.6649L240.958 74.0973C241.069 74.2011 241.2 74.281 241.344 74.3321L242.826 74.6904V75.3699L239.999 75.5676C239.678 75.5881 239.356 75.5673 239.041 75.5059Z" fill="#59A370"/>
</svg>
