<svg width="270" height="130" viewBox="0 0 270 130" fill="none" xmlns="http://www.w3.org/2000/svg">
<rect width="270" height="130" rx="10" fill="white"/>
<path d="M59.2509 74.3889V82.3411C57.9607 83.4859 56.4873 84.4099 54.8909 85.0753C53.4058 85.6831 51.8138 85.9933 50.207 85.9885C48.5957 86.0587 46.9877 85.7881 45.4901 85.1947C43.9926 84.6013 42.6399 83.6983 41.5222 82.5457C39.309 80.1169 38.1543 76.9192 38.3098 73.6501C38.2173 70.4099 39.4114 67.263 41.6354 64.8858C42.6762 63.7675 43.9456 62.882 45.3591 62.2884C46.7726 61.6949 48.2976 61.4068 49.8323 61.4435C51.6471 61.3933 53.4436 61.8147 55.0431 62.6657C56.5632 63.5346 57.8175 64.7949 58.6732 66.313L57.2485 67.2954C56.6334 66.0069 55.6921 64.8983 54.5162 64.0774C53.3975 63.3513 52.0826 62.979 50.7456 63.0099C49.6289 62.9816 48.5232 63.235 47.5324 63.7465C46.5417 64.258 45.6984 65.0108 45.082 65.9339C43.5808 68.3166 42.8596 71.1008 43.0171 73.9054C42.8566 76.5769 43.5594 79.2296 45.0234 81.4783C45.6516 82.3537 46.4904 83.0599 47.4638 83.5327C48.4371 84.0055 49.5142 84.2299 50.5973 84.1861C51.4784 84.1909 52.3538 84.0457 53.1852 83.7565C53.9548 83.4907 54.6595 83.0677 55.2539 82.5151V74.3927L59.2509 74.3889Z" fill="#002D4D"/>
<path d="M64.1299 85.404V61.8417H71.9013C74.2605 61.6712 76.6106 62.2761 78.5876 63.5629C79.3606 64.1774 79.9724 64.9677 80.3716 65.8666C80.7701 66.7655 80.9441 67.7465 80.8791 68.7263C80.9158 69.4677 80.7906 70.2084 80.5118 70.8973C80.2325 71.5863 79.8067 72.2073 79.2629 72.7179C77.9735 73.7743 76.3496 74.3467 74.6765 74.3346L80.961 85.3848H76.0466L69.653 73.4411C71.5122 73.4582 73.3421 72.9828 74.9537 72.0642C75.4724 71.6556 75.8849 71.1299 76.1565 70.5311C76.4281 69.9321 76.551 69.2775 76.515 68.6219C76.5712 67.8988 76.4629 67.1724 76.1981 66.4964C75.9332 65.8202 75.5187 65.2116 74.9849 64.7154C73.6705 63.7326 72.0464 63.2446 70.4024 63.3386H68.6655V85.4232L64.1299 85.404Z" fill="#002D4D"/>
<path d="M80.8242 85.4042L90.5824 61.3081L100.731 85.4042H96.047L93.5802 79.1385H85.3441L82.8972 85.4042H80.8242ZM86.0353 77.6687H92.9793L89.5052 69.063L86.0353 77.6687Z" fill="#002D4D"/>
<path d="M103.561 85.404V61.8418H107.593L119.888 78.1057V61.8418H122.008V85.404H119.912L105.68 66.6417V85.404H103.561Z" fill="#002D4D"/>
<path d="M128.068 85.4044V61.8421H133.924C137.811 61.5923 141.661 62.7266 144.778 65.0407C146.082 66.1522 147.112 67.5446 147.789 69.1114C148.465 70.6783 148.771 72.3778 148.682 74.0797C148.748 75.5872 148.499 77.0921 147.95 78.4994C147.4 79.9067 146.562 81.1858 145.489 82.2562C144.363 83.3026 143.038 84.1156 141.591 84.6472C140.143 85.1788 138.604 85.4176 137.062 85.3504L128.068 85.4044ZM132.448 63.6135V83.6488H135.071C136.241 83.6674 137.409 83.5372 138.545 83.2618C139.405 83.0578 140.206 82.6606 140.887 82.1014C141.923 81.166 142.694 79.9796 143.127 78.6591C143.69 77.0483 143.972 75.3547 143.962 73.6504C144.053 72.3146 143.875 70.9743 143.44 69.707C143.005 68.4397 142.32 67.2704 141.426 66.2668C140.45 65.3689 139.3 64.6782 138.046 64.2372C136.791 63.7962 135.458 63.6142 134.13 63.7025L132.448 63.6135Z" fill="#002D4D"/>
<path d="M153.051 85.4041V61.842H161.56C163.716 61.7214 165.842 62.3919 167.532 63.7255C168.263 64.3686 168.838 65.1669 169.215 66.0609C169.591 66.955 169.759 67.9217 169.706 68.889C169.746 69.8089 169.585 70.7266 169.234 71.5792C168.883 72.4318 168.351 73.199 167.672 73.8282C166.117 75.073 164.143 75.688 162.149 75.5493H157.465V85.3267L153.051 85.4041ZM157.461 74.1879H159.413C160.994 74.3067 162.565 73.8608 163.843 72.9308C164.356 72.4461 164.754 71.8548 165.008 71.1993C165.262 70.5439 165.367 69.8407 165.315 69.1404C165.377 68.3577 165.279 67.5706 165.029 66.8258C164.778 66.081 164.379 65.3937 163.855 64.8046C163.25 64.284 162.547 63.8865 161.787 63.635C161.027 63.3835 160.224 63.2828 159.425 63.3388H157.473L157.461 74.1879Z" fill="#0080A4"/>
<path d="M184.195 85.9886C182.589 86.0006 180.997 85.6964 179.51 85.0952C178.038 84.491 176.703 83.6006 175.584 82.4762C174.412 81.3596 173.489 80.012 172.875 78.5197C171.673 75.3867 171.673 71.9253 172.875 68.7923C173.473 67.3086 174.378 65.9658 175.533 64.851C176.666 63.7409 178.005 62.8583 179.476 62.2519C182.148 61.1657 185.122 61.056 187.868 61.9425C189.107 62.3372 190.279 62.9177 191.342 63.6636C192.913 64.7784 194.182 66.2613 195.034 67.98C195.824 69.618 196.27 71.3978 196.344 73.2116C196.418 75.0254 196.12 76.8352 195.467 78.5313C194.866 80.018 193.961 81.365 192.809 82.4882C191.681 83.6 190.341 84.4766 188.866 85.0682C187.391 85.6592 185.813 85.9526 184.222 85.9304L184.195 85.9886ZM191.631 73.6463C191.756 70.8875 191.029 68.1563 189.546 65.818C188.99 64.9034 188.206 64.1466 187.268 63.6213C186.331 63.0959 185.272 62.8199 184.195 62.8199C183.118 62.8199 182.059 63.0959 181.121 63.6213C180.183 64.1466 179.398 64.9034 178.843 65.818C177.357 68.1548 176.629 70.887 176.759 73.6463C176.633 76.4026 177.363 79.1308 178.851 81.4634C179.408 82.3736 180.191 83.126 181.127 83.6486C182.063 84.1706 183.119 84.4454 184.193 84.4454C185.267 84.4454 186.323 84.1706 187.258 83.6486C188.194 83.126 188.978 82.3736 189.534 81.4634C191.026 79.1325 191.758 76.4033 191.631 73.6463Z" fill="#0080A4"/>
<path d="M215.48 83.6484V85.3848H200.679V61.8418H205.093V83.6484H215.48Z" fill="#0080A4"/>
<path d="M222.568 85.404H218.173V61.8418H222.568V85.404Z" fill="#0080A4"/>
<path d="M229.254 80.9296C229.716 81.8554 230.403 82.6528 231.252 83.2504C232.019 83.7886 232.936 84.0778 233.876 84.0778C234.414 84.1036 234.952 84.0238 235.459 83.8432C235.966 83.6626 236.432 83.3848 236.831 83.0254C237.23 82.666 237.553 82.2328 237.783 81.7498C238.013 81.2668 238.144 80.7436 238.169 80.2102C238.177 80.0812 238.177 79.9522 238.169 79.8234C238.169 77.8354 236.397 76.1142 232.853 74.6599C231.303 74.1199 229.91 73.2161 228.79 72.026C227.962 70.9709 227.537 69.6598 227.592 68.3245C227.56 67.4015 227.721 66.4821 228.065 65.624C228.41 64.766 228.931 63.988 229.593 63.339C230.307 62.6788 231.146 62.1655 232.061 61.8289C232.977 61.4923 233.95 61.339 234.926 61.378C236.43 61.3417 237.916 61.7163 239.219 62.461C240.439 63.1781 241.396 64.2621 241.951 65.5552L240.39 66.5879C240.075 65.5893 239.471 64.7044 238.653 64.0429C237.847 63.4306 236.854 63.1087 235.839 63.1301C235.316 63.1126 234.796 63.2014 234.308 63.391C233.822 63.5806 233.379 63.8669 233.009 64.2325C232.644 64.6151 232.361 65.067 232.176 65.5608C231.992 66.0546 231.91 66.5803 231.936 67.1062C231.916 67.9899 232.24 68.8473 232.841 69.5003C233.849 70.4062 235.03 71.102 236.315 71.5464C238.268 72.2224 240.047 73.3157 241.526 74.7489C242.393 75.8722 242.835 77.2615 242.775 78.6746C242.793 79.6411 242.605 80.6002 242.223 81.49C241.842 82.3792 241.276 83.1796 240.562 83.8378C239.039 85.231 237.024 85.9732 234.953 85.9036C233.484 85.9426 232.029 85.6234 230.714 84.9754C229.462 84.2812 228.405 83.2864 227.642 82.0822L229.254 80.9296Z" fill="#0080A4"/>
<path d="M123.885 54.2842H122.983V48.3975H127.968V54.2842H127.063V49.1208H123.885V54.2842Z" fill="#182E55"/>
<path d="M135.022 51.2716C135.072 52.0873 134.812 52.8921 134.291 53.5265C134.035 53.7992 133.722 54.013 133.373 54.1526C133.024 54.2923 132.649 54.3545 132.274 54.3349C131.772 54.3415 131.277 54.2074 130.849 53.9481C130.445 53.7236 130.115 53.3894 129.897 52.985C129.647 52.4464 129.533 51.8557 129.565 51.2639C129.518 50.4546 129.779 49.6573 130.295 49.0283C130.55 48.7554 130.863 48.5413 131.211 48.4009C131.558 48.2606 131.933 48.1975 132.309 48.2161C132.68 48.2011 133.05 48.2675 133.394 48.4106C133.736 48.5537 134.043 48.7699 134.291 49.0438C134.806 49.6706 135.066 50.4649 135.022 51.2716ZM130.486 51.2716C130.444 51.8789 130.603 52.4831 130.939 52.9928C131.23 53.3466 131.651 53.5715 132.109 53.6179C132.567 53.6643 133.025 53.5285 133.382 53.2403C133.472 53.1647 133.556 53.0819 133.632 52.9928C133.967 52.4828 134.125 51.8785 134.081 51.2716C134.129 50.6644 133.971 50.0586 133.632 49.5505C133.469 49.3531 133.26 49.1972 133.024 49.0957C132.788 48.9941 132.53 48.9498 132.274 48.9664C132.021 48.9469 131.768 48.9884 131.536 49.0874C131.302 49.1865 131.098 49.3401 130.939 49.535C130.597 50.0477 130.437 50.6589 130.486 51.2716Z" fill="#182E55"/>
<path d="M139.361 54.4042C138.998 54.4104 138.638 54.3405 138.303 54.1993C137.984 54.0538 137.708 53.8286 137.503 53.5456C137.522 53.8715 137.522 54.1983 137.503 54.5242V56.9338H136.598V48.328H137.327L137.453 49.1364C137.653 48.8352 137.93 48.5923 138.256 48.4324C138.589 48.2863 138.951 48.215 139.314 48.2236C139.661 48.2075 140.007 48.2727 140.323 48.4138C140.64 48.5549 140.919 48.768 141.137 49.0358C141.62 49.6794 141.861 50.4704 141.816 51.2714C141.871 52.0765 141.637 52.8749 141.157 53.5263C140.948 53.8026 140.677 54.0262 140.365 54.1788C140.053 54.3314 139.709 54.4087 139.361 54.4042ZM139.24 49.0513C138.996 49.0283 138.75 49.0614 138.521 49.1479C138.293 49.2345 138.087 49.3721 137.92 49.5502C137.61 50.0178 137.463 50.5737 137.503 51.1321V51.2714C137.459 51.874 137.606 52.4754 137.92 52.9925C138.084 53.1811 138.29 53.328 138.523 53.421C138.755 53.5138 139.006 53.55 139.256 53.5263C139.488 53.5455 139.721 53.5066 139.933 53.4133C140.146 53.3201 140.332 53.1754 140.473 52.9925C140.794 52.477 140.945 51.8757 140.907 51.2714C140.953 50.6664 140.801 50.0628 140.473 49.5502C140.323 49.375 140.133 49.2382 139.918 49.1514C139.704 49.0645 139.471 49.0302 139.24 49.0513Z" fill="#182E55"/>
<path d="M147.421 49.171H145.493V54.3345H144.592V49.171H142.679V48.3975H147.421V49.171Z" fill="#182E55"/>
<path d="M152.25 54.2845L152.043 53.4568C151.815 53.7821 151.511 54.0476 151.157 54.2303C150.804 54.3695 150.424 54.4341 150.044 54.4199C149.54 54.4515 149.043 54.291 148.655 53.9712C148.485 53.8032 148.352 53.6018 148.266 53.38C148.179 53.1582 148.14 52.9208 148.151 52.6832C148.151 51.5358 149.113 50.9092 151.036 50.8035H152.043V50.4167C152.074 50.0483 151.968 49.6812 151.746 49.3841C151.619 49.2652 151.469 49.1747 151.304 49.1186C151.139 49.0626 150.964 49.0423 150.79 49.0592C150.184 49.0718 149.589 49.2241 149.053 49.504L148.796 48.7923C149.416 48.4677 150.108 48.2965 150.81 48.2933C151.376 48.2468 151.94 48.4124 152.39 48.7575C152.576 48.9583 152.717 49.1959 152.804 49.4545C152.891 49.7131 152.921 49.987 152.894 50.2582V54.2845H152.25ZM150.216 53.6463C150.457 53.6599 150.698 53.6258 150.925 53.5462C151.152 53.4665 151.361 53.3428 151.539 53.1822C151.704 53.0171 151.834 52.8206 151.92 52.6046C152.007 52.3886 152.049 52.1575 152.043 51.9252V51.3914H151.137C150.598 51.373 150.062 51.4859 149.576 51.7202C149.422 51.8165 149.298 51.9521 149.215 52.1128C149.133 52.2734 149.095 52.4531 149.107 52.633C149.098 52.7703 149.12 52.908 149.171 53.0359C149.222 53.1638 149.302 53.2786 149.404 53.3717C149.622 53.5578 149.898 53.6619 150.185 53.6657L150.216 53.6463Z" fill="#182E55"/>
<path d="M159.198 54.2845H158.297V49.121H156.559C156.502 50.1384 156.371 51.1504 156.169 52.1495C156.075 52.7656 155.845 53.3534 155.494 53.8706C155.372 54.0346 155.211 54.1672 155.027 54.2573C154.842 54.3475 154.638 54.3926 154.432 54.3889C154.277 54.4123 154.119 54.4123 153.964 54.3889V53.6463H154.241C154.659 53.6463 154.99 53.2093 155.232 52.339C155.541 51.0386 155.728 49.7128 155.791 48.3784H159.265L159.198 54.2845Z" fill="#182E55"/>
<path d="M164.896 48.3975V50.8767H168.229V48.3975H169.135V54.2842H168.229V51.6348H164.896V54.2842H163.994V48.3975H164.896Z" fill="#182E55"/>
<path d="M173.546 54.4041C173.163 54.4273 172.78 54.3704 172.421 54.2372C172.061 54.1039 171.735 53.8972 171.462 53.6306C170.922 53.0259 170.642 52.2362 170.681 51.4298C170.642 50.618 170.895 49.8188 171.395 49.1749C171.624 48.8996 171.914 48.6804 172.243 48.5342C172.571 48.3879 172.929 48.3186 173.288 48.3317C173.614 48.3146 173.939 48.3681 174.242 48.4883C174.545 48.6086 174.817 48.7927 175.041 49.0279C175.499 49.5668 175.735 50.2577 175.7 50.9618V51.5303H171.637C171.607 52.1031 171.792 52.6667 172.156 53.1123C172.339 53.2955 172.56 53.438 172.802 53.53C173.046 53.622 173.306 53.6616 173.565 53.646C174.217 53.6479 174.861 53.5162 175.458 53.2592V54.0328C175.167 54.1596 174.863 54.258 174.553 54.3267C174.221 54.3854 173.883 54.4113 173.546 54.4041ZM173.304 49.0279C173.09 49.0184 172.877 49.055 172.679 49.1351C172.48 49.2153 172.302 49.337 172.156 49.4921C171.852 49.8499 171.675 50.2971 171.653 50.7645H174.776C174.796 50.3277 174.667 49.8969 174.409 49.5423C174.279 49.3755 174.111 49.2417 173.919 49.1523C173.727 49.0628 173.516 49.0201 173.304 49.0279Z" fill="#182E55"/>
<path d="M182.442 56.3303H181.583V54.2842H177.403V56.3303H176.536V53.5261H177.005C177.489 52.8378 177.858 52.0764 178.097 51.2712C178.382 50.3565 178.528 49.4049 178.531 48.4478H181.583V53.6112H182.434L182.442 56.3303ZM180.705 53.5261V49.1014H179.366C179.312 49.9209 179.155 50.7304 178.898 51.511C178.685 52.2254 178.357 52.9007 177.926 53.5106L180.705 53.5261Z" fill="#182E55"/>
<path d="M188.519 49.8789C188.532 50.04 188.509 50.202 188.453 50.3536C188.396 50.5053 188.307 50.6428 188.191 50.7568C187.921 50.9706 187.594 51.1046 187.25 51.1436V51.2635C187.663 51.2976 188.053 51.4632 188.363 51.7354C188.482 51.858 188.575 52.0037 188.635 52.1635C188.694 52.3232 188.72 52.4935 188.71 52.6636C188.724 52.9093 188.676 53.1545 188.57 53.3769C188.463 53.5992 188.302 53.7915 188.101 53.9361C187.583 54.2605 186.976 54.4173 186.364 54.3848H183.632V48.3975H186.239C187.754 48.3975 188.519 48.8887 188.519 49.8789ZM187.633 49.8789C187.642 49.7577 187.616 49.6365 187.558 49.5295C187.5 49.4226 187.412 49.3344 187.305 49.2754C186.987 49.1412 186.643 49.0816 186.298 49.1014H184.561V50.8226H186.087C186.489 50.852 186.891 50.7815 187.258 50.6176C187.361 50.5434 187.441 50.444 187.492 50.3293C187.544 50.2147 187.564 50.0887 187.551 49.9639L187.633 49.8789ZM187.809 52.4238C187.814 52.2868 187.783 52.1508 187.717 52.0299C187.652 51.9089 187.556 51.8073 187.438 51.7354C187.058 51.5611 186.641 51.484 186.224 51.511H184.522V53.5455H186.267C187.25 53.5455 187.742 53.2012 187.742 52.5128L187.809 52.4238Z" fill="#182E55"/>
<path d="M190.795 48.3975V53.4256L194.012 48.3975H195.14V54.2842H194.304V49.2754L191.057 54.3036H189.929V48.3975H190.795Z" fill="#182E55"/>
<path d="M199.691 48.4131H200.522V51.2714L202.974 48.4131H203.965L201.49 51.2714L204.164 54.2844H203.122L200.534 51.2714V54.2844H199.702V51.2714L197.095 54.2495H196.025L198.719 51.2714L196.252 48.4131H197.196L199.683 51.2714L199.691 48.4131Z" fill="#182E55"/>
<path d="M205.994 48.3975V53.4256L209.206 48.3975H210.339V54.2842H209.367V49.2754L206.15 54.3036H205.022V48.3975H205.994Z" fill="#182E55"/>
<path d="M215.288 53.4412L215.463 52.9422L215.686 52.3041L217.302 48.4131H218.449V54.2844H217.649V49.4148L217.547 49.7243L217.231 50.5752L215.705 54.3075H214.96L213.43 50.5752C213.278 50.2089 213.148 49.8344 213.039 49.4535V54.2844H212.239V48.4131H213.332L214.893 52.1493C215.041 52.5748 215.178 53.0041 215.288 53.4412Z" fill="#182E55"/>
<path d="M225.484 51.2716C225.535 52.0875 225.275 52.8928 224.754 53.5265C224.499 53.7995 224.186 54.0136 223.838 54.1533C223.49 54.293 223.114 54.355 222.739 54.3349C222.237 54.3419 221.743 54.2078 221.315 53.9481C220.898 53.6996 220.566 53.3332 220.362 52.8961C220.129 52.3894 220.015 51.8363 220.03 51.2794C219.98 50.4649 220.241 49.6613 220.761 49.0283C221.016 48.7554 221.329 48.5413 221.677 48.4009C222.025 48.2606 222.4 48.1975 222.775 48.2161C223.146 48.2009 223.515 48.2672 223.857 48.4103C224.2 48.5534 224.506 48.7697 224.754 49.0438C225.271 49.6688 225.532 50.4644 225.484 51.2716ZM220.952 51.2716C220.905 51.8782 221.062 52.483 221.397 52.9928C221.542 53.167 221.721 53.3111 221.922 53.4169C222.123 53.5227 222.344 53.5881 222.571 53.6093C222.798 53.6305 223.027 53.6071 223.244 53.5405C223.462 53.4738 223.665 53.3653 223.841 53.221C223.924 53.1518 224.001 53.0755 224.071 52.9928C224.405 52.4827 224.562 51.8785 224.52 51.2716C224.566 50.6639 224.407 50.0582 224.067 49.5505C223.904 49.3537 223.696 49.1981 223.461 49.0966C223.225 48.995 222.969 48.9504 222.712 48.9664C222.463 48.95 222.214 48.9931 221.985 49.0921C221.756 49.191 221.554 49.3429 221.397 49.535C221.068 50.0525 220.922 50.663 220.979 51.2716H220.952Z" fill="#182E55"/>
<path d="M229.445 54.4044C229.076 54.4279 228.705 54.3708 228.36 54.2372C228.014 54.1036 227.703 53.8966 227.447 53.6308C226.94 53.0045 226.686 52.2126 226.737 51.4107C226.679 50.5866 226.932 49.7705 227.447 49.121C227.708 48.8456 228.027 48.6305 228.381 48.4908C228.735 48.3511 229.116 48.2903 229.497 48.3126C229.782 48.3116 230.067 48.3402 230.347 48.3977C230.582 48.4449 230.81 48.5203 231.027 48.6221L230.75 49.3956C230.539 49.3173 230.324 49.2539 230.105 49.2061C229.898 49.1829 229.688 49.1829 229.481 49.2061C228.32 49.2061 227.741 49.9694 227.744 51.4958C227.689 52.1015 227.841 52.7078 228.177 53.217C228.33 53.4117 228.529 53.5666 228.756 53.6684C228.983 53.7701 229.232 53.8156 229.481 53.801C230.007 53.7992 230.526 53.694 231.011 53.4916V54.2496C230.51 54.428 229.972 54.4812 229.445 54.4044Z" fill="#182E55"/>
<path d="M236.359 49.171H234.43V54.3345H233.529V49.171H231.616V48.3975H236.359V49.171Z" fill="#182E55"/>
<path d="M238.391 48.3975V53.4256L241.604 48.3975H242.731V54.2842H241.9V49.2754L238.688 54.3036H237.556V48.3975H238.391Z" fill="#182E55"/>
<path d="M62.3731 61.7801L45.7295 51.8129V44L62.3731 53.9672V61.7801Z" fill="#182E55"/>
<path d="M26.623 61.7801L43.2471 51.8129V44L26.623 53.9672V61.7801Z" fill="#0080A4"/>
<path d="M33.3991 60.6006L33.364 79.8775L26.623 83.9037L26.6386 64.6463L33.3991 60.6006Z" fill="#182E55"/>
</svg>
