<svg width="270" height="130" viewBox="0 0 270 130" fill="none" xmlns="http://www.w3.org/2000/svg">
<rect width="270" height="130" rx="10" fill="white"/>
<path d="M47.4099 58.1735C48.0039 58.1735 48.4977 58.2172 48.8551 58.2506C49.4052 58.2792 49.9475 58.3936 50.4622 58.5898C50.8891 58.7645 51.2156 58.9007 51.2542 59.1423C51.3005 59.4301 50.9019 59.6151 50.1254 60.2524C48.9142 61.2443 48.5028 61.9201 48.3794 62.1334C48.2291 62.3949 48.1132 62.6748 48.0348 62.966C47.9885 63.133 47.6902 64.3151 48.2122 64.7288C48.3819 64.865 48.4848 64.7931 48.7882 64.9858C49.0005 65.1267 49.1816 65.3094 49.3205 65.5228C49.7037 66.0368 50.8634 66.2938 51.7788 66.1756C53.2009 65.9931 54.43 64.8624 54.6331 63.7395C54.6888 63.2322 54.6888 62.7204 54.6331 62.2131C54.5637 61.4036 54.43 61.1004 54.6126 60.7072C54.7951 60.3141 55.1268 60.1779 55.5846 59.9158C56.7315 59.2425 57.256 58.8108 57.4463 58.3739C57.5338 58.1761 57.5363 57.7726 57.5466 56.9657C57.5466 55.9533 57.5595 55.4445 57.328 55.3417C57.0966 55.2389 56.5566 55.5987 56.2994 55.9969C55.9754 56.4749 56.1503 56.7473 55.8237 57.2253C55.4971 57.7032 54.952 57.9705 54.8517 57.878C54.7514 57.7855 55.2091 57.3126 55.4483 56.5314C55.726 55.6115 55.2194 55.316 55.5074 54.748C55.6077 54.5528 56.1015 54.2341 57.094 53.5789C57.4952 53.3219 57.7909 53.1343 57.9246 52.7668C58.0095 52.5381 57.9683 52.4045 58.0635 52.1141C58.192 51.721 58.4466 51.3098 58.5597 51.3432C58.6729 51.3766 58.5803 51.9625 58.5803 52.3531C58.5803 54.0054 60.4292 55.5216 61.7304 56.2077C63.623 57.2201 65.3304 57.0248 65.3304 57.2587C65.3304 57.6056 61.5992 57.4566 58.3129 59.1808C56.788 59.98 56.1323 60.7766 55.834 61.5167C55.6875 61.8841 55.4997 62.5446 55.4174 62.8452C55.132 63.8731 55.1423 64.0941 54.9829 64.6671C54.7566 65.4766 54.2628 67.2369 53.08 67.5786C52.774 67.6686 52.4782 67.612 51.8894 67.5015C50.7759 67.2908 50.3953 66.8976 49.4722 66.6201C48.8046 66.4269 48.1089 66.3487 47.415 66.3888C46.7118 66.3487 46.0069 66.4269 45.3296 66.6201C44.4064 66.8976 44.0258 67.2908 42.9124 67.5015C42.3235 67.612 42.0279 67.6686 41.7218 67.5786C40.5389 67.2369 40.0478 65.4766 39.819 64.6671C39.6595 64.0941 39.6698 63.8706 39.3844 62.8452C39.3021 62.5574 39.1144 61.8841 38.9678 61.5167C38.6695 60.7766 38.0163 59.9749 36.4889 59.1808C33.1794 57.4591 29.4534 57.6082 29.4482 57.2715C29.4482 57.0377 31.1454 57.233 33.0483 56.2205C34.3495 55.5267 36.206 54.0106 36.1983 52.3659C36.1983 51.9754 36.0903 51.392 36.2189 51.3561C36.3475 51.3201 36.5866 51.7364 36.7152 52.1269C36.8103 52.4173 36.7692 52.551 36.8541 52.7797C36.9878 53.1471 37.2835 53.327 37.6872 53.5917C38.6772 54.2392 39.1709 54.5656 39.2712 54.7609C39.5592 55.3288 39.0527 55.6243 39.3304 56.5443C39.5695 57.3152 40.0324 57.7906 39.927 57.8908C39.8215 57.991 39.2815 57.7161 38.955 57.2381C38.6284 56.7601 38.7929 56.4723 38.4689 55.9867C38.2118 55.5987 37.7104 55.2157 37.4403 55.3314C37.2115 55.4342 37.2115 55.943 37.2218 56.9554C37.2218 57.7623 37.2346 58.1658 37.3221 58.3636C37.5123 58.8031 38.0369 59.2348 39.1838 59.9055C39.6312 60.1624 39.9732 60.3012 40.1558 60.6969C40.3384 61.0927 40.2047 61.3933 40.1352 62.2028C40.0797 62.7101 40.0797 63.2219 40.1352 63.7292C40.3384 64.8522 41.5676 65.9829 42.9921 66.1653C43.8998 66.2809 45.0647 66.0342 45.4479 65.5126C45.5863 65.301 45.7666 65.12 45.9776 64.9806C46.2785 64.7853 46.3813 64.8573 46.551 64.7237C47.0653 64.3099 46.7748 63.1279 46.7311 62.9608C46.6467 62.6697 46.5266 62.39 46.3736 62.1283C46.2502 61.915 45.8413 61.2391 44.6276 60.2472C43.8561 59.61 43.455 59.4249 43.4987 59.1372C43.5373 58.8956 43.8664 58.7594 44.2907 58.5846C44.8054 58.3885 45.3477 58.274 45.8979 58.2454C46.2553 58.212 46.7491 58.1735 47.3456 58.1683" fill="#D9AB5E"/>
<path d="M59.5817 48.6632C59.3657 48.7557 59.6255 49.8042 59.9777 51.2329C60.3197 52.6206 60.492 53.3247 60.8109 53.6869C61.4615 54.4579 62.4232 54.6994 63.7038 55.036C64.9407 55.3573 65.0306 55.1646 65.4498 55.4318C67.0158 56.4314 66.5067 59.6512 66.7972 59.6718C66.9799 59.6718 67.381 58.4307 67.4324 56.9762C67.597 52.1837 63.9378 48.1723 63.7038 48.3009C63.6292 48.342 63.9147 48.7994 64.218 50.1613C64.5215 51.5233 64.7066 52.343 64.375 52.5794C63.8606 52.9366 62.3872 51.7391 61.68 51.0736C60.3069 49.7836 59.8209 48.5629 59.5817 48.6632Z" fill="#D9AB5E"/>
<path d="M35.1784 48.8432C35.3944 48.9356 35.1373 49.9841 34.7824 51.4128C34.4404 52.803 34.2681 53.5046 33.9518 53.8695C33.3038 54.6353 32.3498 54.8871 31.0641 55.216C29.8272 55.5398 29.7372 55.3444 29.3206 55.6117C27.7495 56.619 28.2612 59.8415 27.9783 59.8569C27.7855 59.8697 27.3843 58.6157 27.3355 57.1638C27.1709 52.3713 30.8275 48.3575 31.0641 48.4859C31.1387 48.5271 30.8532 48.987 30.5498 50.349C30.2464 51.7109 30.0586 52.5306 30.3904 52.7645C30.9046 53.1243 32.3807 51.9242 33.0852 51.2586C34.461 49.961 34.9444 48.7403 35.1784 48.8432Z" fill="#D9AB5E"/>
<path d="M47.053 49.2593L42.9386 47.476C42.9604 47.2505 42.9447 47.023 42.8924 46.8027C42.7901 46.2875 42.4913 45.8323 42.0592 45.5333C41.0023 44.9525 39.1817 46.5766 38.9272 46.8027C37.5257 48.0516 37.1503 49.3904 36.906 49.2979C36.6617 49.2054 36.7363 47.9257 37.3406 46.8027C37.8548 45.8314 38.4977 45.5333 38.3691 45.2172C38.1814 44.7367 36.5485 44.9602 35.7539 45.0578C34.4322 45.2326 33.2185 45.3945 31.9482 46.0087C28.8239 47.5222 27.7207 50.6444 27.3093 50.4466C26.9853 50.2898 27.4636 48.5347 28.1013 46.9928C28.9369 44.9725 30.106 43.1066 31.5599 41.4731C31.8042 41.6042 32.1616 41.7866 32.6014 41.987C32.946 42.1361 33.2108 42.244 33.2545 42.244C34.3114 42.6346 35.8542 41.8843 37.5668 41.7301C38.2633 41.6753 38.9639 41.7151 39.6497 41.8483C41.5861 42.2414 42.8589 43.4312 43.8104 44.3461C45.2367 45.728 46.3434 47.405 47.053 49.2593Z" fill="#D9AB5E"/>
<path d="M47.7031 49.2593L51.8175 47.476C51.7932 47.251 51.8062 47.0234 51.856 46.8027C51.9582 46.2875 52.2571 45.8323 52.6892 45.5333C53.746 44.9525 55.5667 46.5766 55.8212 46.8027C57.2227 48.0516 57.5981 49.3904 57.8424 49.2979C58.0867 49.2054 58.0121 47.9257 57.4053 46.8027C56.891 45.8314 56.2506 45.5333 56.3767 45.2172C56.5644 44.7367 58.1973 44.9602 58.9918 45.0578C60.3136 45.2326 61.5273 45.3945 62.7976 46.0087C65.922 47.5222 67.0328 50.6341 67.4262 50.4466C67.7477 50.2898 67.2617 48.5321 66.6342 47.0006C65.8088 44.9796 64.6501 43.1113 63.2064 41.4731C62.9493 41.6042 62.6047 41.7866 62.165 41.987C61.8204 42.1361 61.5556 42.244 61.5093 42.244C60.455 42.6346 58.9121 41.8843 57.1995 41.7301C56.5031 41.6753 55.8024 41.7151 55.1167 41.8483C53.1778 42.2518 51.892 43.4415 50.9432 44.3563C49.5187 45.7353 48.4129 47.4086 47.7031 49.2593Z" fill="#D9AB5E"/>
<path d="M47.3667 46.2809C47.809 45.3918 49.2362 42.7399 51.8745 41.4653C52.7118 41.0806 53.59 40.7919 54.4923 40.6044C55.425 40.4322 56.3724 40.3522 57.3209 40.3654C58.244 40.3783 58.8046 40.4734 59.8486 40.3372C60.2656 40.3138 60.6766 40.2272 61.0675 40.0802C62.3249 39.5226 63.0347 38.0784 62.7929 37.8214C62.6541 37.6724 62.2632 37.9756 61.5072 38.2069C60.3578 38.5615 59.3857 38.4176 58.532 38.2968C56.0069 37.9294 55.2354 36.5725 53.6282 36.2668C52.3708 36.0227 50.1208 36.6471 47.125 39.8232" fill="#D9AB5E"/>
<path d="M47.3674 46.2809C46.9251 45.3918 45.5314 42.7347 42.8931 41.4601C42.0552 41.0768 41.1772 40.7881 40.2753 40.5993C39.3426 40.4271 38.3952 40.347 37.4467 40.3603C36.5235 40.3603 35.963 40.4682 34.919 40.332C34.502 40.3087 34.091 40.222 33.7001 40.075C32.4427 39.5174 31.7329 38.0733 31.9747 37.8163C32.1135 37.6672 32.5044 37.9705 33.2604 38.2017C34.4098 38.5563 35.3819 38.4124 36.2356 38.2917C38.7504 37.9242 39.5502 36.5674 41.1393 36.2616C42.3968 36.0175 44.3871 36.3824 47.3829 39.5586" fill="#D9AB5E"/>
<path d="M50.5755 55.5883C50.4829 55.5883 50.5163 54.5757 50.4418 53.1213C50.4007 52.2887 50.3595 52.0112 50.5163 51.5795C50.7211 51.0587 51.0928 50.6205 51.5733 50.3332C52.1287 50.0068 52.6944 49.9889 53.6304 49.9606C54.0376 49.9724 54.4451 49.9526 54.8493 49.9015C55.1997 49.8497 55.5443 49.7637 55.8779 49.6445C55.9303 49.7867 55.9555 49.9375 55.9524 50.0891C55.9293 51.1015 54.5407 51.7363 54.4661 51.7697C54.0871 51.9234 53.6934 52.0379 53.291 52.1114C52.93 52.1416 52.5795 52.2475 52.2624 52.4224C52.067 52.5457 51.8201 52.7513 51.8612 52.8386C51.9024 52.926 52.0593 52.8798 52.1415 52.8695C52.3807 52.8386 53.8258 52.6562 53.867 52.7795C53.8901 52.8489 53.5095 53.0751 53.1084 53.2112C52.7535 53.3295 52.5941 53.3089 51.9487 53.4682C51.7747 53.5024 51.603 53.5471 51.4344 53.6018C50.6064 53.9822 50.6938 55.5934 50.5755 55.5883Z" fill="#D9AB5E"/>
<path d="M44.178 55.6755C44.2706 55.6755 44.2371 54.6656 44.3117 53.2111C44.3529 52.376 44.394 52.1011 44.2371 51.6693C44.0313 51.1485 43.66 50.7097 43.1803 50.4205C42.6248 50.0967 42.0591 50.0787 41.1231 50.0505C40.7159 50.061 40.3085 50.0412 39.9042 49.9913C39.5537 49.9396 39.2092 49.8535 38.8756 49.7344C38.823 49.8766 38.7978 50.0274 38.8011 50.1789C38.8242 51.1914 40.2128 51.8261 40.2873 51.8569C40.6655 52.0132 41.0595 52.1278 41.4625 52.1987C41.8239 52.2281 42.1748 52.335 42.4911 52.5122C42.6866 52.633 42.9334 52.8411 42.8922 52.9285C42.8511 53.0159 42.6943 52.9671 42.612 52.9567C42.3728 52.9285 40.9277 52.7435 40.8865 52.8694C40.8634 52.9362 41.2439 53.1624 41.6451 53.2986C41.9999 53.4193 42.1594 53.3962 42.8048 53.5555C42.9794 53.5869 43.1514 53.6315 43.3191 53.6892C44.1368 54.072 44.0571 55.6807 44.178 55.6755Z" fill="#D9AB5E"/>
<path d="M54.531 68.7197C55.1636 69.2542 59.1957 72.767 59.062 78.0272C58.9616 82.0052 56.5085 85.8362 52.9547 87.8972C53.0521 87.4646 53.1013 87.0224 53.1013 86.579C53.1025 85.6076 52.864 84.6512 52.407 83.7938C52.8224 83.5472 53.2089 83.255 53.559 82.9226C55.9762 80.954 56.7733 77.2691 55.9016 74.3165C55.4022 72.6966 54.445 71.2554 53.145 70.1664L41.5117 70.3181C40.8184 70.9629 40.2325 71.7141 39.776 72.5434C38.1791 75.4575 37.9759 79.8465 40.3803 82.3928C40.8508 82.8956 41.3861 83.3342 41.972 83.696C41.291 84.9194 41.0651 86.3438 41.3343 87.7178C38.5211 85.9238 36.4897 82.9688 35.9008 79.8851C35.0522 75.4626 37.3434 71.7468 37.5105 71.4821C38.1401 70.4944 38.9211 69.6116 39.8249 68.8662L54.531 68.7197Z" fill="#D9AB5E"/>
<path d="M47.1632 93.8001C45.486 93.8007 43.8608 93.2181 42.5657 92.1531C41.2705 91.0881 40.386 89.6067 40.0634 87.9615C39.9753 87.5061 39.9305 87.0435 39.9297 86.5791C39.9654 84.6879 40.7423 82.8867 42.0933 81.5613C43.4442 80.2365 45.2614 79.4946 47.1542 79.4946C49.047 79.4946 50.8643 80.2365 52.2152 81.5613C53.5662 82.8867 54.343 84.6879 54.3787 86.5791C54.3782 87.1185 54.3178 87.6567 54.1987 88.1829C53.8428 89.7807 52.9511 91.2087 51.6714 92.2305C50.3918 93.2517 48.8011 93.8061 47.1632 93.8001ZM42.5963 87.4737C42.8164 88.6095 43.4524 89.6223 44.3801 90.3147C45.3078 91.0065 46.4604 91.3281 47.6127 91.2165C48.765 91.1049 49.8342 90.5679 50.6113 89.7099C51.3884 88.8525 51.8176 87.7359 51.815 86.5791C51.8179 85.8189 51.6315 85.0701 51.2724 84.3999C50.785 83.4843 50.0052 82.7577 49.057 82.3359C48.1088 81.9135 47.0466 81.8205 46.0394 82.0707C45.0321 82.3215 44.1375 82.9011 43.4978 83.7177C42.8581 84.5349 42.51 85.5417 42.5089 86.5791C42.5098 86.8797 42.5391 87.1791 42.5963 87.4737Z" fill="#D9AB5E"/>
<path d="M57.4589 62.5396C57.475 63.6119 57.1178 64.6565 56.4482 65.4947C56.8569 65.5837 57.2418 65.7589 57.5771 66.0086C57.9912 66.2969 58.312 66.6997 58.5003 67.1676C58.7575 67.8845 58.6134 68.6015 58.5003 69.1283C58.3872 69.6551 58.2817 69.7322 58.3203 70.0199C58.4077 70.6573 59.0326 71.0273 59.3026 71.238C59.8889 71.6954 60.452 72.6873 60.344 75.0411C60.7697 74.8109 61.1602 74.521 61.5038 74.1803C61.928 73.7563 62.4963 73.191 62.6327 72.307C62.7039 71.7701 62.6219 71.2241 62.396 70.7318C62.0926 70.0354 61.7326 69.9326 61.4138 69.2465C61.1997 68.8024 61.0973 68.3129 61.1154 67.8203C61.1874 66.6614 62.0926 65.9033 62.3343 65.7105C61.925 65.1834 61.4565 64.7049 60.9381 64.2843C59.9196 63.4561 58.732 62.8606 57.4589 62.5396Z" fill="#D9AB5E"/>
<path d="M58.8662 59.7179C58.6964 60.7046 58.9073 61.2751 59.1439 61.6195C59.7379 62.4778 60.7382 62.2747 62.4353 63.4414C63.4151 64.1146 63.518 64.4693 63.5462 64.6312C63.6465 65.1734 63.325 65.7721 62.8725 66.6124C62.6154 67.0724 62.5536 67.1109 62.4739 67.2857C62.2168 67.8433 62.3222 68.8275 63.9011 70.7317C64.477 70.0099 64.9695 69.2254 65.3694 68.3932C66.4532 66.0688 66.8391 63.4802 66.4803 60.941C66.0843 61.1158 65.4336 61.0824 64.7059 60.9899C63.3353 60.8203 62.1808 59.944 61.6433 58.4048L58.8662 59.7179Z" fill="#D9AB5E"/>
<path d="M37.6031 62.4624C37.5975 62.9457 37.6678 63.427 37.8114 63.8885C37.9829 64.4383 38.255 64.9514 38.6137 65.4021C38.2049 65.4905 37.8198 65.6658 37.4848 65.9161C37.0708 66.2044 36.7499 66.6071 36.5616 67.075C36.2917 67.792 36.4485 68.5115 36.5616 69.0357C36.6748 69.5599 36.7802 69.6395 36.7391 69.9274C36.6542 70.5673 36.0293 70.9347 35.7593 71.1454C35.173 71.6028 34.6099 72.5947 34.7308 74.9486C34.3051 74.7183 33.9146 74.4284 33.571 74.0878C33.1467 73.6637 32.5784 73.0984 32.4422 72.2144C32.3705 71.6784 32.4525 71.1331 32.6787 70.6418C32.9822 69.9428 33.3422 69.84 33.661 69.1539C33.8751 68.7098 33.9775 68.2203 33.9593 67.7277C33.8873 66.5687 32.9822 65.8107 32.7379 65.618C33.149 65.0915 33.6183 64.6131 34.1368 64.1918C35.1526 63.3702 36.3355 62.78 37.6031 62.4624Z" fill="#D9AB5E"/>
<path d="M36.0364 59.6792C36.2087 60.666 35.9953 61.2365 35.7587 61.5808C35.1647 62.4365 34.1644 62.2361 32.4672 63.4027C31.4875 64.076 31.3847 64.4306 31.3564 64.5899C31.2561 65.1347 31.5775 65.7309 32.0327 66.5712C32.2898 67.0337 32.3515 67.0852 32.4287 67.2445C32.6858 67.8047 32.5804 68.7863 31.0015 70.693C30.4262 69.9708 29.9337 69.1864 29.5332 68.3546C28.4502 66.0299 28.0652 63.4413 28.4249 60.9024C28.8183 61.0772 29.4689 61.0438 30.1992 60.9538C31.5672 60.7816 32.7218 59.908 33.2618 58.3687L36.0364 59.6792Z" fill="#D9AB5E"/>
<path d="M47.4903 76.8269C47.4697 76.8603 47.4312 76.85 47.4132 76.8269C46.8914 76.0514 46.0914 75.5059 45.1786 75.3031C44.4894 75.1781 43.7785 75.2679 43.142 75.5601C42.5223 73.9925 41.8562 72.091 42.1597 71.8751C42.6945 71.4999 44.6103 72.0319 45.3097 72.0935C47.2692 72.2631 48.9098 72.2734 50.8306 71.8853C52.1164 71.6284 52.5998 71.8417 52.677 71.8853C53.0241 72.037 52.3144 74.0028 51.6946 75.5703C51.0583 75.2776 50.3472 75.1879 49.6581 75.3134C49.2133 75.4067 48.7921 75.589 48.4196 75.8491C48.0471 76.1092 47.7311 76.4417 47.4903 76.8269Z" fill="#D9AB5E"/>
<path d="M79.3277 70.1198C79.4583 70.1158 79.5868 70.086 79.7058 70.0321C79.8248 69.9781 79.9318 69.9011 80.0208 69.8055C80.1098 69.7099 80.1789 69.5976 80.2243 69.4751C80.2695 69.3526 80.2899 69.2224 80.2845 69.0919V56.3436C80.2899 56.2132 80.2695 56.0829 80.2243 55.9604C80.1789 55.8379 80.1098 55.7256 80.0208 55.63C79.9318 55.5344 79.8248 55.4574 79.7058 55.4035C79.5868 55.3495 79.4583 55.3197 79.3277 55.3157H78.4766V54.7478H89.4364L89.5417 53.9512H89.9686V59.417H89.5417L89.4364 58.3891C89.2666 56.819 87.839 55.3054 86.1369 55.3054H82.3058V70.1198H84.221V70.6903H78.4766V70.1198H79.3277Z" fill="#D9AB5E"/>
<path d="M84.6094 71.0785H78.0908V69.7371H79.3277C79.4074 69.7332 79.4856 69.7134 79.5576 69.679C79.6297 69.6446 79.6941 69.5962 79.7472 69.5367C79.8003 69.4771 79.8411 69.4076 79.8671 69.3321C79.8931 69.2567 79.9037 69.1768 79.8986 69.0972V56.3438C79.9037 56.2642 79.8931 56.1843 79.8671 56.1088C79.8411 56.0334 79.8003 55.9639 79.7472 55.9044C79.6941 55.8448 79.6297 55.7964 79.5576 55.762C79.4856 55.7276 79.4074 55.7079 79.3277 55.7039H78.0908V54.3625H89.1016L89.207 53.5659H90.3564V59.8026H89.1968L89.0553 58.4329C88.9114 57.1147 87.7054 55.7039 86.1393 55.7039H82.6935V69.7371H84.6094V71.0785ZM80.0194 70.3075H81.9222V55.1463H80.0194C80.2213 55.2768 80.3869 55.4562 80.5007 55.6678C80.6145 55.8795 80.6723 56.1164 80.6699 56.3566V69.0921C80.6735 69.3332 80.6157 69.5712 80.5019 69.7837C80.3881 69.9964 80.2219 70.1766 80.0194 70.3075ZM87.2785 55.1463C87.8011 55.3479 88.2761 55.6551 88.6747 56.0486C89.0727 56.4421 89.3852 56.9136 89.5929 57.4333V55.1463H87.2785Z" fill="#D9AB5E"/>
<path d="M92.6738 70.6931V70.1201H93.5246C93.6552 70.1161 93.7841 70.0863 93.9027 70.0323C94.0219 69.9783 94.1291 69.9014 94.2176 69.8057C94.3067 69.7101 94.3759 69.5978 94.4211 69.4753C94.4663 69.3528 94.4867 69.2226 94.4813 69.0921V56.3438C94.4867 56.2134 94.4663 56.0831 94.4211 55.9606C94.3759 55.8382 94.3067 55.7259 94.2176 55.6302C94.1291 55.5346 94.0219 55.4576 93.9027 55.4037C93.7841 55.3497 93.6552 55.3199 93.5246 55.3159H92.6738V54.748H99.0584C102.466 54.748 104.592 57.0042 104.592 59.9877C104.592 62.9711 102.466 65.2376 99.0584 65.2376H96.505V70.1201H98.4208V70.6905L92.6738 70.6931ZM96.505 64.6568H98.6346C100.761 64.6568 102.358 62.9711 102.358 59.9877C102.358 57.0042 100.75 55.3185 98.6346 55.3185H96.505V64.6568Z" fill="#D9AB5E"/>
<path d="M98.807 71.0788H92.2881V69.7374H93.5248C93.6049 69.7335 93.6831 69.7137 93.7548 69.6793C93.827 69.6449 93.8915 69.5965 93.9444 69.537C93.9974 69.4774 94.0384 69.4079 94.0643 69.3324C94.0902 69.257 94.101 69.1772 94.0956 69.0975V56.3441C94.101 56.2644 94.0902 56.1846 94.0643 56.1092C94.0384 56.0337 93.9974 55.9642 93.9444 55.9046C93.8915 55.8451 93.827 55.7967 93.7548 55.7623C93.6831 55.7279 93.6049 55.7081 93.5248 55.7042H92.2881V54.3628H99.0586C102.546 54.3628 104.973 56.6756 104.973 59.9879C104.973 63.3003 102.541 65.6105 99.0586 65.6105H96.8935V69.7374H98.8094L98.807 71.0788ZM94.2166 70.3079H96.1222V55.1466H94.219C94.4213 55.2771 94.5869 55.4565 94.7001 55.6682C94.8139 55.8798 94.8723 56.1167 94.8699 56.3569V69.0924C94.8729 69.3337 94.8145 69.5718 94.7007 69.7845C94.5863 69.9971 94.4195 70.1772 94.2166 70.3079ZM100.131 55.2185C101.736 55.8789 102.739 57.6315 102.739 59.9879C102.739 62.3444 101.736 64.0994 100.131 64.7547C102.607 64.3513 104.202 62.5371 104.202 59.9879C104.202 57.4388 102.613 55.622 100.136 55.2159L100.131 55.2185ZM96.8935 64.2716H98.6372C100.663 64.2716 101.98 62.5884 101.98 59.9879C101.98 57.3874 100.669 55.7042 98.6372 55.7042H96.8935V64.2716Z" fill="#D9AB5E"/>
<path d="M106.552 70.1201H107.179C108.136 70.1201 108.563 69.6653 108.881 68.7531L113.767 54.4038H114.726L119.833 68.7531C120.175 69.7321 120.473 70.1201 121.43 70.1201H121.962V70.6906H116.663V70.1201H118.152L116.513 65.5641H110.658L109.115 70.1201H110.499V70.6906H106.552V70.1201ZM116.341 65.1092L113.574 57.0146L110.807 65.1015L116.341 65.1092Z" fill="#D9AB5E"/>
<path d="M122.369 71.0787H116.277V69.7373H117.604L116.241 65.9521H110.936L109.65 69.7373H110.88V71.0787H106.166V69.7373H107.194C107.915 69.7373 108.238 69.4804 108.534 68.6297L113.518 54.021H115.022L120.224 68.6272C120.546 69.5523 120.751 69.7373 121.456 69.7373H122.374L122.369 71.0787ZM118.628 70.3078H120.463C119.99 70.0508 119.733 69.5831 119.492 68.8841L114.474 54.7919H114.063L113.641 56.0305L116.876 65.4382L118.628 70.3078ZM108.169 70.3078H108.635L108.822 69.7553C108.653 69.99 108.429 70.1797 108.169 70.3078ZM111.348 64.7238H115.804L113.574 58.2148L111.348 64.7238Z" fill="#D9AB5E"/>
<path d="M123.621 55.3185V54.748H129.155V55.3185H127.452V61.8096H135.424V56.3438C135.429 56.2134 135.409 56.0831 135.364 55.9606C135.319 55.8382 135.249 55.7259 135.16 55.6302C135.072 55.5346 134.965 55.4576 134.845 55.4037C134.727 55.3497 134.598 55.3199 134.467 55.3159H133.616V54.748H139.15V55.3185H137.448V70.12H139.15V70.6905H133.627V70.12H134.477C134.608 70.1161 134.737 70.0863 134.856 70.0323C134.975 69.9783 135.082 69.9013 135.171 69.8057C135.26 69.7101 135.329 69.5978 135.374 69.4753C135.419 69.3528 135.44 69.2226 135.434 69.0921V62.2644H127.462V70.12H129.165V70.6905H123.621V70.12H124.472C124.603 70.116 124.731 70.0863 124.851 70.0323C124.97 69.9784 125.077 69.9014 125.166 69.8059C125.255 69.7103 125.324 69.598 125.37 69.4755C125.415 69.353 125.436 69.2227 125.431 69.0921V56.3438C125.436 56.2132 125.415 56.0829 125.37 55.9605C125.324 55.8379 125.255 55.7257 125.166 55.6301C125.077 55.5345 124.97 55.4575 124.851 55.4037C124.731 55.3497 124.603 55.3199 124.472 55.3159L123.621 55.3185Z" fill="#D9AB5E"/>
<path d="M139.546 71.0788H133.241V69.7374H134.478C134.557 69.7335 134.635 69.7137 134.708 69.6793C134.779 69.6449 134.844 69.5965 134.897 69.537C134.95 69.4774 134.991 69.4079 135.017 69.3324C135.043 69.257 135.054 69.1772 135.048 69.0975V62.6501H127.849V69.7374H129.551V71.0788H123.235V69.7374H124.472C124.552 69.7338 124.63 69.7143 124.703 69.68C124.775 69.6458 124.84 69.5975 124.893 69.5378C124.946 69.4782 124.987 69.4086 125.014 69.333C125.04 69.2574 125.051 69.1773 125.045 69.0975V56.3441C125.051 56.2643 125.04 56.1842 125.014 56.1086C124.987 56.033 124.946 55.9634 124.893 55.9038C124.84 55.8441 124.775 55.7958 124.703 55.7616C124.63 55.7273 124.552 55.7078 124.472 55.7042H123.235V54.3628H129.551V55.7042H127.849V61.4244H135.048V56.3441C135.054 56.2644 135.043 56.1846 135.017 56.1092C134.991 56.0337 134.95 55.9642 134.897 55.9046C134.844 55.8451 134.779 55.7967 134.708 55.7623C134.635 55.7279 134.557 55.7081 134.478 55.7042H133.241V54.3628H139.546V55.7042H137.843V69.7374H139.546V71.0788ZM135.174 70.3079H137.077V55.1466H135.174C135.376 55.2771 135.542 55.4565 135.655 55.6682C135.769 55.8798 135.828 56.1167 135.825 56.3569V69.0924C135.828 69.3339 135.769 69.5723 135.655 69.7849C135.54 69.9975 135.373 70.1775 135.169 70.3079H135.174ZM125.169 70.3079H127.072V55.1466H125.169C125.371 55.277 125.537 55.4563 125.651 55.6679C125.765 55.8795 125.824 56.1165 125.822 56.3569V69.0924C125.824 69.3341 125.765 69.5725 125.65 69.7851C125.535 69.9978 125.367 70.1776 125.164 70.3079H125.169Z" fill="#D9AB5E"/>
<path d="M140.692 75.0205V70.12H142.608L146.98 55.3159H145.275V54.748H154.532V55.3185H152.732V70.12H154.751V75.0179H154.314L154.208 73.99C154.018 71.9163 152.845 70.6879 150.909 70.6879H144.524C142.585 70.6879 141.415 71.9163 141.225 73.99L141.117 75.0179L140.692 75.0205ZM143.246 70.12H149.739C149.87 70.1161 149.998 70.0862 150.117 70.0323C150.236 69.9783 150.343 69.9013 150.432 69.8057C150.521 69.7101 150.59 69.5978 150.635 69.4753C150.681 69.3528 150.701 69.2226 150.696 69.0921V56.3438C150.701 56.2134 150.681 56.0831 150.635 55.9606C150.59 55.8382 150.521 55.7259 150.432 55.6302C150.343 55.5346 150.236 55.4576 150.117 55.4037C149.998 55.3497 149.87 55.3199 149.739 55.3159H147.61L143.246 70.12Z" fill="#D9AB5E"/>
<path d="M155.127 75.4062H153.98L153.838 74.0339C153.661 72.1272 152.627 71.0788 150.923 71.0788H144.525C142.82 71.0788 141.783 72.1272 141.609 74.0313L141.464 75.4062H140.308V69.7374H142.318L146.456 55.7042H144.882V54.3628H154.911V55.7042H153.111V69.7374H155.132L155.127 75.4062ZM150.431 70.3079H150.909C152.614 70.3079 153.841 71.2098 154.355 72.7773V70.5083H152.334V55.1337H150.431C150.632 55.2648 150.798 55.4443 150.911 55.6558C151.025 55.8673 151.084 56.104 151.082 56.3441V69.0924C151.084 69.3333 151.026 69.571 150.912 69.7835C150.799 69.996 150.634 70.1763 150.431 70.3079ZM141.079 70.5083V72.7748C141.228 72.2522 141.501 71.7733 141.875 71.3787C142.248 70.9842 142.712 70.6855 143.226 70.5083H141.079ZM143.764 69.7374H149.739C149.819 69.7335 149.897 69.7137 149.969 69.6793C150.042 69.6449 150.106 69.5965 150.159 69.537C150.212 69.4774 150.253 69.4078 150.279 69.3324C150.305 69.257 150.316 69.1772 150.31 69.0975V56.3441C150.316 56.2644 150.305 56.1846 150.279 56.1092C150.253 56.0337 150.212 55.9642 150.159 55.9046C150.106 55.8451 150.042 55.7967 149.969 55.7623C149.897 55.7279 149.819 55.7081 149.739 55.7042H147.898L143.764 69.7374Z" fill="#D9AB5E"/>
<path d="M164.828 70.6931V70.1201H165.679C165.81 70.116 165.939 70.0863 166.058 70.0323C166.177 69.9784 166.285 69.9014 166.374 69.8059C166.463 69.7103 166.532 69.5981 166.578 69.4755C166.623 69.353 166.644 69.2227 166.639 69.0921V56.3438C166.644 56.2132 166.623 56.0829 166.578 55.9605C166.532 55.8379 166.463 55.7257 166.374 55.6301C166.285 55.5345 166.177 55.4575 166.058 55.4037C165.939 55.3497 165.81 55.3199 165.679 55.3159H164.828V54.748H171.208C174.613 54.748 176.742 57.0042 176.742 59.9877C176.742 62.9711 174.621 65.2376 171.208 65.2376H168.652V70.1201H170.568V70.6905L164.828 70.6931ZM168.66 64.6568H170.789C172.918 64.6568 174.515 62.9711 174.515 59.9877C174.515 57.0042 172.918 55.3185 170.789 55.3185H168.66V64.6568Z" fill="#D9AB5E"/>
<path d="M170.951 71.0788H164.443V69.7374H165.68C165.76 69.7338 165.838 69.7143 165.911 69.68C165.983 69.6458 166.048 69.5975 166.102 69.5378C166.155 69.4782 166.195 69.4086 166.222 69.333C166.248 69.2574 166.259 69.1773 166.253 69.0975V56.3441C166.259 56.2643 166.248 56.1842 166.222 56.1086C166.195 56.033 166.155 55.9634 166.102 55.9038C166.048 55.8441 165.983 55.7958 165.911 55.7616C165.838 55.7273 165.76 55.7078 165.68 55.7042H164.443V54.3628H171.208C174.693 54.3628 177.123 56.6756 177.123 59.9879C177.123 63.3003 174.688 65.6105 171.208 65.6105H169.039V69.7374H170.951V71.0788ZM166.362 70.3079H168.264V55.1466H166.362C166.564 55.277 166.73 55.4563 166.844 55.6679C166.958 55.8795 167.017 56.1165 167.015 56.3569V69.0924C167.019 69.3327 166.962 69.5702 166.849 69.7826C166.737 69.9951 166.573 70.1758 166.372 70.3079H166.362ZM172.276 55.2185C173.883 55.8789 174.886 57.6315 174.886 59.9879C174.886 62.3444 173.883 64.0994 172.276 64.7547C174.752 64.3513 176.349 62.5371 176.349 59.9879C176.349 57.4388 174.767 55.622 172.291 55.2159L172.276 55.2185ZM169.031 64.2716H170.774C172.803 64.2716 174.117 62.5884 174.117 59.9879C174.117 57.3874 172.806 55.7042 170.774 55.7042H169.031V64.2716Z" fill="#D9AB5E"/>
<path d="M179.877 55.3185V54.748H185.498V55.3185H183.698V67.9589L191.788 56.683V56.3438C191.793 56.2132 191.773 56.0829 191.727 55.9605C191.682 55.8379 191.612 55.7257 191.523 55.6301C191.434 55.5345 191.326 55.4575 191.207 55.4037C191.088 55.3497 190.96 55.3199 190.829 55.3159H189.98V54.748H195.637V55.3185H193.838V70.12H195.637V70.6905H189.98V70.12H190.831C190.962 70.116 191.091 70.0863 191.21 70.0323C191.329 69.9784 191.437 69.9014 191.526 69.8059C191.615 69.7103 191.684 69.598 191.73 69.4755C191.775 69.353 191.796 69.2227 191.791 69.0921V57.5953L183.701 68.8711V70.12H185.501V70.6905H179.877V70.12H180.723C180.854 70.116 180.982 70.0863 181.102 70.0323C181.221 69.9784 181.328 69.9014 181.417 69.8059C181.506 69.7103 181.575 69.598 181.621 69.4755C181.666 69.353 181.687 69.2227 181.682 69.0921V56.3438C181.687 56.2132 181.666 56.0829 181.621 55.9605C181.575 55.8379 181.506 55.7257 181.417 55.6301C181.328 55.5345 181.221 55.4575 181.102 55.4037C180.982 55.3497 180.854 55.3199 180.723 55.3159L179.877 55.3185Z" fill="#D9AB5E"/>
<path d="M196.016 71.0788H189.602V69.7374H190.839C190.919 69.7338 190.997 69.7143 191.07 69.68C191.142 69.6458 191.207 69.5975 191.26 69.5378C191.314 69.4782 191.355 69.4086 191.381 69.333C191.407 69.2574 191.417 69.1773 191.413 69.0975V58.7956L184.094 68.9948V69.7374H185.894V71.0788H179.491V69.7374H180.723C180.803 69.7338 180.881 69.7143 180.954 69.68C181.026 69.6458 181.091 69.5975 181.144 69.5378C181.197 69.4782 181.238 69.4086 181.265 69.333C181.291 69.2574 181.302 69.1773 181.296 69.0975V56.3441C181.302 56.2643 181.291 56.1842 181.265 56.1086C181.238 56.033 181.197 55.9634 181.144 55.9038C181.091 55.8441 181.026 55.7958 180.954 55.7616C180.881 55.7273 180.803 55.7078 180.723 55.7042H179.486V54.3628H185.879V55.7042H184.078V66.7539L191.397 56.5548V56.339C191.402 56.2591 191.392 56.1791 191.366 56.1035C191.339 56.0279 191.298 55.9582 191.245 55.8986C191.192 55.839 191.127 55.7907 191.054 55.7564C190.982 55.7222 190.904 55.7027 190.824 55.6991H189.586V54.3628H196V55.7042H194.2V69.7374H196L196.016 71.0788ZM191.531 70.3079H193.434V55.1466H191.523C191.725 55.277 191.891 55.4563 192.005 55.6679C192.119 55.8795 192.178 56.1165 192.176 56.3569V69.0924C192.179 69.3336 192.121 69.5717 192.006 69.7843C191.892 69.9969 191.726 70.177 191.523 70.3079H191.531ZM181.42 70.3079H183.323V55.1466H181.42C181.622 55.277 181.788 55.4563 181.902 55.6679C182.016 55.8795 182.075 56.1165 182.073 56.3569V69.0924C182.076 69.3336 182.018 69.5717 181.903 69.7843C181.789 69.9969 181.623 70.177 181.42 70.3079Z" fill="#D9AB5E"/>
<path d="M199.397 54.5196H199.821V55.8867H199.929C200.328 55.5766 200.759 55.3096 201.215 55.0901C202.311 54.5665 203.512 54.2943 204.728 54.2935C208.986 54.2935 212.39 57.9373 212.39 62.7196C212.39 67.5018 209.009 71.1482 204.717 71.1482C201.631 71.1482 200.163 68.5297 199.184 68.5297C198.78 68.5297 198.63 68.8714 198.481 69.2132C198.406 69.4346 198.356 69.664 198.332 69.8968H197.905V69.6064C197.905 67.1471 198.651 66.3737 199.397 66.3737C200.993 66.3737 201.968 70.5854 204.717 70.5854C207.592 70.5854 210.145 67.8307 210.145 62.7272C210.143 62.0028 210.086 61.2796 209.975 60.5636H209.4C206.335 60.5636 205.867 65.703 203.12 65.703C202.292 65.703 201.909 65.3381 201.716 64.9064C201.606 64.6535 201.541 64.3828 201.526 64.1072H201.95C201.95 64.562 202.163 64.7907 202.588 64.7907C204.185 64.7907 204.717 59.8928 208.549 59.8928C209.007 59.8807 209.462 59.9584 209.891 60.1216C209.145 56.727 207.062 54.8819 204.717 54.8819C202.079 54.8819 200.346 56.727 200.034 58.6414L199.821 60.0085H199.397V54.5196Z" fill="#D9AB5E"/>
<path d="M204.717 71.5336C202.606 71.5336 201.184 70.3721 200.24 69.6012C199.826 69.2646 199.399 68.9151 199.183 68.9151C199.06 68.9151 198.998 68.9922 198.844 69.3468C198.78 69.535 198.737 69.7298 198.715 69.9275L198.687 70.2822H197.52V69.6063C197.52 66.3402 198.831 65.9881 199.397 65.9881C200.284 65.9881 200.939 66.8824 201.626 67.828C202.436 68.9407 203.357 70.1999 204.712 70.1999C208.175 70.1999 209.755 66.3274 209.755 62.7272C209.754 62.1324 209.713 61.5384 209.634 60.949H209.395C208.029 60.949 207.232 62.1619 206.388 63.4441C205.545 64.7264 204.66 66.0755 203.115 66.0755C202.251 66.0755 201.66 65.7286 201.358 65.0476C201.228 64.7556 201.152 64.4421 201.135 64.1226L201.104 63.7088H202.331V64.0943C202.331 64.3795 202.413 64.3924 202.588 64.3924C202.999 64.3924 203.442 63.6703 203.912 62.9071C204.794 61.468 206.005 59.4945 208.541 59.4945C208.811 59.4948 209.08 59.5171 209.346 59.5613C208.574 56.8888 206.836 55.2545 204.717 55.2545C202.244 55.2545 200.682 56.9813 200.415 58.6876L200.158 60.3811H199.016V54.1341H200.212V55.2159C200.448 55.0669 200.726 54.9153 201.035 54.7534C202.185 54.201 203.445 53.9138 204.722 53.9131C209.235 53.9131 212.771 57.7831 212.771 62.7246C212.771 67.6662 209.23 71.5336 204.717 71.5336ZM199.183 68.1441C199.674 68.1441 200.14 68.5245 200.726 69.005C201.415 69.6244 202.206 70.12 203.064 70.4697C202.207 69.9327 201.559 69.0435 201.006 68.2752C200.454 67.5069 199.893 66.7513 199.399 66.7513C198.841 66.7513 198.466 67.44 198.34 68.6401C198.423 68.489 198.544 68.3631 198.693 68.2758C198.842 68.1885 199.011 68.143 199.183 68.1441ZM210.395 60.7691C210.484 61.4154 210.53 62.067 210.531 62.7195C210.531 66.3325 209.207 69.1438 207.121 70.3309C209.986 69.2568 212.007 66.2965 212.007 62.7195C212.007 59.1424 209.976 56.1513 207.086 55.0926C208.616 55.956 209.767 57.6854 210.279 60.0187L210.449 60.7896L210.395 60.7691ZM202.423 65.1376C202.636 65.2468 202.873 65.2982 203.112 65.2866C204.241 65.2866 204.969 64.1765 205.741 63.0022C206.512 61.8278 207.332 60.6123 208.675 60.2603H208.549C206.437 60.2603 205.445 61.8792 204.568 63.3054C203.958 64.2999 203.431 65.1582 202.588 65.1582C202.536 65.1573 202.483 65.1539 202.431 65.1478L202.423 65.1376ZM199.775 56.2618V57.9835C200.145 56.7796 200.965 55.765 202.066 55.1517C201.834 55.2365 201.603 55.3316 201.372 55.4395C200.947 55.6445 200.547 55.8943 200.176 56.1847L200.068 56.2721L199.775 56.2618Z" fill="#D9AB5E"/>
<path d="M212.953 70.12H213.807C214.892 70.12 215.424 69.5521 215.828 68.185L219.659 55.3159H217.957V54.748H227.109V55.3185H225.309V70.12H227.109V70.6905H221.47V70.12H222.321C222.452 70.1161 222.58 70.0863 222.699 70.0323C222.818 69.9783 222.925 69.9013 223.014 69.8057C223.103 69.7101 223.172 69.5978 223.218 69.4753C223.263 69.3528 223.283 69.2226 223.278 69.0921V56.3438C223.283 56.2134 223.263 56.0831 223.218 55.9606C223.172 55.8382 223.103 55.7259 223.014 55.6302C222.925 55.5346 222.818 55.4576 222.699 55.4037C222.58 55.3497 222.452 55.3199 222.321 55.3159H220.192L215.82 70.12H217.842V70.6905H212.956L212.953 70.12Z" fill="#D9AB5E"/>
<path d="M227.496 71.0788H221.095V69.7374H222.332C222.411 69.7325 222.489 69.7119 222.561 69.6767C222.632 69.6416 222.696 69.5925 222.748 69.5325C222.8 69.4725 222.841 69.4027 222.866 69.3272C222.891 69.2516 222.901 69.1718 222.895 69.0924V56.3441C222.9 56.2644 222.889 56.1846 222.864 56.1092C222.838 56.0337 222.797 55.9642 222.744 55.9046C222.69 55.8451 222.626 55.7967 222.554 55.7623C222.482 55.7279 222.404 55.7081 222.324 55.7042H220.483L216.348 69.7374H218.238V71.0788H212.581V69.7374H213.82C214.571 69.7374 215.057 69.4804 215.471 68.0774L219.143 55.7042H217.572V54.3628H227.496V55.7042H225.695V69.7374H227.496V71.0788ZM223.013 70.3079H224.916V55.1466H223.013C223.213 55.2761 223.378 55.4535 223.492 55.6626C223.606 55.8717 223.666 56.1059 223.666 56.3441V69.0924C223.669 69.3336 223.61 69.5715 223.496 69.7839C223.382 69.9965 223.216 70.1766 223.013 70.3079ZM214.815 70.3079H215.371L215.548 69.7143C215.355 69.9675 215.103 70.1711 214.815 70.3079Z" fill="#D9AB5E"/>
<path d="M230.352 53.9512L230.458 54.7478H242.487L242.592 53.9512H243.017V59.417H242.592L242.487 58.3891C242.315 56.6802 240.995 55.3054 239.185 55.3054H237.475V70.1198H239.178V70.6903H233.644V70.1198H234.495C234.625 70.1158 234.754 70.086 234.873 70.0321C234.993 69.9782 235.1 69.9012 235.189 69.8056C235.278 69.7101 235.347 69.5978 235.393 69.4753C235.438 69.3528 235.459 69.2225 235.454 69.0919V56.3436C235.459 56.213 235.438 56.0827 235.393 55.9602C235.347 55.8377 235.278 55.7254 235.189 55.6299C235.1 55.5343 234.993 55.4574 234.873 55.4034C234.754 55.3495 234.625 55.3197 234.495 55.3157H233.752C231.951 55.3157 230.622 56.6802 230.45 58.3993L230.344 59.4273H229.92V53.9512H230.352Z" fill="#D9AB5E"/>
<path d="M239.563 71.0785H233.258V69.7371H234.494C234.574 69.7335 234.653 69.714 234.725 69.6798C234.797 69.6455 234.862 69.5971 234.916 69.5376C234.969 69.478 235.01 69.4083 235.036 69.3327C235.062 69.2571 235.073 69.1771 235.067 69.0972V56.3438C235.073 56.2639 235.062 56.1839 235.036 56.1083C235.01 56.0327 234.969 55.963 234.916 55.9035C234.862 55.8439 234.797 55.7955 234.725 55.7613C234.653 55.727 234.574 55.7075 234.494 55.7039H233.751C233.01 55.7055 232.297 55.9876 231.756 56.4936C231.215 56.9995 230.886 57.6916 230.835 58.4304L230.691 59.8026H229.534V53.5659H230.681L230.789 54.3625H242.139L242.247 53.5659H243.394V59.8026H242.237L242.093 58.4329C242.042 57.6939 241.713 57.0015 241.172 56.4952C240.631 55.9888 239.918 55.7061 239.177 55.7039H237.861V69.7371H239.563V71.0785ZM235.191 70.3075H237.094V55.1463H235.191C235.393 55.2767 235.559 55.456 235.673 55.6676C235.788 55.8792 235.847 56.1162 235.844 56.3566V69.0921C235.847 69.3339 235.788 69.5722 235.673 69.7848C235.557 69.9975 235.39 70.1773 235.186 70.3075H235.191ZM240.401 55.1463C240.911 55.3248 241.376 55.6141 241.761 55.9936C242.146 56.3731 242.442 56.8332 242.628 57.3408V55.1334L240.401 55.1463ZM230.31 55.1463V57.3408C230.496 56.8332 230.792 56.3731 231.177 55.9936C231.563 55.6141 232.027 55.3248 232.537 55.1463H230.31Z" fill="#D9AB5E"/>
</svg>
