<svg width="35" height="35" viewBox="0 0 35 35" fill="none" xmlns="http://www.w3.org/2000/svg">
<g id="education 1" clip-path="url(#clip0_1978_35124)">
<path id="Vector" d="M22.1182 22.5879C27.4689 22.5879 31.8223 18.2348 31.8223 12.8838C31.8223 7.53306 27.4689 3.17969 22.1182 3.17969C16.7674 3.17969 12.4141 7.53306 12.4141 12.8838C12.4141 18.2348 16.7674 22.5879 22.1182 22.5879V22.5879ZM22.1182 4.54688C26.7151 4.54688 30.4551 8.28688 30.4551 12.8838C30.4551 17.4807 26.7151 21.2207 22.1182 21.2207C17.5213 21.2207 13.7812 17.4809 13.7812 12.8838C13.7812 8.28688 17.5213 4.54688 22.1182 4.54688V4.54688Z" fill="#FFCB09"/>
<path id="Vector_2" d="M22.0157 25.9686C29.1753 25.9686 35 20.1439 35 12.9843C35 5.8247 29.1753 0 22.0157 0C14.8561 0 9.03145 5.8247 9.03145 12.9843C9.03145 15.7016 9.87099 18.2258 11.3036 20.3131L9.17965 22.4371L8.89046 22.1479C8.62343 21.8809 8.19057 21.8809 7.92355 22.1479L1.02085 29.0506C0.362625 29.7088 0 30.5841 0 31.515C0 32.4459 0.362625 33.3209 1.02085 33.9791C1.67908 34.6374 2.55413 35 3.48499 35C4.41586 35 5.29118 34.6374 5.9494 33.9791L12.8524 27.0765C12.9805 26.9483 13.0524 26.7744 13.0524 26.5931C13.0524 26.4118 12.9805 26.2377 12.8524 26.1095L12.5629 25.8204L14.6869 23.6964C16.7742 25.129 19.2987 25.9686 22.0157 25.9686V25.9686ZM22.0157 1.36719C28.4215 1.36719 33.6328 6.57852 33.6328 12.9843C33.6328 19.39 28.4215 24.6014 22.0157 24.6014C15.6102 24.6014 10.3986 19.39 10.3986 12.9843C10.3986 6.57852 15.6102 1.36719 22.0157 1.36719V1.36719ZM4.98276 33.0125C4.58248 33.4125 4.05083 33.6328 3.48499 33.6328C2.91916 33.6328 2.3875 33.4125 1.9875 33.0125C1.16158 32.1869 1.16158 30.8432 1.9875 30.0172L8.40687 23.5979L8.69606 23.8868C8.69606 23.8871 8.69633 23.8871 8.69633 23.8873L11.4021 26.5931L4.98276 33.0125ZM11.5963 24.8534L10.1466 23.4037L12.1429 21.4074C12.5875 21.9276 13.0724 22.4125 13.5926 22.8571L11.5963 24.8534Z" fill="#FFCB09"/>
<path id="Vector_3" d="M19.7773 11.0858C20.1549 11.0858 20.4609 10.7798 20.4609 10.4022C20.4609 9.93171 20.6623 9.48176 21.0129 9.16774C21.3686 8.84917 21.8287 8.70311 22.3091 8.75624C23.0679 8.84009 23.6797 9.45185 23.7636 10.2108C23.8373 10.8799 23.508 11.5232 22.9243 11.8495C22.0052 12.3635 21.434 13.3142 21.434 14.3302V15.3057C21.434 15.6832 21.74 15.9893 22.1176 15.9893C22.4949 15.9893 22.8012 15.6832 22.8012 15.3057V14.3302C22.8012 13.8087 23.104 13.3155 23.5916 13.0429C24.656 12.4477 25.2568 11.277 25.1225 10.0607C24.9689 8.67079 23.8487 7.55088 22.4591 7.39733C21.6004 7.30254 20.7403 7.57651 20.1007 8.14929C19.4609 8.72233 19.0938 9.54345 19.0938 10.4022C19.0938 10.7798 19.3998 11.0858 19.7773 11.0858Z" fill="#FFCB09"/>
<path id="Vector_4" d="M22.1133 17.2871C21.9336 17.2871 21.7573 17.3603 21.6302 17.4874C21.5031 17.6145 21.4297 17.791 21.4297 17.9707C21.4297 18.1512 21.5029 18.3269 21.6302 18.454C21.7573 18.5817 21.9336 18.6543 22.1133 18.6543C22.2933 18.6543 22.4695 18.5817 22.5966 18.454C22.7237 18.3269 22.7969 18.1504 22.7969 17.9707C22.7969 17.791 22.724 17.6145 22.5966 17.4874C22.4695 17.3603 22.2933 17.2871 22.1133 17.2871Z" fill="#FFCB09"/>
</g>
<defs>
<clipPath id="clip0_1978_35124">
<rect width="35" height="35" fill="white"/>
</clipPath>
</defs>
</svg>
