<svg width="35" height="35" viewBox="0 0 35 35" fill="none" xmlns="http://www.w3.org/2000/svg">
<g clip-path="url(#clip0_1978_35092)">
<path d="M24.2959 35.0022C25.0866 35 25.7786 34.4704 25.9871 33.7077L27.5997 27.6869L33.707 26.0543C34.6376 25.8012 35.1886 24.8439 34.9406 23.9122L31.774 12.1101L32.0247 11.1771C32.2513 10.3178 31.7975 9.4251 30.9697 9.10155L29.5439 3.77909C29.2887 2.8493 28.3338 2.29751 27.4008 2.54044L16.9855 5.33434L8.25193 2.99292C7.89395 2.89468 7.51381 2.91523 7.16864 3.05138L4.98685 0.873328C4.2514 0.131205 3.17533 -0.160839 2.16572 0.10798C1.15611 0.3768 0.367538 1.16511 0.0984518 2.17471C-0.170635 3.18432 0.120876 4.26067 0.862732 4.99612L4.8395 8.97288L0.0749602 26.7593C-0.174372 27.692 0.377148 28.6506 1.30881 28.9042L23.8419 34.9416C23.9897 34.9819 24.1424 35.0024 24.2959 35.0022V35.0022ZM33.8122 24.2136C33.8947 24.523 33.7124 24.8412 33.4038 24.9264L27.9489 26.3842L31.1686 14.3648L33.8122 24.2136ZM27.6993 3.6683C27.8496 3.62719 28.01 3.64801 28.1448 3.72596C28.2796 3.80365 28.3776 3.93232 28.4171 4.08288L29.6611 8.72969L19.2383 5.93738L27.6993 3.6683ZM17.6689 17.6816L14.7247 16.7003L16.6876 14.7355L17.6689 17.6795V17.6816ZM15.2954 14.4814L10.3472 9.53268C10.1195 9.30497 9.75006 9.30497 9.52235 9.53294C9.29464 9.76065 9.29491 10.1301 9.52288 10.3578L14.4713 15.3052L13.647 16.1306L5.39929 7.88292L6.2239 7.05831L7.87286 8.70807C8.02048 8.85542 8.23511 8.91309 8.43666 8.85889C8.63794 8.80497 8.79517 8.64774 8.8491 8.44645C8.90302 8.24517 8.84563 8.03028 8.69827 7.88292L7.04905 6.2337L7.87366 5.40855L16.12 13.6563L15.2954 14.4814ZM3.74954 6.2337L6.2239 3.75933L7.04851 4.58394L4.57468 7.05831L3.74954 6.2337ZM1.17533 2.93472C1.17533 2.22704 1.60165 1.58876 2.25541 1.31807C2.90944 1.04738 3.66198 1.19714 4.16224 1.69767L5.39929 2.93472L2.92493 5.40909L1.68734 4.17151C1.35846 3.84422 1.174 3.39895 1.17533 2.93472ZM1.20229 27.0655L5.79278 9.92616L13.234 17.3674C13.2949 17.4269 13.368 17.4721 13.4487 17.4998C13.4532 17.4998 13.4567 17.5062 13.462 17.5078L17.3034 18.7908C17.4233 18.8303 17.549 18.8498 17.6753 18.8493C17.895 18.8485 18.1099 18.7852 18.2946 18.6667L25.001 20.4675C25.0503 20.4811 25.1013 20.4881 25.1526 20.4878C25.4454 20.4878 25.6926 20.2708 25.7305 19.9806C25.7687 19.6904 25.5858 19.4171 25.3031 19.3415L18.8301 17.6037C18.8242 17.5046 18.8064 17.4067 18.7765 17.3119L17.4935 13.4702C17.4935 13.4649 17.4871 13.4614 17.4847 13.4561C17.4569 13.3762 17.4118 13.3034 17.3528 13.2428L8.33949 4.2257L30.4828 10.1571C30.6325 10.1971 30.7601 10.2948 30.8376 10.4291C30.915 10.5631 30.9358 10.7225 30.8958 10.8722L24.8611 33.4026C24.8213 33.5524 24.7233 33.6802 24.589 33.7577C24.4548 33.8351 24.2951 33.8559 24.1456 33.8156L1.615 27.7804C1.46551 27.7403 1.3379 27.6426 1.26022 27.5086C1.18281 27.3743 1.16198 27.215 1.20229 27.0655Z" fill="#FFCB09"/>
<path d="M26.9636 13.7272C27.2562 13.7269 27.5034 13.5099 27.5415 13.2197C27.5795 12.9298 27.3966 12.6562 27.1142 12.5806L18.8197 10.3583C18.6163 10.2977 18.3963 10.3524 18.245 10.5011C18.0936 10.6495 18.0349 10.8687 18.0915 11.0729C18.1481 11.2774 18.3115 11.4349 18.5175 11.4843L26.8125 13.7072C26.8619 13.7205 26.9126 13.7272 26.9636 13.7272V13.7272Z" fill="#FFCB09"/>
<path d="M26.0599 17.1052C26.3524 17.1049 26.5996 16.8881 26.6378 16.598C26.676 16.3078 26.4931 16.0344 26.2104 15.9586L20.5711 14.4501C20.3685 14.3924 20.1506 14.4482 20.0009 14.5966C19.8511 14.7448 19.7932 14.9623 19.849 15.1655C19.9048 15.3686 20.0658 15.5259 20.2702 15.5766L25.9096 17.0854C25.9584 17.0985 26.0091 17.1052 26.0599 17.1052V17.1052Z" fill="#FFCB09"/>
<path d="M8.06285 18.3417L6.37172 17.8887C6.16884 17.8294 5.94967 17.8844 5.79911 18.0328C5.64855 18.181 5.58982 18.3991 5.64588 18.603C5.70194 18.8067 5.86371 18.9642 6.069 19.0147L7.76013 19.4685C7.80978 19.4816 7.8605 19.4882 7.91176 19.4882C8.2046 19.4885 8.45207 19.2715 8.49024 18.9813C8.52842 18.6911 8.34555 18.4175 8.06285 18.3417Z" fill="#FFCB09"/>
<path d="M24.8132 23.4319C24.8965 23.1209 24.7118 22.8017 24.401 22.7181L11.4448 19.2472C11.1443 19.1885 10.8495 19.3727 10.77 19.6685C10.6907 19.9643 10.8538 20.2712 11.1435 20.3708L24.0988 23.842C24.1482 23.8556 24.1989 23.8623 24.2499 23.8623C24.5134 23.8625 24.7443 23.6861 24.8132 23.4319Z" fill="#FFCB09"/>
<path d="M7.1569 21.7225L5.46577 21.2692C5.1553 21.1878 4.83737 21.3725 4.75434 21.6825C4.67132 21.9927 4.85472 22.3117 5.16438 22.396L6.85552 22.8485C6.90464 22.8621 6.95536 22.8691 7.00661 22.8688C7.29919 22.8691 7.54665 22.652 7.58483 22.3618C7.62327 22.0717 7.44041 21.798 7.15744 21.7225H7.1569Z" fill="#FFCB09"/>
<path d="M23.4939 26.0993L10.5385 22.6276C10.3351 22.5673 10.1151 22.622 9.96374 22.7705C9.81238 22.9192 9.75365 23.1381 9.81024 23.3425C9.86683 23.5468 10.0302 23.7043 10.2363 23.7539L23.1919 27.2253C23.2413 27.2389 23.2923 27.2459 23.3436 27.2459C23.6361 27.2456 23.8833 27.0286 23.9215 26.7384C23.9594 26.4482 23.7766 26.1749 23.4939 26.0993V26.0993Z" fill="#FFCB09"/>
</g>
<defs>
<clipPath id="clip0_1978_35092">
<rect width="35" height="35" fill="white"/>
</clipPath>
</defs>
</svg>
