<svg width="35" height="35" viewBox="0 0 35 35" fill="none" xmlns="http://www.w3.org/2000/svg">
<g id="phone-call 1">
<path id="Vector" d="M20.9636 27.6853L16.6578 23.5575C15.6396 22.5813 14.0879 22.4761 12.9686 23.3081C12.9682 23.3083 12.963 23.3119 12.9628 23.3123L12.9437 23.3266C12.9208 23.3438 12.8994 23.344 12.8849 23.3416C12.8596 23.3368 12.8492 23.3207 12.8456 23.3145C11.8509 21.7353 11.1783 19.9996 10.8458 18.1553C10.5137 16.3106 10.5386 14.4482 10.9206 12.6202C10.9218 12.614 10.9254 12.5975 10.9451 12.5857C10.9612 12.5762 10.9788 12.5742 10.9983 12.5801L11.028 12.5887C12.3706 12.9816 13.7931 12.3399 14.4093 11.0634L17.2275 5.22817C17.6246 4.40585 17.4544 3.42401 16.8047 2.78289C16.5743 2.54972 16.312 2.3304 16.0249 2.13054C13.453 0.344237 9.94279 0.883217 8.03349 3.35779C7.91489 3.5127 7.80473 3.67484 7.69858 3.83858L7.69738 3.84038C7.31531 4.40605 7.12569 4.75922 6.83934 5.29278L6.77834 5.40616C6.70951 5.53318 5.08575 8.53931 4.68563 10.6557C4.06538 13.9385 4.12036 17.3334 4.84535 20.4727C5.61128 23.7889 7.0675 26.7394 9.17305 29.2421C9.70741 29.8772 10.6973 29.0458 10.1623 28.4097C8.1894 26.0652 6.82429 23.2967 6.10512 20.1818C5.42025 17.2152 5.36848 14.0044 5.95602 10.8957C6.31822 8.97876 7.89824 6.05229 7.9155 6.02079L7.9781 5.9042C8.22793 5.43907 8.4906 4.99119 8.77875 4.54893L8.78316 4.5419C8.86985 4.40485 8.96235 4.27201 9.06048 4.14298C10.5492 2.21803 13.283 1.80045 15.287 3.19224C15.5102 3.34716 15.712 3.51611 15.8874 3.6939C15.8898 3.69651 15.8924 3.69912 15.8951 3.70173C16.1523 3.95396 16.2199 4.34164 16.0632 4.66591L13.2453 10.5012C12.9046 11.2063 12.1246 11.5625 11.3918 11.3484L11.3673 11.341C11.0033 11.2324 10.6082 11.2812 10.2833 11.475C9.96085 11.6672 9.7319 11.9881 9.65524 12.3557C9.23887 14.3471 9.21158 16.3754 9.57357 18.3846C9.93537 20.3929 10.668 22.2831 11.7516 24.0034C11.9522 24.3224 12.2799 24.5444 12.6505 24.6128C13.0246 24.6816 13.4143 24.5897 13.7219 24.3588L13.7395 24.3457C14.3508 23.8916 15.2018 23.9524 15.763 24.4906L20.0688 28.6184C20.5942 29.1223 20.6042 29.9721 20.2599 30.5763C19.6557 31.6288 18.4035 32.3343 17.2375 32.5322C16.0502 32.7332 14.851 32.4659 13.8613 31.7785C13.1797 31.3051 12.4412 32.366 13.1239 32.8402C14.1176 33.5303 15.2756 33.8906 16.4623 33.8906C16.7914 33.8906 17.1231 33.8628 17.4534 33.8068C19.0015 33.5441 20.5845 32.607 21.381 31.22L21.3958 31.1941C22.0279 30.0929 21.8997 28.5829 20.9636 27.6853V27.6853Z" fill="#FFCB09"/>
<path id="Vector_2" d="M23.3046 6.95508C19.4695 6.95508 16.3498 10.075 16.3498 13.9103C16.3498 14.2454 16.3741 14.5829 16.4225 14.9162L15.2695 18.6617C15.1481 19.0556 15.4477 19.476 15.8532 19.4973L19.4274 19.6845C20.5756 20.4577 21.912 20.8652 23.3046 20.8652C27.1397 20.8652 30.2598 17.7451 30.2598 13.9103C30.2598 10.075 27.1397 6.95508 23.3046 6.95508ZM23.3046 19.5724C22.1183 19.5724 20.9823 19.2094 20.0198 18.5225C19.9196 18.451 19.801 18.4095 19.6784 18.4033L16.7488 18.2496L17.7019 15.154C17.8139 14.7904 17.6427 14.2883 17.6427 13.9103C17.6427 10.7879 20.1825 8.24815 23.3046 8.24815C26.4267 8.24815 28.9667 10.7879 28.9667 13.9103C28.9667 17.0322 26.4267 19.5724 23.3046 19.5724V19.5724Z" fill="#FFCB09"/>
<path id="Vector_3" d="M20.9512 13.4473C20.5997 13.4473 20.3047 13.7422 20.3047 14.0936C20.3047 14.4452 20.5999 14.7403 20.9512 14.7403C21.2923 14.7403 21.5813 14.462 21.5963 14.1219C21.6122 13.7599 21.3142 13.4473 20.9512 13.4473V13.4473Z" fill="#FFCB09"/>
<path id="Vector_4" d="M11.3809 30.1133C11.0293 30.1133 10.7344 30.4085 10.7344 30.7596C10.7344 31.111 11.0295 31.4062 11.3809 31.4062C11.722 31.4062 12.011 31.1282 12.026 30.7879C12.0419 30.4265 11.7433 30.1133 11.3809 30.1133V30.1133Z" fill="#FFCB09"/>
<path id="Vector_5" d="M23.4979 13.4473C23.1457 13.4473 22.8516 13.7414 22.8516 14.0936C22.8516 14.4456 23.1463 14.7403 23.4979 14.7403C23.8394 14.7399 24.1276 14.4624 24.1424 14.1219C24.1583 13.7599 23.8615 13.4473 23.4979 13.4473V13.4473Z" fill="#FFCB09"/>
<path id="Vector_6" d="M26.037 13.4473C25.6856 13.4473 25.3906 13.7422 25.3906 14.0936C25.3908 14.4452 25.686 14.7403 26.037 14.7403C26.3785 14.7403 26.6671 14.462 26.6821 14.1219C26.6984 13.7599 26.4004 13.4473 26.037 13.4473V13.4473Z" fill="#FFCB09"/>
</g>
</svg>
