<svg width="35" height="35" viewBox="0 0 35 35" fill="none" xmlns="http://www.w3.org/2000/svg">
<g id="deal (1) 1" clip-path="url(#clip0_1978_35115)">
<g id="XMLID_1321_">
<g id="XMLID_396_">
<path id="XMLID_429_" d="M34.7804 13.1583L33.8687 11.5792C33.68 11.2523 33.2622 11.1403 32.9349 11.329C32.608 11.5178 32.4959 11.9358 32.6848 12.2628L33.5964 13.8419C33.6446 13.9252 33.6338 14.0045 33.6232 14.0443C33.6125 14.0842 33.5821 14.1583 33.4988 14.2063L31.088 15.5982C30.9604 15.6716 30.7971 15.6278 30.7235 15.5005L25.8736 7.10039C25.8 6.97297 25.8438 6.80946 25.9713 6.73584L28.382 5.34402C28.5094 5.2706 28.6731 5.31421 28.7466 5.44163L29.6087 6.9349C29.7975 7.26192 30.2156 7.37395 30.5424 7.18508C30.8694 6.99635 30.9814 6.57828 30.7926 6.25132L29.9305 4.75806C29.4801 3.9779 28.4789 3.70946 27.6985 4.16L25.2877 5.55189C24.9214 5.76339 24.668 6.09622 24.5487 6.47055H17.7144C16.7549 6.47055 15.8527 6.84419 15.1742 7.5227L14.4739 8.22295C13.8599 8.0766 13.2309 8.00134 12.5983 8.00134H10.4762C10.3702 7.59181 10.1068 7.22323 9.71241 6.99546L7.30159 5.60357C6.92358 5.38531 6.48308 5.32741 6.06166 5.44033C5.6401 5.55326 5.28772 5.82368 5.06952 6.20163L0.219645 14.6018C0.00144827 14.9798 -0.056587 15.4201 0.0563391 15.8418C0.169265 16.2634 0.439687 16.6157 0.817702 16.8339L3.22853 18.2258C3.48521 18.374 3.76568 18.4444 4.04273 18.4444C4.14369 18.4444 4.24411 18.4346 4.34282 18.4163L6.31602 20.3896C6.2858 20.5447 6.27015 20.7038 6.27015 20.8653C6.27015 21.5222 6.52594 22.1398 6.99043 22.6042C7.43516 23.0489 8.00923 23.287 8.59265 23.3192C8.5837 23.4049 8.57885 23.4914 8.57885 23.5788C8.57885 24.2357 8.83464 24.8532 9.29913 25.3177C9.76361 25.7821 10.3812 26.0379 11.038 26.0379C11.0558 26.0379 11.0735 26.0371 11.0912 26.0366C11.0908 26.0544 11.0899 26.0721 11.0899 26.0899C11.0899 26.7468 11.3457 27.3643 11.8102 27.8288C12.2747 28.2933 12.8923 28.549 13.5491 28.549C13.5669 28.549 13.5846 28.5482 13.6024 28.5477C13.6019 28.5655 13.6011 28.5832 13.6011 28.601C13.6011 29.2578 13.8568 29.8754 14.3213 30.3399C14.7858 30.8043 15.4034 31.0601 16.0602 31.0601C16.717 31.0601 17.3347 30.8044 17.7991 30.3399L18.7715 29.3675C19.0566 29.0824 19.2562 28.7439 19.3718 28.384C19.8039 28.7028 20.3172 28.8623 20.8308 28.8623C21.4604 28.8622 22.0903 28.6225 22.5697 28.1431C22.8565 27.8563 23.0634 27.511 23.18 27.1343C23.5757 27.3931 24.038 27.5322 24.5218 27.5322C25.1786 27.5322 25.7963 27.2764 26.2607 26.812C26.6058 26.4667 26.8355 26.0371 26.9308 25.5695C27.1778 25.6512 27.4386 25.6944 27.7062 25.6944C28.3631 25.6944 28.9807 25.4386 29.4452 24.974C30.4039 24.0152 30.4039 22.4551 29.4452 21.4962L27.8497 19.9008L30.7619 16.9885C30.8266 16.9963 30.8917 17.0006 30.9572 17.0006C31.2342 17.0006 31.5147 16.9302 31.7714 16.7821L34.1822 15.3903C34.5601 15.172 34.8306 14.8197 34.9435 14.3981C35.0565 13.9764 34.9986 13.5363 34.7804 13.1583V13.1583ZM1.50121 15.65C1.41795 15.6019 1.3876 15.5279 1.37693 15.488C1.36627 15.4481 1.35554 15.3688 1.40366 15.2855L6.25354 6.8852C6.30159 6.80194 6.37569 6.77159 6.41554 6.76093C6.43256 6.75642 6.45676 6.75184 6.48534 6.75184C6.52382 6.75184 6.57024 6.76011 6.61795 6.78759L9.02877 8.17948C9.15612 8.25303 9.20001 8.41654 9.12646 8.54396L4.27658 16.9442C4.20296 17.0715 4.03958 17.1154 3.9121 17.0419L1.50121 15.65ZM7.63729 20.8653C7.63729 20.5735 7.7509 20.2994 7.9572 20.093L8.54713 19.5031C8.75999 19.2902 9.03964 19.1838 9.31936 19.1838C9.59894 19.1838 9.87866 19.2903 10.0915 19.5031C10.2978 19.7094 10.4114 19.9836 10.4114 20.2753C10.4114 20.567 10.2978 20.8412 10.0915 21.0475L9.5016 21.6374C9.0758 22.0632 8.383 22.0632 7.9572 21.6374C7.7509 21.4312 7.63729 21.157 7.63729 20.8653V20.8653ZM11.0381 24.6708C10.7463 24.6708 10.4721 24.5572 10.2659 24.351C10.0596 24.1447 9.94599 23.8705 9.94599 23.5788C9.94599 23.2871 10.0596 23.0129 10.2659 22.8066L11.2383 21.8342C11.4511 21.6214 11.7308 21.5149 12.0104 21.5149C12.2902 21.5149 12.5698 21.6214 12.7827 21.8342C12.989 22.0405 13.1026 22.3147 13.1026 22.6064C13.1026 22.8981 12.989 23.1723 12.7827 23.3786L11.8103 24.351C11.604 24.5573 11.3297 24.6708 11.0381 24.6708ZM13.5492 27.182C13.2574 27.182 12.9832 27.0684 12.777 26.8621C12.5707 26.6559 12.4571 26.3816 12.4571 26.09C12.4571 25.7983 12.5707 25.524 12.777 25.3177L13.7494 24.3453C13.9623 24.1325 14.2419 24.0261 14.5216 24.0261C14.8012 24.0261 15.0809 24.1325 15.2938 24.3454C15.5001 24.5516 15.6137 24.8259 15.6137 25.1176C15.6137 25.4093 15.5001 25.6835 15.2938 25.8897L14.3214 26.8621C14.1152 27.0684 13.8409 27.182 13.5492 27.182ZM17.8049 28.4008L16.8324 29.3733C16.6262 29.5795 16.352 29.6931 16.0603 29.6931C15.7685 29.6931 15.4943 29.5795 15.2881 29.3733C15.0818 29.167 14.9682 28.8928 14.9682 28.6011C14.9682 28.3094 15.0818 28.0352 15.2881 27.8289L16.2605 26.8565C16.4734 26.6436 16.753 26.5372 17.0327 26.5372C17.3123 26.5372 17.592 26.6437 17.8049 26.8565C18.2307 27.2822 18.2307 27.975 17.8049 28.4008V28.4008ZM28.4786 24.0075C28.2723 24.2138 27.9981 24.3274 27.7064 24.3274C27.4147 24.3274 27.1405 24.2138 26.9342 24.0075L20.4095 17.4828C20.1426 17.2159 19.7099 17.2158 19.4427 17.4828C19.1758 17.7497 19.1758 18.1825 19.4427 18.4495L25.2941 24.3009C25.5004 24.5071 25.614 24.7814 25.614 25.0731C25.614 25.3648 25.5004 25.639 25.2941 25.8453C25.0879 26.0515 24.8137 26.1652 24.5219 26.1652C24.2302 26.1652 23.956 26.0515 23.7498 25.8453L16.7185 18.814C16.4515 18.5472 16.0187 18.5472 15.7517 18.814C15.4848 19.081 15.4848 19.5138 15.7517 19.7807L21.6031 25.6322C21.8094 25.8384 21.923 26.1127 21.923 26.4043C21.923 26.696 21.8094 26.9703 21.6031 27.1765C21.1774 27.6023 20.4846 27.6024 20.0587 27.1765L18.7718 25.8896C18.77 25.8878 18.768 25.8863 18.7663 25.8846C18.274 25.3952 17.6246 25.1581 16.9795 25.172C16.9799 25.1539 16.9808 25.1358 16.9808 25.1176C16.9808 24.4607 16.725 23.8431 16.2606 23.3786C15.7676 22.8857 15.1158 22.6469 14.4684 22.6608C14.4688 22.6427 14.4697 22.6247 14.4697 22.6065C14.4697 21.9496 14.2139 21.332 13.7494 20.8675C13.2103 20.3285 12.4812 20.0926 11.7757 20.1596C11.7475 19.5463 11.4953 18.9736 11.0582 18.5365C10.0994 17.5776 8.5392 17.5778 7.58035 18.5365L6.99043 19.1264C6.98975 19.1271 6.98906 19.1278 6.98838 19.1285L5.47044 17.6106L10.229 9.36848H12.5983C12.8304 9.36848 13.0619 9.38079 13.2921 9.40471L12.5108 10.1861C12.0463 10.6506 11.7905 11.2682 11.7905 11.925C11.7905 12.582 12.0463 13.1995 12.5108 13.664C12.9902 14.1434 13.62 14.3831 14.2496 14.3831C14.8794 14.3831 15.5092 14.1434 15.9886 13.664L17.8339 11.8186L28.4785 22.4631C28.9043 22.8889 28.9043 23.5817 28.4786 24.0075V24.0075ZM21.911 13.962C22.9057 13.2421 23.5154 12.0803 23.5154 10.8181C23.5154 10.4405 23.2093 10.1345 22.8319 10.1345C22.4544 10.1345 22.1483 10.4405 22.1483 10.8181C22.1483 11.711 21.6766 12.5255 20.9241 12.9752L18.3205 10.3716C18.0535 10.1047 17.6214 10.0977 17.3544 10.3647L15.0219 12.6972C14.5961 13.123 13.9033 13.1229 13.4775 12.6972C13.2712 12.491 13.1575 12.2167 13.1575 11.925C13.1575 11.6334 13.2712 11.3591 13.4775 11.1528L16.1409 8.48941C16.5611 8.06915 17.1199 7.83769 17.7144 7.83769H24.7207L29.5395 16.1842C29.5509 16.204 29.5634 16.2228 29.5755 16.2419L26.8831 18.9342L21.911 13.962Z" fill="#FFCB09"/>
<path id="XMLID_436_" d="M31.7383 9.94141C31.9181 9.94141 32.0937 9.86826 32.2216 9.74111C32.3487 9.61328 32.4219 9.4376 32.4219 9.25781C32.4219 9.07734 32.3487 8.90166 32.2216 8.77383C32.0937 8.64668 31.9181 8.57422 31.7383 8.57422C31.5578 8.57422 31.3821 8.64668 31.255 8.77383C31.1271 8.90166 31.0547 9.07734 31.0547 9.25781C31.0547 9.4376 31.1271 9.61328 31.255 9.74111C31.3821 9.86833 31.5578 9.94141 31.7383 9.94141Z" fill="#FFCB09"/>
</g>
</g>
</g>
<defs>
<clipPath id="clip0_1978_35115">
<rect width="35" height="35" fill="white"/>
</clipPath>
</defs>
</svg>
