<svg width="35" height="35" viewBox="0 0 35 35" fill="none" xmlns="http://www.w3.org/2000/svg">
<g id="crane 2" clip-path="url(#clip0_1953_28784)">
<g id="Group">
<g id="Group_2">
<g id="Group_3">
<path id="Vector" d="M33.8083 28.2258H33.871V23.1452C33.871 22.2115 33.1111 21.4516 32.1774 21.4516H24.8387V19.7581C24.8387 19.6356 24.824 19.5165 24.7992 19.4013L28.5735 10.7749C28.7491 10.3752 28.7373 9.92194 28.5414 9.53073L28.4149 9.27782C28.166 8.77823 27.663 8.46774 27.1047 8.46774C26.7456 8.46774 26.4143 8.61169 26.1512 8.84032L8.57331 1.9154L8.35202 1.42879C7.95742 0.561129 7.08581 0 6.13234 0H5.82468C4.57032 0 3.54573 0.956855 3.41363 2.17734L3.39331 2.17452L1.69976 13.4648L1.69581 14.2693C1.35879 14.4646 1.12903 14.8253 1.12903 15.2419V17.5C1.12903 18.1227 1.6354 18.629 2.25806 18.629V21.4516C2.25806 21.7632 2.00516 22.0161 1.69355 22.0161C1.38194 22.0161 1.12903 21.7632 1.12903 21.4516V20.8871H0V21.4516C0 22.3853 0.759839 23.1452 1.69355 23.1452C2.62726 23.1452 3.3871 22.3853 3.3871 21.4516V18.629C4.00976 18.629 4.51613 18.1227 4.51613 17.5V15.2419C4.51613 14.8761 4.33887 14.5544 4.06847 14.3477L5.75185 8.45589L13.5941 26.7541L13.6065 26.7485L13.5591 26.9856L13.5484 28.2258H13.611C12.8766 28.9439 12.4194 29.9431 12.4194 31.0484C12.4194 33.2269 14.1925 35 16.371 35H31.0484C33.2269 35 35 33.2269 35 31.0484C35 29.9431 34.5427 28.9439 33.8083 28.2258ZM24.8387 24.8387V22.5806H32.1774C32.489 22.5806 32.7419 22.8335 32.7419 23.1452V23.7097H25.9677V27.0968H24.8387V25.9677H23.7097V27.0968H16.371C15.7647 27.0968 15.1917 27.2385 14.6774 27.4835V27.1527L16.1785 19.6469C16.231 19.3844 16.4635 19.1935 16.7323 19.1935H23.1452C23.4568 19.1935 23.7097 19.4465 23.7097 19.7581V24.8387H24.8387ZM32.7419 24.8387V27.4835C32.3908 27.3158 32.0115 27.1995 31.6129 27.1419V24.8387H32.7419ZM30.4839 24.8387V27.0968H29.3548V24.8387H30.4839ZM28.2258 24.8387V27.0968H27.0968V24.8387H28.2258ZM11.0758 7.42226L20.1515 11.1198L20.1572 11.1255L20.1594 11.1232L24.1579 12.7519L21.6577 18.0645H16.7323C16.4686 18.0645 16.2191 18.1311 15.9939 18.2412L11.0758 7.42226ZM14.1558 16.9265L12.8202 16.2948L13.2131 14.8524L14.1558 16.9265ZM12.0236 12.2353L11.1142 11.8221L11.3852 10.8302L12.0236 12.2353ZM26.7987 9.7904C26.9099 9.55669 27.2904 9.55161 27.4061 9.78363L27.5326 10.0365C27.5772 10.1263 27.58 10.2302 27.5399 10.3222L24.0388 18.3253C23.778 18.1627 23.4737 18.0645 23.1452 18.0645H22.9058L26.7987 9.7904ZM25.541 9.81242L24.6394 11.7284L21.026 10.2561L22.6202 8.66194L25.541 9.81242ZM21.4748 8.21089L19.8913 9.79436L19.0202 9.43927L20.5952 7.86427L21.4748 8.21089ZM19.4498 7.41323L17.8861 8.97694L10.3961 5.92573L9.24508 3.39274L19.4498 7.41323ZM9.20444 6.03186L9.9846 7.74798L8.88605 7.19871L9.20444 6.03186ZM2.25806 17.5V15.2419H3.3871L3.38766 17.5H2.25806ZM2.96089 14.1129H2.82258V13.5907L4.15258 4.72444L5.04734 6.81145L2.96089 14.1129ZM5.72927 5.53565L4.62226 2.95298C4.55113 2.78984 4.51613 2.61653 4.51613 2.43814C4.51613 1.71613 5.10323 1.12903 5.82468 1.12903H6.13234C6.64435 1.12903 7.11177 1.43048 7.32403 1.89621L7.71073 2.74637L7.69661 2.78306L7.73444 2.79774L8.37742 4.21185L5.72927 5.53565ZM7.2196 9.01532L6.46315 7.25008L7.55266 7.79484L7.2196 9.01532ZM6.90742 6.20968L8.155 5.58589L7.85581 6.68387L6.90742 6.20968ZM9.35234 13.9915L8.43161 11.843L9.77234 12.4521L9.35234 13.9915ZM8.00992 10.4108L8.5829 8.30968L10.6242 9.33032L10.0732 11.3485L8.00992 10.4108ZM11.1402 18.1633L10.3803 16.3896L11.4817 16.9106L11.1402 18.1633ZM10.229 15.0692L10.8139 12.9257L12.3753 13.6353L11.7837 15.8048L10.229 15.0692ZM11.8554 19.8315L12.5181 17.4006L14.879 18.5173L15.1584 19.1326C15.1211 19.2263 15.0912 19.324 15.0709 19.425L13.9921 24.8184L11.8554 19.8315ZM31.0484 33.871H16.371C14.8146 33.871 13.5484 32.6048 13.5484 31.0484C13.5484 29.492 14.8146 28.2258 16.371 28.2258H31.0484C32.6048 28.2258 33.871 29.492 33.871 31.0484C33.871 32.6048 32.6048 33.871 31.0484 33.871Z" fill="#FFCB09"/>
<path id="Vector_2" d="M30.4861 28.7903C29.8082 28.7903 29.2069 29.0963 28.7926 29.5704C28.3782 29.0963 27.777 28.7903 27.099 28.7903C26.4211 28.7903 25.8198 29.0963 25.4055 29.5704C24.9911 29.0963 24.3899 28.7903 23.7119 28.7903C23.034 28.7903 22.4328 29.0963 22.0184 29.5704C21.604 29.0963 21.0028 28.7903 20.3248 28.7903C19.6469 28.7903 19.0457 29.0963 18.6313 29.5704C18.2169 29.0963 17.6157 28.7903 16.9378 28.7903C15.6924 28.7903 14.6797 29.803 14.6797 31.0483C14.6797 32.2937 15.6924 33.3064 16.9378 33.3064C17.6157 33.3064 18.2169 33.0004 18.6313 32.5263C19.0457 33.0004 19.6469 33.3064 20.3248 33.3064C21.0028 33.3064 21.604 33.0004 22.0184 32.5263C22.4328 33.0004 23.034 33.3064 23.7119 33.3064C24.3899 33.3064 24.9911 33.0004 25.4055 32.5263C25.8198 33.0004 26.4211 33.3064 27.099 33.3064C27.777 33.3064 28.3782 33.0004 28.7926 32.5263C29.2069 33.0004 29.8082 33.3064 30.4861 33.3064C31.7315 33.3064 32.7442 32.2937 32.7442 31.0483C32.7442 29.803 31.7315 28.7903 30.4861 28.7903ZM16.9378 32.1774C16.3151 32.1774 15.8087 31.671 15.8087 31.0483C15.8087 30.4257 16.3151 29.9193 16.9378 29.9193C17.5604 29.9193 18.0668 30.4257 18.0668 31.0483C18.0668 31.671 17.5604 32.1774 16.9378 32.1774ZM20.3248 32.1774C19.7022 32.1774 19.1958 31.671 19.1958 31.0483C19.1958 30.4257 19.7022 29.9193 20.3248 29.9193C20.9475 29.9193 21.4539 30.4257 21.4539 31.0483C21.4539 31.671 20.9475 32.1774 20.3248 32.1774ZM23.7119 32.1774C23.0893 32.1774 22.5829 31.671 22.5829 31.0483C22.5829 30.4257 23.0893 29.9193 23.7119 29.9193C24.3346 29.9193 24.841 30.4257 24.841 31.0483C24.841 31.671 24.3346 32.1774 23.7119 32.1774ZM27.099 32.1774C26.4764 32.1774 25.97 31.671 25.97 31.0483C25.97 30.4257 26.4764 29.9193 27.099 29.9193C27.7217 29.9193 28.2281 30.4257 28.2281 31.0483C28.2281 31.671 27.7217 32.1774 27.099 32.1774ZM30.4861 32.1774C29.8635 32.1774 29.3571 31.671 29.3571 31.0483C29.3571 30.4257 29.8635 29.9193 30.4861 29.9193C31.1088 29.9193 31.6152 30.4257 31.6152 31.0483C31.6152 31.671 31.1088 32.1774 30.4861 32.1774Z" fill="#FFCB09"/>
<path id="Vector_3" d="M16.3824 23.599L16.3711 24.8387H22.5808V20.3226H17.0378L16.3824 23.599ZM17.963 21.4516H21.4517V23.7097H17.5114L17.963 21.4516Z" fill="#FFCB09"/>
</g>
</g>
</g>
</g>
<defs>
<clipPath id="clip0_1953_28784">
<rect width="35" height="35" fill="white"/>
</clipPath>
</defs>
</svg>
