<svg width="35" height="35" viewBox="0 0 35 35" fill="none" xmlns="http://www.w3.org/2000/svg">
<g id="team (2) 1" clip-path="url(#clip0_1953_28766)">
<path id="Vector" d="M35 14.6774H33.7315L31.8409 15.6722C31.6281 15.5548 31.4067 15.4553 31.168 15.3955L28.7898 14.8004V14.53C29.8419 13.7956 30.4839 12.5825 30.4839 11.2903V10.3035C30.4839 8.11051 28.7655 6.27528 26.6535 6.21133C26.5463 6.20857 26.4407 6.21243 26.3346 6.21767L26.9512 4.77413L23.9619 1.78561L22.1997 2.93256C21.5302 2.55548 20.822 2.26192 20.0866 2.05602L19.6514 0H15.3492L14.9139 2.05657C14.1785 2.26247 13.4698 2.55603 12.8008 2.93311L11.0387 1.78616L8.0518 4.77303L8.65794 6.21767C8.63478 6.21657 8.61273 6.21243 8.58958 6.21188C7.50851 6.18046 6.49028 6.5749 5.71683 7.32575C4.94227 8.07605 4.51613 9.08298 4.51613 10.1613V11.2903C4.51613 12.5825 5.15755 13.7951 6.20968 14.5294V14.8004L4.65836 15.1882L1.84653 13.5484H0V25.2458L5.55365 27.0968H6.63527L6.77033 26.6238L8.4727 27.6456C8.50054 28.5712 9.24285 29.316 10.1676 29.3485C10.2002 30.2694 10.9403 31.0095 11.8612 31.042C11.8937 31.963 12.6338 32.7031 13.5547 32.7356C13.5884 33.678 14.3602 34.4355 15.3103 34.4355C15.6631 34.4355 16.009 34.3255 16.2999 34.1295L16.7999 34.5711C17.1133 34.847 17.5168 35 17.9358 35H18.0403C18.9797 35 19.744 34.2406 19.7559 33.3042C20.6851 33.2924 21.4376 32.5399 21.4494 31.6107C22.3792 31.5988 23.1322 30.8452 23.143 29.9155C24.0812 29.8934 24.8387 29.1269 24.8387 28.1834C24.8387 28.1266 24.836 28.0706 24.8302 28.0141L35 22.9296V14.6774ZM29.3548 10.3035V11.2903C29.3548 12.2923 28.8135 13.2284 27.9419 13.7331L27.6596 13.8962L27.6618 15.6827L30.4822 16.3872L24.2742 19.6547V18.134C24.2742 17.3751 23.9677 16.6802 23.4657 16.1667L25.4032 15.6827V13.8949L25.1215 13.732C24.2505 13.2284 23.7097 12.2923 23.7097 11.2903V10.1613C23.7097 9.39142 24.014 8.67144 24.5672 8.13532C25.1199 7.59947 25.8531 7.31059 26.6196 7.34036C28.1277 7.38557 29.3548 8.71499 29.3548 10.3035ZM18.3512 19.2109L15.7957 18.3942C14.6311 18.021 13.3706 17.9653 12.1784 18.2294L11.8548 18.301V18.134C11.8548 17.3556 12.3827 16.6797 13.1374 16.4906L16.371 15.6827V13.8949L16.0893 13.732C15.2182 13.2284 14.6774 12.2923 14.6774 11.2903V10.1613C14.6774 9.39142 14.9817 8.67144 15.5349 8.13532C16.0876 7.59947 16.8255 7.31059 17.5874 7.34036C19.0954 7.38557 20.3226 8.71499 20.3226 10.3035V11.2903C20.3226 12.2923 19.7812 13.2284 18.9096 13.7331L18.6274 13.8962L18.6296 15.6827L21.8626 16.4906C22.6173 16.6797 23.1452 17.3556 23.1452 18.134V20.2493L23.0057 20.3226H22.6598L19.1891 19.3308C18.9157 19.2534 18.634 19.2217 18.3512 19.2109ZM11.9814 8.449C13.0415 6.39491 15.1752 5.08065 17.5 5.08065C19.8027 5.08065 21.9274 6.37727 22.9955 8.40352C22.7267 8.9424 22.5806 9.53916 22.5806 10.1613V11.2903C22.5806 12.5825 23.2221 13.7951 24.2742 14.5294V14.8004L22.0161 15.3657L19.7575 14.8004V14.53C20.8096 13.7956 21.4516 12.5825 21.4516 11.2903V10.3035C21.4516 8.11051 19.7333 6.27528 17.6213 6.21133C16.5408 6.17963 15.522 6.57435 14.7485 7.3252C13.9745 8.07605 13.5484 9.08298 13.5484 10.1613V11.2903C13.5484 12.5825 14.1898 13.7951 15.2419 14.5294V14.8004L12.9839 15.3657L10.7253 14.8004V14.53C11.7774 13.7956 12.4194 12.5825 12.4194 11.2903V10.3035C12.4194 9.63922 12.2595 9.00855 11.9814 8.449ZM9.38508 5.03489L11.1886 3.23136L12.776 4.26447L13.0798 4.07813C13.8408 3.61175 14.6634 3.27022 15.5242 3.06432L15.8715 2.98108L16.2643 1.12903H18.7363L19.1279 2.98052L19.4753 3.06349C20.3361 3.26967 21.1586 3.61119 21.9197 4.07758L22.2234 4.26392L23.8108 3.23081L25.6122 5.03268L24.9718 6.5319C24.5361 6.71934 24.132 6.98313 23.7802 7.3241C23.7571 7.3467 23.7372 7.37096 23.7146 7.39411C22.3847 5.27993 20.0334 3.95161 17.5 3.95161C14.9484 3.95161 12.5905 5.29234 11.2639 7.42802C10.9088 7.05645 10.4865 6.75545 10.0185 6.54513L9.38508 5.03489ZM7.33871 15.6827V13.8949L7.057 13.732C6.18597 13.2284 5.64516 12.2923 5.64516 11.2903V10.1613C5.64516 9.39142 5.94947 8.67144 6.50269 8.13532C7.05535 7.59947 7.79021 7.31059 8.55512 7.34036C10.0632 7.38557 11.2903 8.71499 11.2903 10.3035V11.2903C11.2903 12.2923 10.749 13.2284 9.87738 13.7331L9.59512 13.8962L9.59733 15.6827L11.5343 16.1667C11.0323 16.6802 10.7258 17.3751 10.7258 18.134V18.5521L8.965 18.9435L9.01076 18.7837L9.03226 17.7404L6.05504 16.0035L7.33871 15.6827ZM1.12903 14.6774H1.54057L5.60051 17.0455L3.55193 25.2395L1.12903 24.4316V14.6774ZM5.73667 25.9677L4.62556 25.5976L6.6157 17.6378L7.90323 18.3887V18.5499L5.78409 25.9677H5.73667ZM9.59677 27.5929C9.59677 27.4264 9.66403 27.2633 9.78201 27.1453L10.7743 26.153C10.8923 26.035 11.0555 25.9677 11.222 25.9677C11.5709 25.9677 11.8548 26.2517 11.8548 26.6006C11.8548 26.7671 11.7876 26.9303 11.6696 27.0483L10.6773 28.0406C10.5593 28.1586 10.3961 28.2258 10.2296 28.2258C9.88069 28.2258 9.59677 27.9419 9.59677 27.5929ZM11.2903 29.2865C11.2903 29.12 11.3576 28.9568 11.4756 28.8388L12.4679 27.8465C12.5858 27.7285 12.749 27.6613 12.9155 27.6613C13.2645 27.6613 13.5484 27.9452 13.5484 28.2942C13.5484 28.4607 13.4811 28.6238 13.3632 28.7418L12.3708 29.7341C12.2529 29.8521 12.0897 29.9194 11.9232 29.9194C11.5742 29.9194 11.2903 29.6354 11.2903 29.2865ZM12.9839 30.98C12.9839 30.8135 13.0511 30.6504 13.1691 30.5324L14.1614 29.5401C14.2794 29.4221 14.4426 29.3548 14.6091 29.3548C14.958 29.3548 15.2419 29.6388 15.2419 29.9877C15.2419 30.1542 15.1747 30.3174 15.0567 30.4354L14.0644 31.4277C13.9464 31.5456 13.7832 31.6129 13.6167 31.6129C13.2678 31.6129 12.9839 31.329 12.9839 30.98ZM15.3103 33.3064C14.9613 33.3064 14.6774 33.0225 14.6774 32.6736C14.6774 32.5071 14.7447 32.3439 14.8627 32.2259L15.855 31.2336C15.9729 31.1156 16.1361 31.0484 16.3026 31.0484C16.6516 31.0484 16.9355 31.3323 16.9355 31.6813C16.9355 31.8477 16.8682 32.0109 16.7503 32.1289L15.7579 33.1212C15.64 33.2392 15.4768 33.3064 15.3103 33.3064ZM18.0403 33.871H17.9358C17.7919 33.871 17.6541 33.8186 17.5469 33.7235L17.1246 33.3511L17.5485 32.9272C17.6998 32.7758 17.8173 32.5958 17.9041 32.4026L18.4173 32.8299C18.5516 32.9418 18.629 33.1066 18.629 33.2822C18.629 33.6069 18.365 33.871 18.0403 33.871ZM23.1027 28.7903H23.0051C22.8635 28.7903 22.7251 28.7402 22.6168 28.6492L19.5555 26.0981L18.8322 26.9658L21.805 29.4428C21.9387 29.5547 22.0161 29.7195 22.0161 29.8951C22.0161 30.2198 21.7521 30.4839 21.4274 30.4839H21.3041C21.1672 30.4839 21.0332 30.4354 20.9276 30.3472L17.8614 27.7922L17.1381 28.6599L20.1109 31.1371C20.2451 31.2482 20.3226 31.4131 20.3226 31.5886C20.3226 31.9134 20.0585 32.1774 19.7338 32.1774C19.5172 32.1774 19.306 32.1005 19.1398 31.9624L17.8798 30.9122C17.6023 30.3449 17.032 29.9494 16.3641 29.9257C16.3316 29.0048 15.5915 28.2647 14.6705 28.2321C14.638 27.3112 13.8979 26.5711 12.977 26.5386C12.9439 25.5962 12.1721 24.8387 11.222 24.8387C10.7581 24.8387 10.3041 25.0267 9.97606 25.3547L8.98374 26.347C8.92448 26.4063 8.87542 26.4735 8.82553 26.5403L7.09146 25.4997L8.61163 20.1792L12.4227 19.3319C13.4224 19.1084 14.4765 19.1569 15.4514 19.4689L16.283 19.7349L13.4638 21.1445C12.8196 21.4673 12.4194 22.1154 12.4194 22.8359V22.9475C12.4194 23.9903 13.2678 24.8387 14.3105 24.8387C14.6532 24.8387 14.9903 24.7455 15.2833 24.5689L17.3853 23.3083C17.8076 23.0553 18.3743 23.1107 18.739 23.4387L23.5087 27.7313C23.6364 27.8471 23.7097 28.0114 23.7097 28.1834C23.7097 28.5183 23.4376 28.7903 23.1027 28.7903ZM33.871 22.2317L24.3605 26.9873C24.3296 26.9545 24.2973 26.9234 24.2634 26.8931L19.4946 22.6005C19.0767 22.2234 18.5364 22.0161 17.9736 22.0161C17.562 22.0161 17.1579 22.128 16.804 22.3403L14.7011 23.6013C14.5831 23.6725 14.4484 23.7097 14.3105 23.7097C13.8899 23.7097 13.5484 23.3682 13.5484 22.9475V22.8359C13.5484 22.5451 13.7099 22.2843 13.9696 22.1545L17.1185 20.58C17.6574 20.3102 18.2972 20.2498 18.8779 20.4169L22.4255 21.4301L23.2846 21.4516L33.871 15.8798V22.2317Z" fill="#FFCB09"/>
</g>
<defs>
<clipPath id="clip0_1953_28766">
<rect width="35" height="35" fill="white"/>
</clipPath>
</defs>
</svg>
