<svg width="35" height="35" viewBox="0 0 35 35" fill="none" xmlns="http://www.w3.org/2000/svg">
<g id="garage (1) 1" clip-path="url(#clip0_1953_28758)">
<path id="Vector" d="M30.625 25.7031C31.2691 25.7013 31.8919 25.4723 32.3836 25.0563C32.8753 24.6403 33.2044 24.064 33.3129 23.4292C33.643 23.3241 33.9312 23.117 34.1361 22.8377C34.341 22.5584 34.452 22.2213 34.4531 21.8749V20.7812C34.4517 20.4431 34.3459 20.1137 34.1501 19.838C33.9543 19.5623 33.6782 19.3539 33.3594 19.2412V18.0468H32.2656V19.2412C31.9468 19.3539 31.6707 19.5623 31.4749 19.838C31.2791 20.1137 31.1733 20.4431 31.1719 20.7812V21.8749C31.1724 22.2022 31.2708 22.5219 31.4544 22.7928C31.638 23.0637 31.8984 23.2735 32.2022 23.3953C32.1087 23.7425 31.9037 24.0494 31.6187 24.2688C31.3338 24.4881 30.9846 24.6078 30.625 24.6093H30.0781V14.7656H30.625C30.77 14.7656 30.9091 14.7079 31.0117 14.6054C31.1143 14.5028 31.1719 14.3637 31.1719 14.2187V12.0312C31.1718 11.8862 31.1142 11.7471 31.0116 11.6445L27.7304 8.3633C27.6279 8.26073 27.4888 8.2031 27.3438 8.20307H23.2827C23.5394 7.30757 23.5847 6.36469 23.4149 5.44873C23.2451 4.53276 22.8649 3.66875 22.3042 2.92478C21.7436 2.1808 21.0178 1.57721 20.1841 1.16155C19.3504 0.745894 18.4316 0.529541 17.5 0.529541C16.5684 0.529541 15.6496 0.745894 14.8159 1.16155C13.9822 1.57721 13.2564 2.1808 12.6958 2.92478C12.1351 3.66875 11.7549 4.53276 11.5851 5.44873C11.4153 6.36469 11.4606 7.30757 11.7173 8.20307H7.65625C7.51122 8.2031 7.37214 8.26073 7.26961 8.3633L3.98836 11.6445C3.88579 11.7471 3.82816 11.8862 3.82812 12.0312V14.2187C3.82812 14.3637 3.88574 14.5028 3.9883 14.6054C4.09086 14.7079 4.22996 14.7656 4.375 14.7656H4.92188V24.6093H4.375C4.01539 24.6078 3.66624 24.4881 3.38128 24.2688C3.09631 24.0494 2.89131 23.7425 2.79781 23.3953C3.1016 23.2735 3.36203 23.0637 3.54563 22.7928C3.72923 22.5219 3.82761 22.2022 3.82812 21.8749V20.7812C3.82672 20.4431 3.72089 20.1137 3.52511 19.838C3.32932 19.5623 3.05315 19.3539 2.73438 19.2412V18.0468H1.64062V19.2412C1.32185 19.3539 1.04567 19.5623 0.849892 19.838C0.654108 20.1137 0.548277 20.4431 0.546875 20.7812V21.8749C0.548026 22.2213 0.659037 22.5584 0.863934 22.8377C1.06883 23.117 1.35705 23.3241 1.68711 23.4292C1.79557 24.064 2.12467 24.6403 2.6164 25.0563C3.10812 25.4723 3.73092 25.7013 4.375 25.7031H4.92188V31.1718H1.09375C0.94871 31.1718 0.80961 31.2294 0.707051 31.332C0.604492 31.4346 0.546875 31.5737 0.546875 31.7187V33.9062C0.546875 34.0512 0.604492 34.1903 0.707051 34.2929C0.80961 34.3955 0.94871 34.4531 1.09375 34.4531H33.9062C34.0513 34.4531 34.1904 34.3955 34.2929 34.2929C34.3955 34.1903 34.4531 34.0512 34.4531 33.9062V31.7187C34.4531 31.5737 34.3955 31.4346 34.2929 31.332C34.1904 31.2294 34.0513 31.1718 33.9062 31.1718H30.0781V25.7031H30.625ZM32.2656 20.7812C32.2656 20.6362 32.3232 20.4971 32.4258 20.3945C32.5284 20.2919 32.6675 20.2343 32.8125 20.2343C32.9575 20.2343 33.0966 20.2919 33.1992 20.3945C33.3018 20.4971 33.3594 20.6362 33.3594 20.7812V21.8749C33.3594 22.02 33.3018 22.1591 33.1992 22.2616C33.0966 22.3642 32.9575 22.4218 32.8125 22.4218C32.6675 22.4218 32.5284 22.3642 32.4258 22.2616C32.3232 22.1591 32.2656 22.02 32.2656 21.8749V20.7812ZM1.64062 20.7812C1.64062 20.6362 1.69824 20.4971 1.8008 20.3945C1.90336 20.2919 2.04246 20.2343 2.1875 20.2343C2.33254 20.2343 2.47164 20.2919 2.5742 20.3945C2.67676 20.4971 2.73438 20.6362 2.73438 20.7812V21.8749C2.73438 22.02 2.67676 22.1591 2.5742 22.2616C2.47164 22.3642 2.33254 22.4218 2.1875 22.4218C2.04246 22.4218 1.90336 22.3642 1.8008 22.2616C1.69824 22.1591 1.64062 22.02 1.64062 21.8749V20.7812ZM4.92188 13.6718V12.5781H30.0781V13.6718H4.92188ZM27.1173 9.29682L29.3048 11.4843H20.948C21.7506 10.9203 22.4039 10.1695 22.8517 9.29682H27.1173ZM17.5 1.64057C18.4735 1.64057 19.4251 1.92923 20.2344 2.47005C21.0438 3.01087 21.6747 3.77957 22.0472 4.67892C22.4197 5.57828 22.5172 6.5679 22.3273 7.52265C22.1374 8.4774 21.6686 9.35439 20.9803 10.0427C20.292 10.7311 19.415 11.1998 18.4602 11.3897C17.5055 11.5797 16.5158 11.4822 15.6165 11.1097C14.7171 10.7371 13.9484 10.1063 13.4076 9.29689C12.8668 8.48749 12.5781 7.5359 12.5781 6.56244C12.5797 5.25757 13.0988 4.00659 14.0215 3.08391C14.9442 2.16122 16.1951 1.64216 17.5 1.64057ZM7.88266 9.29682H12.1483C12.5969 10.1698 13.2512 10.9206 14.0547 11.4843H5.69516L7.88266 9.29682ZM33.3594 33.3593H1.64062V32.2656H33.3594V33.3593ZM10.3906 23.5156H24.6094V24.6093H10.3906V23.5156ZM10.3906 25.7031H24.6094V26.7968H10.3906V25.7031ZM9.29688 20.2343V19.1406H25.7031V20.2343H9.29688ZM24.6094 21.3281V22.4218H10.3906V21.3281H24.6094ZM10.3906 27.8906H24.6094V31.1718H10.3906V27.8906ZM25.7031 31.1718V21.3281H26.25C26.395 21.3281 26.5341 21.2705 26.6367 21.1679C26.7393 21.0653 26.7969 20.9262 26.7969 20.7812V18.5937C26.7969 18.4487 26.7393 18.3096 26.6367 18.207C26.5341 18.1044 26.395 18.0468 26.25 18.0468H8.75C8.60496 18.0468 8.46586 18.1044 8.3633 18.207C8.26074 18.3096 8.20312 18.4487 8.20312 18.5937V20.7812C8.20312 20.9262 8.26074 21.0653 8.3633 21.1679C8.46586 21.2705 8.60496 21.3281 8.75 21.3281H9.29688V31.1718H6.01562V14.7656H28.9844V31.1718H25.7031Z" fill="#FFCB09"/>
<path id="Vector_2" d="M16.9531 8.75V7.65625H15.5389L16.4062 6.78891C16.5802 6.61599 16.7182 6.41027 16.812 6.18365C16.9059 5.95704 16.9539 5.71404 16.9531 5.46875C16.9531 5.03363 16.7803 4.61633 16.4726 4.30865C16.1649 4.00098 15.7476 3.82812 15.3125 3.82812C14.8774 3.82812 14.4601 4.00098 14.1524 4.30865C13.8447 4.61633 13.6719 5.03363 13.6719 5.46875H14.7656C14.7656 5.32371 14.8232 5.18461 14.9258 5.08205C15.0284 4.97949 15.1675 4.92188 15.3125 4.92188C15.4575 4.92188 15.5966 4.97949 15.6992 5.08205C15.8018 5.18461 15.8594 5.32371 15.8594 5.46875C15.8588 5.67372 15.7774 5.8702 15.633 6.01562L13.8321 7.81648C13.7557 7.89297 13.7036 7.9904 13.6825 8.09647C13.6614 8.20254 13.6722 8.31248 13.7136 8.41239C13.755 8.5123 13.8251 8.5977 13.915 8.6578C14.0049 8.71789 14.1106 8.74998 14.2187 8.75H16.9531Z" fill="#FFCB09"/>
<path id="Vector_3" d="M18.047 8.203H19.6876V8.74988H20.7813V8.203H21.3282V7.10925H20.7813V4.37488C20.7814 4.2575 20.7436 4.14323 20.6737 4.04895C20.6038 3.95468 20.5053 3.8854 20.393 3.85137C20.2807 3.81734 20.1604 3.82035 20.0499 3.85997C19.9394 3.89959 19.8446 3.9737 19.7795 4.07136L17.592 7.35261C17.537 7.43497 17.5054 7.53071 17.5006 7.6296C17.4958 7.72849 17.518 7.82683 17.5647 7.91413C17.6114 8.00142 17.6809 8.0744 17.7659 8.12528C17.8508 8.17616 17.9479 8.20302 18.047 8.203ZM19.6876 6.17957V7.10925H19.0691L19.6876 6.17957Z" fill="#FFCB09"/>
</g>
<defs>
<clipPath id="clip0_1953_28758">
<rect width="35" height="35" fill="white"/>
</clipPath>
</defs>
</svg>
