<svg width="35" height="35" viewBox="0 0 35 35" fill="none" xmlns="http://www.w3.org/2000/svg">
<g id="shield (2) 1" clip-path="url(#clip0_1953_28772)">
<g id="Group">
<path id="Vector" d="M32.2671 9.85446V8.21383C32.2671 8.01265 32.1566 7.82767 31.9794 7.73231L17.7586 0.0760596C17.5967 -0.0110303 17.4019 -0.0110303 17.24 0.0760596L7.94531 5.08174L8.46395 6.04472L17.4994 1.1787L31.1734 8.54052V9.85446H32.2671Z" fill="#FFCB09"/>
<path id="Vector_2" d="M3.02196 7.73236C2.84484 7.82779 2.73438 8.0127 2.73438 8.21382V9.85444H3.82812V8.54044L7.60245 6.50784L7.08381 5.54486L3.02196 7.73236Z" fill="#FFCB09"/>
<path id="Vector_3" d="M1.64062 16.9638C1.33861 16.9638 1.09375 17.2086 1.09375 17.5106V18.7639C1.09375 18.8972 1.14242 19.0258 1.23061 19.1258C1.92746 19.9152 2.85264 20.4537 3.86333 20.6766C5.31173 24.9139 8.1215 28.636 11.805 31.1859L17.1895 34.9134C17.2832 34.9782 17.392 35.0106 17.5008 35.0106C17.6096 35.0106 17.7185 34.9782 17.8121 34.9134L23.196 31.1859L22.5734 30.2867L17.5008 33.7986L12.4276 30.2866C9.07129 27.9632 6.48006 24.6133 5.06447 20.7898C6.65458 20.7433 8.13224 19.9221 9.01476 18.6044H11.6523L13.125 22.5317V26.2606H14.2188V22.4325C14.2188 22.367 14.207 22.3019 14.184 22.2405L12.5781 17.9583V16.1434C12.5781 15.6911 12.9461 15.3231 13.3984 15.3231H19.6875C19.6875 16.5293 18.7062 17.5106 17.5 17.5106H15.8594C15.6644 17.5106 15.4842 17.6144 15.3864 17.783C15.2886 17.9516 15.2879 18.1596 15.3846 18.3288L17.1218 21.3688C17.3693 21.802 17.5001 22.2946 17.5001 22.7933V24.0731H18.5938V22.7933C18.5938 22.1045 18.4131 21.4243 18.0714 20.8262L16.8018 18.6044H17.5C18.4451 18.6044 19.2981 18.2028 19.8974 17.5612C20.2149 18.18 20.8596 18.6044 21.6016 18.6044C21.8365 18.6044 22.0617 18.5618 22.2698 18.484L21.6246 20.6347L22.6722 20.949L23.3756 18.6044H25.9852C26.8679 19.9222 28.3458 20.7436 29.9362 20.7898C28.6843 24.1826 26.5465 27.1581 23.7198 29.4306L24.4051 30.283C27.5227 27.7766 29.846 24.4596 31.137 20.6764C32.1475 20.4535 33.0726 19.9151 33.7694 19.1257C33.8576 19.0258 33.9062 18.8971 33.9062 18.7638V17.5106C33.9062 17.2086 33.6614 16.9637 33.3594 16.9637H30.3708L29.6416 15.8699L30.3708 14.7762H33.3594C33.6614 14.7762 33.9062 14.5313 33.9062 14.2293V12.9761C33.9062 12.8428 33.8576 12.7141 33.7694 12.6142C32.8349 11.5553 31.4894 10.948 30.0781 10.948C28.4341 10.948 26.8941 11.7785 25.9852 13.1355H23.5156V12.3152C23.5156 11.2598 22.657 10.4011 21.6016 10.4011C21.2712 10.4011 20.9602 10.4852 20.6888 10.6331C20.44 9.86464 19.7174 9.30737 18.8672 9.30737C18.573 9.30737 18.2941 9.37409 18.0448 9.49317C17.9989 8.47824 17.1588 7.66675 16.1328 7.66675C15.4485 7.66675 14.8469 8.02769 14.5085 8.56923C14.1952 8.34542 13.8119 8.21362 13.3984 8.21362C12.343 8.21362 11.4844 9.07229 11.4844 10.1277V13.1355H9.01476C8.10592 11.7785 6.56592 10.948 4.92188 10.948C3.51053 10.948 2.16515 11.5553 1.23061 12.6142C1.14242 12.7141 1.09375 12.8428 1.09375 12.9761V14.2293C1.09375 14.5313 1.33861 14.7762 1.64062 14.7762H4.62923L5.35842 15.8699L4.62923 16.9637H1.64062V16.9638ZM23.5156 14.2294H26.2884C26.4836 14.2294 26.6641 14.1253 26.7618 13.9564C27.4449 12.7755 28.7157 12.0419 30.0781 12.0419C31.1087 12.0419 32.0942 12.4583 32.8125 13.1909V13.6825H30.0781C29.8953 13.6825 29.7245 13.7739 29.6231 13.926L28.5294 15.5666C28.4069 15.7503 28.4069 15.9896 28.5294 16.1733L29.6231 17.8139C29.7245 17.9661 29.8953 18.0574 30.0781 18.0574H32.8125V18.549C32.0942 19.2816 31.1087 19.6981 30.0781 19.6981C28.7157 19.6981 27.4449 18.9645 26.7618 17.7836C26.6641 17.6146 26.4837 17.5106 26.2884 17.5106H23.5156V14.2294ZM20.7812 12.3153C20.7812 11.863 21.1492 11.495 21.6016 11.495C22.0539 11.495 22.4219 11.863 22.4219 12.3153V16.6903C22.4219 17.1427 22.0539 17.5106 21.6016 17.5106C21.1492 17.5106 20.7812 17.1427 20.7812 16.6903V12.3153ZM18.0469 11.2216C18.0469 10.7692 18.4149 10.4013 18.8672 10.4013C19.3195 10.4013 19.6875 10.7692 19.6875 11.2216V14.2294H18.0469V11.2216ZM15.3125 9.58095C15.3125 9.12861 15.6805 8.76063 16.1328 8.76063C16.5851 8.76063 16.9531 9.12861 16.9531 9.58095V14.2294H15.3125V9.58095ZM12.5781 10.1278C12.5781 9.67549 12.9461 9.30751 13.3984 9.30751C13.8508 9.30751 14.2188 9.67549 14.2188 10.1278V14.2294H13.3984C13.105 14.2294 12.8269 14.2958 12.5781 14.4142V10.1278ZM5.37687 17.814L6.47062 16.1734C6.59312 15.9897 6.59312 15.7504 6.47062 15.5667L5.37687 13.9261C5.2755 13.7739 5.10474 13.6826 4.92188 13.6826H2.1875V13.191C2.90582 12.4584 3.89129 12.042 4.92188 12.042C6.28435 12.042 7.55508 12.7755 8.23819 13.9564C8.33595 14.1254 8.51635 14.2295 8.71158 14.2295H11.4844V17.5107H8.71158C8.51642 17.5107 8.33595 17.6147 8.23819 17.7837C7.55508 18.9646 6.28435 19.6981 4.92188 19.6981C3.89129 19.6981 2.90582 19.2817 2.1875 18.5491V18.0575H4.92188C5.10474 18.0575 5.2755 17.9661 5.37687 17.814Z" fill="#FFCB09"/>
<path id="Vector_4" d="M21.8749 23.6064L22.3441 22.0427L21.2965 21.7284L20.8043 23.369C20.789 23.42 20.7812 23.4729 20.7812 23.5262V26.2606H21.875V23.6064H21.8749Z" fill="#FFCB09"/>
<path id="Vector_5" d="M13.9801 28.0948C11.4288 26.3371 9.3995 23.9222 8.11154 21.111L7.11719 21.5666C8.48725 24.557 10.6458 27.1259 13.3595 28.9955L17.1875 31.6329C17.2809 31.6972 17.3893 31.7294 17.4978 31.7294C17.6063 31.7294 17.7147 31.6972 17.8081 31.6328L21.6355 28.9955C24.3491 27.1258 26.5075 24.5569 27.8774 21.5665L26.883 21.111C25.5953 23.9221 23.5661 26.337 21.0149 28.0949L17.4978 30.5184L13.9801 28.0948Z" fill="#FFCB09"/>
<path id="Vector_6" d="M6.2699 10.3488L17.4983 4.45672L28.7305 10.3491L29.2387 9.38051L17.7524 3.35484C17.5933 3.27137 17.4034 3.27137 17.2442 3.35484L5.76172 9.3803L6.2699 10.3488Z" fill="#FFCB09"/>
</g>
</g>
<defs>
<clipPath id="clip0_1953_28772">
<rect width="35" height="35" fill="white"/>
</clipPath>
</defs>
</svg>
