<svg width="16" height="16" viewBox="0 0 16 16" fill="none" xmlns="http://www.w3.org/2000/svg">
<path fill-rule="evenodd" clip-rule="evenodd" d="M8.0026 13.3336C6.76493 13.3336 5.57794 12.8419 4.70277 11.9667C3.8276 11.0916 3.33594 9.90458 3.33594 8.6669C3.33594 7.42922 3.8276 6.24224 4.70277 5.36707C5.57794 4.4919 6.76493 4.00023 8.0026 4.00023C9.24028 4.00023 10.4273 4.4919 11.3024 5.36707C12.1776 6.24224 12.6693 7.42922 12.6693 8.6669C12.6693 9.90458 12.1776 11.0916 11.3024 11.9667C10.4273 12.8419 9.24028 13.3336 8.0026 13.3336ZM7.33594 5.33357H8.33594V8.83357L11.0026 10.4136L10.5026 11.2336L7.33594 9.33357V5.33357Z" fill="white"/>
<path fill-rule="evenodd" clip-rule="evenodd" d="M5.25594 2.26023L4.4026 1.24023L1.33594 3.8069L2.19594 4.8269L5.25594 2.26023ZM14.6693 3.81357L11.6026 1.24023L10.7426 2.26023L13.8093 4.83357L14.6693 3.81357Z" fill="white"/>
<path fill-rule="evenodd" clip-rule="evenodd" d="M8.0026 3.00033C6.41131 3.00033 5.12782 3.54177 4.0026 4.66699C2.87739 5.79221 2.33594 7.0756 2.33594 8.6669C2.33594 10.2582 2.87739 11.5418 4.0026 12.667C5.12782 13.7922 6.41131 14.3337 8.0026 14.3337C9.5939 14.3337 10.8774 13.7922 12.0026 12.667C13.1278 11.5418 13.6693 10.2583 13.6693 8.66699C13.6693 7.07569 13.1278 5.79221 12.0026 4.66699C10.8774 3.54177 9.5939 3.00033 8.0026 3.00033ZM4.70277 11.9667C5.57794 12.8419 6.76493 13.3336 8.0026 13.3336C9.24028 13.3336 10.4273 12.8419 11.3024 11.9667C12.1776 11.0916 12.6693 9.90458 12.6693 8.6669C12.6693 7.42922 12.1776 6.24224 11.3024 5.36707C10.4273 4.4919 9.24028 4.00023 8.0026 4.00023C6.76493 4.00023 5.57794 4.4919 4.70277 5.36707C3.8276 6.24224 3.33594 7.42922 3.33594 8.6669C3.33594 9.90458 3.8276 11.0916 4.70277 11.9667Z" fill="white"/>
</svg>
