<svg width="35" height="35" viewBox="0 0 35 35" fill="none" xmlns="http://www.w3.org/2000/svg">
<g clip-path="url(#clip0_1922_23511)">
<path fill-rule="evenodd" clip-rule="evenodd" d="M13.3652 0.00684466C23.7012 8.71951e-06 25.4307 0.0136806 25.6357 0.0957118C25.7656 0.150399 25.998 0.280282 26.1484 0.389657C26.3125 0.512704 26.4971 0.731454 26.7979 1.33302V12.9541L26.6406 13.1113C26.5404 13.2116 26.4105 13.264 26.251 13.2686C26.0801 13.2686 25.9639 13.2139 25.6699 12.9063L25.6562 7.25977C25.6426 2.88477 25.6152 1.57227 25.5537 1.44923C25.5059 1.3672 25.3896 1.26466 25.2939 1.23048C25.1846 1.18263 21.0352 1.16895 1.49121 1.1963L1.16309 1.57227V33.4277L1.57324 33.8379H13.3652C23.708 33.8379 25.1846 33.8242 25.3623 33.7354C25.4717 33.6807 25.5811 33.5645 25.6016 33.4756C25.6221 33.3936 25.6426 31.9512 25.6699 27.2207L25.8408 27.043C25.9639 26.9131 26.0801 26.8652 26.251 26.8652C26.4014 26.8652 26.5449 26.9268 26.8047 27.1729L26.7979 33.667L26.6338 34.0088C26.5381 34.1934 26.3945 34.419 26.3057 34.501C26.2168 34.583 26.0049 34.7266 25.499 35H1.36816L1.08105 34.8565C0.916992 34.7744 0.68457 34.6172 0.561523 34.4941C0.431641 34.3779 0.267578 34.1592 0.0351562 33.7354V1.26466L0.185547 0.99122C0.267578 0.840829 0.431641 0.622079 0.561523 0.499032C0.68457 0.382821 0.910156 0.225595 1.06055 0.150399C1.32715 0.0136806 1.51172 0.0136806 13.3652 0.00684466ZM33.2236 7.04102C33.5654 7.04102 33.75 7.08204 34.0098 7.20509C34.2012 7.30079 34.4199 7.44434 34.502 7.53321C34.584 7.62208 34.7275 7.83399 34.8232 8.01173C34.96 8.26466 35.001 8.43556 35.001 8.76368C35.001 9.13282 34.96 9.2627 34.7275 9.68653C34.4541 10.1856 34.4541 10.1856 34.5908 10.3018C34.6797 10.3838 34.7344 10.5068 34.7275 10.6436C34.7275 10.8008 34.502 11.2588 33.2236 13.4668L33.6543 13.7402C33.8867 13.8906 34.1602 14.1299 34.2559 14.2666C34.3516 14.4102 34.4678 14.6358 34.5156 14.7656C34.5566 14.8955 34.5908 15.1279 34.5908 15.2783C34.5908 15.4287 34.5566 15.6611 34.5225 15.791C34.4814 15.9209 33.9004 16.9805 33.2305 18.1494C32.5537 19.3115 31.9658 20.3027 31.9111 20.3506C31.8633 20.3984 31.7197 20.4531 31.6035 20.4736C31.4121 20.501 31.3438 20.4736 31.1592 20.2822C30.9814 20.1045 30.9541 20.0225 30.9814 19.8584C31.002 19.749 31.5625 18.7168 32.2256 17.5684C33.0459 16.1465 33.4287 15.415 33.4287 15.2783C33.4287 15.1621 33.3809 15.0049 33.3262 14.916C33.2715 14.834 33.1006 14.7041 32.9502 14.6289C32.7998 14.5537 32.6631 14.499 32.6494 14.5059C32.6357 14.5195 31.5078 16.4609 27.666 23.1397L26.6338 24.3838C26.0664 25.0742 25.4102 25.9356 25.1777 26.2979C24.9385 26.667 24.665 27.0567 24.5625 27.166C24.4531 27.2754 24.2002 27.4463 23.9951 27.5352C23.6943 27.6719 23.5439 27.6992 22.8672 27.6445L22.1631 28.5332C21.7734 29.0254 21.3564 29.4971 21.2402 29.5791C21.1172 29.6611 20.8984 29.75 20.748 29.7705C20.5658 29.8024 20.3835 29.7842 20.2012 29.7158C20.0508 29.6543 19.8525 29.5244 19.7568 29.415C19.6611 29.3125 19.4902 28.9981 19.3809 28.7246C19.2646 28.4512 19.1621 28.2256 19.1416 28.2324C19.1211 28.2324 19.0117 28.3623 18.9023 28.5195C18.7861 28.6836 18.5811 28.8682 18.4375 28.9297C18.3008 28.9981 18.0752 29.0527 17.9453 29.0527C17.8154 29.0527 17.6035 29.0117 17.4873 28.957C17.3643 28.9092 17.1934 28.793 17.1113 28.7041C17.0293 28.6152 16.9199 28.4307 16.8652 28.3008C16.8105 28.1709 16.7217 27.5762 16.6738 26.9815C16.6123 26.332 16.5508 25.915 16.5098 25.9287C16.4756 25.9424 16.1406 26.8789 15.7783 28C15.4092 29.1211 15.0537 30.0986 14.9922 30.1602C14.9238 30.2217 14.7939 30.29 14.6982 30.3174C14.5889 30.3379 14.4453 30.3037 14.3086 30.2149C14.1787 30.1397 14.0625 29.9961 14.0352 29.8867C14.001 29.75 14.1924 29.1143 14.7666 27.3779C15.3135 25.7578 15.6006 24.9922 15.7236 24.8555C15.8193 24.7461 15.9971 24.6162 16.1201 24.5615C16.2363 24.5137 16.4688 24.4727 16.6328 24.4727C16.8174 24.4727 17.002 24.5274 17.1592 24.6299C17.2891 24.7188 17.4668 24.8965 17.5488 25.0264C17.6787 25.2246 17.7197 25.4502 17.8154 26.4893C17.877 27.166 17.9453 27.7334 17.9658 27.7539C17.9795 27.7744 18.0137 27.7402 18.0342 27.6856C18.0547 27.6309 18.1914 27.4531 18.3486 27.3027C18.5195 27.125 18.7178 26.9951 18.8682 26.9678C18.998 26.9404 19.2236 26.9404 19.3672 26.9609C19.5176 26.9815 19.7227 27.0977 19.8799 27.2275C20.0508 27.3848 20.208 27.6445 20.3721 28.0205C20.502 28.3281 20.6318 28.5537 20.6523 28.5264C20.6729 28.499 20.96 28.1436 21.876 27.002L21.7393 26.6602C21.6572 26.4483 21.6025 26.1611 21.6025 25.9082C21.6025 25.5391 21.6436 25.4229 22.0059 24.7256C22.2314 24.3086 22.6895 23.2217 23.6396 20.6787L28.5752 12.1338L28.2812 11.9561C28.124 11.8604 27.96 11.7373 27.9121 11.6826C27.8711 11.6279 27.8301 11.5254 27.8164 11.4502C27.8027 11.375 27.8164 11.2315 27.8438 11.1221C27.8779 10.9922 27.9668 10.9033 28.1514 10.8281C28.3975 10.7256 28.418 10.7324 28.7803 10.9102C29.1426 11.0879 29.1562 11.0879 29.2451 10.9649C29.293 10.8965 29.6484 10.3018 30.0312 9.64552C30.4141 8.9961 30.79 8.42872 30.8652 8.3877C30.9404 8.35352 31.1045 8.33302 31.2275 8.34669C31.4326 8.37403 31.4668 8.34669 31.6445 8.03224C31.7539 7.84083 31.9316 7.60841 32.0342 7.50587C32.1436 7.40333 32.3555 7.25977 32.5059 7.18458C32.6904 7.08888 32.9229 7.04786 33.2236 7.04102ZM32.6357 8.65431C32.5264 8.81837 32.4512 8.96876 32.4717 8.98243C32.4922 8.9961 32.7041 9.11915 32.9502 9.25587C33.1963 9.39259 33.4287 9.49513 33.4629 9.48145C33.5039 9.46778 33.6064 9.30372 33.6953 9.11915C33.7979 8.90724 33.8389 8.7295 33.8115 8.62696C33.791 8.54493 33.709 8.41505 33.6338 8.33985C33.5518 8.25782 33.4082 8.20313 33.2783 8.20313C33.1553 8.20313 33.0049 8.23731 32.9434 8.27833C32.8818 8.31251 32.7451 8.48341 32.6357 8.65431ZM30.2363 11.7168C30.2432 11.7305 30.6875 11.9971 31.2275 12.3115C31.7607 12.626 32.2119 12.8721 32.2256 12.8516C32.2393 12.8311 32.5059 12.3799 32.8203 11.8399C33.1348 11.3066 33.3809 10.8555 33.3604 10.8418C33.3398 10.8281 32.8955 10.5684 32.3691 10.2676C31.8428 9.95997 31.3984 9.70704 31.3779 9.70704C31.3574 9.70704 31.0908 10.1514 30.7764 10.6983C30.4688 11.2451 30.2227 11.7031 30.2363 11.7168ZM29.4434 13.0088C29.3477 13.166 28.3018 14.9775 27.1123 17.0352C25.9229 19.0996 24.959 20.7949 24.9727 20.8018C24.9795 20.8154 25.4307 21.082 25.9775 21.3897C26.7363 21.8272 26.9824 21.9365 27.0166 21.8682C27.0508 21.8135 28.083 20.0225 29.3271 17.876C30.5645 15.7295 31.583 13.9522 31.583 13.9111C31.583 13.8701 31.2959 13.6787 30.9473 13.4873C30.6055 13.2891 30.1611 13.0361 29.9629 12.9199L29.6074 12.7217L29.4434 13.0088ZM24.0361 23.0029C23.8242 23.5635 23.6533 24.042 23.6533 24.0625C23.6533 24.083 23.7422 24.1445 23.8447 24.1992C23.9473 24.2608 24.2002 24.4043 24.4053 24.5205L24.7812 24.7393C25.9229 23.3652 26.2441 22.9414 26.2305 22.9141C26.2168 22.8867 25.9297 22.709 25.5947 22.5176C25.2598 22.3193 24.877 22.0938 24.7402 22.0186C24.6035 21.9365 24.4805 21.8887 24.46 21.9229C24.4395 21.9502 24.248 22.4356 24.0361 23.0029ZM22.8193 25.9766C22.8193 26.1406 22.874 26.2568 22.9971 26.3662C23.0996 26.4551 23.2637 26.5234 23.3662 26.5234C23.4688 26.5234 23.6191 26.4756 23.708 26.4209C23.79 26.3662 23.9199 26.1953 23.9951 26.0449C24.0703 25.8945 24.1318 25.7578 24.1318 25.7373C24.1318 25.7168 23.9336 25.5938 23.6875 25.4639C23.4482 25.334 23.2158 25.2246 23.1816 25.2246C23.1475 25.2246 23.0518 25.3408 22.9697 25.4775C22.8809 25.6211 22.8125 25.8399 22.8193 25.9766ZM13.3652 3.48634C19.333 3.48634 21.0078 3.50001 21.1924 3.56837C21.3496 3.62989 21.4521 3.72559 21.5137 3.87599C21.5615 3.99903 21.582 4.15626 21.5615 4.21778C21.5342 4.28614 21.4521 4.40919 21.2266 4.64845H6.42676V5.81056H13.6934C19.3877 5.80372 21.0078 5.82423 21.1924 5.89259C21.3496 5.95411 21.4521 6.04981 21.5137 6.2002C21.5615 6.32325 21.582 6.48048 21.5615 6.542C21.5342 6.61036 21.4521 6.73341 21.2266 6.97266H5.60645L5.43555 6.80177C5.26465 6.63087 5.26465 6.63087 5.26465 5.27735C5.26465 4.14942 5.28516 3.90333 5.37402 3.77345C5.43555 3.68458 5.55176 3.58204 5.63379 3.5547C5.71582 3.52052 9.19531 3.49317 13.3652 3.48634ZM7.34277 8.20313H19.4834L19.6543 8.37403C19.7637 8.47657 19.8252 8.62013 19.8252 8.75001C19.8252 8.86622 19.7568 9.03028 19.4971 9.33106L13.5977 9.35157C9.6123 9.36524 7.60938 9.34474 7.43848 9.29688C7.24023 9.2422 7.1582 9.17384 7.07617 8.98927C7.02148 8.85938 6.99414 8.69532 7.02148 8.62696C7.04199 8.56544 7.12402 8.44239 7.20605 8.35352L7.34277 8.20313ZM22.9629 12.2705L23.1406 12.4414C23.2568 12.5576 23.3184 12.6875 23.3115 12.8379C23.3115 12.9815 23.25 13.1182 22.9766 13.3984L16.3594 13.4053C9.81055 13.4053 9.74219 13.4053 9.55762 13.2686C9.40723 13.1592 9.36621 13.0703 9.36621 12.8721C9.37305 12.7285 9.40723 12.5645 9.45508 12.4961C9.50293 12.4346 9.61914 12.3457 9.71484 12.3115C9.81738 12.2705 12.3193 12.25 22.9629 12.2705ZM16.5371 15.7568L16.7148 15.9277C16.8379 16.0508 16.8926 16.1738 16.8926 16.3379C16.8926 16.5088 16.8379 16.6318 16.5371 16.919H4.43066L4.2666 16.7344C4.17773 16.6318 4.10254 16.4609 4.10254 16.3584C4.10254 16.2559 4.16406 16.085 4.23926 15.9824C4.32129 15.8867 4.45117 15.791 4.5332 15.7705C4.61523 15.7568 7.34961 15.7432 16.5371 15.7568ZM22.9834 15.7568L23.1475 15.9483C23.2432 16.0576 23.3115 16.2217 23.3115 16.3379C23.3115 16.4609 23.2432 16.625 22.9834 16.919H18.4717L18.2939 16.7481C18.1641 16.6318 18.1162 16.5088 18.1162 16.3379C18.1162 16.1784 18.1663 16.0508 18.2666 15.9551C18.3555 15.8731 18.4854 15.791 18.5605 15.7705C18.6357 15.75 19.6611 15.7432 22.9834 15.7568ZM10.665 18.6621L10.8701 18.8672C11 18.9971 11.0752 19.1475 11.082 19.2637C11.082 19.3731 11.0068 19.5234 10.7129 19.8242H4.44434L4.27344 19.6533C4.15951 19.5394 4.10254 19.4095 4.10254 19.2637C4.10938 19.1406 4.14355 18.9902 4.19141 18.9356C4.23926 18.874 4.33496 18.792 4.41016 18.7442C4.50586 18.6895 5.43555 18.669 10.665 18.6621ZM14.8691 18.669C16.4141 18.669 17.0361 18.6895 17.1592 18.751C17.248 18.7988 17.3711 18.915 17.4258 19.0039C17.4805 19.1133 17.5078 19.25 17.4805 19.3662C17.4531 19.4688 17.3643 19.6123 17.2822 19.6875C17.1318 19.8242 17.0361 19.8311 14.9033 19.8311C12.8389 19.8311 12.668 19.8242 12.5107 19.7012C12.415 19.6328 12.3193 19.4961 12.292 19.3936C12.2555 19.2705 12.2738 19.1475 12.3467 19.0244C12.4014 18.9219 12.5176 18.7988 12.5996 18.751C12.7158 18.6895 13.2832 18.669 14.8691 18.669ZM7.28125 22.7705C7.58203 22.7705 8.02637 22.8115 8.27246 22.8594C8.51855 22.9141 8.94922 23.0508 9.22949 23.167C9.50977 23.2832 9.89941 23.4951 10.084 23.6387C10.3369 23.8301 10.4326 23.9531 10.4463 24.1035C10.46 24.2129 10.4531 24.3701 10.4326 24.459C10.4053 24.5547 10.2959 24.6504 10.1387 24.7188C9.89941 24.8145 9.86523 24.8145 9.63965 24.6914C9.50977 24.6231 9.21582 24.4658 8.99023 24.3496C8.76465 24.2334 8.38184 24.0899 8.13574 24.0352C7.88965 23.9736 7.50684 23.9326 7.28125 23.9326C7.05566 23.9326 6.67285 23.9736 6.42676 24.0352C6.18066 24.0899 5.78418 24.2402 5.53809 24.3565C5.25781 24.4932 4.92969 24.7393 4.64941 25.0195C4.40332 25.2656 4.10938 25.6484 3.99316 25.874C3.87695 26.0996 3.71973 26.4551 3.65137 26.6602C3.56934 26.9131 3.52832 27.2481 3.52832 27.6856C3.52832 28.1709 3.5625 28.458 3.67188 28.8135C3.75391 29.0801 3.93848 29.4766 4.08887 29.7022C4.23242 29.9277 4.47168 30.2354 4.62207 30.3858C4.76562 30.5293 5.07324 30.7754 5.29883 30.919C5.52441 31.0625 5.92773 31.2471 6.1875 31.3291C6.54297 31.4385 6.83691 31.4795 7.31543 31.4795C7.75293 31.4727 8.08789 31.4317 8.34082 31.3496C8.5459 31.2813 8.90137 31.1309 9.12695 31.0147C9.35254 30.8916 9.73535 30.5977 9.98145 30.3516C10.2617 30.0713 10.5078 29.7432 10.6445 29.4629C10.7676 29.2236 10.9111 28.8203 10.9658 28.5742C11.0273 28.335 11.0752 28 11.0752 27.8428C11.0752 27.6309 11.123 27.4942 11.2461 27.3438C11.3691 27.1934 11.4785 27.1387 11.6426 27.1387C11.793 27.1387 11.9229 27.1934 12.0596 27.3233C12.251 27.5147 12.2578 27.5283 12.2168 28.0957C12.1963 28.458 12.1143 28.8887 11.998 29.2236C11.9023 29.5244 11.6973 29.9893 11.54 30.249C11.3828 30.5225 11.0273 30.96 10.7266 31.2607C10.2754 31.6982 10.0703 31.8418 9.48926 32.1221C9.09961 32.3066 8.61426 32.4981 8.40918 32.5527C8.2041 32.6006 7.69824 32.6416 7.28125 32.6416C6.70703 32.6416 6.40625 32.6006 5.98242 32.4844C5.68164 32.3955 5.2373 32.2178 4.99121 32.0947C4.74512 31.9649 4.37598 31.7188 4.1709 31.5479C3.96582 31.3838 3.65137 31.0693 3.47363 30.8506C3.28906 30.6318 3.04297 30.2559 2.91309 30.0098C2.7832 29.7705 2.60547 29.3193 2.52344 29.0186C2.39355 28.5879 2.36621 28.3145 2.36621 27.7197C2.37305 27.2481 2.41406 26.8037 2.48926 26.5234C2.55078 26.2842 2.71484 25.8535 2.84473 25.5664C2.98145 25.2861 3.2207 24.8897 3.37793 24.6777C3.54199 24.4727 3.83594 24.1582 4.04102 23.9873C4.24609 23.8096 4.56738 23.5772 4.75195 23.4678C4.94336 23.3584 5.26465 23.2012 5.46973 23.1192C5.6748 23.0303 6.04395 22.9209 6.29004 22.8731C6.53613 22.8184 6.98047 22.7774 7.28125 22.7705ZM9.55762 25.9834C9.56445 25.9834 9.67383 26.0176 9.79688 26.0654C9.94043 26.127 10.0498 26.2363 10.1045 26.3731C10.1729 26.5508 10.1729 26.6328 10.0908 26.8174C10.043 26.9404 9.50977 27.5215 8.91504 28.1094C8.32031 28.6973 7.73926 29.2168 7.62305 29.2578C7.51367 29.3057 7.29492 29.3399 7.14453 29.3399C6.99414 29.3399 6.76172 29.2988 6.63184 29.2373C6.50195 29.1758 6.06445 28.7861 5.66113 28.376C5.03223 27.7334 4.92285 27.583 4.92285 27.3984C4.91602 27.2481 4.97754 27.1113 5.10059 26.9883C5.22363 26.8584 5.35352 26.7969 5.49707 26.8037C5.6748 26.8037 5.8252 26.9199 7.10352 28.1983L8.21777 27.1318C8.83301 26.5508 9.37988 26.0518 9.43457 26.0313C9.48926 26.0039 9.54395 25.9834 9.55762 25.9834Z" fill="#FFCB09"/>
</g>
<defs>
<clipPath id="clip0_1922_23511">
<rect width="35" height="35" fill="white"/>
</clipPath>
</defs>
</svg>
