<svg width="35" height="35" viewBox="0 0 35 35" fill="none" xmlns="http://www.w3.org/2000/svg">
<g clip-path="url(#clip0_1922_23506)">
<path fill-rule="evenodd" clip-rule="evenodd" d="M21.6364 0.00681681L21.903 0.191387C22.0533 0.293926 22.2242 0.485332 22.2926 0.615215C22.361 0.745098 22.443 1.08689 22.525 1.90037L23.0377 1.92772C23.3932 1.94822 23.6256 1.99607 23.7897 2.09861C23.9196 2.17381 24.1041 2.35838 24.193 2.50193C24.316 2.69334 24.3707 2.90525 24.4391 3.75975H24.8834C25.1637 3.75975 25.4303 3.8076 25.6012 3.88279C25.7516 3.95115 25.9703 4.12889 26.2848 4.53221L26.3258 7.75877L27.0572 7.80662C27.4606 7.83396 28.0006 7.89549 28.2672 7.95701C28.5338 8.0117 28.944 8.12107 29.1901 8.20311C29.4362 8.29197 29.8805 8.46971 30.1813 8.60643C30.4821 8.74998 30.9742 9.02342 31.275 9.2285C31.5758 9.43357 32.0817 9.85057 32.403 10.1582C32.7242 10.4658 33.1823 10.9853 33.4147 11.3203C33.6539 11.6553 33.9821 12.209 34.1461 12.5439C34.3033 12.8789 34.5016 13.3574 34.5768 13.6035C34.6588 13.8496 34.7887 14.3418 34.8639 14.6972C34.9596 15.1621 35.0006 15.5996 35.0006 16.2353C35.0006 16.8779 34.9596 17.3017 34.8571 17.7734C34.7819 18.1289 34.6451 18.6553 34.5494 18.9355C34.4537 19.2158 34.276 19.6601 34.1461 19.9267C34.0162 20.1933 33.7633 20.6377 33.5719 20.9179C33.3873 21.1982 33.1344 21.5469 33.0045 21.6836C32.8199 21.8887 32.7311 21.9365 32.526 21.9433C32.3209 21.9433 32.2389 21.9023 32.1295 21.7519C32.0475 21.6494 31.986 21.5195 31.986 21.4648C31.986 21.4101 32.191 21.082 32.444 20.7471C32.6901 20.4121 33.0319 19.8515 33.1891 19.5166C33.3531 19.1816 33.5035 18.8398 33.524 18.7646C33.5651 18.6347 33.3395 18.5664 26.6949 16.8095L21.6364 21.8613L22.1149 22.2031C22.3815 22.3945 22.8395 22.6748 23.1403 22.8252C23.441 22.9756 23.899 23.1738 24.1656 23.2695C24.4323 23.3584 24.9655 23.4814 25.3619 23.5498C25.902 23.6387 26.2848 23.6592 26.9 23.6318C27.4332 23.6045 27.9459 23.5361 28.3698 23.4267C28.7252 23.3379 29.3336 23.1191 29.7233 22.9414C30.3043 22.6816 30.4479 22.6406 30.5914 22.6953C30.6871 22.7363 30.7897 22.8252 30.8307 22.9004C30.8717 22.9756 30.899 23.1191 30.899 23.2217C30.9059 23.331 30.8512 23.4678 30.7828 23.5293C30.7145 23.5908 30.4274 23.748 30.1471 23.8779C29.8668 24.0078 29.3815 24.1924 29.0739 24.2949C28.7594 24.3906 28.2194 24.5205 27.8776 24.5752C27.5289 24.6299 27.0367 24.6777 26.319 24.6777V29.9756L21.2946 35H4.71741L4.43713 34.8086C4.28674 34.706 4.10901 34.5488 4.04749 34.4531C3.97913 34.3506 3.92444 34.0703 3.86292 33.1885L3.28186 33.1543C2.96057 33.1338 2.63928 33.0791 2.56409 33.0381C2.48889 32.9971 2.35901 32.8877 2.27698 32.7988C2.19495 32.7168 2.07874 32.5254 2.02405 32.3818C1.96252 32.2451 1.91467 31.9306 1.91467 31.2402H1.45666C1.16272 31.2402 0.889282 31.1924 0.718384 31.1172C0.567993 31.0488 0.356079 30.8711 0.03479 30.4678L0.0142822 15.7978C0.00744629 7.73143 0.0142822 1.02537 0.03479 0.902325C0.0552979 0.786114 0.137329 0.587871 0.226196 0.471661C0.315063 0.348614 0.492798 0.198223 0.622681 0.129864C0.848267 0.0068168 1.25159 -1.91317e-05 21.6364 0.00681681ZM1.03967 15.6885L1.06018 30.1806L1.91467 30.2148L1.94885 2.76854C2.17444 2.39939 2.35901 2.21482 2.50256 2.11912L2.76917 1.94822C6.73401 1.90721 6.8092 1.90721 6.99377 2.04393C7.13049 2.1533 7.17834 2.24217 7.17834 2.42674C7.17834 2.57713 7.12366 2.72068 7.04163 2.80272C6.91174 2.9326 6.81604 2.93943 5.01135 2.93943C3.54163 2.9326 3.09045 2.95311 3.02893 3.02147C2.96057 3.08982 2.9469 6.27537 2.96057 17.6025L2.97424 32.0947L3.89709 32.1289C3.89709 5.44139 3.90393 4.63475 4.02014 4.39549C4.08167 4.25877 4.2594 4.06736 4.40295 3.97166L4.67639 3.79393L23.3795 3.75975C23.3795 3.25389 23.3453 3.06932 23.2975 3.02147C23.2291 2.95311 21.7799 2.93943 16.2838 2.93943C9.45471 2.93943 9.36584 2.93943 9.22913 2.80272C9.14709 2.72068 9.09241 2.57713 9.09241 2.42674C9.09241 2.24217 9.14026 2.1533 9.27698 2.05076C9.46838 1.91404 9.53674 1.90721 15.4635 1.91404H21.4655C21.4655 1.43553 21.4313 1.23729 21.3971 1.16209C21.3287 1.02537 21.2604 1.02537 11.2115 1.02537C3.17932 1.02537 1.08752 1.04588 1.06018 1.1074C1.03967 1.15525 1.03284 7.71775 1.03967 15.6885ZM4.93616 19.4482L4.95667 33.9404L20.5768 33.9746C20.5768 30.625 20.5973 30.0918 20.6656 29.9209C20.7203 29.8047 20.8571 29.6201 20.9733 29.5107C21.0963 29.4082 21.3082 29.2988 21.4449 29.2578C21.5885 29.2236 22.5114 29.1894 23.4957 29.1894H25.2936V24.6094C25.0543 24.5615 24.7672 24.4931 24.5074 24.4385C24.2408 24.3769 23.7692 24.2265 23.4479 24.0967C23.1266 23.9736 22.6686 23.7549 22.4225 23.6181C22.1764 23.4814 21.7799 23.2217 21.5338 23.0508C21.2877 22.873 20.8434 22.4834 20.5426 22.1826C20.2418 21.8818 19.7906 21.3281 19.5377 20.9521C19.2848 20.5762 18.984 20.0498 18.8678 19.79C18.7516 19.5234 18.5807 19.0791 18.4918 18.7988C18.403 18.5185 18.2731 18.0058 18.2115 17.6709C18.1227 17.1924 18.109 16.8027 18.1364 15.9277C18.1637 15.0049 18.1979 14.6836 18.3414 14.1504C18.4371 13.7949 18.6149 13.2685 18.7311 12.9883C18.8473 12.708 19.0797 12.2431 19.2438 11.9629C19.4078 11.6826 19.7565 11.1904 20.0094 10.876C20.2623 10.5547 20.6725 10.124 20.9186 9.91209C21.1647 9.70701 21.5612 9.39939 21.8073 9.2285C22.0533 9.06443 22.5114 8.79783 22.8326 8.64061C23.1539 8.48338 23.6598 8.2783 23.9606 8.1826C24.2614 8.08689 24.6305 7.99119 24.7809 7.96385C24.9313 7.9365 25.109 7.90232 25.1705 7.88865C25.2867 7.86131 25.2936 7.73826 25.2731 6.33689L25.2594 4.81932C7.04846 4.78514 4.98401 4.79881 4.95667 4.86717C4.93616 4.91502 4.92932 11.4775 4.93616 19.4482ZM24.3707 9.12596C24.1451 9.19432 23.7281 9.35838 23.4479 9.48143C23.1676 9.61131 22.6891 9.87791 22.3883 10.0762C22.0875 10.2812 21.6432 10.6367 21.3903 10.876C21.1442 11.1152 20.7955 11.5117 20.611 11.7578C20.4264 12.0039 20.1461 12.4482 19.9821 12.749C19.8248 13.0498 19.6129 13.5283 19.5172 13.8086C19.4215 14.0888 19.2985 14.5674 19.2438 14.8681C19.1823 15.1689 19.1412 15.7842 19.1412 16.2353C19.1412 16.707 19.1891 17.3017 19.2506 17.6367C19.3121 17.958 19.4352 18.4297 19.5309 18.6963C19.6266 18.956 19.8248 19.4072 19.9684 19.6875C20.1188 19.9678 20.3922 20.4121 20.5836 20.6787L20.9323 21.1572L26.1071 15.9619L29.1149 9.26268C28.5133 9.07127 28.0758 8.97557 27.7545 8.92088C27.4332 8.85935 26.8522 8.81834 26.4557 8.82518C26.0592 8.82518 25.5192 8.86619 25.2594 8.91404C24.9928 8.96189 24.5963 9.0576 24.3707 9.12596ZM27.2897 15.8867C27.3033 15.9004 28.7731 16.2969 30.5573 16.7685C32.3414 17.2402 33.818 17.6094 33.8385 17.5888C33.859 17.5683 33.9 17.2607 33.9342 16.8916C33.9752 16.4541 33.9752 15.9961 33.9205 15.5176C33.8795 15.1211 33.7633 14.5195 33.6676 14.1846C33.5719 13.8428 33.36 13.289 33.1959 12.9541C33.0319 12.6123 32.7106 12.0928 32.485 11.792C32.2594 11.4912 31.8698 11.0469 31.61 10.8076C31.3502 10.5615 30.9059 10.2129 30.6256 10.0351C30.3453 9.85057 30.0924 9.70018 30.0719 9.70701C30.0514 9.70701 29.4088 11.0879 28.6569 12.7832C27.8981 14.4717 27.2828 15.873 27.2897 15.8867ZM21.5885 31.7597L21.6022 33.2226C23.8033 30.9873 24.4459 30.3105 24.4528 30.2763C24.4664 30.2422 23.8854 30.2148 23.1198 30.2217C22.3815 30.2217 21.7252 30.2422 21.6705 30.2627C21.5885 30.29 21.5748 30.5293 21.5885 31.7597ZM8.07385 8.47654H13.3375C18.5055 8.47654 18.5944 8.47654 18.7311 8.61326C18.8063 8.68846 18.8678 8.83201 18.8678 8.93455C18.8746 9.04393 18.8131 9.20115 18.608 9.46775L13.5221 9.48826C10.316 9.50193 8.35413 9.48143 8.20374 9.44041C8.05334 9.39939 7.9303 9.30369 7.87561 9.20115C7.83459 9.10545 7.79358 8.9824 7.78674 8.92772C7.77991 8.87986 7.84827 8.75682 7.9303 8.65428L8.07385 8.47654ZM8.07385 12.2363H12.1686C16.1744 12.2363 16.2701 12.2431 16.4 12.373C16.4752 12.4482 16.5367 12.5986 16.5436 12.7012C16.5436 12.8037 16.4821 12.9678 16.277 13.2275L12.2916 13.248C9.73499 13.2617 8.23792 13.2412 8.12854 13.2002C8.03967 13.1592 7.92346 13.0498 7.87561 12.9609C7.82776 12.8652 7.78674 12.7422 7.77991 12.6943C7.77991 12.6396 7.84143 12.5166 7.92346 12.4209L8.07385 12.2363ZM8.07385 15.9961H15.1764L15.3131 16.1465C15.3883 16.2353 15.4498 16.3789 15.4498 16.4746C15.4498 16.5635 15.3951 16.7207 15.1832 16.9873L11.7448 17.001C9.55725 17.0146 8.24475 17.001 8.13538 16.9531C8.03967 16.9189 7.92346 16.8096 7.87561 16.7138C7.82776 16.6181 7.78674 16.5019 7.78674 16.4472C7.77991 16.3994 7.84143 16.2763 7.92346 16.1738L8.07385 15.9961ZM13.0573 21.7383C14.527 21.7383 14.5612 21.7451 14.6979 21.8955C14.8209 22.0322 14.8346 22.1347 14.8346 24.0625H17.1588L17.2955 24.2539C17.4323 24.4316 17.4391 24.5273 17.4323 29.4971L17.7194 29.5449C17.9039 29.5722 18.0612 29.6474 18.1364 29.75C18.2047 29.8389 18.2594 29.9892 18.2526 30.0986C18.2526 30.2012 18.191 30.3447 18.1158 30.4199C17.9791 30.5566 17.8903 30.5566 13.0573 30.5566C8.22424 30.5566 8.13538 30.5566 7.99866 30.4199C7.91663 30.3379 7.86194 30.1875 7.86194 30.0644C7.8551 29.9346 7.90979 29.7842 7.97815 29.7158C8.04651 29.6543 8.23108 29.5722 8.68225 29.4971V27.6172C8.67542 25.833 8.68225 25.7304 8.95569 25.3613H11.2799V23.6865C11.2799 22.1006 11.2867 22.0049 11.4166 21.875C11.5465 21.7451 11.6422 21.7383 13.0573 21.7383ZM12.3053 29.5312H13.8092V22.7637H12.3053V29.5312ZM14.8346 29.5312H16.4069V25.0879H14.8346V29.5312ZM9.70764 29.5312H11.2799V26.3867H9.70764V29.5312Z" fill="#FFCB09"/>
</g>
<defs>
<clipPath id="clip0_1922_23506">
<rect width="35" height="35" fill="white"/>
</clipPath>
</defs>
</svg>
