<svg width="35" height="35" viewBox="0 0 35 35" fill="none" xmlns="http://www.w3.org/2000/svg">
<path fill-rule="evenodd" clip-rule="evenodd" d="M9.33105 0.0136651C9.86426 0.0341729 10.0146 0.0615166 10.3906 0.246087C10.6367 0.369134 10.9854 0.615228 11.1699 0.792962C11.3545 0.977532 11.5938 1.31249 11.7031 1.53808C11.8057 1.76367 11.8945 2.00292 11.8945 2.07128C11.8945 2.18066 12.1338 2.18749 15.8936 2.18749C19.5645 2.18749 19.9131 2.19433 20.1455 2.31054C20.2822 2.37206 20.4531 2.49511 20.6445 2.73437H24.0967C26.79 2.73437 27.5967 2.75488 27.7744 2.82324C27.8906 2.87109 28.0889 3.03515 28.1982 3.1787C28.3965 3.43163 28.4033 3.47265 28.4375 4.92187H29.0869C29.5654 4.92187 29.8047 4.95605 29.9893 5.03808C30.126 5.10644 30.3311 5.28417 30.6318 5.708L30.625 19.9131C30.625 31.541 30.6113 34.1523 30.5361 34.3301C30.4814 34.4531 30.3242 34.6582 29.9072 35H7.79297L7.49902 34.7061C7.31445 34.5283 7.18457 34.3301 7.15723 34.1797C7.12988 34.0498 7.10938 33.6875 7.10938 32.8125L6.36426 32.792C5.74219 32.7783 5.58496 32.7578 5.42773 32.6416C5.33203 32.5664 5.18164 32.416 4.95605 32.1221L4.93555 25.2519C4.92187 18.792 4.91504 18.3818 4.79883 18.3271C4.7373 18.2998 4.61426 18.1562 4.375 17.7734L4.38867 10.3291C4.40918 3.00097 4.40918 2.87792 4.5459 2.69335C4.62109 2.59765 4.77148 2.44726 4.87402 2.36523C5.04492 2.24218 5.1748 2.22167 6.63086 2.18749L6.67188 1.99609C6.69922 1.89355 6.78809 1.66796 6.87695 1.48339C6.96582 1.30566 7.1709 1.01855 7.33496 0.847649C7.51953 0.642571 7.82031 0.437493 8.16895 0.266595C8.70215 -6.80657e-06 8.73633 -0.00684275 9.33105 0.0136651ZM8.20312 1.4287C8.07324 1.53124 7.88867 1.7705 7.79297 1.95507L7.62207 2.2832C7.62207 8.57226 7.62891 8.65429 7.76562 8.92089C7.84766 9.07128 8.0459 9.31054 8.20996 9.44726C8.37402 9.59081 8.63379 9.74121 8.78418 9.78222C8.93457 9.82324 9.22852 9.84374 9.44043 9.83691C9.70703 9.8164 9.91211 9.75488 10.1514 9.60449C10.3633 9.4746 10.5615 9.27636 10.6914 9.06445L10.9033 8.72948C10.9375 5.82421 10.9307 5.73534 10.8008 5.60546C10.7256 5.53027 10.582 5.44824 10.4727 5.42773C10.3633 5.40038 10.2197 5.42089 10.1172 5.47558C10.0215 5.53027 9.90527 5.65331 9.86426 5.74218C9.80957 5.84472 9.77539 6.18652 9.77539 6.59667C9.78223 7.21874 9.76172 7.29394 9.625 7.43066C9.53613 7.51952 9.39258 7.58788 9.29688 7.58788C9.20117 7.59472 9.05078 7.5332 8.95508 7.458C8.79102 7.32812 8.78418 7.30077 8.78418 6.44628C8.78418 5.72167 8.80469 5.53027 8.91406 5.33202C8.98242 5.20214 9.11914 5.0039 9.22168 4.90136C9.31738 4.79199 9.51562 4.64843 9.65918 4.57324C9.7959 4.50488 10.042 4.42284 10.2061 4.40234C10.3633 4.38183 10.6162 4.3955 10.7666 4.42968C10.917 4.4707 11.1699 4.60058 11.334 4.71679C11.5186 4.84667 11.6826 5.04491 11.792 5.27734C11.9561 5.63281 11.9629 5.68066 11.9629 7.15722C11.9629 8.51757 11.9492 8.72265 11.8262 9.07128C11.7441 9.29003 11.5801 9.60449 11.457 9.77538C11.334 9.94628 11.0879 10.1992 10.8965 10.3359C10.7119 10.4795 10.3633 10.6641 10.1172 10.7393C9.76172 10.8555 9.56348 10.8828 9.12598 10.8555C8.72266 10.835 8.47656 10.7803 8.18262 10.6435C7.9707 10.541 7.62891 10.3086 7.4375 10.124C7.23926 9.93945 6.99316 9.62499 6.89063 9.42675C6.78809 9.22167 6.67188 8.88671 6.63086 8.68163C6.58984 8.46972 6.5625 7.21191 6.5625 5.75585V3.21288H5.40039L5.43457 17.5342H19.7217V3.24706C9.3584 3.1787 9.02344 3.17187 8.90723 3.05566C8.83203 2.9873 8.78418 2.83691 8.78418 2.69335C8.78418 2.51562 8.83203 2.41308 8.95508 2.31738C9.10547 2.20117 9.23535 2.18066 9.99414 2.18749C10.4795 2.18749 10.8691 2.16699 10.8691 2.13281C10.8691 2.10546 10.7803 1.95507 10.6641 1.79101C10.5547 1.63378 10.3564 1.4287 10.2334 1.33984C10.1172 1.25097 9.90527 1.14843 9.77539 1.10058C9.64551 1.05956 9.41309 1.02538 9.2627 1.02538C9.1123 1.03222 8.86621 1.07324 8.71582 1.12792C8.56543 1.18261 8.33301 1.31933 8.20312 1.4287ZM20.7812 10.6094C20.7812 14.6973 20.7539 17.5752 20.7129 17.7393C20.6787 17.8896 20.5488 18.1084 20.4258 18.2383C20.2754 18.3887 20.0977 18.4844 19.8926 18.5254C19.7217 18.5596 16.543 18.5869 12.7627 18.5937H5.94727V31.7871H22.4902C22.4834 27.6035 22.4902 27.583 22.6406 27.3437C22.7295 27.2139 22.9072 27.0498 23.0371 26.9883C23.249 26.8789 23.5088 26.8652 25.3408 26.8652H27.4121V8.54492C27.6719 8.27831 27.7949 8.20312 27.8564 8.20312C27.9111 8.20312 28.0342 8.24413 28.1299 8.28515C28.2256 8.333 28.3281 8.44238 28.3691 8.52441C28.417 8.62695 28.4375 11.8603 28.4375 17.8555C28.4375 26.0791 28.4307 27.0771 28.3281 27.4121C28.2256 27.7676 28.1094 27.8975 25.9219 30.0986C24.6504 31.3701 23.4814 32.498 23.3105 32.5937L23.0029 32.7783L8.13477 32.8125V33.9746H29.5996V5.94726H28.4375C28.4375 6.63085 28.4102 6.73339 28.2666 6.87011C28.1709 6.97265 28.0205 7.04101 27.9111 7.04101C27.8018 7.04101 27.6582 6.97949 27.5693 6.89062C27.4189 6.74023 27.4121 6.69238 27.4121 5.24316V3.75976H20.7812V10.6094ZM23.5156 31.001C25.9014 28.6152 26.5918 27.9111 26.5918 27.9043C26.5918 27.8975 25.9014 27.8838 25.0537 27.8838H23.5156V31.001ZM15.5723 7.10937C16.96 7.10937 17.0693 7.1162 17.2471 7.24609C17.3906 7.35546 17.4316 7.44433 17.4316 7.62206C17.4316 7.77245 17.3838 7.91601 17.2949 7.99804C17.165 8.12792 17.0693 8.14159 15.6064 8.14159C14.2119 8.14159 14.0342 8.12792 13.8838 8.01855C13.7744 7.93652 13.7197 7.82714 13.7197 7.66308C13.7129 7.49218 13.7607 7.38964 13.9043 7.27343C14.0889 7.1162 14.123 7.10937 15.5723 7.10937ZM24.042 7.10937C24.418 7.10937 24.7529 7.15038 24.8486 7.19824C24.9443 7.24609 25.0537 7.3623 25.0947 7.45116C25.1426 7.57421 25.1426 7.68359 25.0947 7.81347C25.0537 7.91601 24.958 8.03222 24.8828 8.0664C24.8076 8.10742 24.4248 8.13476 24.0283 8.13476C23.4062 8.13476 23.2969 8.12109 23.1738 7.99804C23.0986 7.92284 23.0371 7.76562 23.0303 7.6289C23.0303 7.45116 23.0713 7.3623 23.2148 7.25292C23.3721 7.13671 23.502 7.10937 24.042 7.10937ZM15.5723 9.84374C16.96 9.84374 17.0693 9.85058 17.2471 9.98046C17.3906 10.0898 17.4316 10.1787 17.4316 10.3564C17.4316 10.5068 17.3838 10.6504 17.2949 10.7324C17.165 10.8623 17.0693 10.876 15.6064 10.876C14.2119 10.876 14.0342 10.8623 13.8838 10.7529C13.7744 10.6709 13.7197 10.5615 13.7197 10.3975C13.7129 10.2266 13.7607 10.124 13.9043 10.0078C14.0889 9.85058 14.123 9.84374 15.5723 9.84374ZM24.0762 9.84374C24.7324 9.84374 24.7529 9.85058 24.9512 10.0488C25.1152 10.2129 25.1494 10.3018 25.1221 10.4453C25.1016 10.5478 25.0195 10.6914 24.9307 10.7529C24.8076 10.8555 24.6572 10.876 24.0488 10.876C23.4062 10.876 23.2969 10.8555 23.1738 10.7324C23.0986 10.6572 23.0371 10.5 23.0303 10.3633C23.0303 10.1855 23.0713 10.0967 23.2148 9.9873C23.3721 9.87109 23.502 9.84374 24.0762 9.84374ZM8.05957 12.5781L12.6055 12.5986C17.0352 12.6123 17.1514 12.6191 17.2949 12.749C17.3838 12.8379 17.4385 12.9678 17.4385 13.1113C17.4316 13.2412 17.377 13.3916 17.2949 13.4668C17.165 13.6035 17.0693 13.6035 7.92969 13.6035L7.79297 13.4189C7.71777 13.3164 7.65625 13.1728 7.66309 13.1045C7.66309 13.0361 7.75879 12.8926 7.86816 12.7832L8.05957 12.5781ZM24.1514 12.5986C24.7871 12.6123 24.835 12.6191 24.9922 12.7969C25.0811 12.9062 25.1562 13.043 25.1562 13.1045C25.1562 13.1728 25.0947 13.3096 25.0195 13.4121C24.8828 13.6035 24.8691 13.6035 24.0967 13.6035C23.3994 13.6035 23.29 13.5898 23.1738 13.4668C23.0986 13.3916 23.0371 13.2549 23.0371 13.1592C23.0371 13.0635 23.0713 12.9268 23.1191 12.8447C23.1602 12.7695 23.2627 12.6807 23.3379 12.6465C23.4131 12.6055 23.7822 12.585 24.1514 12.5986ZM24.1855 15.333C24.7871 15.3467 24.835 15.3535 24.9922 15.5312C25.0811 15.6406 25.1562 15.7773 25.1562 15.8389C25.1562 15.9072 25.0947 16.0439 25.0195 16.1465C24.8828 16.3379 24.8691 16.3379 24.0967 16.3379C23.3994 16.3379 23.29 16.3242 23.1738 16.2012C23.0986 16.126 23.0371 15.9824 23.0371 15.873C23.0371 15.7705 23.085 15.6201 23.1396 15.5381C23.2012 15.456 23.3174 15.374 23.3994 15.3603C23.4814 15.3398 23.8369 15.3262 24.1855 15.333ZM9.2627 20.3027C9.95312 20.3027 10.0625 20.3164 10.1855 20.4394C10.2607 20.5146 10.3223 20.6582 10.3223 20.7607C10.3223 20.8701 10.2676 21.0273 10.1924 21.123C10.0625 21.2871 10.0283 21.2939 9.29688 21.2939C8.54492 21.2939 8.52441 21.2871 8.36719 21.1025C8.27148 21 8.19629 20.8633 8.19629 20.7881C8.18945 20.7197 8.25098 20.583 8.33301 20.4805C8.47656 20.3096 8.50391 20.3027 9.2627 20.3027ZM12.3252 20.3027H24.8828L25.0195 20.4873C25.0947 20.5967 25.1562 20.7334 25.1562 20.7949C25.1562 20.8633 25.0811 21 24.8213 21.2939H12.373L12.2158 21.1367C12.127 21.0478 12.0654 20.8975 12.0654 20.7881C12.0654 20.6787 12.1201 20.5283 12.1953 20.4463L12.3252 20.3027ZM9.2627 23.0371C9.95312 23.0371 10.0625 23.0508 10.1855 23.1738C10.2607 23.249 10.3223 23.3926 10.3223 23.4951C10.3223 23.6045 10.2676 23.7617 10.1924 23.8574C10.0693 24.0215 10.0146 24.0283 9.33789 24.042C8.61328 24.0625 8.61328 24.0625 8.4082 23.8574C8.29199 23.7412 8.19629 23.5977 8.19629 23.5225C8.18945 23.4541 8.25098 23.3174 8.33301 23.2148C8.47656 23.0439 8.50391 23.0371 9.2627 23.0371ZM18.5869 23.0371C24.5068 23.0303 24.8555 23.0371 24.958 23.1533C25.0264 23.2217 25.0947 23.3584 25.1152 23.4609C25.1426 23.6113 25.1084 23.7002 24.7529 24.0625H12.4414L12.2363 23.8574C12.0723 23.6934 12.0381 23.6113 12.0654 23.4609C12.0928 23.3584 12.1543 23.2217 12.2158 23.1533C12.3184 23.0439 12.708 23.0371 18.5869 23.0371ZM9.29004 25.7715C9.95312 25.7715 10.0625 25.7852 10.1855 25.9082C10.2607 25.9834 10.3223 26.1338 10.3223 26.25C10.3223 26.373 10.2539 26.5234 10.1514 26.626C9.99414 26.7832 9.93945 26.7969 9.33105 26.7969C8.94824 26.7969 8.60645 26.7627 8.51074 26.708C8.41504 26.667 8.30566 26.5576 8.27148 26.4687C8.23047 26.3867 8.20312 26.2705 8.20312 26.2158C8.20312 26.1543 8.27832 26.0312 8.37402 25.9424C8.52441 25.7783 8.5791 25.7715 9.29004 25.7715ZM16.3926 25.7715C20.1455 25.7646 20.4121 25.7715 20.5625 25.8877C20.6855 25.9766 20.7266 26.0791 20.7266 26.25C20.7266 26.4209 20.6787 26.5303 20.3711 26.7969H12.4414L12.2363 26.5918C12.0723 26.4346 12.0381 26.3457 12.0654 26.1953C12.0859 26.0928 12.168 25.956 12.2432 25.8877C12.3799 25.7783 12.6807 25.7715 16.3926 25.7715Z" fill="#FFCB09"/>
</svg>
