<svg width="35" height="33" viewBox="0 0 35 33" fill="none" xmlns="http://www.w3.org/2000/svg">
<path fill-rule="evenodd" clip-rule="evenodd" d="M10.9717 0.449219L31.8213 0.435547L32.3682 0.592773C32.6689 0.681641 33.0723 0.845703 33.2568 0.948242C33.4482 1.05762 33.7764 1.32422 33.9951 1.54297C34.207 1.76172 34.4736 2.11719 34.583 2.33594C34.6924 2.54785 34.8291 2.91016 34.8906 3.13574C34.9863 3.49805 35 4.3457 35 10.1768C35 16.4316 34.9863 16.8281 34.8701 17.1836C34.8018 17.3887 34.665 17.7236 34.5625 17.9219C34.4668 18.1133 34.2002 18.4619 33.9746 18.6875C33.749 18.9131 33.3867 19.1865 33.168 19.2959C32.9561 19.4053 32.6074 19.542 32.4023 19.6035C32.1904 19.665 31.7871 19.7129 30.8984 19.7129V25.7969L30.7275 25.9678C30.625 26.0771 30.4883 26.1387 30.3516 26.1387C30.2217 26.1387 30.0645 26.0703 29.9209 25.9404C29.8047 25.8311 29.0732 25.0518 28.3008 24.2041C27.5283 23.3564 26.8789 22.6729 26.8447 22.6934C26.8174 22.707 26.7969 22.8301 26.7969 22.96C26.7969 23.0898 26.749 23.377 26.6875 23.5957C26.626 23.8076 26.4893 24.1426 26.3799 24.3271C26.2773 24.5186 26.0107 24.8467 25.792 25.0723C25.5732 25.291 25.2383 25.5508 25.0537 25.6465C24.8623 25.749 24.541 25.8857 24.3359 25.9609C23.9736 26.0908 23.7344 26.0977 13.6719 26.1387L11.0264 29.0645C9.57031 30.6709 8.25098 32.1133 8.08691 32.2773C7.83398 32.5234 7.75879 32.5645 7.54004 32.5508C7.3623 32.5371 7.25293 32.4756 7.15039 32.3389C7.01367 32.1475 7.00684 32.0723 6.97266 26.1387H5.01074C3.43848 26.1387 2.95996 26.1113 2.63184 26.0293C2.40625 25.9678 2.05078 25.8379 1.8457 25.7285C1.64062 25.626 1.28516 25.3594 1.05957 25.1338C0.833984 24.9082 0.553711 24.5459 0.4375 24.3203C0.314453 24.1016 0.170898 23.7188 0.109375 23.4727C0.0136719 23.083 0 22.2559 0 9.7666L0.157227 9.35645C0.239258 9.13086 0.375977 8.82324 0.458008 8.67285C0.533203 8.52246 0.724609 8.2627 0.868164 8.0918C1.01855 7.9209 1.33301 7.6543 1.5791 7.49023C1.81836 7.32617 2.21484 7.12793 2.46094 7.05273C2.87109 6.91602 3.08984 6.90234 8.10059 6.84766L8.1416 5.09766C8.17578 3.58008 8.20312 3.2793 8.32617 2.89648C8.4082 2.65039 8.58594 2.26758 8.73633 2.04199C8.87988 1.81641 9.15332 1.49512 9.33789 1.33105C9.52246 1.17383 9.7959 0.975586 9.94629 0.893555C10.0967 0.818359 10.3906 0.688477 10.5957 0.599609L10.9717 0.449219ZM10.541 1.89844C10.3633 1.9873 10.0898 2.21289 9.92578 2.39746C9.76172 2.5752 9.57031 2.88965 9.49512 3.08789C9.37891 3.40918 9.36523 3.62793 9.36523 5.15234V6.86133C22.8115 6.86133 23.8096 6.875 24.165 6.9707C24.3906 7.02539 24.7461 7.15527 24.9512 7.25781C25.1562 7.36035 25.5322 7.64062 25.7783 7.88672C26.0244 8.13281 26.2979 8.47461 26.3867 8.63867C26.4756 8.80957 26.6055 9.11719 26.6875 9.32227C26.8242 9.69141 26.8242 9.84863 26.8652 15.3105L26.8994 20.9229L29.7021 24.0059C29.7705 18.9062 29.7705 18.8994 29.9277 18.7422C30.0713 18.5986 30.1533 18.585 31.0898 18.5508C31.9785 18.5234 32.1357 18.4961 32.4707 18.3457C32.6758 18.25 32.9834 18.0312 33.1543 17.8672C33.3184 17.6963 33.5303 17.3955 33.6328 17.1836L33.8037 16.8076C33.8311 6.08887 33.8174 3.70312 33.7695 3.47754C33.7354 3.29297 33.5986 2.97168 33.4824 2.7666C33.3525 2.55469 33.1064 2.28125 32.915 2.13086C32.7236 1.99414 32.4365 1.83008 32.2656 1.76855C31.999 1.67969 30.6523 1.66602 21.6699 1.63184C15.0391 1.61133 11.293 1.625 11.1221 1.67285C10.9854 1.70703 10.7256 1.80957 10.5479 1.89844H10.541ZM2.4541 8.31055C2.24902 8.41309 1.95508 8.625 1.81152 8.78906C1.66113 8.95312 1.46289 9.25391 1.36719 9.45898L1.18945 9.83496V23.2334C1.46289 23.8213 1.68164 24.1289 1.8457 24.293C2.00977 24.457 2.31738 24.6758 2.52246 24.7715C2.89844 24.9424 2.90527 24.9424 5.3252 24.9766C6.91797 25.0039 7.7998 25.0381 7.88867 25.0928C7.96387 25.1338 8.0459 25.2158 8.08008 25.2773C8.10742 25.3389 8.12793 26.5146 8.12793 27.8818C8.12793 29.2559 8.14844 30.3838 8.18262 30.3838C8.20996 30.3838 9.26953 29.2354 10.541 27.834C11.8125 26.4326 12.9541 25.2158 13.0703 25.1338L13.2891 24.9766C20.0703 24.9697 22.4834 24.9492 23.0303 24.915C23.9121 24.874 24.0625 24.8467 24.3838 24.6826C24.5752 24.5801 24.8555 24.3818 24.999 24.2383C25.1357 24.0947 25.3271 23.8213 25.4229 23.6367L25.5938 23.3018L25.6279 9.86914C25.3955 9.26074 25.2178 8.9668 25.0879 8.82324C24.9512 8.67285 24.7188 8.47461 24.5684 8.37891C24.418 8.29004 24.1445 8.16699 23.9531 8.11914C23.6797 8.04394 21.9023 8.03027 14.6221 8.04395C9.67969 8.05078 5.00391 8.07129 4.23145 8.0918C2.8916 8.12598 2.81641 8.13965 2.4541 8.31055ZM9.61816 12.6787C12.7285 12.6787 13.4941 12.6924 13.6514 12.7676C13.7539 12.8223 13.877 12.9521 13.9248 13.0615C13.9932 13.2119 13.9932 13.3008 13.9385 13.458C13.8906 13.5742 13.8086 13.7041 13.7471 13.752C13.6582 13.8135 12.6602 13.834 5.59863 13.834L5.42773 13.6631C5.33203 13.5674 5.25684 13.417 5.25684 13.3076C5.25684 13.2051 5.30469 13.0479 5.36621 12.959C5.42773 12.8701 5.54395 12.7744 5.62598 12.7402C5.70117 12.7129 7.49902 12.6787 9.61816 12.6787ZM13.3574 16.1719C18.1562 16.165 20.9727 16.1855 21.1367 16.2334C21.335 16.2812 21.4102 16.3496 21.4922 16.5342C21.5811 16.7529 21.5811 16.8008 21.4922 17.0127C21.4102 17.2041 21.335 17.2725 21.1367 17.3203C20.9658 17.3682 18.1494 17.3887 5.58496 17.3545L5.4209 17.1699C5.33203 17.0674 5.25684 16.8965 5.25684 16.7939C5.25 16.6914 5.31836 16.5205 5.39355 16.4248C5.46875 16.3223 5.60547 16.2266 5.6875 16.2129C5.76953 16.1924 9.22168 16.1787 13.3574 16.1719ZM5.5918 19.7129H21.2188L21.3623 19.8701C21.4443 19.9521 21.5264 20.0752 21.5537 20.1436C21.5742 20.2119 21.5469 20.3691 21.4922 20.499C21.4102 20.6836 21.3281 20.7588 21.1367 20.8135C20.959 20.8613 18.4092 20.875 5.58496 20.8408L5.4209 20.6562C5.3252 20.54 5.25684 20.3828 5.25684 20.2598C5.26367 20.1367 5.33203 19.9863 5.42773 19.8838L5.5918 19.7129Z" fill="#FFCB09"/>
</svg>
