<svg width="70" height="70" viewBox="0 0 70 70" fill="none" xmlns="http://www.w3.org/2000/svg">
<g id="ava">
<g clip-path="url(#clip0_1978_38329)">
<rect width="70" height="70" rx="10" fill="#E7EDF9"/>
<g id="Group">
<g id="Group_2">
<g id="Group_3">
<path id="Vector" d="M35.019 53.3083C30.9735 53.3083 27.3031 51.5884 24.595 48.8086C24.5929 50.4745 24.5318 52.879 24.0859 54.6335C24.3784 54.8106 24.6054 55.1014 24.6497 55.4631C25.2276 60.1223 29.685 63.6354 35.019 63.6354C40.3518 63.6354 44.8092 60.1219 45.3883 55.4631C45.4331 55.1009 45.6552 54.8106 45.9521 54.6341C45.5062 52.8795 45.445 50.4747 45.443 48.8086C42.7349 51.5884 39.0645 53.3083 35.019 53.3083Z" fill="white"/>
</g>
</g>
<g id="Group_4">
<g id="Group_5">
<path id="Vector_2" d="M45.2167 49.0203C42.5313 51.6705 38.9565 53.3083 35.019 53.3083C30.9735 53.3083 27.3031 51.5884 24.595 48.8086C24.5929 50.4745 24.5318 52.879 24.0859 54.6335C24.3784 54.8106 24.6054 55.1014 24.6497 55.4631C24.9052 57.5226 25.9205 59.3564 27.4326 60.7634C34.406 59.7907 42.3208 52.9687 45.2167 49.0203Z" fill="#F9F9F9"/>
</g>
</g>
<g id="Group_6">
<g id="Group_7">
<path id="Vector_3" d="M45.4564 24.6211H25.7674C22.5745 24.6211 19.9766 27.195 19.9766 30.3584V37.2431C19.9766 46.1011 26.731 53.3074 35.0328 53.3074C43.3346 53.3074 50.0891 46.1011 50.0891 37.2431V29.2109C50.0891 26.6802 48.0113 24.6211 45.4564 24.6211Z" fill="white"/>
</g>
</g>
<g id="Group_8">
<g id="Group_9">
<path id="Vector_4" d="M43.138 12H28.0817C25.9034 12 24.0723 13.4971 23.5791 15.5068C19.5922 16.0089 16.5 19.3907 16.5 23.4745V29.2118C16.5 32.1689 17.767 34.9277 19.9745 36.8882V30.3592C19.9745 27.1958 22.5725 24.622 25.7654 24.622H45.4544C48.0093 24.622 50.0871 26.6809 50.0871 29.2118V36.8869C52.295 34.9267 53.5616 32.1682 53.5616 29.2118V22.3271C53.5616 16.633 48.8859 12 43.138 12Z" fill="#ACACAC"/>
</g>
</g>
<g id="Group_10">
<g id="Vector_5">
<path d="M9.21383 59.1133C15.5737 66.1092 24.7853 70.5098 35.0365 70.5098C45.2876 70.5098 54.4993 66.1092 60.8591 59.1133C59.7502 57.628 58.1864 56.4211 56.1755 55.8633C56.1292 55.8504 56.0827 55.8404 56.0352 55.8336L46.7902 54.4593C46.7336 54.4508 46.6126 54.4464 46.555 54.4464C45.9702 54.4464 45.4771 54.8784 45.4058 55.4537C44.8267 60.1123 40.3693 63.626 35.0365 63.626C29.7025 63.626 25.2451 60.1131 24.6672 55.4537C24.5948 54.8615 24.0564 54.4161 23.4886 54.4468C23.4207 54.4429 23.354 54.4485 23.2828 54.4591L14.0378 55.8335C13.9903 55.8402 13.944 55.8503 13.8975 55.8632C11.8866 56.4213 10.3228 57.628 9.21383 59.1133Z" fill="#ACACAC"/>
<path d="M60.8591 59.1133C54.4993 66.1092 45.2876 70.5098 35.0365 70.5098H69.7816L60.8591 59.1133Z" fill="#ACACAC"/>
<path d="M35.0365 70.5098C24.7853 70.5098 15.5737 66.1092 9.21383 59.1133L0.21875 70.5098H35.0365Z" fill="#ACACAC"/>
</g>
</g>
</g>
</g>
<rect x="0.5" y="0.5" width="69" height="69" rx="9.5" stroke="#E3E3E3" stroke-opacity="0.5"/>
</g>
<defs>
<clipPath id="clip0_1978_38329">
<rect width="70" height="70" rx="10" fill="white"/>
</clipPath>
</defs>
</svg>
